<?xml version="1.0" encoding="utf-8"?>
<!-- Generator: Adobe Illustrator 27.2.0, SVG Export Plug-In . SVG Version: 6.00 Build 0)  -->
<svg version="1.1" id="Camada_2_00000014593022958996870860000007207127150024386719_"
	 xmlns="http://www.w3.org/2000/svg" xmlns:xlink="http://www.w3.org/1999/xlink" x="0px" y="0px" viewBox="0 0 214 23.1"
	 style="enable-background:new 0 0 214 23.1;" xml:space="preserve">
<style type="text/css">
	.st0{enable-background:new    ;}
	.st1{fill:#FFFFFF;}
</style>
<g id="ELEMENTOS">
	<g>
		<g class="st0">
			<path class="st1" d="M1,14.5V4.5h1.4v9.9H1z M2.3,14.5v-1.3h1.1c1,0,1.8-0.3,2.3-0.9c0.5-0.6,0.8-1.5,0.8-2.6
				c0-1.3-0.3-2.2-0.8-2.8C5.2,6.2,4.4,5.9,3.4,5.9H2.3L2.1,4.5h1.2c3,0,4.6,1.7,4.6,5.1c0,3.2-1.5,4.8-4.6,4.8H2.3z"/>
			<path class="st1" d="M13.3,14.6c-1.3,0-2.2-0.3-2.9-1s-1-1.6-1-2.9c0-1.2,0.3-2.2,0.9-2.8s1.4-1,2.5-1c1,0,1.8,0.3,2.3,0.9
				c0.5,0.6,0.8,1.5,0.8,2.6c0,0.3,0,0.7,0,1h-5.2v-1.1h3.9c0-0.7-0.2-1.2-0.5-1.5c-0.3-0.4-0.8-0.5-1.3-0.5c-0.6,0-1.1,0.2-1.5,0.6
				c-0.3,0.4-0.5,1-0.5,1.8c0,0.9,0.2,1.5,0.7,2c0.5,0.4,1.2,0.7,2,0.7c0.3,0,0.6,0,0.9-0.1s0.6-0.1,0.9-0.1l0.2,1.3
				c-0.4,0.1-0.8,0.1-1.2,0.2C13.9,14.6,13.6,14.6,13.3,14.6z"/>
			<path class="st1" d="M20.4,14.6c-0.6,0-1,0-1.4,0c-0.4,0-0.8-0.1-1.1-0.2l0.2-1.3c0.5,0.1,0.9,0.1,1.3,0.2c0.4,0,0.7,0.1,1.1,0.1
				c0.8,0,1.3-0.1,1.6-0.2c0.3-0.1,0.5-0.4,0.5-0.7c0-0.2-0.1-0.4-0.2-0.5s-0.3-0.2-0.5-0.3l-1.7-0.4c-0.7-0.2-1.3-0.4-1.6-0.7
				C18.2,10.2,18,9.8,18,9.2c0-0.8,0.3-1.4,0.9-1.8c0.6-0.4,1.6-0.5,3-0.5c0.4,0,0.7,0,1,0c0.3,0,0.6,0.1,1,0.1l-0.2,1.3
				c-0.4,0-0.7-0.1-1-0.1c-0.3,0-0.6,0-0.8,0c-0.8,0-1.4,0.1-1.8,0.2c-0.4,0.1-0.6,0.4-0.6,0.7c0,0.2,0.1,0.4,0.2,0.5
				c0.2,0.1,0.4,0.2,0.7,0.3l1.4,0.3c0.8,0.2,1.3,0.4,1.7,0.7c0.4,0.3,0.5,0.8,0.5,1.4c0,0.8-0.3,1.4-0.9,1.7
				C22.7,14.4,21.7,14.6,20.4,14.6z"/>
			<path class="st1" d="M30.1,14.6c-1.3,0-2.2-0.3-2.9-1s-1-1.6-1-2.9c0-1.2,0.3-2.2,0.9-2.8c0.6-0.7,1.4-1,2.5-1
				c1,0,1.8,0.3,2.3,0.9c0.5,0.6,0.8,1.5,0.8,2.6c0,0.3,0,0.7,0,1h-5.2v-1.1h3.9c0-0.7-0.2-1.2-0.5-1.5c-0.3-0.4-0.8-0.5-1.3-0.5
				c-0.6,0-1.1,0.2-1.5,0.6c-0.3,0.4-0.5,1-0.5,1.8c0,0.9,0.2,1.5,0.7,2c0.5,0.4,1.2,0.7,2,0.7c0.3,0,0.6,0,0.9-0.1
				c0.3,0,0.6-0.1,0.9-0.1l0.2,1.3c-0.4,0.1-0.8,0.1-1.2,0.2C30.7,14.6,30.4,14.6,30.1,14.6z"/>
			<path class="st1" d="M34.8,14.5V7.1h1.3l0.1,1.6v5.9H34.8z M39.4,14.5V9.7c0-0.4-0.1-0.8-0.3-1c-0.2-0.2-0.6-0.4-1-0.4
				c-1.2,0-1.8,0.7-1.8,2.1l-0.4-1.9h0.6c0-0.5,0.2-0.9,0.5-1.1s0.8-0.4,1.4-0.4c0.8,0,1.4,0.2,1.8,0.7c0.4,0.5,0.6,1.1,0.6,2v4.8
				H39.4z"/>
			<path class="st1" d="M45.2,14.5l-2.7-7.4h1.6l2,6.2h0.1l2-6.2h1.6l-2.7,7.4H45.2z"/>
			<path class="st1" d="M54.6,14.6c-1,0-1.8-0.3-2.4-1s-0.9-1.6-0.9-2.8c0-1.2,0.3-2.2,0.9-2.8s1.4-1,2.4-1c1,0,1.8,0.3,2.4,1
				c0.6,0.7,0.9,1.6,0.9,2.8c0,1.2-0.3,2.2-0.9,2.8C56.4,14.3,55.6,14.6,54.6,14.6z M54.6,13.3c0.5,0,1-0.2,1.3-0.7
				c0.3-0.4,0.4-1.1,0.4-1.9c0-0.8-0.1-1.4-0.4-1.9c-0.3-0.4-0.7-0.7-1.3-0.7s-1,0.2-1.3,0.7c-0.3,0.4-0.4,1.1-0.4,1.9
				c0,0.8,0.1,1.4,0.4,1.9C53.6,13.1,54.1,13.3,54.6,13.3z"/>
			<path class="st1" d="M59.5,5.2V4h2.3v1.2H59.5z M64.1,14.6c-0.9,0-1.5-0.2-1.9-0.7s-0.6-1.2-0.6-2.2V4h1.5v7.6c0,0.4,0,0.7,0.1,1
				c0.1,0.2,0.2,0.4,0.4,0.5c0.2,0.1,0.5,0.2,1,0.2c0.4,0,0.9-0.1,1.5-0.3l0.2,1.3c-0.4,0.1-0.7,0.2-1.1,0.2
				C64.9,14.6,64.5,14.6,64.1,14.6z"/>
			<path class="st1" d="M70.4,14.5l-2.7-7.4h1.6l2,6.2h0.1l2-6.2h1.6l-2.7,7.4H70.4z"/>
			<path class="st1" d="M76.7,14.5v-1.2h3v1.2H76.7z M77.2,8.3V7.1h3.9v1.2H77.2z M80.3,5.9c-0.3,0-0.5-0.1-0.7-0.3
				c-0.2-0.2-0.3-0.4-0.3-0.7c0-0.3,0.1-0.5,0.3-0.7c0.2-0.2,0.4-0.3,0.7-0.3c0.3,0,0.5,0.1,0.7,0.3c0.2,0.2,0.3,0.4,0.3,0.7
				c0,0.3-0.1,0.5-0.3,0.7C80.8,5.8,80.6,5.9,80.3,5.9z M79.6,14.5v-7h1.5v7H79.6z M80.9,14.5v-1.2h2.4v1.2H80.9z"/>
			<path class="st1" d="M87.7,14.6c-1,0-1.7-0.3-2.2-1s-0.8-1.6-0.8-2.8c0-1.3,0.3-2.3,0.8-2.9c0.5-0.7,1.2-1,2.2-1
				c0.6,0,1,0.1,1.4,0.4c0.3,0.3,0.6,0.6,0.6,1.1h0.6l-0.4,2.1c0-0.8-0.2-1.3-0.5-1.7C89,8.4,88.6,8.2,88,8.2c-0.6,0-1,0.2-1.4,0.7
				c-0.3,0.4-0.5,1.1-0.5,2c0,0.8,0.2,1.5,0.5,1.9c0.3,0.4,0.8,0.6,1.4,0.6c0.6,0,1-0.2,1.3-0.6c0.3-0.4,0.5-1,0.5-1.7l0.5,2.1h-0.6
				c0,0.5-0.2,0.8-0.6,1.1S88.2,14.6,87.7,14.6z M89.9,14.6l-0.2-1.5V4h1.5v10.5L89.9,14.6z"/>
			<path class="st1" d="M96.6,14.6c-1,0-1.8-0.3-2.4-1s-0.9-1.6-0.9-2.8c0-1.2,0.3-2.2,0.9-2.8s1.4-1,2.4-1c1,0,1.8,0.3,2.4,1
				c0.6,0.7,0.9,1.6,0.9,2.8c0,1.2-0.3,2.2-0.9,2.8C98.5,14.3,97.7,14.6,96.6,14.6z M96.6,13.3c0.5,0,1-0.2,1.3-0.7
				c0.3-0.4,0.4-1.1,0.4-1.9c0-0.8-0.1-1.4-0.4-1.9c-0.3-0.4-0.7-0.7-1.3-0.7s-1,0.2-1.3,0.7c-0.3,0.4-0.4,1.1-0.4,1.9
				c0,0.8,0.1,1.4,0.4,1.9C95.7,13.1,96.1,13.3,96.6,13.3z"/>
			<path class="st1" d="M110.4,17.7V7.1h1.3l0.1,1.6v9.1H110.4z M114,14.6c-0.6,0-1-0.1-1.4-0.4s-0.5-0.6-0.6-1.1h-0.6l0.5-2.1
				c0,0.8,0.2,1.3,0.5,1.7c0.3,0.4,0.7,0.6,1.3,0.6c0.6,0,1-0.2,1.4-0.6c0.3-0.4,0.5-1.1,0.5-1.9c0-0.9-0.2-1.5-0.5-2
				c-0.3-0.4-0.8-0.7-1.4-0.7c-0.6,0-1,0.2-1.3,0.6c-0.3,0.4-0.5,1-0.5,1.7l-0.5-2.1h0.6c0.1-0.5,0.3-0.8,0.6-1.1
				c0.4-0.3,0.8-0.4,1.4-0.4c1,0,1.7,0.3,2.2,1c0.5,0.7,0.8,1.6,0.8,2.9c0,1.2-0.2,2.2-0.8,2.8C115.7,14.3,115,14.6,114,14.6z"/>
			<path class="st1" d="M121.8,14.6c-1,0-1.8-0.3-2.4-1s-0.9-1.6-0.9-2.8c0-1.2,0.3-2.2,0.9-2.8s1.4-1,2.4-1c1,0,1.8,0.3,2.4,1
				c0.6,0.7,0.9,1.6,0.9,2.8c0,1.2-0.3,2.2-0.9,2.8C123.7,14.3,122.9,14.6,121.8,14.6z M121.8,13.3c0.5,0,1-0.2,1.3-0.7
				c0.3-0.4,0.4-1.1,0.4-1.9c0-0.8-0.1-1.4-0.4-1.9c-0.3-0.4-0.7-0.7-1.3-0.7s-1,0.2-1.3,0.7c-0.3,0.4-0.4,1.1-0.4,1.9
				c0,0.8,0.1,1.4,0.4,1.9C120.9,13.1,121.3,13.3,121.8,13.3z"/>
			<path class="st1" d="M126.6,14.5v-1.2h5v1.2H126.6z M126.9,8.3V7.1h2.5l0.1,1.2H126.9z M128.2,14.5V7.1h1.2l0.3,2.1v5.3H128.2z
				 M129.7,11.3L129.3,9h0.6c0.1-1.4,0.8-2,2-2c0.8,0,1.3,0.2,1.7,0.7c0.3,0.4,0.5,1.1,0.5,2.1h-1.5c0-0.5-0.1-0.9-0.2-1.2
				c-0.2-0.2-0.4-0.4-0.8-0.4c-0.6,0-1.1,0.3-1.4,0.8C129.9,9.5,129.7,10.3,129.7,11.3z"/>
		</g>
		<g>
			<path class="st1" d="M166.2,17.1c-2.9,0.2-5.8,0.5-8.7,0.8c-1.4,1.4-2.7,2.9-4,4.5c5.3-1,10.6-1.7,15.9-2.2v0
				c0.3,0,0.6-0.1,1-0.1V0.7c-1.4-0.1-2.7-0.3-4.1-0.4V17.1z"/>
			<path class="st1" d="M201.6,11.9h-0.1c-3.2,0-6.6,0.1-9.8,0.1V8.8h-0.1c-1.4,0-2.7,0-4.1,0h-0.1v6.4h0v0h0.1c3.2,0,6.6,0,9.8,0
				v4.2c-0.9,0-1.7,0-2.6-0.1h-0.1l0,0c-0.6,0.4-1.2,0.9-1.8,1.3c-0.8,0.5-1.5,1.1-2.3,1.6l-0.3,0.2h0.4c3.6,0,7.3,0.2,10.9,0.5h0.1
				l0,0h0L201.6,11.9L201.6,11.9L201.6,11.9L201.6,11.9z M201.3,22.8L201.3,22.8L201.3,22.8c-3.4-0.2-6.9-0.4-10.3-0.4
				c0.6-0.5,1.3-0.9,1.9-1.4c0.6-0.4,1.2-0.9,1.8-1.3c0.9,0,1.8,0,2.7,0.1h0.1V15h-0.1c-3.3,0-6.6,0-9.8,0v0h0V9.1
				c1.3,0,2.6,0,3.8,0v3.1h0.1c3.3,0,6.6,0,9.8-0.1v0h0L201.3,22.8L201.3,22.8z"/>
			<path class="st1" d="M185.9,11.9v-3c-3.3,0-6.6,0-10-0.1V4.3c3.9,0.2,7.8,0.2,11.6,0.2c1.8,0,3.5,0,5.2,0v-3
				c-1.8,0-3.5,0.1-5.2,0c-5.2,0-10.5-0.2-15.7-0.7v0h0v19.1c1.4-0.1,2.7-0.2,4.1-0.3v-6c2.8,2.1,5.6,4.1,8.4,6.1
				c1-0.7,1.9-1.5,2.9-2.2c-2.6-1.9-5.1-3.7-7.7-5.6C181.7,11.9,183.8,11.9,185.9,11.9L185.9,11.9z"/>
			<path class="st1" d="M209.1,13V0c-1.4,0.2-2.7,0.4-4.1,0.6v8.8c-2.6-2.3-5.2-4.3-7.9-6.2l0,0c-1-0.7-1.9-1.4-2.9-2.1v9.7h4.1v-2
				c2.2,1.8,4.4,3.7,6.7,5.7v7.2c0,0,0,0,0,0c1.3-1,2.7-2.1,4-3.2l0,0v-0.1c0.7,0.7,1.4,1.5,2.1,2.2c0.9-0.8,1.9-1.6,2.9-2.5
				C212.4,16.3,210.7,14.6,209.1,13L209.1,13z"/>
		</g>
	</g>
</g>
</svg>
