<?xml version="1.0" encoding="UTF-8"?>
<svg id="Camada_2" data-name="Camada 2" xmlns="http://www.w3.org/2000/svg" viewBox="0 0 214 23.07">
  <defs>
    <style>
      .cls-1, .cls-2 {
        fill: #fff;
      }

      .cls-2 {
        font-family: CascadiaCode-Roman, 'Cascadia Code';
        font-size: 14.34px;
        font-variation-settings: 'wght' 400;
      }
    </style>
  </defs>
  <g id="ELEMENTOS">
    <g>
      <text class="cls-2" transform="translate(0 14.49)"><tspan x="0" y="0">Desenvolvido por </tspan></text>
      <g>
        <path class="cls-1" d="m166.21,17.09c-2.92.22-5.83.48-8.74.79-1.35,1.42-2.7,2.93-4.04,4.53,5.27-.96,10.56-1.69,15.88-2.21v-.02c.32-.03.65-.06.97-.09V.74c-1.36-.12-2.72-.26-4.07-.41v16.76Z"/>
        <path class="cls-1" d="m201.58,11.86h-.14c-3.25.04-6.56.06-9.81.07v-3.15h-.14c-1.35.01-2.73.02-4.09.02h-.14s0,6.42,0,6.42h.02v.02h.14c3.25,0,6.56.01,9.82.04v4.17c-.85-.03-1.71-.05-2.57-.07h-.05s-.04.03-.04.03c-.6.44-1.21.87-1.81,1.31-.76.55-1.52,1.1-2.28,1.65l-.34.25h.42c3.61.05,7.26.2,10.85.45h.15s0,0,0,0h.02s0-11.17,0-11.17h-.02s0-.02,0-.02Zm-.25,10.89h-.02s0,.02,0,.02c-3.41-.23-6.87-.38-10.3-.43.65-.47,1.29-.94,1.94-1.4.59-.43,1.18-.85,1.77-1.28.89.02,1.78.04,2.66.07h.14s0-4.73,0-4.73h-.14c-3.26-.03-6.57-.04-9.82-.04v-.02h-.02v-5.86c1.27,0,2.55,0,3.81-.01v3.15h.14c3.26,0,6.56-.03,9.81-.07v.02h.02s0,10.59,0,10.59Z"/>
        <path class="cls-1" d="m185.94,11.92v-3.02c-3.32,0-6.64-.03-9.96-.06v-4.53c3.87.16,7.75.24,11.62.25,1.75,0,3.5-.01,5.24-.04V1.48c-1.75.04-3.49.06-5.24.05-5.23-.02-10.46-.24-15.68-.67v.02s-.02,0-.02,0v19.06c1.36-.11,2.72-.21,4.08-.3v-5.99c2.8,2.09,5.6,4.09,8.41,6.11.96-.73,1.93-1.46,2.89-2.17-2.57-1.88-5.13-3.73-7.7-5.65,2.12-.02,4.24-.03,6.35-.03Z"/>
        <path class="cls-1" d="m209.06,13.04V0c-1.35.21-2.7.4-4.06.58v8.77c-2.61-2.26-5.23-4.3-7.86-6.22,0,0,0,0,0,0-.96-.71-1.93-1.4-2.89-2.08v9.66h4.08v-1.99c2.23,1.77,4.45,3.66,6.68,5.72v7.25s.03,0,.04,0c1.34-1.01,2.68-2.06,4.01-3.17,0,0,0,0,0,0v-.11c.69.72,1.39,1.46,2.08,2.22.95-.79,1.91-1.61,2.86-2.47-1.64-1.83-3.29-3.53-4.94-5.12Z"/>
      </g>
    </g>
  </g>
</svg>