<?xml version="1.0" encoding="UTF-8"?>
<svg id="Camada_2" data-name="Camada 2" xmlns="http://www.w3.org/2000/svg" viewBox="0 0 322 54.3">
  <defs>
    <style>
      .cls-1 {
        fill: #ecce2d;
      }
    </style>
  </defs>
  <g id="ELEMENTOS">
    <g>
      <path class="cls-1" d="m68.02,19.59c1.37-1.27,2.17-2.64,2.45-4.1.28-1.42-.42-2.74-2.22-3.91-2.36-1.37-5.42-2.22-9.15-2.5-3.73-.28-7.22-.38-10.42-.33h-1.13c.05-.09.09-.14.14-.19,0-.09.05-.14.09-.24.28-.28.57-.66.94-1.13.9-1.18,2.78-3.68,4.1-4.39.71-.42.99-.9.8-1.46-.14-.57-.52-.99-1.18-1.23-.66-.24-1.37-.09-2.12.42-2.97,2.41-5.19,5.61-6.65,7.69l-.19.28c-.14.14-.24.28-.38.38-.14.09-.33.14-.57.14-.57.05-1.13.09-1.7.19-2.97.24-5.9.57-8.82.9-4.53.52-9.86,1.51-15.89,2.88-6.08,1.41-11.04,3.25-14.86,5.61-.9.66-1.37,1.46-1.27,2.31.05.9.66,1.46,1.75,1.79.71.14,1.32,0,1.79-.33s.71-.8.66-1.42c0-.38.14-.66.47-.9.38-.24.8-.42,1.27-.57.19-.09.38-.19.57-.24,4.86-1.98,10.52-3.54,16.98-4.72,6.41-1.18,12.22-1.93,17.4-2.31-4.01,6.23-7.64,12.5-10.85,18.82-.71.05-1.6.14-2.69.14-1.08.05-1.98-.05-2.69-.33-.66-.24-.75-.71-.28-1.46.38-.57.42-1.04.14-1.46-.24-.42-.66-.71-1.23-.8-.57-.09-1.13.09-1.7.52-.71.57-1.23,1.23-1.6,2.03-.33.75-.28,1.51.24,2.22.8.94,1.84,1.56,3.16,1.84,1.27.24,2.64.42,4.06.42.28.05.61.05.94.05l-7.31,15.42c-.47.8-.8,1.7-.99,2.59-.19.9.19,1.56,1.08,1.93.85.28,1.6.14,2.22-.42.66-.52,1.18-1.13,1.6-1.79l.14-.14c.24-.38.33-.66.28-.85,0-.24-.09-.42-.24-.57-.09-.14-.19-.28-.24-.47-.05-.19,0-.38.09-.61,2.41-4.95,4.76-9.9,7.17-14.86.14-.33.42-.57.9-.57,5.33-.66,10.66-1.98,15.99-4.01,5.33-1.98,10.19-4.34,14.57-6.98,1.51-.9,2.92-1.98,4.34-3.3Zm-20.09,7.45c-4.81,1.84-9.39,3.07-13.63,3.58.42-1.08,1.32-2.83,2.69-5.24,1.42-2.45,2.83-4.86,4.34-7.36,1.51-2.45,2.64-4.24,3.4-5.42.33-.52.8-.75,1.51-.75,2.12-.09,4.81-.09,8.02,0,3.16.05,6.04.38,8.54.9,2.5.52,3.77,1.46,3.82,2.78.05,1.32-1.98,3.16-6.13,5.61-3.54,2.08-7.74,4.01-12.55,5.9Z"/>
      <path class="cls-1" d="m142.87,24.54c.9-.61,1.75-1.37,2.59-2.26.8-.85,1.32-1.6,1.56-2.17.14-.52-.05-.85-.57-1.04-.47-.19-1.04-.28-1.65-.24-.61,0-1.08.14-1.37.33-.57.42-1.13,1.13-1.6,2.03-.52.94-.85,1.84-1.08,2.64-.19.85-.14,1.37.14,1.51.42.09,1.08-.14,1.98-.8Z"/>
      <path class="cls-1" d="m194.66,32.18c-1.75.57-3.49,1.08-5.19,1.46-1.7.33-2.97.61-3.87.75,0-1.6.33-3.21.99-4.76.66-1.6,2.03-3.07,4.1-4.34.47-.33.61-.8.42-1.46-.19-.61-.57-1.18-1.08-1.65-.57-.42-1.13-.57-1.75-.33-3.07,2.12-5.57,3.4-7.5,3.68-1.93.33-4.01.09-6.23-.71-.42-.14-.8-.05-1.08.28-.28.28-.42.71-.52,1.18-.05.47,0,.94.19,1.37-.99-.38-1.79-.33-2.41,0-.66.38-1.23.8-1.7,1.37-.18.19-.35.4-.52.6-.84.44-1.7.8-2.59,1.05-1.13.38-1.98.42-2.45.09-.19-.14-.28-.42-.28-.75-.05-.38,0-.75.05-1.18.05-.57.05-1.08,0-1.56-.14-.8-.57-1.32-1.27-1.56-.71-.24-1.42-.09-2.12.47-.8.71-1.65,1.65-2.64,2.83-.94,1.23-1.89,2.41-2.78,3.58-.42.57-.8,1.08-1.18,1.56.05-.28.33-.94.85-1.98s1.08-2.08,1.65-3.16c.61-1.04,1.04-1.75,1.37-2.08.66-.61.94-1.18.85-1.7-.09-.57-.33-.94-.75-1.27-.38-.24-.75-.33-1.18-.19-.47.14-.94.61-1.42,1.41-.99,1.72-1.86,3.29-2.62,4.75-.67.53-1.55,1.21-2.71,2.05-1.75,1.27-3.63,2.5-5.71,3.68-2.08,1.18-4.01,1.89-5.71,2.12-1.13.09-1.6-.33-1.42-1.27.14-.94.71-2.12,1.6-3.49.9-1.42,1.84-2.78,2.88-4.1.38-.61.38-1.13,0-1.65-.38-.47-.85-.8-1.46-.94-.66-.14-1.13-.05-1.51.38-.32.39-.68.9-1.06,1.45-2.75,1.92-6.34,3.89-10.73,5.95-4.58,2.12-8.02,3.35-10.42,3.68-.42,0-.61-.14-.57-.47.05-.38.19-.8.52-1.27.28-.52.66-.99,1.08-1.46.38-.42.8-.75,1.18-.99.61-.24,1.27-.57,1.98-.85,1.56-.61,3.07-1.37,4.62-2.31,1.56-.9,2.69-2.03,3.44-3.44.57-1.46.24-2.45-1.04-2.97-1.27-.47-3.25.14-5.94,1.98-1.83,1.35-3.49,2.89-4.99,4.56-1.16.62-2.56,1.3-4.21,2.04-2.92,1.37-5.71,2.41-8.35,3.21-2.69.8-4.24.8-4.76.09-.14-.61.42-1.65,1.7-3.02,1.27-1.37,2.78-2.55,4.48-3.58.28-.14.47-.19.61-.14.19.05.33.09.47.19.14.14.33.19.57.24.24,0,.52-.09.94-.33.61-.47,1.04-1.04,1.13-1.75.14-.75,0-1.32-.42-1.84-.42-.47-1.08-.61-1.98-.38-2.48.92-4.67,2.2-6.58,3.86,0,0-.01,0-.02,0-1.08.66-2.22,1.18-3.4,1.51-1.13.38-1.98.42-2.45.09-.19-.14-.28-.42-.28-.75-.05-.38,0-.75.05-1.18.05-.57.05-1.08,0-1.56-.14-.8-.57-1.32-1.27-1.56-.71-.24-1.42-.09-2.12.47-.8.71-1.65,1.65-2.64,2.83-.94,1.23-1.89,2.41-2.78,3.58-.42.57-.8,1.08-1.18,1.56.05-.28.33-.94.85-1.98s1.08-2.08,1.65-3.16c.61-1.04,1.04-1.75,1.37-2.08.66-.61.94-1.18.85-1.7-.09-.57-.33-.94-.75-1.27-.38-.24-.75-.33-1.18-.19-.47.14-.94.61-1.42,1.41-1.03,1.77-1.92,3.39-2.69,4.89-.95.88-2.07,1.8-3.39,2.75-1.84,1.37-3.63,2.5-5.42,3.44-1.75.94-3.16,1.37-4.15,1.32-.75-.14-.99-.71-.8-1.7.24-1.04.66-2.17,1.32-3.49.66-1.27,1.27-2.45,1.89-3.49.38-.61.61-1.08.8-1.42.19-.42.14-.85-.14-1.27-.28-.47-.66-.85-1.08-1.13-.47-.28-.9-.38-1.23-.33-.38.14-.66.33-.9.57l-.57.38c-.19.09-.38.09-.57,0-1.23-.52-2.83-.09-4.76,1.18s-3.82,2.88-5.61,4.81c-1.75,1.89-3.02,3.54-3.73,4.91-.66,1.46-.71,2.55-.09,3.25.33.52.85.8,1.56.85s1.75-.38,3.07-1.32c1.51-1.13,2.97-2.41,4.39-3.82,1.37-1.42,2.5-2.64,3.35-3.58.33-.42.61-.71.8-.9-.61.99-1.18,2.22-1.65,3.58-.52,1.42-.71,2.69-.61,3.87.14,1.18.85,1.93,2.17,2.36,2.26.28,5.19-.61,8.77-2.78,1.46-.88,2.82-1.79,4.09-2.71-.71,1.64-1.39,3.27-1.97,4.88-.28.9-.19,1.6.28,2.12.42.47,1.04.75,1.7.75.71,0,1.27-.33,1.7-.94,1.04-1.79,2.5-3.96,4.29-6.46,1.79-2.55,3.35-4.39,4.62-5.61.14-.09.24-.09.28,0v.66c-.09.42-.09.9-.05,1.46.05.52.24.94.61,1.32.61.47,1.75.52,3.44.19.41-.07.82-.16,1.23-.27-.71,1.23-1.01,2.41-.9,3.52.19,1.37,1.18,2.22,3.02,2.5,3.16.14,6.98-.75,11.46-2.55,1.03-.43,2.01-.85,2.95-1.27-.33.76-.56,1.53-.64,2.36-.19,1.42.47,2.36,1.98,2.83,1.79.28,4.29-.14,7.5-1.32,3.25-1.23,6.46-2.64,9.62-4.29,1.02-.54,1.95-1.04,2.82-1.52-.49,1.26-.72,2.47-.69,3.59.52,2.5,1.75,3.73,3.73,3.68s4.2-.75,6.7-2.17c2.31-1.31,4.4-2.7,6.34-4.2-.84,1.88-1.62,3.77-2.29,5.61-.28.9-.19,1.6.28,2.12.42.47,1.04.75,1.7.75.71,0,1.27-.33,1.7-.94,1.04-1.79,2.5-3.96,4.29-6.46,1.79-2.55,3.35-4.39,4.62-5.61.14-.09.24-.09.28,0v.66c-.09.42-.09.9-.05,1.46.05.52.24.94.61,1.32.61.47,1.75.52,3.44.19.52-.09,1.05-.22,1.59-.38-.34.63-.66,1.26-.93,1.89-.24.57-.42,1.08-.61,1.65-.61,1.98-.47,3.49.42,4.48.9.99,2.31,1.08,4.2.33,1.13-.61,2.41-1.7,3.73-3.3,1.37-1.6,2.5-3.4,3.4-5.33.9-1.93,1.18-3.68.94-5.19,1.13.28,2.36.33,3.63.14,1.32-.14,2.41-.47,3.25-.94-.8.85-1.32,2.03-1.51,3.44-.24,1.42-.28,2.83-.24,4.29-2.41.33-4.06.47-5.05.52-.75.14-1.27.47-1.56,1.13-.28.61-.28,1.23.05,1.79.61.94,1.42,1.84,2.5,2.69,1.08.85,2.12,1.46,3.11,1.79,1.13.38,2.22.28,3.11-.24.94-.52,1.46-1.37,1.56-2.5,0-.75,0-1.6-.14-2.59v-.05c1.6-.28,3.35-.71,5.14-1.18,1.84-.47,3.35-.99,4.58-1.51.33-.19.52-.52.52-.99.05-.47-.09-.85-.33-1.23-.28-.33-.61-.47-1.04-.33Zm-24.29,3.4c-1.13,1.42-1.89,2.22-2.26,2.41s-.05-.71.99-2.74c.61-1.18,1.32-2.31,2.12-3.3.75-.99,1.46-1.51,2.03-1.46-.71,1.84-1.7,3.54-2.88,5.09Zm12.03,4.39c-.33,0-.71-.14-1.18-.42-.42-.33-.9-.71-1.37-1.23.75-.09,1.6-.19,2.55-.33.14,1.23.14,1.89,0,1.98Z"/>
      <path class="cls-1" d="m227.3,19.68c.47-.61.9-1.23,1.32-1.79,2.03-2.59,4.1-5.47,6.18-8.58.71-1.18.99-2.08.8-2.74s-.61-.99-1.32-.99c-.66-.05-1.32.28-2.03.99-2.92,3.44-5.47,7.17-7.55,11.23-.42.71-1.08,1.6-1.98,2.69-.9,1.04-1.75,2.03-2.59,2.97-3.3,1.6-6.23,3.4-8.73,5.52-2.45,2.08-4.43,4.01-5.8,5.85-.94,1.27-1.32,2.41-1.18,3.25.19.9.66,1.46,1.46,1.75.8.28,1.7.14,2.64-.38,1.27-.8,2.83-2.12,4.67-3.96,1.79-1.84,3.3-3.35,4.43-4.62.66-.71,1.04-1.08,1.08-1.08-.71,1.7-1.32,3.16-1.84,4.34-.9,2.08-1.65,3.96-2.31,5.75-.71,1.75-1.51,4.15-2.45,7.17-.42,1.6-.42,2.78.05,3.49.42.66,1.04.94,1.75.85.71-.09,1.23-.57,1.51-1.32.05-.33.05-.71,0-1.23,0-.42,0-.8.05-1.08.99-3.96,2.59-8.54,4.86-13.77,2.26-5.19,4.34-9.62,6.32-13.35.19-.33.42-.61.66-.94Z"/>
      <path class="cls-1" d="m245.41,31.1c-.66.38-1.6.57-2.83.57s-2.36-.24-3.44-.75c-1.08-.52-1.79-1.37-2.08-2.55-.14-.57-.42-1.04-.85-1.32s-.94-.33-1.51-.19c-.38.05-.71.09-.99.05-.24-.05-.47,0-.75.05-.28.09-.66.28-1.08.61-1.46,1.13-2.83,2.64-4.2,4.53-1.37,1.89-2.12,3.77-2.26,5.66,0,1.08.47,1.93,1.42,2.45.9.57,2.12.33,3.68-.71,1.51-.99,3.21-3.3,5.05-6.84,1.32.99,3.07,1.6,5.19,1.79,2.17.19,4.1-.19,5.85-1.23.28-.24.38-.52.38-.94-.05-.42-.24-.8-.47-1.08-.28-.28-.66-.33-1.08-.09Zm-13.58,1.56c-.28.57-.66,1.18-1.13,1.84-.42.66-.8,1.23-1.18,1.7-.33.47-.57.71-.57.71-.09-.14-.05-.42.19-.94.24-.52.57-1.04.94-1.65.38-.66.8-1.18,1.18-1.7.42-.52.71-.85.94-.99.05.14-.09.47-.38,1.04Z"/>
      <path class="cls-1" d="m307,7.28c.28-.52.24-.94-.09-1.37s-.8-.71-1.32-.85-.94-.05-1.23.33c-2.59,3.54-6.46,10.19-11.6,19.86-2.22,2.74-4.1,4.15-5.52,4.34-1.46.14-2.36-.52-2.64-1.98-.14-.61-.42-1.04-.9-1.32-.42-.28-.9-.38-1.51-.24-.38.09-.71.14-.94.09-.24-.05-.52-.05-.8.05-.28.05-.61.28-1.08.61-.9.72-1.79,1.6-2.67,2.61-.95.54-1.93.97-2.95,1.25-1.13.38-1.98.42-2.45.09-.19-.14-.28-.42-.28-.75-.05-.38,0-.75.05-1.18.05-.57.05-1.08,0-1.56-.14-.8-.57-1.32-1.27-1.56-.71-.24-1.42-.09-2.12.47-.8.71-1.65,1.65-2.64,2.83-.94,1.23-1.89,2.41-2.78,3.58-.42.57-.8,1.08-1.18,1.56.05-.28.33-.94.85-1.98.52-1.04,1.08-2.08,1.65-3.16.61-1.04,1.04-1.75,1.37-2.08.66-.61.94-1.18.85-1.7-.09-.57-.33-.94-.75-1.27-.38-.24-.75-.33-1.18-.19-.47.14-.94.61-1.42,1.41-1.89,3.25-3.35,6.04-4.39,8.35-1.04,2.26-1.98,4.53-2.78,6.74-.28.9-.19,1.6.28,2.12.42.47,1.04.75,1.7.75.71,0,1.27-.33,1.7-.94,1.04-1.79,2.5-3.96,4.29-6.46,1.79-2.55,3.35-4.39,4.62-5.61.14-.09.24-.09.28,0v.66c-.09.42-.09.9-.05,1.46.05.52.24.94.61,1.32.61.47,1.75.52,3.44.19.6-.1,1.21-.26,1.82-.45-.59,1.2-.93,2.4-1.02,3.61,0,1.13.47,1.93,1.37,2.5.94.57,2.17.33,3.68-.71,1.56-.99,3.25-3.3,5.09-6.89.47.57,1.32.9,2.45.99,1.13.09,2.64-.52,4.48-1.89-2.69,5.66-5,11.6-6.93,17.83-.14.61.05,1.04.57,1.32s1.08.42,1.7.38c.61-.05.99-.28,1.13-.66,2.22-7.4,5.33-15.14,9.43-23.16,4.1-7.97,7.78-14.43,11.08-19.38Zm-27.64,24.62l-1.13,1.79c-.42.71-.85,1.27-1.18,1.75-.38.47-.57.71-.61.71-.09-.14,0-.47.24-.94.19-.52.52-1.08.94-1.7.38-.61.75-1.18,1.18-1.65.38-.52.71-.85.94-.99.05.14-.09.47-.38,1.04Z"/>
      <path class="cls-1" d="m321.29,27.94c-.47-.28-1.04-.28-1.7.05-2.78,1.98-6.46,4.01-10.99,6.13-4.58,2.12-8.02,3.35-10.42,3.68-.42,0-.61-.14-.57-.47.05-.38.19-.8.52-1.27.28-.52.66-.99,1.08-1.46.38-.42.8-.75,1.18-.99.61-.24,1.27-.57,1.98-.85,1.56-.61,3.07-1.37,4.62-2.31,1.56-.9,2.69-2.03,3.44-3.44.57-1.46.24-2.45-1.04-2.97-1.27-.47-3.25.14-5.94,1.98-3.02,2.22-5.61,4.91-7.69,7.97-.9,1.32-1.46,2.64-1.6,4.1-.19,1.42.47,2.36,1.98,2.83,1.79.28,4.29-.14,7.5-1.32,3.25-1.23,6.46-2.64,9.62-4.29,3.21-1.7,5.66-3.07,7.31-4.2.9-.66,1.37-1.27,1.42-1.89,0-.57-.24-1.04-.71-1.27Z"/>
      <path class="cls-1" d="m304.74,18.08c-.19.42-.09.8.24,1.18.33.42.8.66,1.42.85.61.14.99.09,1.18-.19.09-.19.42-.61.9-1.23.52-.61,1.13-1.27,1.93-1.98l2.03-1.79c.57-.47.94-.71,1.08-.71.14.09.28.38.38.9s.19,1.13.19,1.84c.05.66.05,1.32.05,1.89s-.05.94-.14,1.13c-.05.14.05.24.33.24.28.05.61,0,1.04-.09.42-.09.8-.24,1.18-.42.42-.24.66-.47.85-.75.19-.52.09-1.37-.19-2.59-.28-1.23-.71-2.41-1.18-3.54s-.9-1.79-1.23-1.98c-.33-.05-.99.24-1.93.8-.99.61-2.08,1.32-3.25,2.22-1.18.85-2.22,1.7-3.16,2.5-.94.75-1.51,1.37-1.7,1.75Z"/>
    </g>
  </g>
</svg>