<?xml version="1.0" encoding="UTF-8" standalone="no"?>
<!DOCTYPE svg PUBLIC "-//W3C//DTD SVG 1.1//EN" "http://www.w3.org/Graphics/SVG/1.1/DTD/svg11.dtd">
<svg xmlns="http://www.w3.org/2000/svg" version="1.1" viewBox="0.00 0.00 500.00 500.00" width="500.00" height="500.00">
<g stroke-width="2.00" fill="none" stroke-linecap="butt">
<path stroke="#80ac93" vector-effect="non-scaling-stroke" d="
  M 237.24 156.96
  C 232.93 152.20 231.10 147.98 236.24 142.15
  Q 237.27 140.98 236.35 139.73
  Q 236.06 139.34 235.60 139.20
  Q 233.59 138.58 232.27 140.20
  C 227.74 145.74 227.53 152.59 232.24 157.84
  C 237.00 163.13 237.47 167.66 232.68 173.37
  Q 232.23 173.91 232.43 174.59
  Q 232.90 176.17 234.50 176.47
  A 1.42 1.40 -60.5 0 0 235.73 176.12
  C 241.12 171.06 242.26 162.50 237.24 156.96"
/>
<path stroke="#80ac93" vector-effect="non-scaling-stroke" d="
  M 252.73 157.08
  C 248.05 151.87 246.74 147.84 251.71 141.98
  A 1.80 1.79 30.9 0 0 250.99 139.14
  C 248.83 138.30 247.20 140.41 246.29 142.00
  Q 241.61 150.17 247.02 157.03
  Q 248.68 159.14 250.10 161.22
  Q 253.70 166.45 248.12 173.27
  Q 247.05 174.58 248.39 175.64
  L 248.91 176.05
  A 1.90 1.89 40.3 0 0 251.49 175.84
  C 256.27 170.61 257.68 162.58 252.73 157.08"
/>
<path stroke="#80ac93" vector-effect="non-scaling-stroke" d="
  M 268.08 157.12
  C 263.56 151.89 261.92 148.30 266.94 142.24
  Q 268.12 140.82 266.87 139.45
  Q 266.70 139.25 266.45 139.17
  Q 264.17 138.42 262.69 140.51
  Q 257.81 147.40 260.36 153.61
  C 262.79 159.51 269.67 162.35 265.62 170.02
  Q 264.74 171.70 263.60 173.17
  Q 262.52 174.58 263.87 175.74
  L 264.25 176.07
  A 1.83 1.82 41.3 0 0 266.80 175.91
  C 271.67 170.52 273.07 162.88 268.08 157.12"
/>
<path stroke="#80ac93" vector-effect="non-scaling-stroke" d="
  M 193.73 220.00
  L 204.40 243.20
  Q 204.85 244.18 205.93 244.18
  L 294.07 244.14
  A 1.60 1.59 -77.5 0 0 295.52 243.21
  L 306.26 219.97
  Q 306.49 219.46 307.05 219.46
  L 324.26 219.49
  Q 326.02 219.49 326.03 217.74
  L 326.03 216.72
  Q 326.04 215.03 324.35 215.03
  L 308.26 214.99
  A 0.91 0.89 75.0 0 1 307.48 214.53
  C 298.74 198.97 285.27 188.66 267.05 187.77
  C 264.58 187.64 262.00 188.00 259.56 188.27
  C 256.40 188.62 253.27 186.35 250.37 185.42
  Q 229.64 178.76 215.90 193.53
  Q 215.42 194.05 214.73 194.19
  C 202.42 196.76 193.00 202.68 188.31 214.34
  Q 188.05 214.99 187.35 214.99
  L 175.51 215.04
  Q 174.03 215.05 173.99 216.53
  L 173.95 218.05
  Q 173.91 219.45 175.30 219.45
  L 192.98 219.52
  A 0.83 0.82 -12.3 0 1 193.73 220.00"
/>
<path stroke="#80ac93" vector-effect="non-scaling-stroke" d="
  M 303.0937 284.3710
  A 19.53 19.53 0.0 0 0 283.4279 264.9778
  L 279.7679 265.0033
  A 19.53 19.53 0.0 0 0 260.3748 284.6692
  L 260.4263 292.0490
  A 19.53 19.53 0.0 0 0 280.0921 311.4422
  L 283.7521 311.4167
  A 19.53 19.53 0.0 0 0 303.1452 291.7508
  L 303.0937 284.3710"
/>
<path stroke="#80ac93" vector-effect="non-scaling-stroke" d="
  M 414.98 279.85
  C 409.64 275.57 413.49 266.95 420.51 269.14
  C 423.96 270.22 424.95 273.59 425.55 277.12
  Q 425.65 277.70 426.23 277.66
  C 430.68 277.35 435.06 274.79 432.63 269.76
  C 430.03 264.38 419.42 264.47 414.63 265.52
  C 401.86 268.28 400.37 284.06 412.06 289.69
  Q 416.74 291.94 421.63 294.18
  C 425.47 295.94 427.95 299.90 425.91 304.02
  Q 424.62 306.62 421.59 307.37
  C 414.11 309.22 410.41 304.12 410.21 297.44
  A 0.67 0.67 0.0 0 0 409.49 296.79
  Q 403.36 297.21 402.94 302.18
  C 402.20 311.03 414.64 312.03 420.56 311.46
  C 427.82 310.76 434.49 306.53 435.06 298.79
  C 436.00 286.00 422.29 285.70 414.98 279.85"
/>
<path stroke="#80ac93" vector-effect="non-scaling-stroke" d="
  M 74.50 273.24
  Q 74.66 273.27 74.71 273.40
  Q 80.70 290.84 87.37 310.35
  Q 87.60 310.99 88.28 310.99
  L 91.40 310.96
  Q 92.06 310.95 92.26 310.33
  L 104.11 274.13
  Q 104.87 271.82 104.84 274.25
  Q 104.69 289.00 104.69 304.26
  Q 104.69 307.88 101.33 307.44
  A 1.00 0.99 8.3 0 0 100.21 308.27
  L 99.97 309.74
  Q 99.77 310.95 100.99 310.95
  L 119.98 311.00
  Q 120.72 311.00 120.68 310.26
  L 120.56 308.04
  Q 120.53 307.44 119.92 307.48
  C 117.93 307.61 114.79 307.90 114.77 304.99
  Q 114.64 288.14 114.76 271.25
  A 2.23 2.22 88.2 0 1 116.82 269.05
  L 119.75 268.84
  Q 120.76 268.77 120.75 267.75
  L 120.74 266.49
  Q 120.72 265.50 119.74 265.50
  L 102.80 265.49
  Q 102.49 265.49 102.40 265.79
  L 92.79 294.99
  Q 92.42 296.13 92.02 295.00
  L 81.96 265.81
  A 0.48 0.47 -9.4 0 0 81.51 265.49
  L 64.59 265.50
  Q 63.48 265.50 63.36 266.61
  L 63.26 267.47
  A 1.30 1.29 -85.4 0 0 64.48 268.91
  L 67.40 269.05
  A 1.78 1.77 -4.3 0 1 69.07 270.48
  Q 69.46 272.50 69.47 274.25
  Q 69.54 289.39 69.36 305.31
  A 2.10 2.09 88.7 0 1 67.40 307.37
  L 64.59 307.55
  A 1.35 1.34 0.5 0 0 63.34 308.77
  L 63.25 309.68
  Q 63.14 310.98 64.44 310.97
  L 78.55 310.96
  Q 79.56 310.96 79.50 309.95
  L 79.40 308.38
  Q 79.33 307.34 78.30 307.46
  Q 74.17 307.95 74.21 303.01
  Q 74.33 286.84 74.15 273.53
  Q 74.14 273.17 74.50 273.24"
/>
<path stroke="#80ac93" vector-effect="non-scaling-stroke" d="
  M 151.67 296.35
  C 152.54 298.82 154.65 303.35 154.12 305.97
  A 1.85 1.84 4.6 0 1 152.39 307.44
  L 149.82 307.54
  Q 149.20 307.57 149.16 308.18
  L 149.01 310.21
  Q 148.96 310.97 149.72 310.97
  L 169.51 310.97
  Q 170.24 310.97 170.23 310.24
  L 170.22 308.34
  Q 170.22 307.38 169.27 307.45
  Q 165.92 307.67 164.70 304.26
  Q 157.44 283.98 151.16 266.13
  A 0.95 0.94 80.5 0 0 150.29 265.50
  L 142.74 265.47
  A 0.91 0.91 0.0 0 0 141.89 266.06
  Q 135.10 284.60 127.96 303.81
  Q 126.57 307.54 123.30 307.53
  Q 122.38 307.52 122.41 308.44
  L 122.47 310.48
  Q 122.48 310.98 122.98 310.98
  L 138.17 310.96
  A 0.96 0.96 0.0 0 0 139.13 309.96
  L 139.07 308.64
  Q 139.02 307.59 137.97 307.58
  C 135.99 307.55 133.07 307.73 133.61 304.65
  Q 134.29 300.86 135.95 296.55
  Q 136.16 296.00 136.75 296.00
  L 151.19 296.01
  A 0.51 0.51 0.0 0 1 151.67 296.35"
/>
<path stroke="#80ac93" vector-effect="non-scaling-stroke" d="
  M 201.70 289.18
  C 206.48 287.27 209.66 283.38 209.92 278.15
  C 210.41 268.32 201.96 265.58 193.99 265.53
  Q 184.09 265.47 172.74 265.51
  Q 172.02 265.51 172.01 266.22
  L 171.98 268.26
  Q 171.97 268.74 172.44 268.83
  C 174.68 269.21 177.86 268.36 177.88 271.96
  Q 178.00 288.76 177.91 304.46
  C 177.88 308.15 174.86 307.36 172.49 307.53
  Q 172.01 307.56 172.00 308.05
  L 171.98 310.22
  Q 171.97 310.97 172.72 310.97
  L 193.26 310.98
  Q 194.01 310.98 193.99 310.24
  L 193.94 308.09
  Q 193.93 307.35 193.20 307.45
  C 191.02 307.74 188.20 307.71 188.07 304.73
  Q 187.82 298.65 188.03 292.07
  Q 188.05 291.22 188.90 291.23
  L 191.46 291.27
  A 1.27 1.27 0.0 0 1 192.54 291.93
  Q 196.14 298.59 199.70 305.25
  C 202.99 311.38 208.86 310.99 214.90 310.94
  A 0.71 0.71 0.0 0 0 215.61 310.19
  L 215.50 308.25
  Q 215.47 307.74 214.97 307.63
  Q 211.37 306.79 208.99 302.61
  Q 205.19 295.89 201.52 289.70
  A 0.36 0.36 0.0 0 1 201.70 289.18"
/>
<path stroke="#80ac93" vector-effect="non-scaling-stroke" d="
  M 241.70 269.46
  Q 244.50 269.47 247.14 269.54
  C 251.57 269.66 251.63 274.13 251.77 277.34
  Q 251.80 278.00 252.45 277.98
  L 255.52 277.91
  Q 256.18 277.90 256.17 277.23
  L 255.92 266.20
  Q 255.91 265.50 255.20 265.50
  L 216.68 265.50
  A 0.59 0.58 0.5 0 0 216.09 266.07
  L 215.95 277.30
  Q 215.94 277.92 216.56 277.92
  L 219.64 277.92
  Q 220.33 277.92 220.34 277.23
  C 220.42 274.26 220.52 269.95 224.43 269.60
  Q 227.20 269.36 230.34 269.51
  Q 230.95 269.54 230.95 270.15
  Q 231.08 287.24 230.90 304.41
  C 230.87 308.23 227.87 307.36 225.40 307.54
  Q 224.99 307.57 225.00 307.97
  L 225.03 310.75
  Q 225.03 310.97 225.25 310.97
  L 246.30 310.97
  Q 247.06 310.97 247.03 310.20
  L 246.96 308.34
  Q 246.92 307.52 246.10 307.51
  L 243.37 307.50
  A 1.97 1.97 0.0 0 1 241.46 305.97
  Q 241.02 304.04 241.02 302.04
  Q 241.05 285.51 241.04 270.12
  Q 241.04 269.45 241.70 269.46"
/>
<path stroke="#80ac93" vector-effect="non-scaling-stroke" d="
  M 345.24 295.81
  Q 345.22 297.06 344.50 296.04
  L 323.39 266.17
  A 1.65 1.64 -17.4 0 0 322.04 265.47
  L 309.48 265.51
  Q 308.72 265.51 308.72 266.27
  L 308.73 268.18
  A 0.74 0.74 0.0 0 0 309.43 268.92
  L 312.49 269.06
  A 1.95 1.95 0.0 0 1 314.30 270.62
  Q 314.63 272.20 314.63 273.72
  Q 314.68 288.83 314.63 303.64
  Q 314.62 305.44 313.86 306.86
  Q 313.61 307.32 313.08 307.35
  L 309.45 307.57
  A 0.75 0.75 0.0 0 0 308.74 308.31
  L 308.72 310.22
  Q 308.71 310.98 309.47 310.98
  L 324.84 310.95
  A 0.77 0.76 87.6 0 0 325.60 310.12
  L 325.45 308.22
  A 0.73 0.73 0.0 0 0 324.72 307.54
  L 322.12 307.50
  A 2.63 2.63 0.0 0 1 319.52 304.87
  L 319.52 277.68
  Q 319.52 276.02 320.48 277.38
  L 343.82 310.46
  A 1.09 1.06 -16.6 0 0 344.68 310.91
  L 349.54 311.01
  Q 350.24 311.03 350.24 310.33
  Q 350.23 292.35 350.26 271.81
  C 350.27 268.34 353.33 269.00 355.56 268.84
  Q 356.19 268.80 356.14 268.17
  L 356.01 266.11
  Q 355.96 265.51 355.36 265.51
  L 340.45 265.49
  Q 339.36 265.48 339.31 266.57
  L 339.26 267.79
  Q 339.21 268.84 340.26 268.88
  C 342.33 268.97 345.15 268.51 345.20 271.56
  Q 345.42 283.31 345.24 295.81"
/>
<path stroke="#80ac93" vector-effect="non-scaling-stroke" d="
  M 376.89 307.46
  A 1.87 1.87 0.0 0 1 375.11 305.87
  Q 374.76 303.57 374.77 301.00
  Q 374.78 286.04 374.87 271.99
  C 374.89 268.41 378.07 269.04 380.45 268.76
  Q 380.92 268.70 380.90 268.23
  L 380.78 266.00
  Q 380.76 265.49 380.25 265.49
  L 359.49 265.50
  Q 358.74 265.50 358.73 266.26
  L 358.71 268.44
  Q 358.70 268.97 359.23 268.98
  C 361.82 269.05 364.60 268.43 364.62 272.25
  Q 364.68 287.23 364.54 304.50
  C 364.52 307.34 362.31 307.89 360.02 307.46
  A 1.06 1.05 7.9 0 0 358.77 308.40
  L 358.62 310.03
  Q 358.53 311.00 359.50 310.99
  L 380.10 310.94
  Q 381.02 310.94 380.94 310.02
  L 380.80 308.52
  Q 380.72 307.59 379.78 307.56
  L 376.89 307.46"
/>
<path stroke="#80ac93" vector-effect="non-scaling-stroke" d="
  M 389.50 282.72
  A 0.32 0.32 0.0 0 0 389.81 282.99
  L 393.60 283.02
  A 0.32 0.32 0.0 0 0 393.91 282.75
  L 396.69 265.87
  A 0.32 0.32 0.0 0 0 396.37 265.50
  L 387.11 265.50
  A 0.32 0.32 0.0 0 0 386.79 265.87
  L 389.50 282.72"
/>
<path stroke="#80ac93" vector-effect="non-scaling-stroke" d="
  M 158.00 351.24
  Q 158.15 346.25 160.80 350.48
  L 163.56 354.88
  Q 164.16 355.85 165.30 355.92
  L 167.26 356.04
  Q 168.54 356.12 167.55 355.31
  Q 164.82 353.06 162.68 348.87
  Q 162.36 348.25 162.97 347.91
  C 164.21 347.20 165.32 346.06 165.49 344.58
  C 166.23 337.95 157.74 339.63 154.04 339.37
  Q 153.69 339.34 153.47 339.64
  A 0.50 0.49 22.6 0 0 153.79 340.41
  C 154.86 340.61 155.51 341.40 155.51 342.49
  Q 155.51 348.25 155.51 354.00
  Q 155.51 354.59 154.92 354.69
  Q 154.23 354.80 153.62 355.21
  Q 152.49 355.96 153.84 355.97
  L 159.76 356.00
  Q 160.15 356.00 160.19 355.62
  L 160.21 355.36
  Q 160.22 355.30 160.16 355.29
  Q 158.99 355.13 158.28 354.44
  Q 157.91 354.09 157.93 353.58
  L 158.00 351.24"
/>
<path stroke="#80ac93" vector-effect="non-scaling-stroke" d="
  M 175.99 340.97
  Q 176.00 340.69 176.28 340.69
  L 180.65 340.75
  Q 181.30 340.76 181.47 341.40
  L 181.99 343.46
  A 0.56 0.49 -79.6 0 0 182.12 343.68
  Q 182.39 343.93 182.69 343.80
  Q 183.19 343.58 183.16 343.04
  L 183.00 340.06
  Q 182.97 339.40 182.31 339.40
  L 171.54 339.46
  Q 171.44 339.46 171.38 339.54
  Q 171.28 339.67 171.26 339.82
  Q 171.19 340.28 171.65 340.36
  Q 173.48 340.64 173.49 342.41
  Q 173.53 348.29 173.47 353.99
  Q 173.46 354.64 172.82 354.78
  Q 172.17 354.92 171.61 355.28
  Q 170.57 355.96 171.81 355.96
  L 183.08 355.99
  Q 183.90 355.99 183.91 355.18
  L 183.94 352.26
  Q 183.95 351.79 183.48 351.87
  L 183.16 351.93
  Q 182.51 352.05 182.52 352.70
  C 182.57 355.46 179.02 354.75 177.23 354.86
  Q 175.89 354.94 175.92 353.61
  L 176.01 348.84
  Q 176.02 347.96 176.91 347.96
  L 181.00 347.98
  Q 181.48 347.99 181.46 347.51
  L 181.45 347.18
  Q 181.44 346.73 180.98 346.73
  L 176.24 346.75
  Q 175.97 346.76 175.98 346.49
  L 175.99 340.97"
/>
<path stroke="#80ac93" vector-effect="non-scaling-stroke" d="
  M 195.17 349.57
  C 201.00 352.38 191.78 358.89 190.73 352.08
  Q 190.65 351.60 190.18 351.50
  Q 189.38 351.33 189.13 352.10
  C 187.32 357.67 200.39 358.34 199.00 350.39
  C 198.27 346.22 190.71 347.37 191.39 342.55
  A 2.36 2.34 89.2 0 1 193.31 340.56
  Q 195.99 340.10 196.68 342.92
  A 0.59 0.59 0.0 0 0 197.56 343.28
  Q 199.08 342.33 198.17 340.90
  C 196.92 338.94 193.90 338.95 191.96 339.52
  C 188.03 340.70 188.29 345.87 191.60 347.71
  Q 193.33 348.68 195.17 349.57"
/>
<path stroke="#80ac93" vector-effect="non-scaling-stroke" d="
  M 211.29 353.96
  L 211.27 341.80
  Q 211.26 340.62 212.45 340.68
  L 213.99 340.75
  A 1.23 1.23 0.0 0 1 215.16 341.88
  Q 215.24 342.86 215.87 343.56
  Q 216.29 344.03 216.50 343.43
  Q 217.06 341.75 216.57 339.89
  Q 216.44 339.38 215.92 339.38
  L 204.26 339.36
  Q 203.61 339.36 203.56 340.00
  L 203.35 343.19
  Q 203.32 343.65 203.77 343.71
  Q 204.14 343.76 204.46 343.45
  A 0.69 0.66 72.1 0 0 204.65 343.06
  Q 205.02 340.03 208.31 340.79
  Q 208.90 340.92 208.89 341.52
  L 208.81 353.78
  Q 208.81 354.33 208.35 354.65
  Q 207.58 355.19 206.40 355.27
  Q 206.34 355.27 206.34 355.33
  L 206.34 355.60
  A 0.41 0.41 0.0 0 0 206.76 356.01
  Q 209.95 355.92 213.44 356.01
  Q 213.69 356.01 213.79 355.78
  Q 213.81 355.73 213.80 355.68
  Q 213.73 355.27 213.33 355.17
  Q 212.48 354.96 211.73 354.63
  Q 211.29 354.43 211.29 353.96"
/>
<path stroke="#80ac93" vector-effect="non-scaling-stroke" d="
  M 231.06 351.28
  L 231.85 354.12
  A 0.52 0.52 0.0 0 1 231.37 354.78
  Q 230.75 354.81 230.24 355.15
  A 0.44 0.43 -61.1 0 0 230.47 355.95
  L 235.99 356.02
  Q 237.11 356.04 236.17 355.43
  Q 235.66 355.11 235.15 354.80
  Q 234.71 354.53 234.52 354.04
  Q 232.12 347.60 229.57 340.43
  Q 229.29 339.65 228.53 339.33
  A 1.10 1.09 -68.4 0 0 227.08 339.96
  L 221.92 353.83
  Q 221.73 354.35 221.26 354.66
  L 220.29 355.30
  Q 219.24 356.00 220.50 355.99
  L 224.99 355.98
  Q 227.10 355.97 225.16 355.13
  L 224.16 354.70
  Q 223.57 354.44 223.66 353.80
  Q 223.86 352.31 224.57 351.13
  Q 224.93 350.54 225.63 350.53
  L 230.04 350.51
  Q 230.84 350.51 231.06 351.28"
/>
<path stroke="#80ac93" vector-effect="non-scaling-stroke" d="
  M 254.30 340.78
  Q 254.99 340.81 255.32 340.23
  Q 255.80 339.40 254.84 339.41
  L 250.49 339.47
  Q 248.46 339.50 250.26 340.45
  L 251.22 340.96
  A 1.26 1.26 0.0 0 1 251.89 342.09
  L 251.78 351.18
  Q 251.73 354.85 248.07 354.77
  L 247.44 354.75
  Q 244.21 354.68 244.20 351.44
  L 244.18 341.79
  Q 244.18 341.20 244.74 341.04
  Q 245.67 340.76 246.31 340.05
  A 0.36 0.36 0.0 0 0 246.04 339.45
  L 240.07 339.43
  Q 239.14 339.42 239.71 340.16
  Q 240.07 340.63 240.66 340.72
  A 1.30 1.30 0.0 0 1 241.77 342.04
  Q 241.65 347.08 241.80 351.41
  Q 241.94 355.73 246.50 356.18
  C 252.92 356.81 253.65 352.87 253.40 347.97
  Q 253.24 344.71 253.49 341.51
  Q 253.55 340.76 254.30 340.78"
/>
<path stroke="#80ac93" vector-effect="non-scaling-stroke" d="
  M 268.78 348.02
  C 273.98 345.14 271.51 339.51 266.15 339.38
  Q 263.23 339.31 260.27 339.45
  Q 258.43 339.53 260.03 340.44
  L 260.85 340.91
  Q 261.52 341.29 261.51 342.06
  L 261.49 353.79
  A 1.04 1.03 85.0 0 1 260.64 354.81
  Q 259.95 354.94 259.38 355.34
  Q 258.47 355.98 259.58 355.98
  L 265.71 355.99
  Q 266.67 355.99 265.91 355.40
  Q 265.32 354.94 264.61 354.66
  A 0.99 0.98 -79.7 0 1 263.98 353.74
  L 263.99 351.35
  Q 264.01 346.12 266.80 350.54
  L 269.63 355.01
  Q 270.06 355.69 270.85 355.79
  L 273.01 356.07
  Q 274.78 356.30 273.39 355.17
  Q 270.90 353.14 268.56 348.73
  Q 268.32 348.27 268.78 348.02"
/>
<path stroke="#80ac93" vector-effect="non-scaling-stroke" d="
  M 280.09 353.88
  L 280.92 351.16
  Q 281.13 350.51 281.81 350.51
  L 286.65 350.55
  A 0.88 0.88 0.0 0 1 287.49 351.17
  L 288.26 353.63
  Q 288.53 354.48 287.68 354.75
  Q 287.32 354.87 286.97 355.05
  Q 285.26 355.97 287.20 355.97
  L 292.27 355.98
  Q 293.65 355.98 292.48 355.24
  Q 292.13 355.02 291.75 354.83
  A 1.48 1.44 -88.3 0 1 291.01 354.02
  Q 288.69 347.75 286.46 341.47
  Q 286.16 340.63 285.72 339.85
  A 1.16 1.15 41.1 0 0 283.64 339.99
  Q 280.79 347.18 278.66 353.35
  Q 278.28 354.46 277.19 354.97
  Q 275.07 355.97 277.42 356.00
  Q 279.56 356.02 281.96 355.98
  Q 282.20 355.98 282.15 355.74
  L 282.08 355.39
  Q 282.05 355.25 281.91 355.21
  L 280.51 354.72
  Q 279.89 354.51 280.09 353.88"
/>
<path stroke="#80ac93" vector-effect="non-scaling-stroke" d="
  M 308.42 351.18
  L 301.26 339.99
  Q 300.98 339.55 300.46 339.48
  Q 298.74 339.27 297.62 339.38
  Q 295.78 339.56 297.34 340.54
  L 298.43 341.22
  Q 298.92 341.53 298.89 342.10
  Q 298.59 347.49 298.83 352.90
  Q 298.93 355.17 296.49 355.24
  A 0.36 0.35 44.3 0 0 296.50 355.95
  L 302.46 355.99
  Q 302.65 355.99 302.65 355.81
  L 302.65 355.47
  Q 302.66 355.22 302.41 355.21
  Q 300.31 355.11 300.29 353.09
  Q 300.25 348.40 300.22 344.22
  Q 300.21 342.63 301.07 343.97
  L 307.68 354.26
  Q 310.59 358.78 310.60 353.41
  Q 310.61 348.18 310.57 342.07
  Q 310.56 340.77 311.79 340.79
  Q 312.34 340.80 312.55 340.29
  L 312.65 340.02
  Q 312.89 339.43 312.26 339.42
  L 307.33 339.39
  A 0.41 0.40 87.5 0 0 306.92 339.84
  L 306.95 340.16
  Q 307.00 340.71 307.55 340.68
  Q 308.03 340.66 308.48 340.80
  Q 309.04 340.97 309.04 341.54
  L 309.09 350.98
  Q 309.10 352.23 308.42 351.18"
/>
<path stroke="#80ac93" vector-effect="non-scaling-stroke" d="
  M 328.29 341.51
  Q 328.39 342.49 328.85 343.35
  Q 329.45 344.46 329.77 343.24
  Q 330.16 341.73 329.88 339.98
  A 0.73 0.71 -4.1 0 0 329.16 339.37
  L 317.53 339.44
  Q 316.75 339.45 316.75 340.22
  L 316.74 343.20
  Q 316.74 343.70 317.24 343.69
  Q 317.40 343.69 317.52 343.57
  Q 317.79 343.29 317.85 342.91
  Q 318.26 340.07 321.56 340.79
  Q 322.08 340.90 322.08 341.43
  L 322.07 354.02
  Q 322.07 354.38 321.76 354.57
  Q 321.00 355.02 320.02 355.16
  A 0.27 0.26 -6.2 0 0 319.80 355.43
  L 319.82 355.71
  Q 319.83 355.97 320.10 355.97
  L 326.64 355.98
  Q 326.87 355.98 326.89 355.74
  L 326.91 355.49
  Q 326.92 355.37 326.81 355.32
  L 324.90 354.55
  A 0.60 0.60 0.0 0 1 324.52 353.99
  L 324.50 341.48
  Q 324.50 340.71 325.27 340.72
  L 327.48 340.77
  Q 328.21 340.78 328.29 341.51"
/>
<path stroke="#80ac93" vector-effect="non-scaling-stroke" d="
  M 338.68 341.14
  Q 338.67 340.70 339.11 340.71
  L 343.38 340.78
  Q 344.03 340.79 344.20 341.41
  Q 344.43 342.23 344.61 343.11
  Q 344.72 343.61 345.19 343.73
  Q 345.81 343.88 345.82 343.25
  L 345.88 340.04
  A 0.60 0.59 1.0 0 0 345.29 339.44
  L 334.63 339.38
  A 0.40 0.40 0.0 0 0 334.23 339.79
  Q 334.23 340.01 334.36 340.18
  Q 334.55 340.44 334.87 340.53
  Q 336.30 340.96 336.28 342.44
  Q 336.21 347.69 336.27 353.26
  Q 336.29 355.04 334.38 355.02
  Q 334.05 355.02 334.05 355.35
  L 334.04 355.66
  Q 334.04 355.95 334.33 355.95
  L 345.94 355.98
  Q 346.61 355.98 346.64 355.31
  L 346.78 352.49
  Q 346.80 351.93 346.24 351.94
  L 345.95 351.94
  A 0.56 0.55 2.3 0 0 345.41 352.43
  C 345.07 355.67 341.71 354.72 339.51 354.73
  Q 338.66 354.74 338.67 353.88
  L 338.75 348.74
  Q 338.76 347.98 339.51 347.98
  L 343.67 347.97
  A 0.56 0.56 0.0 0 0 344.22 347.49
  L 344.28 347.04
  Q 344.31 346.77 344.04 346.76
  L 339.10 346.71
  Q 338.75 346.70 338.75 346.35
  L 338.68 341.14"
/>
<path stroke="#80ac93" vector-effect="non-scaling-stroke" d="
  M 237.43 195.04
  L 248.94 190.30
  Q 250.08 189.83 248.91 189.46
  Q 234.43 184.88 223.83 192.18
  Q 221.52 193.78 224.33 193.74
  Q 230.27 193.65 236.40 195.12
  Q 236.93 195.25 237.43 195.04"
/>
<path stroke="#80ac93" vector-effect="non-scaling-stroke" d="
  M 255.31 201.68
  C 271.02 197.09 284.46 201.82 293.56 214.77
  Q 293.72 215.01 294.00 215.01
  L 302.50 215.01
  A 0.15 0.15 0.0 0 0 302.63 214.79
  C 289.56 192.94 267.32 186.80 244.11 196.90
  A 0.30 0.30 0.0 0 0 244.11 197.45
  L 253.73 201.58
  A 2.40 2.34 47.8 0 0 255.31 201.68"
/>
<path stroke="#80ac93" vector-effect="non-scaling-stroke" d="
  M 242.78 211.01
  C 248.03 213.41 252.41 215.21 258.54 215.06
  Q 263.23 214.94 267.93 215.01
  Q 268.99 215.03 268.07 214.50
  C 259.05 209.27 249.26 203.51 239.14 200.34
  C 222.61 195.15 201.44 197.30 192.90 214.32
  A 0.45 0.45 0.0 0 0 193.30 214.98
  L 201.21 215.00
  A 1.40 1.37 -69.9 0 0 202.28 214.49
  Q 210.86 203.89 225.61 206.10
  Q 235.14 207.53 242.78 211.01"
/>
<path stroke="#80ac93" vector-effect="non-scaling-stroke" d="
  M 260.85 205.57
  C 266.86 208.75 273.12 212.79 279.46 214.51
  Q 282.91 215.45 287.49 214.92
  Q 288.29 214.82 287.75 214.23
  Q 276.52 201.77 260.97 204.74
  Q 259.73 204.98 260.85 205.57"
/>
<path stroke="#80ac93" vector-effect="non-scaling-stroke" d="
  M 224.99 210.38
  C 219.19 209.39 213.18 210.38 208.64 214.03
  Q 207.41 215.01 208.98 215.01
  L 239.27 214.99
  Q 241.70 214.99 239.42 214.15
  C 234.77 212.44 229.89 211.22 224.99 210.38"
/>
<path stroke="#80ac93" vector-effect="non-scaling-stroke" d="
  M 198.98 219.49
  A 0.51 0.51 0.0 0 0 198.52 220.21
  L 207.67 239.96
  A 0.51 0.51 0.0 0 0 208.14 240.26
  L 291.86 240.25
  A 0.51 0.51 0.0 0 0 292.33 239.95
  L 301.39 220.22
  A 0.51 0.51 0.0 0 0 300.92 219.50
  L 198.98 219.49"
/>
<path stroke="#80ac93" vector-effect="non-scaling-stroke" d="
  M 271.92 278.40
  C 270.30 286.43 268.85 310.56 284.32 307.10
  C 293.38 305.08 292.78 290.26 292.40 283.48
  C 292.05 277.01 290.04 269.51 282.44 269.05
  C 276.36 268.68 273.03 272.87 271.92 278.40"
/>
<path stroke="#80ac93" vector-effect="non-scaling-stroke" d="
  M 137.69 291.72
  A 0.33 0.33 0.0 0 0 138.00 292.16
  L 149.73 292.14
  A 0.33 0.33 0.0 0 0 150.05 291.71
  L 144.51 273.60
  A 0.33 0.33 0.0 0 0 143.88 273.59
  L 137.69 291.72"
/>
<path stroke="#80ac93" vector-effect="non-scaling-stroke" d="
  M 187.96 269.84
  L 187.96 287.00
  A 0.53 0.53 0.0 0 0 188.49 287.53
  L 192.25 287.53
  A 7.26 6.95 -90.0 0 0 199.20 280.27
  L 199.20 276.57
  A 7.26 6.95 90.0 0 0 192.25 269.31
  L 188.49 269.31
  A 0.53 0.53 0.0 0 0 187.96 269.84"
/>
<path stroke="#80ac93" vector-effect="non-scaling-stroke" d="
  M 157.95 341.07
  L 157.95 347.15
  A 0.44 0.44 0.0 0 0 158.39 347.59
  L 159.90 347.59
  A 3.21 3.04 -0.0 0 0 163.11 344.55
  L 163.11 343.67
  A 3.21 3.04 0.0 0 0 159.90 340.63
  L 158.39 340.63
  A 0.44 0.44 0.0 0 0 157.95 341.07"
/>
<path stroke="#80ac93" vector-effect="non-scaling-stroke" d="
  M 225.36 348.82
  A 0.32 0.32 0.0 0 0 225.66 349.24
  L 229.84 349.23
  A 0.32 0.32 0.0 0 0 230.14 348.80
  L 228.03 343.00
  A 0.32 0.32 0.0 0 0 227.43 343.00
  L 225.36 348.82"
/>
<path stroke="#80ac93" vector-effect="non-scaling-stroke" d="
  M 263.96 341.04
  L 264.00 347.14
  A 0.42 0.42 0.0 0 0 264.42 347.56
  L 266.05 347.55
  A 3.01 2.98 -0.3 0 0 269.04 344.56
  L 269.04 343.58
  A 3.01 2.98 -0.3 0 0 266.01 340.61
  L 264.38 340.62
  A 0.42 0.42 0.0 0 0 263.96 341.04"
/>
<path stroke="#80ac93" vector-effect="non-scaling-stroke" d="
  M 284.69 342.88
  A 0.32 0.32 0.0 0 0 284.09 342.87
  L 281.87 348.77
  A 0.32 0.32 0.0 0 0 282.16 349.21
  L 286.28 349.27
  A 0.32 0.32 0.0 0 0 286.59 348.86
  L 284.69 342.88"
/>
</g>
<path fill="#015927" d="
  M 0.00 0.00
  L 500.00 0.00
  L 500.00 500.00
  L 0.00 500.00
  L 0.00 0.00
  Z
  M 237.24 156.96
  C 232.93 152.20 231.10 147.98 236.24 142.15
  Q 237.27 140.98 236.35 139.73
  Q 236.06 139.34 235.60 139.20
  Q 233.59 138.58 232.27 140.20
  C 227.74 145.74 227.53 152.59 232.24 157.84
  C 237.00 163.13 237.47 167.66 232.68 173.37
  Q 232.23 173.91 232.43 174.59
  Q 232.90 176.17 234.50 176.47
  A 1.42 1.40 -60.5 0 0 235.73 176.12
  C 241.12 171.06 242.26 162.50 237.24 156.96
  Z
  M 252.73 157.08
  C 248.05 151.87 246.74 147.84 251.71 141.98
  A 1.80 1.79 30.9 0 0 250.99 139.14
  C 248.83 138.30 247.20 140.41 246.29 142.00
  Q 241.61 150.17 247.02 157.03
  Q 248.68 159.14 250.10 161.22
  Q 253.70 166.45 248.12 173.27
  Q 247.05 174.58 248.39 175.64
  L 248.91 176.05
  A 1.90 1.89 40.3 0 0 251.49 175.84
  C 256.27 170.61 257.68 162.58 252.73 157.08
  Z
  M 268.08 157.12
  C 263.56 151.89 261.92 148.30 266.94 142.24
  Q 268.12 140.82 266.87 139.45
  Q 266.70 139.25 266.45 139.17
  Q 264.17 138.42 262.69 140.51
  Q 257.81 147.40 260.36 153.61
  C 262.79 159.51 269.67 162.35 265.62 170.02
  Q 264.74 171.70 263.60 173.17
  Q 262.52 174.58 263.87 175.74
  L 264.25 176.07
  A 1.83 1.82 41.3 0 0 266.80 175.91
  C 271.67 170.52 273.07 162.88 268.08 157.12
  Z
  M 193.73 220.00
  L 204.40 243.20
  Q 204.85 244.18 205.93 244.18
  L 294.07 244.14
  A 1.60 1.59 -77.5 0 0 295.52 243.21
  L 306.26 219.97
  Q 306.49 219.46 307.05 219.46
  L 324.26 219.49
  Q 326.02 219.49 326.03 217.74
  L 326.03 216.72
  Q 326.04 215.03 324.35 215.03
  L 308.26 214.99
  A 0.91 0.89 75.0 0 1 307.48 214.53
  C 298.74 198.97 285.27 188.66 267.05 187.77
  C 264.58 187.64 262.00 188.00 259.56 188.27
  C 256.40 188.62 253.27 186.35 250.37 185.42
  Q 229.64 178.76 215.90 193.53
  Q 215.42 194.05 214.73 194.19
  C 202.42 196.76 193.00 202.68 188.31 214.34
  Q 188.05 214.99 187.35 214.99
  L 175.51 215.04
  Q 174.03 215.05 173.99 216.53
  L 173.95 218.05
  Q 173.91 219.45 175.30 219.45
  L 192.98 219.52
  A 0.83 0.82 -12.3 0 1 193.73 220.00
  Z
  M 303.0937 284.3710
  A 19.53 19.53 0.0 0 0 283.4279 264.9778
  L 279.7679 265.0033
  A 19.53 19.53 0.0 0 0 260.3748 284.6692
  L 260.4263 292.0490
  A 19.53 19.53 0.0 0 0 280.0921 311.4422
  L 283.7521 311.4167
  A 19.53 19.53 0.0 0 0 303.1452 291.7508
  L 303.0937 284.3710
  Z
  M 414.98 279.85
  C 409.64 275.57 413.49 266.95 420.51 269.14
  C 423.96 270.22 424.95 273.59 425.55 277.12
  Q 425.65 277.70 426.23 277.66
  C 430.68 277.35 435.06 274.79 432.63 269.76
  C 430.03 264.38 419.42 264.47 414.63 265.52
  C 401.86 268.28 400.37 284.06 412.06 289.69
  Q 416.74 291.94 421.63 294.18
  C 425.47 295.94 427.95 299.90 425.91 304.02
  Q 424.62 306.62 421.59 307.37
  C 414.11 309.22 410.41 304.12 410.21 297.44
  A 0.67 0.67 0.0 0 0 409.49 296.79
  Q 403.36 297.21 402.94 302.18
  C 402.20 311.03 414.64 312.03 420.56 311.46
  C 427.82 310.76 434.49 306.53 435.06 298.79
  C 436.00 286.00 422.29 285.70 414.98 279.85
  Z
  M 74.50 273.24
  Q 74.66 273.27 74.71 273.40
  Q 80.70 290.84 87.37 310.35
  Q 87.60 310.99 88.28 310.99
  L 91.40 310.96
  Q 92.06 310.95 92.26 310.33
  L 104.11 274.13
  Q 104.87 271.82 104.84 274.25
  Q 104.69 289.00 104.69 304.26
  Q 104.69 307.88 101.33 307.44
  A 1.00 0.99 8.3 0 0 100.21 308.27
  L 99.97 309.74
  Q 99.77 310.95 100.99 310.95
  L 119.98 311.00
  Q 120.72 311.00 120.68 310.26
  L 120.56 308.04
  Q 120.53 307.44 119.92 307.48
  C 117.93 307.61 114.79 307.90 114.77 304.99
  Q 114.64 288.14 114.76 271.25
  A 2.23 2.22 88.2 0 1 116.82 269.05
  L 119.75 268.84
  Q 120.76 268.77 120.75 267.75
  L 120.74 266.49
  Q 120.72 265.50 119.74 265.50
  L 102.80 265.49
  Q 102.49 265.49 102.40 265.79
  L 92.79 294.99
  Q 92.42 296.13 92.02 295.00
  L 81.96 265.81
  A 0.48 0.47 -9.4 0 0 81.51 265.49
  L 64.59 265.50
  Q 63.48 265.50 63.36 266.61
  L 63.26 267.47
  A 1.30 1.29 -85.4 0 0 64.48 268.91
  L 67.40 269.05
  A 1.78 1.77 -4.3 0 1 69.07 270.48
  Q 69.46 272.50 69.47 274.25
  Q 69.54 289.39 69.36 305.31
  A 2.10 2.09 88.7 0 1 67.40 307.37
  L 64.59 307.55
  A 1.35 1.34 0.5 0 0 63.34 308.77
  L 63.25 309.68
  Q 63.14 310.98 64.44 310.97
  L 78.55 310.96
  Q 79.56 310.96 79.50 309.95
  L 79.40 308.38
  Q 79.33 307.34 78.30 307.46
  Q 74.17 307.95 74.21 303.01
  Q 74.33 286.84 74.15 273.53
  Q 74.14 273.17 74.50 273.24
  Z
  M 151.67 296.35
  C 152.54 298.82 154.65 303.35 154.12 305.97
  A 1.85 1.84 4.6 0 1 152.39 307.44
  L 149.82 307.54
  Q 149.20 307.57 149.16 308.18
  L 149.01 310.21
  Q 148.96 310.97 149.72 310.97
  L 169.51 310.97
  Q 170.24 310.97 170.23 310.24
  L 170.22 308.34
  Q 170.22 307.38 169.27 307.45
  Q 165.92 307.67 164.70 304.26
  Q 157.44 283.98 151.16 266.13
  A 0.95 0.94 80.5 0 0 150.29 265.50
  L 142.74 265.47
  A 0.91 0.91 0.0 0 0 141.89 266.06
  Q 135.10 284.60 127.96 303.81
  Q 126.57 307.54 123.30 307.53
  Q 122.38 307.52 122.41 308.44
  L 122.47 310.48
  Q 122.48 310.98 122.98 310.98
  L 138.17 310.96
  A 0.96 0.96 0.0 0 0 139.13 309.96
  L 139.07 308.64
  Q 139.02 307.59 137.97 307.58
  C 135.99 307.55 133.07 307.73 133.61 304.65
  Q 134.29 300.86 135.95 296.55
  Q 136.16 296.00 136.75 296.00
  L 151.19 296.01
  A 0.51 0.51 0.0 0 1 151.67 296.35
  Z
  M 201.70 289.18
  C 206.48 287.27 209.66 283.38 209.92 278.15
  C 210.41 268.32 201.96 265.58 193.99 265.53
  Q 184.09 265.47 172.74 265.51
  Q 172.02 265.51 172.01 266.22
  L 171.98 268.26
  Q 171.97 268.74 172.44 268.83
  C 174.68 269.21 177.86 268.36 177.88 271.96
  Q 178.00 288.76 177.91 304.46
  C 177.88 308.15 174.86 307.36 172.49 307.53
  Q 172.01 307.56 172.00 308.05
  L 171.98 310.22
  Q 171.97 310.97 172.72 310.97
  L 193.26 310.98
  Q 194.01 310.98 193.99 310.24
  L 193.94 308.09
  Q 193.93 307.35 193.20 307.45
  C 191.02 307.74 188.20 307.71 188.07 304.73
  Q 187.82 298.65 188.03 292.07
  Q 188.05 291.22 188.90 291.23
  L 191.46 291.27
  A 1.27 1.27 0.0 0 1 192.54 291.93
  Q 196.14 298.59 199.70 305.25
  C 202.99 311.38 208.86 310.99 214.90 310.94
  A 0.71 0.71 0.0 0 0 215.61 310.19
  L 215.50 308.25
  Q 215.47 307.74 214.97 307.63
  Q 211.37 306.79 208.99 302.61
  Q 205.19 295.89 201.52 289.70
  A 0.36 0.36 0.0 0 1 201.70 289.18
  Z
  M 241.70 269.46
  Q 244.50 269.47 247.14 269.54
  C 251.57 269.66 251.63 274.13 251.77 277.34
  Q 251.80 278.00 252.45 277.98
  L 255.52 277.91
  Q 256.18 277.90 256.17 277.23
  L 255.92 266.20
  Q 255.91 265.50 255.20 265.50
  L 216.68 265.50
  A 0.59 0.58 0.5 0 0 216.09 266.07
  L 215.95 277.30
  Q 215.94 277.92 216.56 277.92
  L 219.64 277.92
  Q 220.33 277.92 220.34 277.23
  C 220.42 274.26 220.52 269.95 224.43 269.60
  Q 227.20 269.36 230.34 269.51
  Q 230.95 269.54 230.95 270.15
  Q 231.08 287.24 230.90 304.41
  C 230.87 308.23 227.87 307.36 225.40 307.54
  Q 224.99 307.57 225.00 307.97
  L 225.03 310.75
  Q 225.03 310.97 225.25 310.97
  L 246.30 310.97
  Q 247.06 310.97 247.03 310.20
  L 246.96 308.34
  Q 246.92 307.52 246.10 307.51
  L 243.37 307.50
  A 1.97 1.97 0.0 0 1 241.46 305.97
  Q 241.02 304.04 241.02 302.04
  Q 241.05 285.51 241.04 270.12
  Q 241.04 269.45 241.70 269.46
  Z
  M 345.24 295.81
  Q 345.22 297.06 344.50 296.04
  L 323.39 266.17
  A 1.65 1.64 -17.4 0 0 322.04 265.47
  L 309.48 265.51
  Q 308.72 265.51 308.72 266.27
  L 308.73 268.18
  A 0.74 0.74 0.0 0 0 309.43 268.92
  L 312.49 269.06
  A 1.95 1.95 0.0 0 1 314.30 270.62
  Q 314.63 272.20 314.63 273.72
  Q 314.68 288.83 314.63 303.64
  Q 314.62 305.44 313.86 306.86
  Q 313.61 307.32 313.08 307.35
  L 309.45 307.57
  A 0.75 0.75 0.0 0 0 308.74 308.31
  L 308.72 310.22
  Q 308.71 310.98 309.47 310.98
  L 324.84 310.95
  A 0.77 0.76 87.6 0 0 325.60 310.12
  L 325.45 308.22
  A 0.73 0.73 0.0 0 0 324.72 307.54
  L 322.12 307.50
  A 2.63 2.63 0.0 0 1 319.52 304.87
  L 319.52 277.68
  Q 319.52 276.02 320.48 277.38
  L 343.82 310.46
  A 1.09 1.06 -16.6 0 0 344.68 310.91
  L 349.54 311.01
  Q 350.24 311.03 350.24 310.33
  Q 350.23 292.35 350.26 271.81
  C 350.27 268.34 353.33 269.00 355.56 268.84
  Q 356.19 268.80 356.14 268.17
  L 356.01 266.11
  Q 355.96 265.51 355.36 265.51
  L 340.45 265.49
  Q 339.36 265.48 339.31 266.57
  L 339.26 267.79
  Q 339.21 268.84 340.26 268.88
  C 342.33 268.97 345.15 268.51 345.20 271.56
  Q 345.42 283.31 345.24 295.81
  Z
  M 376.89 307.46
  A 1.87 1.87 0.0 0 1 375.11 305.87
  Q 374.76 303.57 374.77 301.00
  Q 374.78 286.04 374.87 271.99
  C 374.89 268.41 378.07 269.04 380.45 268.76
  Q 380.92 268.70 380.90 268.23
  L 380.78 266.00
  Q 380.76 265.49 380.25 265.49
  L 359.49 265.50
  Q 358.74 265.50 358.73 266.26
  L 358.71 268.44
  Q 358.70 268.97 359.23 268.98
  C 361.82 269.05 364.60 268.43 364.62 272.25
  Q 364.68 287.23 364.54 304.50
  C 364.52 307.34 362.31 307.89 360.02 307.46
  A 1.06 1.05 7.9 0 0 358.77 308.40
  L 358.62 310.03
  Q 358.53 311.00 359.50 310.99
  L 380.10 310.94
  Q 381.02 310.94 380.94 310.02
  L 380.80 308.52
  Q 380.72 307.59 379.78 307.56
  L 376.89 307.46
  Z
  M 389.50 282.72
  A 0.32 0.32 0.0 0 0 389.81 282.99
  L 393.60 283.02
  A 0.32 0.32 0.0 0 0 393.91 282.75
  L 396.69 265.87
  A 0.32 0.32 0.0 0 0 396.37 265.50
  L 387.11 265.50
  A 0.32 0.32 0.0 0 0 386.79 265.87
  L 389.50 282.72
  Z
  M 158.00 351.24
  Q 158.15 346.25 160.80 350.48
  L 163.56 354.88
  Q 164.16 355.85 165.30 355.92
  L 167.26 356.04
  Q 168.54 356.12 167.55 355.31
  Q 164.82 353.06 162.68 348.87
  Q 162.36 348.25 162.97 347.91
  C 164.21 347.20 165.32 346.06 165.49 344.58
  C 166.23 337.95 157.74 339.63 154.04 339.37
  Q 153.69 339.34 153.47 339.64
  A 0.50 0.49 22.6 0 0 153.79 340.41
  C 154.86 340.61 155.51 341.40 155.51 342.49
  Q 155.51 348.25 155.51 354.00
  Q 155.51 354.59 154.92 354.69
  Q 154.23 354.80 153.62 355.21
  Q 152.49 355.96 153.84 355.97
  L 159.76 356.00
  Q 160.15 356.00 160.19 355.62
  L 160.21 355.36
  Q 160.22 355.30 160.16 355.29
  Q 158.99 355.13 158.28 354.44
  Q 157.91 354.09 157.93 353.58
  L 158.00 351.24
  Z
  M 175.99 340.97
  Q 176.00 340.69 176.28 340.69
  L 180.65 340.75
  Q 181.30 340.76 181.47 341.40
  L 181.99 343.46
  A 0.56 0.49 -79.6 0 0 182.12 343.68
  Q 182.39 343.93 182.69 343.80
  Q 183.19 343.58 183.16 343.04
  L 183.00 340.06
  Q 182.97 339.40 182.31 339.40
  L 171.54 339.46
  Q 171.44 339.46 171.38 339.54
  Q 171.28 339.67 171.26 339.82
  Q 171.19 340.28 171.65 340.36
  Q 173.48 340.64 173.49 342.41
  Q 173.53 348.29 173.47 353.99
  Q 173.46 354.64 172.82 354.78
  Q 172.17 354.92 171.61 355.28
  Q 170.57 355.96 171.81 355.96
  L 183.08 355.99
  Q 183.90 355.99 183.91 355.18
  L 183.94 352.26
  Q 183.95 351.79 183.48 351.87
  L 183.16 351.93
  Q 182.51 352.05 182.52 352.70
  C 182.57 355.46 179.02 354.75 177.23 354.86
  Q 175.89 354.94 175.92 353.61
  L 176.01 348.84
  Q 176.02 347.96 176.91 347.96
  L 181.00 347.98
  Q 181.48 347.99 181.46 347.51
  L 181.45 347.18
  Q 181.44 346.73 180.98 346.73
  L 176.24 346.75
  Q 175.97 346.76 175.98 346.49
  L 175.99 340.97
  Z
  M 195.17 349.57
  C 201.00 352.38 191.78 358.89 190.73 352.08
  Q 190.65 351.60 190.18 351.50
  Q 189.38 351.33 189.13 352.10
  C 187.32 357.67 200.39 358.34 199.00 350.39
  C 198.27 346.22 190.71 347.37 191.39 342.55
  A 2.36 2.34 89.2 0 1 193.31 340.56
  Q 195.99 340.10 196.68 342.92
  A 0.59 0.59 0.0 0 0 197.56 343.28
  Q 199.08 342.33 198.17 340.90
  C 196.92 338.94 193.90 338.95 191.96 339.52
  C 188.03 340.70 188.29 345.87 191.60 347.71
  Q 193.33 348.68 195.17 349.57
  Z
  M 211.29 353.96
  L 211.27 341.80
  Q 211.26 340.62 212.45 340.68
  L 213.99 340.75
  A 1.23 1.23 0.0 0 1 215.16 341.88
  Q 215.24 342.86 215.87 343.56
  Q 216.29 344.03 216.50 343.43
  Q 217.06 341.75 216.57 339.89
  Q 216.44 339.38 215.92 339.38
  L 204.26 339.36
  Q 203.61 339.36 203.56 340.00
  L 203.35 343.19
  Q 203.32 343.65 203.77 343.71
  Q 204.14 343.76 204.46 343.45
  A 0.69 0.66 72.1 0 0 204.65 343.06
  Q 205.02 340.03 208.31 340.79
  Q 208.90 340.92 208.89 341.52
  L 208.81 353.78
  Q 208.81 354.33 208.35 354.65
  Q 207.58 355.19 206.40 355.27
  Q 206.34 355.27 206.34 355.33
  L 206.34 355.60
  A 0.41 0.41 0.0 0 0 206.76 356.01
  Q 209.95 355.92 213.44 356.01
  Q 213.69 356.01 213.79 355.78
  Q 213.81 355.73 213.80 355.68
  Q 213.73 355.27 213.33 355.17
  Q 212.48 354.96 211.73 354.63
  Q 211.29 354.43 211.29 353.96
  Z
  M 231.06 351.28
  L 231.85 354.12
  A 0.52 0.52 0.0 0 1 231.37 354.78
  Q 230.75 354.81 230.24 355.15
  A 0.44 0.43 -61.1 0 0 230.47 355.95
  L 235.99 356.02
  Q 237.11 356.04 236.17 355.43
  Q 235.66 355.11 235.15 354.80
  Q 234.71 354.53 234.52 354.04
  Q 232.12 347.60 229.57 340.43
  Q 229.29 339.65 228.53 339.33
  A 1.10 1.09 -68.4 0 0 227.08 339.96
  L 221.92 353.83
  Q 221.73 354.35 221.26 354.66
  L 220.29 355.30
  Q 219.24 356.00 220.50 355.99
  L 224.99 355.98
  Q 227.10 355.97 225.16 355.13
  L 224.16 354.70
  Q 223.57 354.44 223.66 353.80
  Q 223.86 352.31 224.57 351.13
  Q 224.93 350.54 225.63 350.53
  L 230.04 350.51
  Q 230.84 350.51 231.06 351.28
  Z
  M 254.30 340.78
  Q 254.99 340.81 255.32 340.23
  Q 255.80 339.40 254.84 339.41
  L 250.49 339.47
  Q 248.46 339.50 250.26 340.45
  L 251.22 340.96
  A 1.26 1.26 0.0 0 1 251.89 342.09
  L 251.78 351.18
  Q 251.73 354.85 248.07 354.77
  L 247.44 354.75
  Q 244.21 354.68 244.20 351.44
  L 244.18 341.79
  Q 244.18 341.20 244.74 341.04
  Q 245.67 340.76 246.31 340.05
  A 0.36 0.36 0.0 0 0 246.04 339.45
  L 240.07 339.43
  Q 239.14 339.42 239.71 340.16
  Q 240.07 340.63 240.66 340.72
  A 1.30 1.30 0.0 0 1 241.77 342.04
  Q 241.65 347.08 241.80 351.41
  Q 241.94 355.73 246.50 356.18
  C 252.92 356.81 253.65 352.87 253.40 347.97
  Q 253.24 344.71 253.49 341.51
  Q 253.55 340.76 254.30 340.78
  Z
  M 268.78 348.02
  C 273.98 345.14 271.51 339.51 266.15 339.38
  Q 263.23 339.31 260.27 339.45
  Q 258.43 339.53 260.03 340.44
  L 260.85 340.91
  Q 261.52 341.29 261.51 342.06
  L 261.49 353.79
  A 1.04 1.03 85.0 0 1 260.64 354.81
  Q 259.95 354.94 259.38 355.34
  Q 258.47 355.98 259.58 355.98
  L 265.71 355.99
  Q 266.67 355.99 265.91 355.40
  Q 265.32 354.94 264.61 354.66
  A 0.99 0.98 -79.7 0 1 263.98 353.74
  L 263.99 351.35
  Q 264.01 346.12 266.80 350.54
  L 269.63 355.01
  Q 270.06 355.69 270.85 355.79
  L 273.01 356.07
  Q 274.78 356.30 273.39 355.17
  Q 270.90 353.14 268.56 348.73
  Q 268.32 348.27 268.78 348.02
  Z
  M 280.09 353.88
  L 280.92 351.16
  Q 281.13 350.51 281.81 350.51
  L 286.65 350.55
  A 0.88 0.88 0.0 0 1 287.49 351.17
  L 288.26 353.63
  Q 288.53 354.48 287.68 354.75
  Q 287.32 354.87 286.97 355.05
  Q 285.26 355.97 287.20 355.97
  L 292.27 355.98
  Q 293.65 355.98 292.48 355.24
  Q 292.13 355.02 291.75 354.83
  A 1.48 1.44 -88.3 0 1 291.01 354.02
  Q 288.69 347.75 286.46 341.47
  Q 286.16 340.63 285.72 339.85
  A 1.16 1.15 41.1 0 0 283.64 339.99
  Q 280.79 347.18 278.66 353.35
  Q 278.28 354.46 277.19 354.97
  Q 275.07 355.97 277.42 356.00
  Q 279.56 356.02 281.96 355.98
  Q 282.20 355.98 282.15 355.74
  L 282.08 355.39
  Q 282.05 355.25 281.91 355.21
  L 280.51 354.72
  Q 279.89 354.51 280.09 353.88
  Z
  M 308.42 351.18
  L 301.26 339.99
  Q 300.98 339.55 300.46 339.48
  Q 298.74 339.27 297.62 339.38
  Q 295.78 339.56 297.34 340.54
  L 298.43 341.22
  Q 298.92 341.53 298.89 342.10
  Q 298.59 347.49 298.83 352.90
  Q 298.93 355.17 296.49 355.24
  A 0.36 0.35 44.3 0 0 296.50 355.95
  L 302.46 355.99
  Q 302.65 355.99 302.65 355.81
  L 302.65 355.47
  Q 302.66 355.22 302.41 355.21
  Q 300.31 355.11 300.29 353.09
  Q 300.25 348.40 300.22 344.22
  Q 300.21 342.63 301.07 343.97
  L 307.68 354.26
  Q 310.59 358.78 310.60 353.41
  Q 310.61 348.18 310.57 342.07
  Q 310.56 340.77 311.79 340.79
  Q 312.34 340.80 312.55 340.29
  L 312.65 340.02
  Q 312.89 339.43 312.26 339.42
  L 307.33 339.39
  A 0.41 0.40 87.5 0 0 306.92 339.84
  L 306.95 340.16
  Q 307.00 340.71 307.55 340.68
  Q 308.03 340.66 308.48 340.80
  Q 309.04 340.97 309.04 341.54
  L 309.09 350.98
  Q 309.10 352.23 308.42 351.18
  Z
  M 328.29 341.51
  Q 328.39 342.49 328.85 343.35
  Q 329.45 344.46 329.77 343.24
  Q 330.16 341.73 329.88 339.98
  A 0.73 0.71 -4.1 0 0 329.16 339.37
  L 317.53 339.44
  Q 316.75 339.45 316.75 340.22
  L 316.74 343.20
  Q 316.74 343.70 317.24 343.69
  Q 317.40 343.69 317.52 343.57
  Q 317.79 343.29 317.85 342.91
  Q 318.26 340.07 321.56 340.79
  Q 322.08 340.90 322.08 341.43
  L 322.07 354.02
  Q 322.07 354.38 321.76 354.57
  Q 321.00 355.02 320.02 355.16
  A 0.27 0.26 -6.2 0 0 319.80 355.43
  L 319.82 355.71
  Q 319.83 355.97 320.10 355.97
  L 326.64 355.98
  Q 326.87 355.98 326.89 355.74
  L 326.91 355.49
  Q 326.92 355.37 326.81 355.32
  L 324.90 354.55
  A 0.60 0.60 0.0 0 1 324.52 353.99
  L 324.50 341.48
  Q 324.50 340.71 325.27 340.72
  L 327.48 340.77
  Q 328.21 340.78 328.29 341.51
  Z
  M 338.68 341.14
  Q 338.67 340.70 339.11 340.71
  L 343.38 340.78
  Q 344.03 340.79 344.20 341.41
  Q 344.43 342.23 344.61 343.11
  Q 344.72 343.61 345.19 343.73
  Q 345.81 343.88 345.82 343.25
  L 345.88 340.04
  A 0.60 0.59 1.0 0 0 345.29 339.44
  L 334.63 339.38
  A 0.40 0.40 0.0 0 0 334.23 339.79
  Q 334.23 340.01 334.36 340.18
  Q 334.55 340.44 334.87 340.53
  Q 336.30 340.96 336.28 342.44
  Q 336.21 347.69 336.27 353.26
  Q 336.29 355.04 334.38 355.02
  Q 334.05 355.02 334.05 355.35
  L 334.04 355.66
  Q 334.04 355.95 334.33 355.95
  L 345.94 355.98
  Q 346.61 355.98 346.64 355.31
  L 346.78 352.49
  Q 346.80 351.93 346.24 351.94
  L 345.95 351.94
  A 0.56 0.55 2.3 0 0 345.41 352.43
  C 345.07 355.67 341.71 354.72 339.51 354.73
  Q 338.66 354.74 338.67 353.88
  L 338.75 348.74
  Q 338.76 347.98 339.51 347.98
  L 343.67 347.97
  A 0.56 0.56 0.0 0 0 344.22 347.49
  L 344.28 347.04
  Q 344.31 346.77 344.04 346.76
  L 339.10 346.71
  Q 338.75 346.70 338.75 346.35
  L 338.68 341.14
  Z"
/>
<path fill="#ffffff" d="
  M 236.24 142.15
  C 231.10 147.98 232.93 152.20 237.24 156.96
  C 242.26 162.50 241.12 171.06 235.73 176.12
  A 1.42 1.40 -60.5 0 1 234.50 176.47
  Q 232.90 176.17 232.43 174.59
  Q 232.23 173.91 232.68 173.37
  C 237.47 167.66 237.00 163.13 232.24 157.84
  C 227.53 152.59 227.74 145.74 232.27 140.20
  Q 233.59 138.58 235.60 139.20
  Q 236.06 139.34 236.35 139.73
  Q 237.27 140.98 236.24 142.15
  Z"
/>
<path fill="#ffffff" d="
  M 251.71 141.98
  C 246.74 147.84 248.05 151.87 252.73 157.08
  C 257.68 162.58 256.27 170.61 251.49 175.84
  A 1.90 1.89 40.3 0 1 248.91 176.05
  L 248.39 175.64
  Q 247.05 174.58 248.12 173.27
  Q 253.70 166.45 250.10 161.22
  Q 248.68 159.14 247.02 157.03
  Q 241.61 150.17 246.29 142.00
  C 247.20 140.41 248.83 138.30 250.99 139.14
  A 1.80 1.79 30.9 0 1 251.71 141.98
  Z"
/>
<path fill="#ffffff" d="
  M 266.94 142.24
  C 261.92 148.30 263.56 151.89 268.08 157.12
  C 273.07 162.88 271.67 170.52 266.80 175.91
  A 1.83 1.82 41.3 0 1 264.25 176.07
  L 263.87 175.74
  Q 262.52 174.58 263.60 173.17
  Q 264.74 171.70 265.62 170.02
  C 269.67 162.35 262.79 159.51 260.36 153.61
  Q 257.81 147.40 262.69 140.51
  Q 264.17 138.42 266.45 139.17
  Q 266.70 139.25 266.87 139.45
  Q 268.12 140.82 266.94 142.24
  Z"
/>
<path fill="#ffffff" d="
  M 193.73 220.00
  A 0.83 0.82 -12.3 0 0 192.98 219.52
  L 175.30 219.45
  Q 173.91 219.45 173.95 218.05
  L 173.99 216.53
  Q 174.03 215.05 175.51 215.04
  L 187.35 214.99
  Q 188.05 214.99 188.31 214.34
  C 193.00 202.68 202.42 196.76 214.73 194.19
  Q 215.42 194.05 215.90 193.53
  Q 229.64 178.76 250.37 185.42
  C 253.27 186.35 256.40 188.62 259.56 188.27
  C 262.00 188.00 264.58 187.64 267.05 187.77
  C 285.27 188.66 298.74 198.97 307.48 214.53
  A 0.91 0.89 75.0 0 0 308.26 214.99
  L 324.35 215.03
  Q 326.04 215.03 326.03 216.72
  L 326.03 217.74
  Q 326.02 219.49 324.26 219.49
  L 307.05 219.46
  Q 306.49 219.46 306.26 219.97
  L 295.52 243.21
  A 1.60 1.59 -77.5 0 1 294.07 244.14
  L 205.93 244.18
  Q 204.85 244.18 204.40 243.20
  L 193.73 220.00
  Z
  M 237.43 195.04
  L 248.94 190.30
  Q 250.08 189.83 248.91 189.46
  Q 234.43 184.88 223.83 192.18
  Q 221.52 193.78 224.33 193.74
  Q 230.27 193.65 236.40 195.12
  Q 236.93 195.25 237.43 195.04
  Z
  M 255.31 201.68
  C 271.02 197.09 284.46 201.82 293.56 214.77
  Q 293.72 215.01 294.00 215.01
  L 302.50 215.01
  A 0.15 0.15 0.0 0 0 302.63 214.79
  C 289.56 192.94 267.32 186.80 244.11 196.90
  A 0.30 0.30 0.0 0 0 244.11 197.45
  L 253.73 201.58
  A 2.40 2.34 47.8 0 0 255.31 201.68
  Z
  M 242.78 211.01
  C 248.03 213.41 252.41 215.21 258.54 215.06
  Q 263.23 214.94 267.93 215.01
  Q 268.99 215.03 268.07 214.50
  C 259.05 209.27 249.26 203.51 239.14 200.34
  C 222.61 195.15 201.44 197.30 192.90 214.32
  A 0.45 0.45 0.0 0 0 193.30 214.98
  L 201.21 215.00
  A 1.40 1.37 -69.9 0 0 202.28 214.49
  Q 210.86 203.89 225.61 206.10
  Q 235.14 207.53 242.78 211.01
  Z
  M 260.85 205.57
  C 266.86 208.75 273.12 212.79 279.46 214.51
  Q 282.91 215.45 287.49 214.92
  Q 288.29 214.82 287.75 214.23
  Q 276.52 201.77 260.97 204.74
  Q 259.73 204.98 260.85 205.57
  Z
  M 224.99 210.38
  C 219.19 209.39 213.18 210.38 208.64 214.03
  Q 207.41 215.01 208.98 215.01
  L 239.27 214.99
  Q 241.70 214.99 239.42 214.15
  C 234.77 212.44 229.89 211.22 224.99 210.38
  Z
  M 198.98 219.49
  A 0.51 0.51 0.0 0 0 198.52 220.21
  L 207.67 239.96
  A 0.51 0.51 0.0 0 0 208.14 240.26
  L 291.86 240.25
  A 0.51 0.51 0.0 0 0 292.33 239.95
  L 301.39 220.22
  A 0.51 0.51 0.0 0 0 300.92 219.50
  L 198.98 219.49
  Z"
/>
<path fill="#015927" d="
  M 248.94 190.30
  L 237.43 195.04
  Q 236.93 195.25 236.40 195.12
  Q 230.27 193.65 224.33 193.74
  Q 221.52 193.78 223.83 192.18
  Q 234.43 184.88 248.91 189.46
  Q 250.08 189.83 248.94 190.30
  Z"
/>
<path fill="#015927" d="
  M 293.56 214.77
  C 284.46 201.82 271.02 197.09 255.31 201.68
  A 2.40 2.34 47.8 0 1 253.73 201.58
  L 244.11 197.45
  A 0.30 0.30 0.0 0 1 244.11 196.90
  C 267.32 186.80 289.56 192.94 302.63 214.79
  A 0.15 0.15 0.0 0 1 302.50 215.01
  L 294.00 215.01
  Q 293.72 215.01 293.56 214.77
  Z"
/>
<path fill="#015927" d="
  M 242.78 211.01
  Q 235.14 207.53 225.61 206.10
  Q 210.86 203.89 202.28 214.49
  A 1.40 1.37 -69.9 0 1 201.21 215.00
  L 193.30 214.98
  A 0.45 0.45 0.0 0 1 192.90 214.32
  C 201.44 197.30 222.61 195.15 239.14 200.34
  C 249.26 203.51 259.05 209.27 268.07 214.50
  Q 268.99 215.03 267.93 215.01
  Q 263.23 214.94 258.54 215.06
  C 252.41 215.21 248.03 213.41 242.78 211.01
  Z"
/>
<path fill="#015927" d="
  M 279.46 214.51
  C 273.12 212.79 266.86 208.75 260.85 205.57
  Q 259.73 204.98 260.97 204.74
  Q 276.52 201.77 287.75 214.23
  Q 288.29 214.82 287.49 214.92
  Q 282.91 215.45 279.46 214.51
  Z"
/>
<path fill="#015927" d="
  M 208.64 214.03
  C 213.18 210.38 219.19 209.39 224.99 210.38
  C 229.89 211.22 234.77 212.44 239.42 214.15
  Q 241.70 214.99 239.27 214.99
  L 208.98 215.01
  Q 207.41 215.01 208.64 214.03
  Z"
/>
<path fill="#015927" d="
  M 198.98 219.49
  L 300.92 219.50
  A 0.51 0.51 0.0 0 1 301.39 220.22
  L 292.33 239.95
  A 0.51 0.51 0.0 0 1 291.86 240.25
  L 208.14 240.26
  A 0.51 0.51 0.0 0 1 207.67 239.96
  L 198.52 220.21
  A 0.51 0.51 0.0 0 1 198.98 219.49
  Z"
/>
<path fill="#ffffff" d="
  M 303.1452 291.7508
  A 19.53 19.53 0.0 0 1 283.7521 311.4167
  L 280.0921 311.4422
  A 19.53 19.53 0.0 0 1 260.4263 292.0490
  L 260.3748 284.6692
  A 19.53 19.53 0.0 0 1 279.7679 265.0033
  L 283.4279 264.9778
  A 19.53 19.53 0.0 0 1 303.0937 284.3710
  L 303.1452 291.7508
  Z
  M 271.92 278.40
  C 270.30 286.43 268.85 310.56 284.32 307.10
  C 293.38 305.08 292.78 290.26 292.40 283.48
  C 292.05 277.01 290.04 269.51 282.44 269.05
  C 276.36 268.68 273.03 272.87 271.92 278.40
  Z"
/>
<path fill="#ffffff" d="
  M 414.98 279.85
  C 422.29 285.70 436.00 286.00 435.06 298.79
  C 434.49 306.53 427.82 310.76 420.56 311.46
  C 414.64 312.03 402.20 311.03 402.94 302.18
  Q 403.36 297.21 409.49 296.79
  A 0.67 0.67 0.0 0 1 410.21 297.44
  C 410.41 304.12 414.11 309.22 421.59 307.37
  Q 424.62 306.62 425.91 304.02
  C 427.95 299.90 425.47 295.94 421.63 294.18
  Q 416.74 291.94 412.06 289.69
  C 400.37 284.06 401.86 268.28 414.63 265.52
  C 419.42 264.47 430.03 264.38 432.63 269.76
  C 435.06 274.79 430.68 277.35 426.23 277.66
  Q 425.65 277.70 425.55 277.12
  C 424.95 273.59 423.96 270.22 420.51 269.14
  C 413.49 266.95 409.64 275.57 414.98 279.85
  Z"
/>
<path fill="#ffffff" d="
  M 74.50 273.24
  Q 74.14 273.17 74.15 273.53
  Q 74.33 286.84 74.21 303.01
  Q 74.17 307.95 78.30 307.46
  Q 79.33 307.34 79.40 308.38
  L 79.50 309.95
  Q 79.56 310.96 78.55 310.96
  L 64.44 310.97
  Q 63.14 310.98 63.25 309.68
  L 63.34 308.77
  A 1.35 1.34 0.5 0 1 64.59 307.55
  L 67.40 307.37
  A 2.10 2.09 88.7 0 0 69.36 305.31
  Q 69.54 289.39 69.47 274.25
  Q 69.46 272.50 69.07 270.48
  A 1.78 1.77 -4.3 0 0 67.40 269.05
  L 64.48 268.91
  A 1.30 1.29 -85.4 0 1 63.26 267.47
  L 63.36 266.61
  Q 63.48 265.50 64.59 265.50
  L 81.51 265.49
  A 0.48 0.47 -9.4 0 1 81.96 265.81
  L 92.02 295.00
  Q 92.42 296.13 92.79 294.99
  L 102.40 265.79
  Q 102.49 265.49 102.80 265.49
  L 119.74 265.50
  Q 120.72 265.50 120.74 266.49
  L 120.75 267.75
  Q 120.76 268.77 119.75 268.84
  L 116.82 269.05
  A 2.23 2.22 88.2 0 0 114.76 271.25
  Q 114.64 288.14 114.77 304.99
  C 114.79 307.90 117.93 307.61 119.92 307.48
  Q 120.53 307.44 120.56 308.04
  L 120.68 310.26
  Q 120.72 311.00 119.98 311.00
  L 100.99 310.95
  Q 99.77 310.95 99.97 309.74
  L 100.21 308.27
  A 1.00 0.99 8.3 0 1 101.33 307.44
  Q 104.69 307.88 104.69 304.26
  Q 104.69 289.00 104.84 274.25
  Q 104.87 271.82 104.11 274.13
  L 92.26 310.33
  Q 92.06 310.95 91.40 310.96
  L 88.28 310.99
  Q 87.60 310.99 87.37 310.35
  Q 80.70 290.84 74.71 273.40
  Q 74.66 273.27 74.50 273.24
  Z"
/>
<path fill="#ffffff" d="
  M 151.67 296.35
  A 0.51 0.51 0.0 0 0 151.19 296.01
  L 136.75 296.00
  Q 136.16 296.00 135.95 296.55
  Q 134.29 300.86 133.61 304.65
  C 133.07 307.73 135.99 307.55 137.97 307.58
  Q 139.02 307.59 139.07 308.64
  L 139.13 309.96
  A 0.96 0.96 0.0 0 1 138.17 310.96
  L 122.98 310.98
  Q 122.48 310.98 122.47 310.48
  L 122.41 308.44
  Q 122.38 307.52 123.30 307.53
  Q 126.57 307.54 127.96 303.81
  Q 135.10 284.60 141.89 266.06
  A 0.91 0.91 0.0 0 1 142.74 265.47
  L 150.29 265.50
  A 0.95 0.94 80.5 0 1 151.16 266.13
  Q 157.44 283.98 164.70 304.26
  Q 165.92 307.67 169.27 307.45
  Q 170.22 307.38 170.22 308.34
  L 170.23 310.24
  Q 170.24 310.97 169.51 310.97
  L 149.72 310.97
  Q 148.96 310.97 149.01 310.21
  L 149.16 308.18
  Q 149.20 307.57 149.82 307.54
  L 152.39 307.44
  A 1.85 1.84 4.6 0 0 154.12 305.97
  C 154.65 303.35 152.54 298.82 151.67 296.35
  Z
  M 137.69 291.72
  A 0.33 0.33 0.0 0 0 138.00 292.16
  L 149.73 292.14
  A 0.33 0.33 0.0 0 0 150.05 291.71
  L 144.51 273.60
  A 0.33 0.33 0.0 0 0 143.88 273.59
  L 137.69 291.72
  Z"
/>
<path fill="#ffffff" d="
  M 201.70 289.18
  A 0.36 0.36 0.0 0 0 201.52 289.70
  Q 205.19 295.89 208.99 302.61
  Q 211.37 306.79 214.97 307.63
  Q 215.47 307.74 215.50 308.25
  L 215.61 310.19
  A 0.71 0.71 0.0 0 1 214.90 310.94
  C 208.86 310.99 202.99 311.38 199.70 305.25
  Q 196.14 298.59 192.54 291.93
  A 1.27 1.27 0.0 0 0 191.46 291.27
  L 188.90 291.23
  Q 188.05 291.22 188.03 292.07
  Q 187.82 298.65 188.07 304.73
  C 188.20 307.71 191.02 307.74 193.20 307.45
  Q 193.93 307.35 193.94 308.09
  L 193.99 310.24
  Q 194.01 310.98 193.26 310.98
  L 172.72 310.97
  Q 171.97 310.97 171.98 310.22
  L 172.00 308.05
  Q 172.01 307.56 172.49 307.53
  C 174.86 307.36 177.88 308.15 177.91 304.46
  Q 178.00 288.76 177.88 271.96
  C 177.86 268.36 174.68 269.21 172.44 268.83
  Q 171.97 268.74 171.98 268.26
  L 172.01 266.22
  Q 172.02 265.51 172.74 265.51
  Q 184.09 265.47 193.99 265.53
  C 201.96 265.58 210.41 268.32 209.92 278.15
  C 209.66 283.38 206.48 287.27 201.70 289.18
  Z
  M 187.96 269.84
  L 187.96 287.00
  A 0.53 0.53 0.0 0 0 188.49 287.53
  L 192.25 287.53
  A 7.26 6.95 -90.0 0 0 199.20 280.27
  L 199.20 276.57
  A 7.26 6.95 90.0 0 0 192.25 269.31
  L 188.49 269.31
  A 0.53 0.53 0.0 0 0 187.96 269.84
  Z"
/>
<path fill="#ffffff" d="
  M 241.04 270.12
  Q 241.05 285.51 241.02 302.04
  Q 241.02 304.04 241.46 305.97
  A 1.97 1.97 0.0 0 0 243.37 307.50
  L 246.10 307.51
  Q 246.92 307.52 246.96 308.34
  L 247.03 310.20
  Q 247.06 310.97 246.30 310.97
  L 225.25 310.97
  Q 225.03 310.97 225.03 310.75
  L 225.00 307.97
  Q 224.99 307.57 225.40 307.54
  C 227.87 307.36 230.87 308.23 230.90 304.41
  Q 231.08 287.24 230.95 270.15
  Q 230.95 269.54 230.34 269.51
  Q 227.20 269.36 224.43 269.60
  C 220.52 269.95 220.42 274.26 220.34 277.23
  Q 220.33 277.92 219.64 277.92
  L 216.56 277.92
  Q 215.94 277.92 215.95 277.30
  L 216.09 266.07
  A 0.59 0.58 0.5 0 1 216.68 265.50
  L 255.20 265.50
  Q 255.91 265.50 255.92 266.20
  L 256.17 277.23
  Q 256.18 277.90 255.52 277.91
  L 252.45 277.98
  Q 251.80 278.00 251.77 277.34
  C 251.63 274.13 251.57 269.66 247.14 269.54
  Q 244.50 269.47 241.70 269.46
  Q 241.04 269.45 241.04 270.12
  Z"
/>
<path fill="#ffffff" d="
  M 345.24 295.81
  Q 345.42 283.31 345.20 271.56
  C 345.15 268.51 342.33 268.97 340.26 268.88
  Q 339.21 268.84 339.26 267.79
  L 339.31 266.57
  Q 339.36 265.48 340.45 265.49
  L 355.36 265.51
  Q 355.96 265.51 356.01 266.11
  L 356.14 268.17
  Q 356.19 268.80 355.56 268.84
  C 353.33 269.00 350.27 268.34 350.26 271.81
  Q 350.23 292.35 350.24 310.33
  Q 350.24 311.03 349.54 311.01
  L 344.68 310.91
  A 1.09 1.06 -16.6 0 1 343.82 310.46
  L 320.48 277.38
  Q 319.52 276.02 319.52 277.68
  L 319.52 304.87
  A 2.63 2.63 0.0 0 0 322.12 307.50
  L 324.72 307.54
  A 0.73 0.73 0.0 0 1 325.45 308.22
  L 325.60 310.12
  A 0.77 0.76 87.6 0 1 324.84 310.95
  L 309.47 310.98
  Q 308.71 310.98 308.72 310.22
  L 308.74 308.31
  A 0.75 0.75 0.0 0 1 309.45 307.57
  L 313.08 307.35
  Q 313.61 307.32 313.86 306.86
  Q 314.62 305.44 314.63 303.64
  Q 314.68 288.83 314.63 273.72
  Q 314.63 272.20 314.30 270.62
  A 1.95 1.95 0.0 0 0 312.49 269.06
  L 309.43 268.92
  A 0.74 0.74 0.0 0 1 308.73 268.18
  L 308.72 266.27
  Q 308.72 265.51 309.48 265.51
  L 322.04 265.47
  A 1.65 1.64 -17.4 0 1 323.39 266.17
  L 344.50 296.04
  Q 345.22 297.06 345.24 295.81
  Z"
/>
<path fill="#ffffff" d="
  M 376.89 307.46
  L 379.78 307.56
  Q 380.72 307.59 380.80 308.52
  L 380.94 310.02
  Q 381.02 310.94 380.10 310.94
  L 359.50 310.99
  Q 358.53 311.00 358.62 310.03
  L 358.77 308.40
  A 1.06 1.05 7.9 0 1 360.02 307.46
  C 362.31 307.89 364.52 307.34 364.54 304.50
  Q 364.68 287.23 364.62 272.25
  C 364.60 268.43 361.82 269.05 359.23 268.98
  Q 358.70 268.97 358.71 268.44
  L 358.73 266.26
  Q 358.74 265.50 359.49 265.50
  L 380.25 265.49
  Q 380.76 265.49 380.78 266.00
  L 380.90 268.23
  Q 380.92 268.70 380.45 268.76
  C 378.07 269.04 374.89 268.41 374.87 271.99
  Q 374.78 286.04 374.77 301.00
  Q 374.76 303.57 375.11 305.87
  A 1.87 1.87 0.0 0 0 376.89 307.46
  Z"
/>
<path fill="#ffffff" d="
  M 389.50 282.72
  L 386.79 265.87
  A 0.32 0.32 0.0 0 1 387.11 265.50
  L 396.37 265.50
  A 0.32 0.32 0.0 0 1 396.69 265.87
  L 393.91 282.75
  A 0.32 0.32 0.0 0 1 393.60 283.02
  L 389.81 282.99
  A 0.32 0.32 0.0 0 1 389.50 282.72
  Z"
/>
<path fill="#015927" d="
  M 271.92 278.40
  C 273.03 272.87 276.36 268.68 282.44 269.05
  C 290.04 269.51 292.05 277.01 292.40 283.48
  C 292.78 290.26 293.38 305.08 284.32 307.10
  C 268.85 310.56 270.30 286.43 271.92 278.40
  Z"
/>
<path fill="#015927" d="
  M 187.96 269.84
  A 0.53 0.53 0.0 0 1 188.49 269.31
  L 192.25 269.31
  A 7.26 6.95 -90.0 0 1 199.20 276.57
  L 199.20 280.27
  A 7.26 6.95 -90.0 0 1 192.25 287.53
  L 188.49 287.53
  A 0.53 0.53 0.0 0 1 187.96 287.00
  L 187.96 269.84
  Z"
/>
<path fill="#015927" d="
  M 137.69 291.72
  L 143.88 273.59
  A 0.33 0.33 0.0 0 1 144.51 273.60
  L 150.05 291.71
  A 0.33 0.33 0.0 0 1 149.73 292.14
  L 138.00 292.16
  A 0.33 0.33 0.0 0 1 137.69 291.72
  Z"
/>
<path fill="#ffffff" d="
  M 158.00 351.24
  L 157.93 353.58
  Q 157.91 354.09 158.28 354.44
  Q 158.99 355.13 160.16 355.29
  Q 160.22 355.30 160.21 355.36
  L 160.19 355.62
  Q 160.15 356.00 159.76 356.00
  L 153.84 355.97
  Q 152.49 355.96 153.62 355.21
  Q 154.23 354.80 154.92 354.69
  Q 155.51 354.59 155.51 354.00
  Q 155.51 348.25 155.51 342.49
  C 155.51 341.40 154.86 340.61 153.79 340.41
  A 0.50 0.49 22.6 0 1 153.47 339.64
  Q 153.69 339.34 154.04 339.37
  C 157.74 339.63 166.23 337.95 165.49 344.58
  C 165.32 346.06 164.21 347.20 162.97 347.91
  Q 162.36 348.25 162.68 348.87
  Q 164.82 353.06 167.55 355.31
  Q 168.54 356.12 167.26 356.04
  L 165.30 355.92
  Q 164.16 355.85 163.56 354.88
  L 160.80 350.48
  Q 158.15 346.25 158.00 351.24
  Z
  M 157.95 341.07
  L 157.95 347.15
  A 0.44 0.44 0.0 0 0 158.39 347.59
  L 159.90 347.59
  A 3.21 3.04 -0.0 0 0 163.11 344.55
  L 163.11 343.67
  A 3.21 3.04 0.0 0 0 159.90 340.63
  L 158.39 340.63
  A 0.44 0.44 0.0 0 0 157.95 341.07
  Z"
/>
<path fill="#ffffff" d="
  M 176.24 346.75
  L 180.98 346.73
  Q 181.44 346.73 181.45 347.18
  L 181.46 347.51
  Q 181.48 347.99 181.00 347.98
  L 176.91 347.96
  Q 176.02 347.96 176.01 348.84
  L 175.92 353.61
  Q 175.89 354.94 177.23 354.86
  C 179.02 354.75 182.57 355.46 182.52 352.70
  Q 182.51 352.05 183.16 351.93
  L 183.48 351.87
  Q 183.95 351.79 183.94 352.26
  L 183.91 355.18
  Q 183.90 355.99 183.08 355.99
  L 171.81 355.96
  Q 170.57 355.96 171.61 355.28
  Q 172.17 354.92 172.82 354.78
  Q 173.46 354.64 173.47 353.99
  Q 173.53 348.29 173.49 342.41
  Q 173.48 340.64 171.65 340.36
  Q 171.19 340.28 171.26 339.82
  Q 171.28 339.67 171.38 339.54
  Q 171.44 339.46 171.54 339.46
  L 182.31 339.40
  Q 182.97 339.40 183.00 340.06
  L 183.16 343.04
  Q 183.19 343.58 182.69 343.80
  Q 182.39 343.93 182.12 343.68
  A 0.56 0.49 -79.6 0 1 181.99 343.46
  L 181.47 341.40
  Q 181.30 340.76 180.65 340.75
  L 176.28 340.69
  Q 176.00 340.69 175.99 340.97
  L 175.98 346.49
  Q 175.97 346.76 176.24 346.75
  Z"
/>
<path fill="#ffffff" d="
  M 190.73 352.08
  C 191.78 358.89 201.00 352.38 195.17 349.57
  Q 193.33 348.68 191.60 347.71
  C 188.29 345.87 188.03 340.70 191.96 339.52
  C 193.90 338.95 196.92 338.94 198.17 340.90
  Q 199.08 342.33 197.56 343.28
  A 0.59 0.59 0.0 0 1 196.68 342.92
  Q 195.99 340.10 193.31 340.56
  A 2.36 2.34 89.2 0 0 191.39 342.55
  C 190.71 347.37 198.27 346.22 199.00 350.39
  C 200.39 358.34 187.32 357.67 189.13 352.10
  Q 189.38 351.33 190.18 351.50
  Q 190.65 351.60 190.73 352.08
  Z"
/>
<path fill="#ffffff" d="
  M 211.73 354.63
  Q 212.48 354.96 213.33 355.17
  Q 213.73 355.27 213.80 355.68
  Q 213.81 355.73 213.79 355.78
  Q 213.69 356.01 213.44 356.01
  Q 209.95 355.92 206.76 356.01
  A 0.41 0.41 0.0 0 1 206.34 355.60
  L 206.34 355.33
  Q 206.34 355.27 206.40 355.27
  Q 207.58 355.19 208.35 354.65
  Q 208.81 354.33 208.81 353.78
  L 208.89 341.52
  Q 208.90 340.92 208.31 340.79
  Q 205.02 340.03 204.65 343.06
  A 0.69 0.66 72.1 0 1 204.46 343.45
  Q 204.14 343.76 203.77 343.71
  Q 203.32 343.65 203.35 343.19
  L 203.56 340.00
  Q 203.61 339.36 204.26 339.36
  L 215.92 339.38
  Q 216.44 339.38 216.57 339.89
  Q 217.06 341.75 216.50 343.43
  Q 216.29 344.03 215.87 343.56
  Q 215.24 342.86 215.16 341.88
  A 1.23 1.23 0.0 0 0 213.99 340.75
  L 212.45 340.68
  Q 211.26 340.62 211.27 341.80
  L 211.29 353.96
  Q 211.29 354.43 211.73 354.63
  Z"
/>
<path fill="#ffffff" d="
  M 230.04 350.51
  L 225.63 350.53
  Q 224.93 350.54 224.57 351.13
  Q 223.86 352.31 223.66 353.80
  Q 223.57 354.44 224.16 354.70
  L 225.16 355.13
  Q 227.10 355.97 224.99 355.98
  L 220.50 355.99
  Q 219.24 356.00 220.29 355.30
  L 221.26 354.66
  Q 221.73 354.35 221.92 353.83
  L 227.08 339.96
  A 1.10 1.09 -68.4 0 1 228.53 339.33
  Q 229.29 339.65 229.57 340.43
  Q 232.12 347.60 234.52 354.04
  Q 234.71 354.53 235.15 354.80
  Q 235.66 355.11 236.17 355.43
  Q 237.11 356.04 235.99 356.02
  L 230.47 355.95
  A 0.44 0.43 -61.1 0 1 230.24 355.15
  Q 230.75 354.81 231.37 354.78
  A 0.52 0.52 0.0 0 0 231.85 354.12
  L 231.06 351.28
  Q 230.84 350.51 230.04 350.51
  Z
  M 225.36 348.82
  A 0.32 0.32 0.0 0 0 225.66 349.24
  L 229.84 349.23
  A 0.32 0.32 0.0 0 0 230.14 348.80
  L 228.03 343.00
  A 0.32 0.32 0.0 0 0 227.43 343.00
  L 225.36 348.82
  Z"
/>
<path fill="#ffffff" d="
  M 253.49 341.51
  Q 253.24 344.71 253.40 347.97
  C 253.65 352.87 252.92 356.81 246.50 356.18
  Q 241.94 355.73 241.80 351.41
  Q 241.65 347.08 241.77 342.04
  A 1.30 1.30 0.0 0 0 240.66 340.72
  Q 240.07 340.63 239.71 340.16
  Q 239.14 339.42 240.07 339.43
  L 246.04 339.45
  A 0.36 0.36 0.0 0 1 246.31 340.05
  Q 245.67 340.76 244.74 341.04
  Q 244.18 341.20 244.18 341.79
  L 244.20 351.44
  Q 244.21 354.68 247.44 354.75
  L 248.07 354.77
  Q 251.73 354.85 251.78 351.18
  L 251.89 342.09
  A 1.26 1.26 0.0 0 0 251.22 340.96
  L 250.26 340.45
  Q 248.46 339.50 250.49 339.47
  L 254.84 339.41
  Q 255.80 339.40 255.32 340.23
  Q 254.99 340.81 254.30 340.78
  Q 253.55 340.76 253.49 341.51
  Z"
/>
<path fill="#ffffff" d="
  M 268.56 348.73
  Q 270.90 353.14 273.39 355.17
  Q 274.78 356.30 273.01 356.07
  L 270.85 355.79
  Q 270.06 355.69 269.63 355.01
  L 266.80 350.54
  Q 264.01 346.12 263.99 351.35
  L 263.98 353.74
  A 0.99 0.98 -79.7 0 0 264.61 354.66
  Q 265.32 354.94 265.91 355.40
  Q 266.67 355.99 265.71 355.99
  L 259.58 355.98
  Q 258.47 355.98 259.38 355.34
  Q 259.95 354.94 260.64 354.81
  A 1.04 1.03 85.0 0 0 261.49 353.79
  L 261.51 342.06
  Q 261.52 341.29 260.85 340.91
  L 260.03 340.44
  Q 258.43 339.53 260.27 339.45
  Q 263.23 339.31 266.15 339.38
  C 271.51 339.51 273.98 345.14 268.78 348.02
  Q 268.32 348.27 268.56 348.73
  Z
  M 263.96 341.04
  L 264.00 347.14
  A 0.42 0.42 0.0 0 0 264.42 347.56
  L 266.05 347.55
  A 3.01 2.98 -0.3 0 0 269.04 344.56
  L 269.04 343.58
  A 3.01 2.98 -0.3 0 0 266.01 340.61
  L 264.38 340.62
  A 0.42 0.42 0.0 0 0 263.96 341.04
  Z"
/>
<path fill="#ffffff" d="
  M 280.51 354.72
  L 281.91 355.21
  Q 282.05 355.25 282.08 355.39
  L 282.15 355.74
  Q 282.20 355.98 281.96 355.98
  Q 279.56 356.02 277.42 356.00
  Q 275.07 355.97 277.19 354.97
  Q 278.28 354.46 278.66 353.35
  Q 280.79 347.18 283.64 339.99
  A 1.16 1.15 41.1 0 1 285.72 339.85
  Q 286.16 340.63 286.46 341.47
  Q 288.69 347.75 291.01 354.02
  A 1.48 1.44 -88.3 0 0 291.75 354.83
  Q 292.13 355.02 292.48 355.24
  Q 293.65 355.98 292.27 355.98
  L 287.20 355.97
  Q 285.26 355.97 286.97 355.05
  Q 287.32 354.87 287.68 354.75
  Q 288.53 354.48 288.26 353.63
  L 287.49 351.17
  A 0.88 0.88 0.0 0 0 286.65 350.55
  L 281.81 350.51
  Q 281.13 350.51 280.92 351.16
  L 280.09 353.88
  Q 279.89 354.51 280.51 354.72
  Z
  M 284.69 342.88
  A 0.32 0.32 0.0 0 0 284.09 342.87
  L 281.87 348.77
  A 0.32 0.32 0.0 0 0 282.16 349.21
  L 286.28 349.27
  A 0.32 0.32 0.0 0 0 286.59 348.86
  L 284.69 342.88
  Z"
/>
<path fill="#ffffff" d="
  M 309.09 350.98
  L 309.04 341.54
  Q 309.04 340.97 308.48 340.80
  Q 308.03 340.66 307.55 340.68
  Q 307.00 340.71 306.95 340.16
  L 306.92 339.84
  A 0.41 0.40 87.5 0 1 307.33 339.39
  L 312.26 339.42
  Q 312.89 339.43 312.65 340.02
  L 312.55 340.29
  Q 312.34 340.80 311.79 340.79
  Q 310.56 340.77 310.57 342.07
  Q 310.61 348.18 310.60 353.41
  Q 310.59 358.78 307.68 354.26
  L 301.07 343.97
  Q 300.21 342.63 300.22 344.22
  Q 300.25 348.40 300.29 353.09
  Q 300.31 355.11 302.41 355.21
  Q 302.66 355.22 302.65 355.47
  L 302.65 355.81
  Q 302.65 355.99 302.46 355.99
  L 296.50 355.95
  A 0.36 0.35 44.3 0 1 296.49 355.24
  Q 298.93 355.17 298.83 352.90
  Q 298.59 347.49 298.89 342.10
  Q 298.92 341.53 298.43 341.22
  L 297.34 340.54
  Q 295.78 339.56 297.62 339.38
  Q 298.74 339.27 300.46 339.48
  Q 300.98 339.55 301.26 339.99
  L 308.42 351.18
  Q 309.10 352.23 309.09 350.98
  Z"
/>
<path fill="#ffffff" d="
  M 328.29 341.51
  Q 328.21 340.78 327.48 340.77
  L 325.27 340.72
  Q 324.50 340.71 324.50 341.48
  L 324.52 353.99
  A 0.60 0.60 0.0 0 0 324.90 354.55
  L 326.81 355.32
  Q 326.92 355.37 326.91 355.49
  L 326.89 355.74
  Q 326.87 355.98 326.64 355.98
  L 320.10 355.97
  Q 319.83 355.97 319.82 355.71
  L 319.80 355.43
  A 0.27 0.26 -6.2 0 1 320.02 355.16
  Q 321.00 355.02 321.76 354.57
  Q 322.07 354.38 322.07 354.02
  L 322.08 341.43
  Q 322.08 340.90 321.56 340.79
  Q 318.26 340.07 317.85 342.91
  Q 317.79 343.29 317.52 343.57
  Q 317.40 343.69 317.24 343.69
  Q 316.74 343.70 316.74 343.20
  L 316.75 340.22
  Q 316.75 339.45 317.53 339.44
  L 329.16 339.37
  A 0.73 0.71 -4.1 0 1 329.88 339.98
  Q 330.16 341.73 329.77 343.24
  Q 329.45 344.46 328.85 343.35
  Q 328.39 342.49 328.29 341.51
  Z"
/>
<path fill="#ffffff" d="
  M 339.10 346.71
  L 344.04 346.76
  Q 344.31 346.77 344.28 347.04
  L 344.22 347.49
  A 0.56 0.56 0.0 0 1 343.67 347.97
  L 339.51 347.98
  Q 338.76 347.98 338.75 348.74
  L 338.67 353.88
  Q 338.66 354.74 339.51 354.73
  C 341.71 354.72 345.07 355.67 345.41 352.43
  A 0.56 0.55 2.3 0 1 345.95 351.94
  L 346.24 351.94
  Q 346.80 351.93 346.78 352.49
  L 346.64 355.31
  Q 346.61 355.98 345.94 355.98
  L 334.33 355.95
  Q 334.04 355.95 334.04 355.66
  L 334.05 355.35
  Q 334.05 355.02 334.38 355.02
  Q 336.29 355.04 336.27 353.26
  Q 336.21 347.69 336.28 342.44
  Q 336.30 340.96 334.87 340.53
  Q 334.55 340.44 334.36 340.18
  Q 334.23 340.01 334.23 339.79
  A 0.40 0.40 0.0 0 1 334.63 339.38
  L 345.29 339.44
  A 0.60 0.59 1.0 0 1 345.88 340.04
  L 345.82 343.25
  Q 345.81 343.88 345.19 343.73
  Q 344.72 343.61 344.61 343.11
  Q 344.43 342.23 344.20 341.41
  Q 344.03 340.79 343.38 340.78
  L 339.11 340.71
  Q 338.67 340.70 338.68 341.14
  L 338.75 346.35
  Q 338.75 346.70 339.10 346.71
  Z"
/>
<path fill="#015927" d="
  M 263.96 341.04
  A 0.42 0.42 0.0 0 1 264.38 340.62
  L 266.01 340.61
  A 3.01 2.98 -0.3 0 1 269.04 343.58
  L 269.04 344.56
  A 3.01 2.98 -0.3 0 1 266.05 347.55
  L 264.42 347.56
  A 0.42 0.42 0.0 0 1 264.00 347.14
  L 263.96 341.04
  Z"
/>
<path fill="#015927" d="
  M 157.95 341.07
  A 0.44 0.44 0.0 0 1 158.39 340.63
  L 159.90 340.63
  A 3.21 3.04 0.0 0 1 163.11 343.67
  L 163.11 344.55
  A 3.21 3.04 0.0 0 1 159.90 347.59
  L 158.39 347.59
  A 0.44 0.44 0.0 0 1 157.95 347.15
  L 157.95 341.07
  Z"
/>
<path fill="#015927" d="
  M 284.69 342.88
  L 286.59 348.86
  A 0.32 0.32 0.0 0 1 286.28 349.27
  L 282.16 349.21
  A 0.32 0.32 0.0 0 1 281.87 348.77
  L 284.09 342.87
  A 0.32 0.32 0.0 0 1 284.69 342.88
  Z"
/>
<path fill="#015927" d="
  M 225.36 348.82
  L 227.43 343.00
  A 0.32 0.32 0.0 0 1 228.03 343.00
  L 230.14 348.80
  A 0.32 0.32 0.0 0 1 229.84 349.23
  L 225.66 349.24
  A 0.32 0.32 0.0 0 1 225.36 348.82
  Z"
/>
</svg>
