<?xml version="1.0" encoding="UTF-8"?>
<svg id="Camada_1" data-name="Camada 1" xmlns="http://www.w3.org/2000/svg" viewBox="0 0 800 800">
  <defs>
    <style>
      .cls-1, .cls-2 {
        fill: #fff;
      }

      .cls-2 {
        fill-rule: evenodd;
      }
    </style>
  </defs>
  <g>
    <path class="cls-2" d="m460.44,187.85c27.54-33.09,21.81-67.44,21.81-67.44,0,0-38.54.18-66.26,36.71-24.65,32.49-18.37,60.28-18.37,60.28,0,0,33.42,5.78,62.83-29.55Z"/>
    <path class="cls-2" d="m513.32,343.98c0-56.6,45.63-79.93,45.63-79.93,0,0-23.33-42.2-82.63-42.2-34.45,0-60.92,19.6-75.18,19.6-16.61,0-41.41-18.43-73.36-18.43-49.15,0-101.56,44.01-101.56,127.91s61.91,191.35,110.92,191.35c17.11,0,43.37-17.23,69.84-17.23s45.13,16.61,69.78,16.61c53.67,0,93.4-111.83,93.4-111.83,0,0-56.84-22.01-56.84-85.86Z"/>
  </g>
  <g>
    <path class="cls-1" d="m94.07,670.86l-.17-31.16-15.11,25.36h-7.39l-15.03-24.52v30.31h-15.37v-58.78h13.69l20.66,33.93,20.15-33.93h13.69l.17,58.78h-15.28Z"/>
    <path class="cls-1" d="m163,645.58v25.28h-14.86v-5.88c-2.27,4.37-6.8,6.64-13.44,6.64-10.92,0-16.96-6.13-16.96-14.03,0-8.4,6.13-13.6,20.24-13.6h9.07c-.25-4.62-3.36-7.22-9.66-7.22-4.37,0-9.24,1.51-12.34,3.95l-5.37-10.83c5.21-3.44,12.93-5.29,20.07-5.29,14.78,0,23.26,6.55,23.26,20.99Zm-15.95,10.66v-3.95h-6.89c-5.12,0-6.97,1.85-6.97,4.62s2.18,4.62,5.96,4.62c3.53,0,6.63-1.68,7.89-5.29Z"/>
    <path class="cls-1" d="m250.74,644.83v26.03h-15.95v-23.43c0-6.55-2.69-9.32-6.89-9.32-4.62,0-7.98,3.11-7.98,10.16v22.59h-15.95v-23.43c0-6.55-2.6-9.32-6.89-9.32-4.7,0-8.06,3.11-8.06,10.16v22.59h-15.95v-45.51h15.2v4.79c3.44-3.69,8.23-5.54,13.6-5.54,6.22,0,11.51,2.27,14.7,7.14,3.61-4.54,9.24-7.14,15.79-7.14,10.58,0,18.39,6.13,18.39,20.24Z"/>
    <path class="cls-1" d="m308.66,625.35v45.51h-15.2v-4.87c-3.44,3.78-8.31,5.63-13.52,5.63-11.17,0-19.31-6.38-19.31-20.83v-25.44h15.95v22.84c0,7.05,2.77,9.82,7.56,9.82s8.56-3.11,8.56-10.75v-21.92h15.95Z"/>
    <path class="cls-1" d="m350.3,669.01c-2.77,1.76-6.89,2.6-11.08,2.6-11.67,0-18.47-5.71-18.47-17.38v-15.28h-6.63v-11.93h6.63v-11.84h15.95v11.84h10.41v11.93h-10.41v15.11c0,3.36,1.93,5.21,4.79,5.21,1.76,0,3.53-.5,4.87-1.43l3.95,11.17Z"/>
    <path class="cls-1" d="m401.35,652.13h-33.08c1.34,4.62,5.29,7.31,11.17,7.31,4.45,0,7.39-1.26,10.5-3.94l8.4,8.73c-4.37,4.87-10.75,7.39-19.4,7.39-16.21,0-26.7-9.99-26.7-23.6s10.66-23.43,25.02-23.43c13.43,0,24.35,8.56,24.35,23.6,0,1.17-.17,2.69-.25,3.94Zm-33.34-8.4h18.64c-.84-4.79-4.37-7.81-9.32-7.81s-8.4,3.02-9.32,7.81Z"/>
    <path class="cls-1" d="m403.1,670.86h41.99v8.73h-41.99v-8.73Z"/>
    <path class="cls-1" d="m448.44,611.83c0-4.79,3.86-8.48,9.74-8.48s9.74,3.44,9.74,8.23c0,5.04-3.86,8.73-9.74,8.73s-9.74-3.69-9.74-8.48Zm1.76,13.52h15.95v45.51h-15.95v-45.51Z"/>
    <path class="cls-1" d="m530.22,633.83c0,13.35-10.08,21.67-26.11,21.67h-10.25v15.37h-16.63v-58.78h26.87c16.04,0,26.11,8.31,26.11,21.75Zm-16.79,0c0-5.46-3.45-8.65-10.33-8.65h-9.24v17.22h9.24c6.89,0,10.33-3.19,10.33-8.56Z"/>
    <path class="cls-1" d="m586.81,644.83v26.03h-15.95v-23.43c0-6.55-2.85-9.32-7.47-9.32-5.12,0-9.07,3.19-9.07,10.75v22h-15.95v-62.31h15.95v20.99c3.53-3.27,8.31-4.95,13.69-4.95,10.66,0,18.81,6.13,18.81,20.24Z"/>
    <path class="cls-1" d="m594.61,648.02c0-13.69,10.83-23.43,25.69-23.43s25.7,9.74,25.7,23.43-10.66,23.6-25.7,23.6-25.69-9.83-25.69-23.6Zm35.27,0c0-6.89-4.12-10.75-9.57-10.75s-9.57,3.86-9.57,10.75,4.2,10.92,9.57,10.92,9.57-3.95,9.57-10.92Z"/>
    <path class="cls-1" d="m701.83,644.83v26.03h-15.95v-23.43c0-6.55-2.85-9.32-7.47-9.32-5.12,0-9.07,3.19-9.07,10.75v22h-15.95v-45.51h15.2v4.96c3.61-3.78,8.73-5.71,14.44-5.71,10.66,0,18.81,6.13,18.81,20.24Z"/>
    <path class="cls-1" d="m758.75,652.13h-33.08c1.34,4.62,5.29,7.31,11.17,7.31,4.45,0,7.39-1.26,10.5-3.94l8.4,8.73c-4.37,4.87-10.75,7.39-19.4,7.39-16.21,0-26.7-9.99-26.7-23.6s10.66-23.43,25.02-23.43c13.43,0,24.35,8.56,24.35,23.6,0,1.17-.17,2.69-.25,3.94Zm-33.34-8.4h18.64c-.84-4.79-4.37-7.81-9.32-7.81s-8.4,3.02-9.32,7.81Z"/>
  </g>
</svg>