<?xml version="1.0" encoding="UTF-8"?>
<svg id="Camada_1" data-name="Camada 1" xmlns="http://www.w3.org/2000/svg" xmlns:xlink="http://www.w3.org/1999/xlink" viewBox="0 0 800 800">
  <defs>
    <style>
      .cls-1 {
        letter-spacing: -.02em;
      }

      .cls-2 {
        letter-spacing: 0em;
      }

      .cls-3, .cls-4, .cls-5 {
        fill: #fff;
      }

      .cls-6 {
        letter-spacing: -.03em;
      }

      .cls-7 {
        letter-spacing: 0em;
      }

      .cls-4 {
        font-size: 65.79px;
      }

      .cls-4, .cls-5 {
        font-family: ArchivoBlack-Regular, 'Archivo Black';
      }

      .cls-8 {
        clip-path: url(#clippath);
      }

      .cls-9 {
        letter-spacing: -.03em;
      }

      .cls-10 {
        letter-spacing: -.04em;
      }

      .cls-11 {
        letter-spacing: -.05em;
      }

      .cls-5 {
        font-size: 84.33px;
      }
    </style>
    <clipPath id="clippath">
      <path class="cls-3" d="m162.06,346.59c4.74,2.38,8.5,5.71,11.28,10.02,2.78,4.31,4.17,9.11,4.17,14.41,0,14.02-6.27,22.86-18.79,26.5v.66c14.27,3.31,21.41,12.81,21.41,28.49,0,5.96-1.45,11.24-4.33,15.82-2.89,4.58-6.84,8.14-11.85,10.68-5.01,2.54-10.52,3.81-16.51,3.81h-75.83v-113.95h74.85c5.66,0,10.87,1.19,15.61,3.56Zm-54.34,40.82h24.84c2.39,0,4.38-.85,5.96-2.57,1.58-1.71,2.37-3.84,2.37-6.38v-1.66c0-2.43-.82-4.5-2.45-6.21-1.63-1.71-3.6-2.57-5.88-2.57h-24.84v19.38Zm0,43.06h27.45c2.4,0,4.38-.85,5.97-2.57,1.58-1.71,2.37-3.83,2.37-6.38v-1.66c0-2.54-.79-4.66-2.37-6.38-1.58-1.71-3.57-2.57-5.97-2.57h-27.45v19.54Z"/>
    </clipPath>
  </defs>
  <g>
    <path class="cls-3" d="m162.06,346.59c4.74,2.38,8.5,5.71,11.28,10.02,2.78,4.31,4.17,9.11,4.17,14.41,0,14.02-6.27,22.86-18.79,26.5v.66c14.27,3.31,21.41,12.81,21.41,28.49,0,5.96-1.45,11.24-4.33,15.82-2.89,4.58-6.84,8.14-11.85,10.68-5.01,2.54-10.52,3.81-16.51,3.81h-75.83v-113.95h74.85c5.66,0,10.87,1.19,15.61,3.56Zm-54.34,40.82h24.84c2.39,0,4.38-.85,5.96-2.57,1.58-1.71,2.37-3.84,2.37-6.38v-1.66c0-2.43-.82-4.5-2.45-6.21-1.63-1.71-3.6-2.57-5.88-2.57h-24.84v19.38Zm0,43.06h27.45c2.4,0,4.38-.85,5.97-2.57,1.58-1.71,2.37-3.83,2.37-6.38v-1.66c0-2.54-.79-4.66-2.37-6.38-1.58-1.71-3.57-2.57-5.97-2.57h-27.45v19.54Z"/>
    <g class="cls-8">
      <rect class="cls-3" x="17.88" y="295.22" width="778.57" height="214.83"/>
    </g>
  </g>
  <path class="cls-3" d="m299.91,396.85c-3.71,5.63-9.1,9.77-16.18,12.42l25,47.7h-40.53l-19.94-41.57h-13.4v41.57h-36.12v-113.95h68.8c8.06,0,14.95,1.57,20.67,4.72,5.72,3.15,10.02,7.4,12.91,12.75,2.89,5.36,4.33,11.18,4.33,17.47,0,6.96-1.85,13.25-5.56,18.88Zm-34.16-24.84c-1.96-1.99-4.36-2.98-7.19-2.98h-23.7v21.03h23.7c2.83,0,5.23-1.02,7.19-3.06,1.96-2.04,2.94-4.55,2.94-7.54s-.98-5.47-2.94-7.45Z"/>
  <path class="cls-3" d="m401.23,456.97l-4.74-16.07h-39.38l-4.74,16.07h-36.93l41.02-113.95h42l41.02,113.95h-38.24Zm-36.61-41.57h24.35l-11.77-40.58h-.65l-11.93,40.58Z"/>
  <path class="cls-3" d="m535.72,349.9c9.26,5.91,14,14.66,14.22,26.25v1.99h-33.83v-.66c0-3.31-1.2-6.07-3.6-8.28-2.4-2.21-6.05-3.31-10.95-3.31s-8.47.72-11.03,2.15c-2.56,1.44-3.84,3.2-3.84,5.3,0,2.98,1.74,5.19,5.23,6.62,3.49,1.44,9.1,2.93,16.83,4.47,9.04,1.88,16.48,3.84,22.31,5.88,5.83,2.04,10.92,5.38,15.28,10.02,4.36,4.64,6.59,10.93,6.7,18.88,0,13.47-4.49,23.46-13.48,29.98-8.99,6.52-21,9.77-36.03,9.77-17.54,0-31.19-2.98-40.94-8.94-9.75-5.96-14.63-16.51-14.63-31.63h34.16c0,5.74,1.47,9.58,4.41,11.51,2.94,1.93,7.52,2.9,13.73,2.9,4.58,0,8.36-.5,11.36-1.49,2.99-.99,4.49-3.04,4.49-6.13,0-2.76-1.66-4.83-4.98-6.21-3.32-1.38-8.74-2.84-16.26-4.39-9.15-1.99-16.73-4.06-22.72-6.21-5.99-2.15-11.22-5.71-15.69-10.68-4.47-4.97-6.7-11.7-6.7-20.21,0-12.48,4.77-21.67,14.3-27.58,9.53-5.91,21.6-8.86,36.2-8.86s26.2,2.96,35.46,8.86Z"/>
  <path class="cls-3" d="m572.65,456.97v-113.95h36.12v113.95h-36.12Z"/>
  <path class="cls-3" d="m634.59,343.03h36.12v84.8h57.69v29.15h-93.8v-113.95Z"/>
  <g>
    <text class="cls-5" transform="translate(190.94 315.18)"><tspan class="cls-11" x="0" y="0">A</tspan><tspan class="cls-2" x="60.97" y="0">VENI</tspan><tspan class="cls-10" x="290.53" y="0">D</tspan><tspan x="352.51" y="0">A</tspan></text>
    <text class="cls-4" transform="translate(35.32 538.44)"><tspan x="0" y="0">M</tspan><tspan class="cls-9" x="62.1" y="0">O</tspan><tspan class="cls-6" x="115.19" y="0">T</tspan><tspan class="cls-7" x="160.45" y="0">OS E VEÍCU</tspan><tspan class="cls-1" x="584.31" y="0">L</tspan><tspan x="627.07" y="0">OS</tspan></text>
  </g>
</svg>