<?xml version="1.0" encoding="UTF-8"?>
<svg id="Camada_1" data-name="Camada 1" xmlns="http://www.w3.org/2000/svg" viewBox="0 0 800 800">
  <defs>
    <style>
      .cls-1 {
        fill: #fff;
      }
    </style>
  </defs>
  <path class="cls-1" d="m192.91,316.47c-8.22.38-15.06,6.9-15.81,15.09-.24,2.62.13,5.13.98,7.41.89,2.38.34,5.06-1.45,6.85l-31.74,31.74c-1.85,1.85-4.62,2.36-7.04,1.38-2.57-1.05-5.46-1.47-8.5-1.07-7.59,1.01-13.61,7.25-14.34,14.87-1.01,10.51,7.74,19.26,18.24,18.24,7.62-.73,13.86-6.75,14.87-14.34.4-3.03-.02-5.93-1.07-8.5-.99-2.42-.47-5.19,1.38-7.04l31.39-31.39c1.9-1.9,4.75-2.38,7.21-1.3,2.51,1.1,5.35,1.6,8.34,1.31,8.15-.8,14.59-7.6,14.98-15.78.47-9.84-7.6-17.92-17.44-17.46Z"/>
  <path class="cls-1" d="m182.76,359.14c-1.89,1.89-2.32,4.79-1.07,7.16,1.21,2.29,2.27,4.69,3.16,7.2,10.52,29.82-7.54,62.55-37.54,71.07-6.21,1.76-8.84-7.89-2.66-9.64,13.37-3.79,24.68-13.44,29.92-26.43,3.93-9.74,4.12-20.25,1.26-29.81-1.31-4.38-6.89-5.72-10.12-2.48l-2.84,2.84c-1.5,1.5-2.09,3.68-1.6,5.75.69,2.92.93,6.02.66,9.21-1.21,14.29-12.94,25.72-27.25,26.58-17.54,1.06-32-13.39-30.93-30.94.9-14.76,13.01-26.66,27.79-27.32,3.6-.16,7.06.34,10.28,1.37,2.14.69,4.5.08,6.09-1.51l2.96-2.96c3.08-3.08,2-8.37-2.08-9.89-.03-.01-.06-.02-.09-.03-24.5-9.01-51.68,4.82-59.11,29.74-1.84,6.16-11.49,3.52-9.64-2.66,4.94-16.56,17.03-29.86,33.11-36.22,15.82-6.26,32.92-4.23,46.79,3.67,2.4,1.37,5.41,1,7.37-.95l1.05-1.05c2.84-2.84,2.2-7.59-1.28-9.6-10.35-5.97-22.4-9.31-35.26-9.1-37.31.61-67.51,31.6-67.2,68.92.31,37.9,31.47,68.44,69.6,67.76,36.84-.66,66.79-30.92,67.09-67.77.1-11.69-2.75-22.7-7.83-32.35-1.91-3.62-6.8-4.35-9.69-1.45l-.91.91Z"/>
  <g>
    <path class="cls-1" d="m245.49,400.24v6.12c0,11.34,2.66,13.01,5.89,13.01,3.47,0,5.78-1.67,5.78-9.56,0-2.22-.46-6.45-3.47-11.01l-12.59-19.35c-2.54-3.67-3.7-9.56-3.7-14.34,0-9.9,4.16-16.23,13.75-16.23,8.55,0,13.98,4.78,13.98,18.68v6.34h-7.97v-5.89c0-8.9-2.08-11.45-5.89-11.45-4.04,0-5.78,2.67-5.78,9.01,0,3.45.58,6.67,3.7,11.56l11.9,17.9c2.54,3.78,4.04,8.67,4.04,15.12,0,11.56-4.16,16.79-13.75,16.79-10.86,0-13.98-7.01-13.98-23.13v-3.56h8.09Z"/>
    <path class="cls-1" d="m273.45,350.2h8.32l-.23,56.15c0,10.34,2.43,13.01,6.35,13.01,3.58,0,6.7-1.78,6.7-13.01,0-18.12-.23-35.81-.35-56.15h8.09v53.6c0,17.46-4.74,23.13-14.33,23.13-11.44,0-14.56-7.34-14.56-23.13v-53.6Z"/>
    <path class="cls-1" d="m333.65,425.82l-14.33-49.15-.69.11c1.16,12.23,1.27,32.36,1.27,49.04h-8.32v-75.61h8.09c3.35,12.34,9.94,35.25,14.1,50.04l.81-.22c-1.16-11.9-1.5-33.14-1.5-49.82h8.32v75.61h-7.74Z"/>
    <path class="cls-1" d="m350.63,425.82v-75.61h12.83c8.32,0,14.91,3.78,14.91,14.79v13.68c0,11.79-4.74,18.24-15.83,18.24h-3.7c.12,10.01.12,16.68.12,28.91h-8.32Zm19.64-60.05c0-6.12-2.66-7.89-7.74-7.89h-3.81v31.25h3.81c4.97,0,7.74-2.67,7.74-9.79v-13.57Z"/>
    <path class="cls-1" d="m385.64,403.8v-36.25c0-12.34,4.97-18.68,14.91-18.68,8.55,0,14.91,4.78,14.91,18.68v36.25c0,18.01-4.62,23.13-15.14,23.13-11.09,0-14.67-7.01-14.67-23.13Zm21.84,2.56v-38.36c0-8.67-2.66-11.45-6.93-11.45-4.51,0-6.82,2.78-6.82,11.45v38.36c0,10.79,2.66,13.01,6.82,13.01s6.93-1.78,6.93-13.01Z"/>
    <path class="cls-1" d="m451.27,425.82c-1.16-11.12-1.85-20.13-2.66-29.13-.46-5.34-1.16-10.9-1.62-16.79h-.81c-.58,6-1.39,11.56-1.96,16.79-1.04,9.12-2.08,18.13-3.47,29.13h-9.59c-3.35-25.24-6.59-50.37-9.94-75.61h8.55l4.51,38.03c.69,6,1.39,13.45,1.85,19.46h.92c.35-6,1.04-13.34,1.62-19.35,1.27-12.12,2.31-24.35,3.58-38.14h8.9c1.16,13.68,2.31,25.91,3.24,38.03.46,6,1.04,13.45,1.5,19.46h.81c.46-6,1.04-13.34,1.73-19.35l4.62-38.14h8.32c-3.47,25.24-6.93,50.37-10.51,75.61h-9.59Z"/>
    <path class="cls-1" d="m477.38,425.82v-75.61h23.69v8.56h-15.6v23.91h11.9v8.45h-11.9v26.35h15.6v8.34h-23.69Z"/>
    <path class="cls-1" d="m529.72,425.82l-2.2-22.13c-.69-7.12-2.89-10.34-7.16-10.34h-3.7c.12,10.34.23,19.9.23,32.47h-8.32v-75.61h14.44c8.44,0,15.02,3.45,15.02,12.9v11.01c0,6.67-2.08,13.12-8.78,15.23v.33c4.04,2.34,5.66,5.23,6.47,12.68l2.43,23.46h-8.43Zm.23-60.38c0-5.56-2.2-7.56-7.63-7.56h-5.66v27.47h4.39c5.32,0,8.9-3.11,8.9-9.78v-10.12Z"/>
    <path class="cls-1" d="m571.43,400.24v6.12c0,11.34,2.66,13.01,5.89,13.01,3.47,0,5.78-1.67,5.78-9.56,0-2.22-.46-6.45-3.47-11.01l-12.59-19.35c-2.54-3.67-3.7-9.56-3.7-14.34,0-9.9,4.16-16.23,13.75-16.23,8.55,0,13.98,4.78,13.98,18.68v6.34h-7.97v-5.89c0-8.9-2.08-11.45-5.89-11.45-4.04,0-5.78,2.67-5.78,9.01,0,3.45.58,6.67,3.7,11.56l11.9,17.9c2.54,3.78,4.04,8.67,4.04,15.12,0,11.56-4.16,16.79-13.75,16.79-10.86,0-13.98-7.01-13.98-23.13v-3.56h8.09Z"/>
    <path class="cls-1" d="m599.16,403.8v-36.25c0-12.34,4.97-18.68,14.91-18.68,8.55,0,14.91,4.78,14.91,18.68v36.25c0,18.01-4.62,23.13-15.14,23.13-11.09,0-14.67-7.01-14.67-23.13Zm21.84,2.56v-38.36c0-8.67-2.66-11.45-6.93-11.45-4.51,0-6.82,2.78-6.82,11.45v38.36c0,10.79,2.66,13.01,6.82,13.01s6.93-1.78,6.93-13.01Z"/>
    <path class="cls-1" d="m638.32,425.82v-75.61h8.32c0,19.9-.23,46.48-.23,67.5,4.74-.11,9.13-.22,16.18-.22v8.34h-24.26Z"/>
    <path class="cls-1" d="m690.43,425.82l-1.5-12.45h-11.9l-1.39,12.45h-8.32l7.28-51.26c1.16-8.12,2.2-16.23,3.47-24.35h9.94c3.7,25.91,7.28,49.7,10.75,75.61h-8.32Zm-4.04-33.8c-.81-7.12-2.31-18.24-3.12-25.35h-.81c-.81,7.12-2.2,18.12-3.12,25.13l-1.62,14.34h10.4l-1.73-14.12Z"/>
    <path class="cls-1" d="m727.06,425.82l-2.2-22.13c-.69-7.12-2.89-10.34-7.16-10.34h-3.7c.12,10.34.23,19.9.23,32.47h-8.32v-75.61h14.44c8.44,0,15.02,3.45,15.02,12.9v11.01c0,6.67-2.08,13.12-8.78,15.23v.33c4.04,2.34,5.66,5.23,6.47,12.68l2.43,23.46h-8.43Zm.23-60.38c0-5.56-2.2-7.56-7.63-7.56h-5.66v27.47h4.39c5.32,0,8.9-3.11,8.9-9.78v-10.12Z"/>
  </g>
  <g>
    <path class="cls-1" d="m322.64,483.2v-20.52h12.64v2.42h-10.32v6.27h9.67v2.42h-9.67v6.98h10.73v2.42h-13.04Z"/>
    <path class="cls-1" d="m347.92,483.2v-20.52h2.37l9.19,16.14v-16.14h2.21v20.52h-2.37l-9.18-16.14v16.14h-2.23Z"/>
    <path class="cls-1" d="m374.77,483.2v-20.52h12.64v2.42h-10.32v6.27h9.67v2.42h-9.67v6.98h10.73v2.42h-13.04Z"/>
    <path class="cls-1" d="m400.12,483.2v-20.52h7.75c1.62,0,2.81.19,3.58.57.77.38,1.4,1.02,1.9,1.91.49.89.74,1.92.74,3.1,0,1.55-.42,2.8-1.26,3.76s-2.06,1.57-3.66,1.83c.65.38,1.14.76,1.48,1.14.69.78,1.29,1.66,1.82,2.62l3.05,5.58h-2.91l-2.33-4.27c-.9-1.67-1.58-2.79-2.04-3.37s-.91-.97-1.34-1.17c-.43-.2-1.03-.3-1.81-.3h-2.67v9.11h-2.31Zm2.31-11.46h4.97c1.09,0,1.91-.13,2.47-.38.56-.25,1.01-.65,1.34-1.19.33-.54.49-1.17.49-1.89,0-1.04-.32-1.85-.95-2.44s-1.57-.89-2.81-.89h-5.53v6.79Z"/>
    <path class="cls-1" d="m435.1,475.16v-2.42h7.4s0,7.61,0,7.61c-1.13,1.06-2.31,1.86-3.52,2.4-1.21.54-2.46.81-3.74.81-1.71,0-3.23-.41-4.57-1.23-1.34-.82-2.4-2.02-3.18-3.6-.78-1.58-1.17-3.47-1.17-5.69s.39-4.19,1.18-5.85c.78-1.66,1.81-2.89,3.08-3.68,1.27-.79,2.77-1.18,4.51-1.18,1.28,0,2.4.23,3.36.69.96.46,1.75,1.11,2.37,1.94.62.84,1.09,1.99,1.4,3.46l-2.08.67c-.28-1.16-.63-2.02-1.06-2.6-.43-.57-.99-1.02-1.69-1.35-.7-.33-1.48-.49-2.36-.49-1.27,0-2.36.3-3.28.89-.92.59-1.65,1.51-2.21,2.77-.56,1.25-.84,2.78-.84,4.58,0,2.75.6,4.8,1.79,6.17,1.19,1.37,2.74,2.05,4.65,2.05.91,0,1.84-.21,2.8-.63.95-.42,1.71-.92,2.28-1.5v-3.82h-5.13Z"/>
    <path class="cls-1" d="m455.43,483.2v-20.52h2.31v20.52h-2.31Z"/>
    <path class="cls-1" d="m468.97,483.2l6.74-20.52h2.47l7.16,20.52h-2.65l-2.03-6.21h-7.36l-1.9,6.21h-2.44Zm5.02-8.42h5.96l-1.82-5.68c-.56-1.74-.97-3.16-1.24-4.25-.23,1.32-.55,2.62-.96,3.92l-1.94,6.02Z"/>
    <path class="cls-1" d="m510.08,476.6l2.18-.22c.12,1.13.38,2.01.79,2.64.41.63,1,1.14,1.77,1.52.77.38,1.63.57,2.59.57,1.38,0,2.45-.32,3.21-.97s1.14-1.49,1.14-2.52c0-.6-.14-1.13-.41-1.58-.28-.45-.69-.82-1.25-1.11-.56-.29-1.76-.7-3.61-1.22-1.65-.47-2.82-.94-3.52-1.42-.7-.48-1.24-1.08-1.63-1.81s-.58-1.56-.58-2.48c0-1.66.56-3.02,1.67-4.07,1.12-1.05,2.62-1.58,4.51-1.58,1.3,0,2.44.25,3.41.74.97.49,1.73,1.2,2.27,2.13.54.92.83,2.01.87,3.26l-2.22.2c-.12-1.33-.53-2.32-1.24-2.97-.71-.64-1.71-.97-3-.97s-2.31.28-3,.85c-.69.56-1.03,1.29-1.03,2.19,0,.83.25,1.47.76,1.93.5.46,1.64.92,3.4,1.39,1.72.46,2.94.86,3.63,1.19,1.07.52,1.87,1.21,2.41,2.07.54.85.82,1.87.82,3.05s-.29,2.24-.86,3.21c-.57.96-1.35,1.7-2.33,2.2-.98.5-2.17.76-3.56.76-2.16,0-3.89-.63-5.17-1.88-1.28-1.25-1.95-2.94-2-5.08Z"/>
    <path class="cls-1" d="m535.61,473.21c0-3.5.8-6.19,2.4-8.07,1.6-1.88,3.59-2.82,5.98-2.82,1.54,0,2.95.42,4.22,1.26,1.27.84,2.28,2.06,3.02,3.66.74,1.6,1.11,3.51,1.11,5.72,0,3.04-.72,5.52-2.15,7.43-1.58,2.11-3.65,3.16-6.21,3.16s-4.65-1.08-6.22-3.25c-1.43-1.96-2.14-4.32-2.14-7.1Zm2.38.04c0,2.53.58,4.49,1.74,5.89,1.16,1.4,2.57,2.09,4.22,2.09s3.12-.7,4.27-2.12c1.15-1.41,1.72-3.48,1.72-6.22,0-1.76-.3-3.34-.89-4.73-.46-1.06-1.14-1.92-2.06-2.56-.92-.64-1.92-.96-3-.96-1.75,0-3.18.7-4.31,2.1-1.13,1.4-1.69,3.57-1.69,6.5Z"/>
    <path class="cls-1" d="m564.24,483.2v-20.52h2.31v18.1h8.61v2.42h-10.92Z"/>
    <path class="cls-1" d="m585.16,483.2l6.74-20.52h2.47l7.16,20.52h-2.65l-2.03-6.21h-7.36l-1.9,6.21h-2.44Zm5.02-8.42h5.96l-1.82-5.68c-.56-1.74-.97-3.16-1.24-4.25-.23,1.32-.55,2.62-.96,3.92l-1.94,6.02Z"/>
    <path class="cls-1" d="m612.46,483.2v-20.52h7.75c1.62,0,2.81.19,3.58.57.77.38,1.4,1.02,1.9,1.91.49.89.74,1.92.74,3.1,0,1.55-.42,2.8-1.26,3.76-.84.96-2.06,1.57-3.66,1.83.65.38,1.14.76,1.48,1.14.69.78,1.29,1.66,1.82,2.62l3.05,5.58h-2.91l-2.33-4.27c-.9-1.67-1.58-2.79-2.04-3.37s-.91-.97-1.34-1.17c-.43-.2-1.03-.3-1.81-.3h-2.67v9.11h-2.31Zm2.31-11.46h4.97c1.09,0,1.91-.13,2.47-.38.56-.25,1.01-.65,1.34-1.19.33-.54.49-1.17.49-1.89,0-1.04-.32-1.85-.95-2.44s-1.57-.89-2.81-.89h-5.53v6.79Z"/>
  </g>
</svg>