<?xml version="1.0" encoding="UTF-8"?>
<svg id="Camada_1" data-name="Camada 1" xmlns="http://www.w3.org/2000/svg" viewBox="0 0 800 800">
  <defs>
    <style>
      .cls-1 {
        fill: #fff;
      }
    </style>
  </defs>
  <g>
    <path class="cls-1" d="m499.21,320.42c.12-.09.23-.08.32.05,4.75,6.22,10.37,11.29,16.88,15.21,4.24,2.56,8.5,3.65,12.76,3.28.77-.07,1.34-.75,1.27-1.52-.02-.19-.07-.38-.17-.55-2.13-3.9-5.54-8.55-10.53-7.98-.4.05-.79-.02-1.16-.19-3.84-1.78-6.84-4.12-8.97-7.03-2.17-2.96-5.22-4.64-9.14-5.04-.64-.06-1.2.11-1.67.52-2.9,2.48-7.03,7.49-3.2,11.27,2.51,2.46,4.86,4.84,7.06,7.14,5.65,5.89,12.15,10.04,19.51,12.44,1.08.35,2,.3,2.76-.15,1.85-1.11,3.62-3.49,4.76-5.24,1.5-2.34.92-3.12-1.75-2.35-1.53.45-3.02.46-4.47.02-3.43-1.03-7.23-2.65-10.18-4.89-6.21-4.72-11.01-9.46-14.41-14.22-.14-.19-.1-.46.09-.61l.23-.18" vector-effect="non-scaling-stroke"/>
    <path class="cls-1" d="m521.83,328.06c.38-.56-1.94-2.82-5.2-5.05-3.26-2.23-6.21-3.58-6.59-3.02h0c-.38.56,1.94,2.82,5.2,5.05s6.21,3.58,6.59,3.02c0,0,0,0,0,0" vector-effect="non-scaling-stroke"/>
    <path class="cls-1" d="m494.63,338.99c1.21,1.18,2.44,2.38,3.69,3.6,1.7,1.66,3.54,3.37,5.53,5.15,3,2.66,6.27,4.39,9.82,6.14,1.76.87,3.43.73,5.01-.43l2.18-1.58c1.66-1.22,1.51-2.13-.46-2.72-10.06-3.02-18.44-10.99-25.46-19.14-1.26-1.47-1.89-1.23-1.87.7l.03,4.67c.02,1.41.53,2.62,1.53,3.61" vector-effect="non-scaling-stroke"/>
    <path class="cls-1" d="m495.1,341.16c-1.49-1.68-2.17-1.39-2.04.86l.3,5.03c.08,1.35.63,2.46,1.66,3.34l9.99,8.58c.95.81,2.28,1.01,3.43.51l4.97-2.2c1.28-.57,1.28-1.15.01-1.74-7.01-3.25-13.26-8.7-18.32-14.38" vector-effect="non-scaling-stroke"/>
    <path class="cls-1" d="m495.27,352.67c-.32-.27-.8-.23-1.07.09-.18.21-.23.5-.13.76l2.49,6.64c.09.24.3.42.55.47l4.67.98c.1.02.21.02.32,0l1.5-.3c.41-.09.67-.49.58-.9-.04-.17-.13-.32-.26-.42l-8.67-7.31" vector-effect="non-scaling-stroke"/>
  </g>
  <path class="cls-1" d="m499.21,320.42l-.23.18c-.19.14-.23.42-.09.61,3.4,4.76,8.2,9.5,14.41,14.22,2.95,2.23,6.75,3.86,10.18,4.89,1.45.44,2.94.43,4.47-.02,2.67-.77,3.25,0,1.75,2.35-1.14,1.75-2.91,4.13-4.76,5.24-.76.45-1.68.5-2.76.15-7.36-2.4-13.86-6.55-19.51-12.44-2.2-2.3-4.56-4.68-7.06-7.14-3.83-3.78.3-8.79,3.2-11.27.47-.41,1.03-.58,1.67-.52,3.92.41,6.97,2.09,9.14,5.04,2.14,2.91,5.13,5.26,8.97,7.03.38.17.76.24,1.16.19,4.99-.58,8.4,4.07,10.53,7.98.37.68.12,1.53-.56,1.9-.17.09-.36.15-.55.17-4.27.37-8.52-.73-12.76-3.28-6.51-3.92-12.14-8.99-16.88-15.21-.09-.12-.2-.14-.32-.05Z"/>
  <ellipse class="cls-1" cx="515.93" cy="324.02" rx="1.23" ry="7.14" transform="translate(-42.91 566.66) rotate(-55.6)"/>
  <path class="cls-1" d="m494.63,338.99c-1.01-.99-1.52-2.2-1.53-3.61l-.03-4.67c-.02-1.93.61-2.17,1.87-.7,7.02,8.15,15.4,16.12,25.46,19.14,1.97.59,2.13,1.5.46,2.72l-2.18,1.58c-1.58,1.16-3.25,1.3-5.01.43-3.54-1.75-6.82-3.48-9.82-6.14-1.99-1.78-3.83-3.49-5.53-5.15-1.25-1.22-2.48-2.42-3.69-3.6Z"/>
  <path class="cls-1" d="m495.1,341.16c5.06,5.68,11.31,11.13,18.32,14.38,1.27.59,1.27,1.17-.01,1.74l-4.97,2.2c-1.15.5-2.48.31-3.43-.51l-9.99-8.58c-1.03-.88-1.58-1.99-1.66-3.34l-.3-5.03c-.13-2.25.55-2.54,2.04-.86Z"/>
  <path class="cls-1" d="m495.27,352.67l8.67,7.31c.32.27.36.74.1,1.06-.11.13-.26.22-.42.26l-1.5.3c-.1.02-.21.02-.32,0l-4.67-.98c-.25-.05-.46-.23-.55-.47l-2.49-6.64c-.15-.39.05-.83.44-.98.26-.1.55-.05.76.13Z"/>
  <path class="cls-1" d="m397.58,458.55c.06-10.96.06-22.3-.01-34.02-.02-3.51.32-5.9,1.03-7.19,1.63-2.99,4.32-4.13,8.06-3.43,3.76.7,5.65,3.13,5.67,7.29.06,22.33.06,44.52.01,66.56-.06,18.96-11.91,35.55-30.66,39.89-22.46,5.21-44.84-8.51-48.99-31.34-3.5-19.26,5.17-40.57,24.93-47.04,10.68-3.49,20.96-2.27,30.86,3.66,2.83,1.69,5.28,4.01,7.65,6.24.96.91,1.45.7,1.46-.62Zm-25.62,57.25c14.48.1,26.3-12.23,26.41-27.54.11-15.31-11.54-27.81-26.02-27.91h0c-14.48-.1-26.3,12.23-26.41,27.54-.11,15.31,11.54,27.81,26.02,27.91h0Z"/>
  <path class="cls-1" d="m82.92,457.93c7.69-7.3,16.58-11.51,27.22-10.61,12.98,1.1,21.26,7.87,24.84,20.31,1.21,4.2,1.37,9.59,1.38,14.02.03,13.08,0,25.96-.07,38.64-.03,5.48-2.7,8.11-8.01,7.88-4.76-.2-6.69-4.01-6.66-8.33.11-13.71.11-27.46,0-41.27-.05-6.35-2.29-13.34-8.42-16.17-9.3-4.29-20.89-.59-24.3,9.56-.92,2.73-1.36,5.93-1.33,9.6.12,14.32.11,27.57-.03,39.76-.06,4.59-3.68,7.22-8.13,6.8-6.21-.59-6.56-5.34-6.52-10.52.05-11.19.06-22.31.02-33.35-.03-8.18.1-14.66-4.77-19.29-8.55-8.15-23.73-4.54-27.92,6.43-1.03,2.72-1.53,6.11-1.51,10.19.07,13.14.07,25.81,0,38-.04,6.51-2.89,9.32-8.54,8.44-6.86-1.06-6.15-6.73-6.14-11.79.02-20.98.05-41.63.07-61.98,0-2.83,2.17-5.04,4.82-5.68,4.96-1.2,8.23.64,9.82,5.5.13.4.56.61.96.48.1-.03.19-.08.26-.15,11.05-9.77,29.19-9.77,39.81,1.12.71.74,1.23,1.64,1.92,2.37.4.42.81.43,1.24.03Z"/>
  <path class="cls-1" d="m172.65,450.83c7.84-3.3,15.82-4.27,23.95-2.91,16.15,2.69,26.73,11.92,31.73,27.69,3.02,9.52,2.05,22.78-2.63,31.91-6.18,12.05-16.28,18.99-30.28,20.82-25.94,3.39-45.98-14.59-45.9-40.69.05-16.08,8.29-30.58,23.12-36.82Zm17.13,65.09c14.51,0,26.27-12.46,26.27-27.84h0c0-15.38-11.76-27.84-26.27-27.84s-26.27,12.46-26.27,27.84,11.76,27.84,26.27,27.84h0Z"/>
  <path class="cls-1" d="m242.04,476.61c2.56-11.23,10.64-20.91,21.33-25.62,9.28-4.09,20.97-4.84,30.72-1.63,18.2,6,27.83,21.99,26.99,40.92-1.14,26.28-23.3,42.77-48.95,37.53-24.58-5.01-35.45-27.74-30.09-51.21Zm38.57,39.29c14.53.18,26.46-12.14,26.64-27.51h0c.19-15.37-11.44-27.97-25.96-28.15h0c-14.53-.18-26.46,12.14-26.64,27.51h0c-.19,15.37,11.44,27.97,25.96,28.15h0Z"/>
  <path class="cls-1" d="m678,457.62c.29.15.55.11.77-.14,7.31-8.19,16.66-12.26,28.07-12.23,16.06.05,29.84,8.35,35.1,24.01,1.42,4.24,2.1,10.46,2.04,18.64-.09,12.8-.13,24.66-.11,35.56,0,3.19-1.44,4.71-4.34,4.55-2.86-.15-4.41-1.23-4.42-4.18-.05-12.38-.03-24.33.07-35.84.06-7.18-.52-12.58-1.73-16.22-3.96-11.94-14.93-17.79-27.3-17.64-13.58.17-28.22,7.93-28.24,23.3-.02,14-.08,29.48-.18,46.44-.02,2.84-1.44,4.21-4.28,4.11-2.97-.1-4.42-1.26-4.44-4.3-.08-35.89-.09-71.96-.03-108.19,0-2.79,1.42-4.15,4.23-4.09,2.91.07,4.47.94,4.51,4.06.16,12.81.12,26.65-.1,41.51,0,.27.15.52.38.63Z"/>
  <circle class="cls-1" cx="769.07" cy="422" r="6.93"/>
  <path class="cls-1" d="m481.77,510.62c4.75-10.66-6.3-17.23-14.78-18.83-10.03-1.88-20-2.91-28.44-8.94-6.26-4.47-8.83-10.55-7.71-18.24,2.46-16.87,22.05-21.14,36.11-18.6,9.09,1.64,16.18,6.09,21.26,13.35,1.06,1.52.69,3.6-.82,4.66l-.37.26c-2.47,1.72-4.66,1.42-6.57-.9-4.65-5.66-10.47-8.82-17.46-9.49-9.08-.87-21.92,1.22-23.72,12.22-1.76,10.64,10.59,14.55,18.47,15.77,9.95,1.53,20.63,3.42,27.72,10.22,5.5,5.27,7.52,14.15,4.37,21.14-2.41,5.35-6.39,9.25-11.94,11.71-13.56,6.03-27.21,5.53-40.97-1.5-2.98-1.52-5.73-3.9-8.26-7.13-1.44-1.84-1.29-3.53.44-5.09l.53-.47c1.88-1.69,3.68-1.59,5.38.27,3.46,3.8,7.21,6.34,11.26,7.62,10.01,3.17,30.11,4.09,35.49-8.02Z"/>
  <path class="cls-1" d="m646.94,501.32c-2.55-6-10.98-8.98-17.03-10.02-13.96-2.4-35.15-5.88-34.15-24.76,1-18.91,23.19-23.5,38.03-20.14,7.93,1.79,14.34,5.93,19.23,12.42,1.3,1.72,1.21,3.37-.27,4.93-.26.28-.56.52-.89.71-2.38,1.39-4.44,1.02-6.18-1.12-6.67-8.14-16.15-11.13-28.45-8.97-2.96.52-5.67,1.75-8.13,3.69-6.87,5.44-6.57,15.02,1.09,19.52,3.06,1.8,6.06,2.97,8.99,3.52,5.14.96,9.99,1.91,14.55,2.86,6.59,1.36,11.86,3.75,15.8,7.18,7.25,6.26,9.24,17.23,3.7,25.26-7.85,11.38-24.34,14.22-37.46,11.87-7.55-1.35-13.94-4.28-19.2-8.8-1.99-1.7-4.77-4.55-3.16-7.35,1.79-3.08,5.17-2.9,7.31-.52,3.13,3.49,6.81,5.88,11.05,7.18,8.04,2.46,18.47,2.61,26.47-.24,7.03-2.49,11.73-10.03,8.68-17.22Z"/>
  <path class="cls-1" d="m568.71,517.84c.03-1.32-.42-1.51-1.34-.58-9.76,9.86-20.49,13.18-33.97,11.47-13.68-1.75-24.47-10.24-29.06-23.54-1.41-4.09-2.11-11.36-2.11-21.79,0-11.22.07-22.16.21-32.79.08-5.92,8.67-5.51,8.69.35.07,13.69.08,27.17.05,40.47-.06,21.3,15.43,31.28,35.36,28.2,12.74-1.97,22.03-10.96,22.04-24.32.02-15.66.03-30.53.06-44.61,0-3.19,1.51-4.27,4.48-4.22,2.83.04,4.24,1.56,4.24,4.57-.02,24.84-.02,49.02-.02,72.54,0,2.84-1.38,4.31-4.15,4.41-5.99.2-4.57-6.29-4.47-10.16Z"/>
  <rect class="cls-1" x="764.71" y="446.44" width="8.78" height="81.73" rx="4.01" ry="4.01"/>
  <path class="cls-1" d="m500.79,388.85c1.23.85,2.59,1.45,4.1,1.79,3.42.77,6.44,1.78,9.07,3.02.71.33,1.35.76,1.93,1.28,1.23,1.09,1.56,1.81.97,2.16-1.08.63-2.24.77-3.48.43-60.32-16.63-120.4-33.3-180.23-50.02-2.48-.69-4.92-1.26-7.32-1.7-1.76-.32-3.5-.22-5.21.3-35.02,10.78-71.17,21.87-108.45,33.28-4.24,1.3-8.29,1.29-10.22-3.25-3.65-8.57,6.76-9.96,12.53-11.6,29.12-8.24,58.44-16.4,87.97-24.5.27-.08.42-.36.35-.63-.03-.12-.11-.22-.21-.29-.23-.15-.47-.26-.73-.33-31.08-8.5-62.61-17.27-94.6-26.29-3.88-1.09-7.06-4.23-5.73-8.59,1.41-4.62,5.22-5.83,9.48-4.55,38.72,11.81,75.63,23.12,110.73,33.93,1.58.49,3.2.5,4.85.03,64.98-18.06,125.71-34.93,182.19-50.63,2.48-.69,4.94-1.16,7.4-1.41.46-.05.72.16.79.62.19,1.17-.27,2.04-1.39,2.61-4.31,2.18-9.45,3.94-15.43,5.27-.32.07-.52.39-.45.71.03.11.08.22.17.3.32.31.71.5,1.15.59,4.97.93,9.6,2.54,13.9,4.83,12.57,6.68,23.13,14.25,31.67,22.71,5.2,5.17,11.39,13.06,11.54,20.57.16,7.84-6.74,16.67-12.23,21.89-8.3,7.89-18.06,14.95-29.3,21.18-5.3,2.93-10.49,4.74-15.58,5.42-.8.11-.87.39-.2.85Zm-16.95-84.33c.42-.82.88-1.65,1.37-2.48,2.29-3.94,8.68-4.89,12.47-3.97,14.59,3.55,27.64,12.3,39.42,22.8,3.86,3.44,7.31,7.29,10.35,11.54,5.46,7.66,1.15,13.91-3.96,19.58-7.46,8.26-16.75,15.64-27.89,22.15-6.24,3.65-12.41,6.01-18.51,7.08-4.42.78-8.38-.31-11.89-3.28-.02-.02-.05-.01-.09.03l-.2.2c-.07.07-.07.14-.01.2,9.56,12.06,32.49-3.3,41.25-9.33,7.45-5.15,28.57-21.79,25.52-31.5-.93-2.94-2.44-5.65-4.55-8.11-10.37-12.14-23.18-21.84-38.43-29.13-3.66-1.75-7.5-2.99-11.53-3.72-3.76-.69-9.89.63-11.89,4.64-.56,1.12-1.06,2.21-1.51,3.26,0,.03.01.06.04.07.02,0,.05,0,.06-.02Zm-139.72,35.62l132.83,41.42c.25.08.52-.06.6-.31.03-.1.03-.21,0-.31-1.78-4.61-2.93-9.5-3.46-14.66-1.95-18.93-1.83-37.33.36-55.21.54-4.36,1.66-8.87,3.45-12.94.12-.26,0-.57-.25-.69-.12-.05-.25-.06-.38-.02l-133.23,41.59c-1.18.37-1.15.75.1,1.14Zm155.09-19.72c.12-.09.23-.08.32.05,4.75,6.22,10.37,11.29,16.88,15.21,4.24,2.56,8.5,3.65,12.76,3.28.77-.07,1.34-.75,1.27-1.52-.02-.19-.07-.38-.17-.55-2.13-3.9-5.54-8.55-10.53-7.98-.4.05-.79-.02-1.16-.19-3.84-1.78-6.84-4.12-8.97-7.03-2.17-2.96-5.22-4.64-9.14-5.04-.64-.06-1.2.11-1.67.52-2.9,2.48-7.03,7.49-3.2,11.27,2.51,2.46,4.86,4.84,7.06,7.14,5.65,5.89,12.15,10.04,19.51,12.44,1.08.35,2,.3,2.76-.15,1.85-1.11,3.62-3.49,4.76-5.24,1.5-2.34.92-3.12-1.75-2.35-1.53.45-3.02.46-4.47.02-3.43-1.03-7.23-2.65-10.18-4.89-6.21-4.72-11.01-9.46-14.41-14.22-.14-.19-.1-.46.09-.61l.23-.18Zm22.62,7.64c.38-.56-1.94-2.82-5.2-5.05-3.26-2.23-6.21-3.58-6.59-3.02h0c-.38.56,1.94,2.82,5.2,5.05s6.21,3.58,6.59,3.02c0,0,0,0,0,0Zm-27.2,10.93c1.21,1.18,2.44,2.38,3.69,3.6,1.7,1.66,3.54,3.37,5.53,5.15,3,2.66,6.27,4.39,9.82,6.14,1.76.87,3.43.73,5.01-.43l2.18-1.58c1.66-1.22,1.51-2.13-.46-2.72-10.06-3.02-18.44-10.99-25.46-19.14-1.26-1.47-1.89-1.23-1.87.7l.03,4.67c.02,1.41.53,2.62,1.53,3.61Zm.47,2.18c-1.49-1.68-2.17-1.39-2.04.86l.3,5.03c.08,1.35.63,2.46,1.66,3.34l9.99,8.58c.95.81,2.28,1.01,3.43.51l4.97-2.2c1.28-.57,1.28-1.15.01-1.74-7.01-3.25-13.26-8.7-18.32-14.38Zm.17,11.51c-.32-.27-.8-.23-1.07.09-.18.21-.23.5-.13.76l2.49,6.64c.09.24.3.42.55.47l4.67.98c.1.02.21.02.32,0l1.5-.3c.41-.09.67-.49.58-.9-.04-.17-.13-.32-.26-.42l-8.67-7.31Z"/>
  <circle class="cls-1" cx="578.16" cy="276.4" r="5.56"/>
  <circle class="cls-1" cx="566.3" cy="293.78" r="7.61"/>
  <circle class="cls-1" cx="576.91" cy="309.28" r="5.73"/>
  <circle class="cls-1" cx="572.54" cy="323.38" r="4.23"/>
</svg>