<?xml version="1.0" encoding="UTF-8"?>
<svg id="Camada_1" data-name="Camada 1" xmlns="http://www.w3.org/2000/svg" viewBox="0 0 800 800">
  <defs>
    <style>
      .cls-1 {
        fill: #fff;
      }
    </style>
  </defs>
  <g>
    <path class="cls-1" d="m576.35,364.96l.07-15.25.07-165.5c0-1.03-.84-1.87-1.87-1.87l-349.03-.04-.51,58.45-1.58,108.92.11,127.88.33,123.25.62,12.78c.12,2.19,1.94,3.9,4.15,3.89l285.22-.04,62.3-.66-.48-128.14.7-11.35-.11-112.34Zm-3.12,244.15s0,.02,0,.04c0,1.83-1.48,3.31-3.31,3.31H232.98c-1.13,0-1.82-.55-2.09-1.65-1.08-4.53-1.32-9.07-.73-13.63l.84-130.56-.66-174.64-.55-102.53s0-.02,0-.04c0-1.24,1-2.24,2.24-2.24l338.82.11s.02,0,.04,0c1.46.02,2.63,1.2,2.61,2.64l-1.87,191.95,1.62,227.25Z"/>
    <path class="cls-1" d="m565.96,193.92l-330.26.18c-.83,0-1.25.43-1.25,1.29l-.11,252.89.33,153.81c0,.11,0,.21.03.32.18,1.12,1.24,1.88,2.36,1.7,2.2-.37,3.61-1.82,4.22-4.37,2.17-9.07,4.81-23.44,18.29-17.67.6.26,1.11.7,1.46,1.26.93,1.5.48,3.45-1.01,4.36-1.1.69-2.2,1.43-3.31,2.24-5.58,4.04-2.2,10.65,3.12,13.04.26.12.53.22.81.3,3.41.99,6.98-.96,7.97-4.37,2.72-9.37,2.5-24.25,18.48-17.3.63.28,1.18.73,1.56,1.31,1.12,1.67.68,3.91-.97,5.01l-3.67,2.46c-1.15.76-1.84,1.81-2.06,3.16-.64,3.77.89,6.64,4.59,8.6,5.09,2.69,8.28,1.24,9.55-4.37,1.91-8.38,5.69-21.86,17.6-16.24,5.04,2.4,5.03,4.76-.04,7.09-7.82,3.64-3.86,13.04,2.94,14.55.15.03.3.06.45.08,3.51.52,6.78-1.88,7.3-5.37,1.25-8.41,4.78-24.39,17.34-16.05,4.7,3.11,4.3,5.29-1.21,6.54-4.08.92-6.58,5.4-4.45,9.18,1.08,1.96,2.67,3.45,4.78,4.48.63.31,1.3.52,1.99.62,3.65.53,7.05-2.02,7.59-5.69,1.36-9.37,5.44-20.24,17.74-15.1.48.2.91.52,1.24.92,1.14,1.38.94,3.41-.43,4.55-.96.81-1.96,1.58-3.01,2.31-1.13.81-1.81,1.9-2.06,3.27-1.05,5.66,1.22,8.9,6.83,9.74,3.16.47,6.17-1.53,6.94-4.63.76-3.06,1.43-6.18,2.02-9.37,1.65-8.82,11.09-11.43,17.71-5.33.31.28.54.63.69,1.02.53,1.38-.16,2.93-1.54,3.47-6.98,2.76-9.29,12.38-.07,14.14,3.04.59,6.07-1.06,7.2-3.93l4.96-12.42c1.79-4.46,5.05-6.34,9.77-5.66,1.89.27,3.66.92,5.33,1.95,3.38,2.08,3.36,4.11-.07,6.1-6.07,3.5-6.78,7.78-2.13,12.82,1.13,1.21,2.68,1.94,4.33,2.06,3.62.26,6.77-2.47,7.02-6.1.48-7.16,1.87-15.69,10.4-17.41,3.14-.61,5.85.18,8.16,2.39l1.1,1.07c2.62,2.52,2.14,4.09-1.43,4.7-9.55,1.69-9.11,11.61-.88,14.44.04.01.08.03.12.04,3.54,1.12,7.32-.83,8.44-4.37,2.83-9.07,6.98-22.89,19.98-14.69.45.28.8.68,1,1.16.58,1.32-.04,2.87-1.37,3.47l-3.64,1.58c-1.2.49-1.97,1.36-2.31,2.61-1.22,4.26-.06,7.63,3.49,10.1.58.41,1.22.73,1.9.94,3.73,1.2,7.71-.83,8.9-4.54,1.84-5.69,2.02-13.3,7.42-16.83,4.19-2.74,8.2-2.23,12.05,1.54.32.32.57.7.74,1.12.66,1.68-.16,3.58-1.84,4.24-1.96.76-3.51,1.79-4.67,3.09-.93,1.03-1.31,2.22-1.14,3.56.42,3.21,2.03,5.52,4.85,6.94.76.38,1.59.63,2.43.73,3.95.45,7.52-2.39,7.96-6.35.71-6.37,3.02-11.24,6.94-14.62,2.39-2.07,5.77-2.54,8.6-1.18,1.32.64,2.53,1.38,3.64,2.24,2.69,2.11,2.45,3.76-.73,4.96-9.4,3.53-6.1,12.78,1.84,15.06.44.13.89.2,1.34.21,3,.09,5.51-2.29,5.6-5.32.12-3.7.89-7.24,2.31-10.62,2.94-6.87,13.15-11.31,17.67-3.09.05.08.09.16.12.25.44,1.07-.08,2.29-1.15,2.73l-3.38,1.36c-1.05.44-1.98,1.14-2.69,2.03-2.29,2.89-1.81,7.08,1.07,9.36,3.06,2.42,6.43,3.32,10.1,2.68,1.4-.25,2.43-1.46,2.42-2.87l.48-217.62-.37-185.55c0-1.59-.8-2.39-2.39-2.39Zm-61.5,157.82c.02-1.62.84-2.52,2.46-2.72,3.5-.47,6.72.26,9.66,2.17.54.36.91.93,1.02,1.57.23,1.3-.64,2.54-1.94,2.76-3.58.61-5.89,2.57-6.94,5.88-.56,1.79.09,2.57,1.95,2.35,1.64-.2,2.96-.97,3.97-2.31.34-.47.89-.74,1.47-.73,1,.02,1.8.86,1.8,1.87-.1,3.58-1.32,7-3.67,10.29-1.18,1.64-2.3,1.62-3.38-.07l-.55-.85c-.78-1.22-1.9-1.81-3.34-1.76-4.09.17-7.91-.66-11.46-2.5-.27-.15-.5-.36-.67-.62-.55-.85-.3-1.99.56-2.54l7.49-4.74c1-.64,1.52-1.55,1.54-2.76l.04-5.29Zm35.05-7.6c4.04-1.05,7.36.07,9.96,3.38.86,1.1,1.05,2.31.59,3.64-.71,2.13-1.74,4.08-3.09,5.84-.05.06-.1.12-.15.17-.85.87-2.24.89-3.12.05l-9.15-8.85c-.2-.2-.42-.23-.66-.11l-1.95,1.07c-.16.08-.29.2-.39.34-.35.5-.22,1.2.28,1.57,5.53,3.97,9.32,8.87,11.35,14.69,2.47,7.03,5.58,14.14,9.33,21.34.29.54.31,1.07.04,1.58-.1.17-.24.24-.44.22-.24-.02-.47-.13-.66-.33-7.6-7.93-9.55-18.29-16.02-27.52-.19-.27-.44-.49-.74-.63-.97-.47-2.13-.08-2.61.89-.25.54-.26,1.1-.04,1.69,4.78,12.64,11.46,23.52,20.06,32.66.32.32.34.65.07.99l-.88,1.14c-.71.91-1.38.87-2.02-.11-.61-.96-1.32-1.76-2.13-2.42-6.2-5.12-7.41-4.11-3.64,3.01,3.09,5.88,2.45,9.99-1.91,12.34-6.25,3.34-15.02,7.82-19.98-.22-.87-1.4-1.36-3.09-1.43-4.92-.05-1.1.13-2.18.55-3.23.59-1.47,1.32-1.54,2.2-.22,3.21,4.9,5.91,7.68,8.12,8.34,2.13.64,3.88-.04,5.25-2.02,5.73-8.3,1.18-26.08-5.25-32.81-4.63-4.85-9.15-9.99-10.07-16.79-.59-4.41,2.94-8.12,7.02-8.93.86-.17,1.25-.69,1.18-1.54l-.99-13.37c-.14-1.89-1.11-3.62-2.64-4.74-.61-.44-1.29-.78-2.02-1.03-.22-.08-.46-.09-.68-.05-.72.14-1.18.84-1.04,1.55l2.39,11.65c.23,1.11.1,2.27-.36,3.3-1.22,2.72-4.41,3.94-7.14,2.72-2.94-1.35-5.27-3.31-6.98-5.88-.71-1.13-.93-2.34-.66-3.64l5.11-24.14c.27-1.3,1-1.7,2.2-1.21,1.27.51,2.31,1.38,3.12,2.61.96,1.47,2.3,2.14,4.04,2.02,1.52-.12,2.72-.86,3.6-2.2.83-1.3,1.89-1.51,3.16-.62,4.78,3.33,7.34,7.14,7.68,11.42.39,4.8.21,9.94-.55,15.43-.24,1.67.45,2.29,2.09,1.87Zm3.24,170.42c-.1.06-.18.14-.27.22.09-.08.17-.16.27-.22Zm-.53.5c-.05.07-.09.15-.13.23.02-.04,0-.08.03-.12.03-.04.07-.07.1-.11Zm5.81-33.41c.09-.2.13-.42.12-.64,0,.22-.03.43-.12.64Zm-.04-1.27c.07.14.11.29.14.44-.02-.15-.07-.3-.14-.44Zm-1.42-.8c.06,0,.12,0,.19,0-.06,0-.12-.02-.19,0Zm.64.1s.07,0,.11.02c.04.02.07.06.11.08-.07-.04-.15-.07-.22-.1Zm.46.28c.08.07.14.14.2.22-.06-.08-.13-.15-.2-.22Zm-5.52,55.3c.08-.02.16-.03.24-.07-.07.04-.16.05-.24.07Zm.43-.21c.06-.05.13-.09.18-.15-.05.06-.12.1-.18.15Zm.5-1.09s0,.05,0,.08c0,.07-.03.14-.04.2.01-.09.04-.18.03-.28Zm-.07.53c-.03.08-.07.14-.11.21.04-.07.09-.13.11-.21Zm.06-20.07c.12-.05.24-.09.37-.11-.13.02-.25.06-.37.11Zm1.63.11c-.3-.18-.65-.24-1-.23.34,0,.68.04,1,.23Zm6.72,60.29c-.02-.08-.05-.16-.08-.24.01.03.05.05.06.09.02.05,0,.1.02.16Zm-163.88-356.35c26.67-9.6,52.77-11.18,78.28-4.74,1.49.37,2.39-.21,2.68-1.73l.59-3.12c.12-.63.41-1.21.84-1.69,3.55-4.09,8.08-4.54,13.59-1.36.78.44,1,1.09.66,1.95-.47,1.27-1.35,1.75-2.64,1.43-1.79-.44-3.58-.51-5.36-.22-1.66.27-2.96,1.55-3.27,3.2-.61,3.43.76,5.91,4.11,7.46,10.31,4.7,19.05,10.38,26.23,17.05.34.33.4.85.15,1.25l-.55.77c-.29.44-.65.51-1.07.22-6.58-4.74-22.89-15.28-30.38-9.22-.43.35-.8.76-1.1,1.22-1.58,2.43-.89,5.69,1.54,7.27,1.57,1.03,3.06,2.25,4.48,3.67,2.42,2.38,2,3.13-1.29,2.28-3.82-.98-7.1-2.79-9.85-5.44-5-4.82-4.4-8.8,1.8-11.94,1.52-.76,3.09-1.42,4.7-1.98,3.45-1.18,3.49-2.47.11-3.89-7.49-3.16-15.25-4.16-23.25-3.01-6.39.96-8.77,4.29-7.13,9.99.42,1.44-.09,1.96-1.51,1.54-2.84-.78-4.63-2.5-5.36-5.14-.32-1.13-.04-2.08.85-2.87l5.62-4.85c1.76-1.52,1.49-2.36-.81-2.53-16.75-1.36-34.13,3.6-52.2,7.6-.49.12-.81-.06-.96-.55l-.33-1.07c-.22-.76.05-1.27.81-1.54Zm-50.55-3.78c.09-.22.23-.42.39-.6.76-.79,2.01-.82,2.8-.07l1.54,1.51c.98.93,2.14,1.43,3.49,1.51,10.47.51,19.8-5.66,30.49-2.31.96.3,1.79.91,2.35,1.74,1.37,2.02.84,4.76-1.17,6.12-8.63,5.77-22.52,12.49-22.08,24.32.05,1.91-.8,2.47-2.53,1.69l-1.4-.59c-1.45-.63-2.3-2.16-2.06-3.71l.66-4.63c.32-2.16-.4-2.42-2.17-.81-.78.71-1.76.91-2.94.59-2.2-.64-2.44-1.7-.7-3.2l15.03-13.19c.64-.57,1.47-.92,2.35-.99,1.59-.1,2.76-.76,3.49-1.98,1.2-2.01.72-2.56-1.43-1.65-6.43,2.64-20.98,7.71-25.75.51-.88-1.35-1-2.77-.37-4.26Zm-75.01,19.18c10.62-13.92,27.07,2.61,32.18,12.89.54,1.08,1.41,1.65,2.61,1.73.34.02.66-.09.96-.33.73-.61,1.14-1.4,1.21-2.35.61-6.59,3.77-11.09,9.48-13.52,1.4-.61,2.34-.18,2.83,1.29.42,1.22.16,2.38-.77,3.45-.96,1.08-1.62,2.31-1.98,3.71-4.37,16.68,18.37,20.28,20.06,2.76.2-1.86,1.09-2.3,2.68-1.32.76.47,1.32,1.1,1.69,1.91.56,1.2.61,2.41.15,3.64-1.69,4.36-.4,6.99,3.86,7.9,6.83,1.44,13.22.59,19.18-2.57,9.45-5.07,18.59-9.59,27.41-13.56,23.58-10.58,51.21-7.2,73.95,3.97,22.74,11.2,36.44,30.49,40.3,54.37.02.12.02.24,0,.36-.11.56-.67.92-1.24.82-13.42-2.74-21.25,2.96-23.47,17.12-2.33,14.65,3.65,21.85,17.93,21.6,3.26-.07,6.29-.93,9.11-2.57.41-.23.91-.27,1.36-.11.84.3,1.27,1.2.96,2.02-2.79,7.86-5.44,15.65-10.91,22.23-12.42,14.88-33.32,30.67-52.79,32.44-17.31,1.59-33.05-2.49-47.21-12.23-8.6-5.93-14.56-13.81-17.89-23.66-.11-.3-.33-.55-.62-.7-.63-.32-1.41-.08-1.73.56-2.33,4.7-5.5,8.5-9.51,11.39-1.04.74-1.67,1.94-1.69,3.23l-.04,3.23c-.02,1.62-.77,2.06-2.24,1.32-1.1-.54-1.69-1.47-1.76-2.79-.71-10.9,3.01-20.88,11.17-29.94.34-.39.36-.8.04-1.21l-1.21-1.65c-.42-.59-.84-.6-1.29-.04-2.94,3.75-6.37,6.17-10.29,7.27-2.03.59-2.55-.04-1.54-1.87,3.11-5.73,5.57-12.51,7.38-20.35.47-2.06-.13-2.45-1.8-1.18l-7.64,5.88c-.83.64-1.75.8-2.76.48-.66-.22-.99-.58-.99-1.07,0-.42.13-.78.4-1.1,3.45-4.33,5.93-9.31,7.42-14.91.32-1.25,1.1-2.03,2.35-2.35l4.96-1.25c.42-.11.8-.32,1.11-.61,1.06-.98,1.12-2.63.14-3.69-1.71-1.81-3.4-3.65-5.07-5.51-2.08-2.35-1.56-3.44,1.58-3.27,1.03.07,1.91-.21,2.65-.85,1-.83,1.32-1.86.96-3.09-.66-2.18-.73-4.31-.22-6.39.39-1.62,1.1-1.76,2.13-.44.81,1.08,1.75,1.9,2.83,2.46,1.76.88,2.9.38,3.42-1.51l1.58-5.95c.71-2.57,1.98-2.9,3.82-.99l4.92,5.03c.69.71,1.63,1.14,2.65,1.21,2.5.12,4.44-1.09,5.84-3.64,2.33-4.24,4.75-4.3,7.27-.18,2.01,3.28,4.81,4.02,8.41,2.2,4.95-2.5,6.47-1.18,4.56,3.97-1.1,2.99-2.04,6.13-2.83,9.44-.27,1.22.01,2.31.85,3.27l7.38,8.3c.93,1.03,1.07,2.56.33,3.75-.61.93-1.4,1.63-2.35,2.09-5.49,2.74-5.41,5.3.22,7.68,3.16,1.32,5.87,3.55,8.12,6.69.96,1.32.72,2.39-.7,3.2l-9.74,5.66c-.42.24-.79.57-1.09.95-1.26,1.64-.96,3.99.68,5.26l10.98,8.34c.36.27.67.6.92.98,1.16,1.79.65,4.18-1.14,5.34-5.68,3.72-11.35,4.03-17.01.92-3.7-2.03-7.26-4.15-10.69-6.36-.91-.59-1.87-.7-2.9-.33-1.64.54-3.33.62-5.07.26-1.16-.25-2.36-.14-3.46.3-3.05,1.23-4.53,4.72-3.3,7.78,2.87,7.13,8.02,12.39,15.47,15.8,15.6,8.84,31.08,8.3,46.43-1.62.96-.64,1.65-1.48,2.09-2.53,29.17-25.64,19.87-67.89-2.9-92.98-12.09-13.3-29.17-14.58-47.06-14.22-36.48.81-60.32,23.25-62.75,60.28-1,15.31-.28,30.06,2.17,44.27.44,2.52-.34,4.46-2.35,5.8-2.47-1.2-4.3-.45-5.47,2.24-2.65.51-5.07.6-7.27.26-1.27-.2-1.9-.93-1.87-2.2.78-29.07-2.53-56.82-9.96-83.24-3.09-10.95-19.62-62.16-38.9-42.61-12.2,12.34,2.53,20.87,9.11,29.57,1.49,1.98,1.02,2.84-1.43,2.57-1.47-.17-2.77-.71-3.89-1.62-.93-.71-1.76-.62-2.5.26l-.62.73c-.22.24-.2.48.07.7l23.25,19.73c.93.78.91,1.56-.07,2.31l-.99.73c-.54.42-1.28.42-1.8,0-4.09-3.26-8.03-5.83-11.83-7.71-5.49-2.72-6.05-1.92-1.69,2.39,9.26,9.16,17.36,18.64,24.32,28.43.59.81.5,1.53-.26,2.17l-.85.7c-.12.1-.23.09-.33-.04-4.09-4.6-7.82-8.08-11.2-10.43-4.19-2.91-4.81-2.29-1.87,1.87,6.39,9.04,11.36,19.08,14.91,30.12.12.32.05.59-.22.81l-.92.7c-.07.06-.15.11-.23.15-.67.34-1.49.08-1.83-.59-3.31-6.27-6.86-12.02-10.65-17.27-2.94-4.04-3.58-3.7-1.91,1.03,4.67,13.34,19.91,37.62.07,47.06-11.9,2.47-21.18-2.41-27.85-14.66-.81-1.47-.93-2.74-.37-3.82.61-1.18,1.44-1.36,2.5-.55,4.73,3.58,9.53,3.32,14.4-.77,5.27-4.53,6.69-10.76,4.26-18.7-5.62-18.4-12.6-36.55-17.05-55.29-4.56-19.1-10.58-40.7,1.84-57.01Zm201.11,207.97s0,.08-.02.11c-.02.05-.07.08-.09.12.04-.07.08-.15.11-.24Zm-.32.52c-.08.08-.15.16-.24.22.09-.07.17-.14.24-.22Zm-.52.39c-.11.05-.22.1-.33.13.12-.03.23-.07.33-.13Zm-.59.16c-.31.03-.63.01-.93-.13.29.14.61.16.93.13Zm-2.47-2.19l-3.31-1.03-.48-6.98c.76.54,1.82.86,3.2.96l.59,7.05Zm-24.56,30.64c.04-.29.05-.55.04-.78.02.23,0,.49-.04.78Zm-21.95-40.87s-.1.03-.15.05c.08-.04.15-.08.22-.13-.03.02-.04.06-.07.08Zm-.8.2c.11,0,.21-.02.32-.04-.11.02-.21.04-.32.04Zm-.66-.12c.11.04.22.07.34.09-.12-.02-.23-.05-.34-.09Zm-.89-.73c.15.26.39.46.65.61-.26-.15-.49-.34-.65-.61Zm-27.37,4.13c.01.16.06.32.12.47-.07-.15-.11-.31-.12-.47Zm-.01-.18c0-.22.05-.44.16-.64-.11.2-.15.42-.16.64Zm.23.85c.05.08.12.15.18.21-.07-.07-.13-.13-.18-.21Zm1.22.63c-.06,0-.12,0-.18-.01.06,0,.12.02.18.01Zm-.64-.14s-.08-.01-.11-.03c-.03-.02-.04-.04-.07-.06.06.04.12.06.18.09Zm4.94,6.83c-.11.25-.14.52-.12.78-.02-.26,0-.53.12-.78Zm.02,1.37c-.05-.1-.08-.21-.1-.32.03.11.05.22.1.32Zm.36.5c-.08-.07-.14-.15-.2-.23.06.08.12.16.2.23Zm.51.32s-.06,0-.09-.01c-.06-.03-.1-.08-.15-.11.08.05.15.09.24.13Zm17.35-3.2c-.05-.03-.11-.06-.17-.08.06.02.11.05.17.08Zm.6.56c.05.09.06.18.09.27-.03-.09-.05-.19-.1-.28,0,0,0,0,.01.01Zm.06,1.35c.1-.25.16-.51.12-.79.04.27-.02.54-.12.79Zm-1.84-34.23c.11.05.21.11.31.18-.1-.07-.2-.13-.31-.18Zm.6.4c.09.09.16.18.23.28-.07-.1-.14-.2-.23-.28Zm.4.6c.05.12.08.24.11.37-.03-.13-.06-.25-.11-.37Zm-1.89-1.17c.1,0,.2,0,.31,0,.08,0,.14.05.22.06-.17-.03-.34-.08-.53-.06Zm-15.53-25.06c-.03-.16-.15-.25-.23-.38.08.13.21.23.23.38Zm-1.33-.95c.29-.05.58.01.83.17,0,0,0,.02.02.02-.24-.16-.54-.25-.85-.2Zm-23.13,61.73s0,.06,0,.09c0-.03,0-.06,0-.09Zm.43.92s-.03-.01-.04-.02c-.02-.01-.01-.04-.02-.05.02.02.04.05.07.07Zm23.35,57.45c-.16-.2-.28-.44-.35-.7.07.26.18.5.35.7Zm.58.49c-.16-.09-.29-.22-.41-.35.13.13.26.26.41.35Zm.72.24c-.13-.02-.24-.07-.36-.11.12.04.23.1.36.11Zm.77-.05s0,0,0,0c-.07.02-.14,0-.22.01.08-.01.15,0,.23-.02Zm16.81-60.2c-.13.24-.3.45-.55.59.25-.14.42-.36.55-.59Zm1.25,20.39c-.23.18-.5.28-.79.29-.05,0-.08-.02-.13-.02.32.02.65-.05.92-.27Zm-1.03.25c-.31-.05-.58-.19-.77-.41.21.23.48.37.77.41Zm-.84-.51c-.14-.2-.25-.43-.25-.69,0,.25.11.49.25.69Zm24.79,7.28c-1.08.85-2.3,2.21-3.41,3.88-.83,1.25-1.48,2.49-1.91,3.59.43-1.1,1.08-2.34,1.91-3.59,0,0,0,0,0,0,1.11-1.66,2.33-3.02,3.41-3.88Zm-4.39,11.24c-.22.07-.42.11-.6.11.18,0,.38-.03.6-.11Zm3.18-2.51c.58-.65,1.16-1.41,1.72-2.24.83-1.25,1.48-2.49,1.91-3.59-.43,1.1-1.08,2.34-1.91,3.59h0c-.55.83-1.14,1.59-1.72,2.24s-1.16,1.21-1.7,1.63c.54-.43,1.12-.98,1.7-1.63Zm-1.71-41.82c1.13-1,1.41-2.36.84-4.08-.34-1.1-.04-1.98.92-2.64,3.06-2.06,3.47-3.91,1.21-5.55,2.33.24,3.88.64,4.67,1.18.61,2.06.47,3.64-.44,4.74-.64.76-.51,1.37.37,1.84l1.18.59c.78.71,1.57.55,2.35-.48.81-1.1,1.13-2.45.96-4.04,1.84,1.47,2.76,1.7,2.76.7-.05,1.03.07,2,.37,2.9.25.7.89,1.2,1.65,1.29.42.05.77,0,1.07-.15l-1.69,1.36c-6.27-1.67-7.25-1.04-2.94,1.87-1.03.42-1.84,1.15-2.42,2.2-.39.71-.97.96-1.73.73-.42-.12-.8-.39-1.14-.81-.54-.66-.53-1.31.04-1.95,1.4-1.59,1.64-2.8.73-3.64-2.52-.17-5.44,1.14-8.74,3.93Zm-92.13-21.16c-.42.22-.69.49-.81.81-.12.32-.18.71-.18,1.18l-5.4,3.09c-1.57.91-2.99.71-4.26-.59l-7.9-8.05c-.17-.17-.3-.36-.4-.57-.51-1.06-.07-2.33.99-2.85l28.73-13.7c1.19-.56,2.6-.41,3.64.4,1.69,1.27,2.13,2.63,1.32,4.08-.59,1.05-1.47,1.67-2.65,1.84-.96.15-1.91.53-2.87,1.14l-20.98,9.55c-.37.15-.49.4-.37.77l.33.96c.2.64.6.82,1.21.55l22.11-10.18c.1-.91.5-1.43,1.21-1.58.17-.04.35-.06.53-.05,1.24.03,2.22,1.05,2.19,2.29-.05,2.65-1.26,4.47-3.64,5.47-4.43,1.52-8.71,3.33-12.82,5.44Zm-3.75-23.92c1.3-.61,1.35-1.31.15-2.09-1.37-.88-3.61-1.08-6.72-.59-.59-1.32-.17-2.34,1.25-3.05,2.79-1.4,5.17-.91,7.13,1.47.73.88,1.67,1.42,2.79,1.62.66.12,1.26-.05,1.8-.51,1.15-1.03,2.47-1.33,3.97-.92,2.01.59,3.34,1.81,4,3.67.56,1.59.07,2.06-1.47,1.4-1.42-.61-2.66-.32-3.71.88-.78.88-1.74,1.49-2.87,1.84-6.66,1.91-13.14,4.96-19.43,9.15-1.3.86-2.29.59-2.98-.81-.95-1.91.13-3.99,3.27-6.24l12.82-5.8Zm134.27,178.43c-9.6,1.74-16.42,2.17-20.46,1.29-28.73-6.24-56.51-17.77-83.35-34.57-3.31-2.08-7-3.39-11.09-3.93-.47-.07-.95-.07-1.42,0-2.81.39-4.78,3.01-4.39,5.84,1.1,8.12,5.88,18.92-5.73,22.15-.43.12-.88.16-1.33.12-2.04-.18-3.55-1.98-3.37-4.02l1.4-14.62c.24-2.54-1.25-4.92-3.64-5.8-4.07-1.49-7.53-.43-10.4,3.2-4.37,5.55-.22,13.19,3.38,18,3.92,5.22,2.62,7.69-3.89,7.42-6.83-.29-11.29-4.29-13.37-11.98-2.5-9.11-6.5-9.85-12.01-2.2-4.02,5.58-9.36,10.34-16.02,14.25-13.04,7.68-28.54,6.25-33.54-10.32-4.11-19.95,3.16-40.19,11.61-58.34,8.89-19.18,14.91-32.46,18.07-39.86,2.89-6.83,4.79-14.22,5.69-22.15,2.02-9.96-3.49-24.69-15.43-15.98-2.47,2.84-3.99,4.98-4.56,6.43-2.94,7.69-5.51,7.67-7.71-.07-.49-1.76-.18-3.92.92-6.47.83-1.96,1.57-3.93,2.2-5.91,4.65-14.35,14.66-21.16,30.01-20.43,4.19.2,7.33,2.51,9.44,6.94,6.61,14.03,6.17,27.8-1.32,41.29.29.51.31,1.07.04,1.65.32,2.16,1,3.11,2.06,2.87-2.18,5.58-5.71,11.8-10.58,18.66-1.1,1.54-1.69,3.5-1.76,5.88-.02,1.13.39,1.33,1.25.62l2.72-2.24c.02,2.42,1.03,3.7,3.01,3.82-2.06,3.33-5.68,7.19-10.87,11.57-.67.58-1.04,1.45-.99,2.35.05.88,1.18,1.14,3.38.77-5.31,3.4-6.6,5.82-3.86,7.24l7.2-2.53c5.61-1.98,6.66-.58,3.16,4.22-1.89,2.55-4.05,4.95-6.5,7.2-5.14,4.63-12.01,7.16-16.24,12.09-3.36,3.92-2.52,5.28,2.5,4.08,1.52-.37,3.42-1.08,5.69-2.13.06-.03.13-.06.2-.08.51-.13,1.03.19,1.16.7l.33,1.18c.29,1.2-.1,2.09-1.18,2.68-6.59,3.7-11.52,8.89-14.8,15.58-3.2,9.11-2.46,18.63,9.07,19.76,9.26.93,16.11-3.66,20.57-13.78,15.6-35.46,23.34-73.17,23.22-113.11-.02-1.42.59-1.78,1.84-1.07,5.09,2.87,11.16,3.92,18.18,3.16.08,0,.16-.01.24-.02,1.56-.03,2.85,1.19,2.88,2.73.55,21.93.04,41.18,15.8,59.03,14.65,16.58,32.85,25.15,54.63,25.72,33.5.86,56.13-12.92,67.89-41.33,4.53-14.38,4.43-28.53-.29-42.47-5.05-14.96-13.46-28.47-25.24-40.52-.81-.83-.69-1.52.37-2.06l14.14-6.98,6.58-4.67c.86-.6,1.94-.78,2.94-.48,13.64,4.31,23.89,11.4,30.75,21.27,7.38,10.54,16.64,23.58,19.03,35.82,1.49,7.76,2.72,15.66,3.67,23.69.29,2.47-.47,2.87-2.28,1.18-5.25-4.89-9.99-10.21-17.67-11.09-10.14-1.15-16.69,3.73-19.65,14.66-2.94,10.69-3.97,21.16,5,28.91,11.14,9.7,22.51,11.66,34.09,5.88.31-.16.68-.2,1.01-.1.74.21,1.18.98.97,1.72-1.87,7.05-3.09,13.26-6.91,19.8-13.32,22.53-32.13,38.49-56.43,47.87Zm83.21,6.1c.29-.09.52-.28.72-.51-.19.22-.42.41-.72.51Zm1.12-1.32c.02-.1.02-.21.02-.31,0,.11,0,.21-.02.31Zm-.24.61c.06-.1.11-.2.15-.31-.04.11-.09.21-.15.31Zm5.11-212.32c-3.89,4.02-4.97,3.37-3.23-1.95,3.86-11.83,2.79-26.05-5.99-35.74-4.16-4.56-7.97-9.06-11.42-13.52-2.45-3.18-1.74-4.22,2.13-3.12.83.24,1.63.61,2.39,1.1,1.71,1.1,2.51.64,2.39-1.4-.15-2.03-1.11-3.65-2.9-4.85-9.18-6.13-20.94-12.86-26.71-22.45-.4-.64-.52-1.43-.32-2.16.39-1.47,1.9-2.35,3.37-1.96,1.69.42,3.42.65,5.18.7,4.68.12,5.22-1.31,1.62-4.3-3.97-3.28-8.56-7.1-13.78-11.46-1.93-1.62-3.18-4.04-3.75-7.27-.1-.59-.11-1.16-.04-1.73.08-.6.35-1.15.77-1.58,1.07-1.08,2.79-1.1,3.85-.04,1.84,1.84,3.56,3.13,5.18,3.89,5.66,2.64,6.58,1.47,2.76-3.53-4.63-6.1-8.52-13.68-11.68-22.74-.54-1.59.04-2.44,1.73-2.53.64-.05,1.26.04,1.87.26,4.63,1.64,5.45.51,2.46-3.38-3.16-4.11-5.18-8.5-6.06-13.15-.27-1.35.26-2.16,1.58-2.42,1.76-.37,3.22.21,4.37,1.73,2.13,2.77,4.11,5.56,5.95,8.38.16.25.4.44.68.55.74.29,1.57-.07,1.86-.81,1.42-3.65,3.33-7.13,5.73-10.43,5.66-7.71,17.6-7.24,22.04,1.03,2.77,5.12,2.79,10.65.07,16.6-.44.96-1.16,1.33-2.17,1.14l-1.14-.22c-.82-.15-1.39-.88-1.32-1.69.42-4.73-1.04-8.08-4.37-10.07-.17-.1-.34-.19-.52-.27-2.82-1.29-6.16-.05-7.45,2.77-7.75,16.71-2.64,27.74,4.22,42.94,2.64,5.88,4.62,5.67,5.91-.62,1.15-5.51,3.64-9.37,7.46-11.57,3.82-2.18,4.56-1.41,2.2,2.31-6.27,9.97-8.41,19.81-6.43,29.54,2.28,11.12,5.82,22.83,10.62,35.12,4.41,11.35,9.73,39.79.88,48.9Z"/>
    <path class="cls-1" d="m318.76,321.61c1.86,12.83,1.76,28.98-.29,48.45-.27,2.57,1.08,4.43,4.04,5.58,1.47.56,2.71.23,3.71-.99,2.38-2.91,2.79-5.94,1.25-9.07-.54-1.08-.8-2.23-.77-3.45.18-13.45,1.03-34.24-5.62-42.5-.22-.34-.47-.64-.73-.88-.69-.56-1.04-1.3-1.07-2.2-.56-16.58-4.08-32.6-10.54-48.05-.24-.58-.25-1.22-.04-1.81.47-1.3,1.9-1.97,3.2-1.5,14.66,5.44,28.8,2.94,42.54-3.42,19.58-9.07,45.04-20.43,66.53-18.66,23.29,1.95,53.01,17.16,63.63,40.7.28.61.34,1.29.17,1.94-.41,1.53-1.98,2.44-3.51,2.03-4.75-1.27-8.8.23-12.16,4.52-.23.29-.52.52-.87.66-1.07.44-2.29-.07-2.73-1.14-4.46-10.31-10.6-17.79-18.44-22.45-32.67-19.4-63.96-19.75-93.86-1.07-17.39,10.9-26.22,26.61-26.49,47.13,0,.73.37,1.11,1.1,1.14l1.18.07c.15,0,.23-.07.26-.22,1.32-8.3.96-17.3,5.88-24.58,17.71-26.28,42.8-37.34,75.27-33.17,7.93,1.03,13.59,3.75,20.9,6.02,15.54,4.81,27.26,18.15,33.32,33.03.15.38.42.71.76.94.93.62,2.18.36,2.8-.57,4.85-7.47,11.39-9.88,19.62-7.24.42.13.87.12,1.28-.03,1.03-.38,1.56-1.51,1.18-2.54-12.53-35.3-57.05-54-89.67-46.73-19.03,4.26-37.25,13.41-55.65,20.98-13.45,5.55-25.53,4.41-38.02-3.2-3.72-2.25-4.85-1.32-3.38,2.79,6.69,18.54,11.77,38.36,15.25,59.48Z"/>
    <path class="cls-1" d="m391.21,297.28c1.84.15,3.51-1.85,3.73-4.48.22-2.63-1.09-4.88-2.93-5.04-1.84-.15-3.51,1.85-3.73,4.48-.22,2.63,1.09,4.88,2.93,5.04Z"/>
    <path class="cls-1" d="m381.17,294.98c.39-2.06-.16-3.85-1.65-5.36-.19-.2-.41-.35-.66-.46-.99-.41-2.15.07-2.57,1.08-.47,1.18-.32,2.29.44,3.34.59.83,1.24,1.58,1.95,2.24.21.19.47.32.75.37.82.15,1.6-.4,1.75-1.22Z"/>
    <path class="cls-1" d="m402,299.5c1.4-.39,2.25-1.3,2.57-2.72.29-1.45.1-2.8-.59-4.08-.11-.22-.27-.4-.47-.55-.68-.48-1.62-.32-2.1.36-1.08,1.47-1.64,3.2-1.69,5.18-.02,1.62.73,2.22,2.28,1.8Z"/>
    <path class="cls-1" d="m366.48,294.92c-1.19.65-1.17,2.99.05,5.21,1.22,2.22,3.17,3.5,4.36,2.85,1.19-.65,1.17-2.99-.05-5.21-1.22-2.22-3.17-3.5-4.36-2.85Z"/>
    <path class="cls-1" d="m391.72,310.3l.15.77s0,0,0,.01c.17,1.08,7.34.85,16.02-.53l.62-.11s0,0,0,0c.34-.04.59-.35.54-.7l-.55-3.49s0-.01,0-.02c-.07-.34-.39-.56-.73-.5l-.66.11c-8.67,1.37-15.56,3.36-15.39,4.45Z"/>
    <path class="cls-1" d="m402.33,318.24c-.27-1.81-2.22-3.01-4.34-2.69-2.13.32-3.63,2.05-3.36,3.85.27,1.81,2.22,3.01,4.34,2.69,2.13-.32,3.63-2.05,3.36-3.85Z"/>
    <path class="cls-1" d="m405.43,337.12c-1.4-1.04-3.16-1.04-3.92-.01-.76,1.03-.23,2.7,1.17,3.74,1.4,1.04,3.16,1.04,3.92.01.76-1.03.23-2.7-1.17-3.74Z"/>
    <path class="cls-1" d="m467.43,344.39c-3.5,10.6-7.27,17.79-11.31,21.56-5.66,5.29-11.17,12.38-17.67,16.13-2.5,1.45-4.92,2.56-7.27,3.34-3.5,1.18-3.4,1.68.29,1.51,16.8-.71,29.95-5,39.45-12.86,8.79-7.25,16.8-16.52,24.03-27.81.14-.23.2-.5.18-.76-.06-.66-.63-1.15-1.28-1.08-2.28.2-4.51,1.27-6.69,3.23.05,2.35-.72,4.46-2.31,6.32-9.8,11.44-21.48,20.33-35.05,26.67-.54.25-.94.11-1.21-.4l-.04-.04c-.22-.42-.13-.75.26-.99,11.22-7.27,17.89-16.9,20.02-28.87.34-1.93,1.95-3.38,3.89-3.49.1,0,.65.39,1.65,1.18.51.86,1.1,1.31,1.76,1.36,5.09.54,7.27-.02,6.54-1.69l-5.8-1.25c-2.01-2.45-4.3-3.72-6.87-3.82-1.32-.07-2.18.51-2.57,1.76Z"/>
    <path class="cls-1" d="m400.24,348.1c-1.4-.39-1.84.1-1.32,1.47.27.69.76,1.1,1.47,1.25.78.2,1.3.66,1.54,1.4.25.71.77,1.15,1.58,1.32,1.03.22,1.4-.17,1.1-1.18-.61-2.18-2.07-3.6-4.37-4.26Z"/>
    <path class="cls-1" d="m406.12,350.38c.39.81.93,1.09,1.62.85,1.62,3.18,4.38,4.82,8.3,4.92,2.2.05,2.58-.75,1.14-2.39-2.74-3.11-6.12-4.7-10.14-4.78-1.08-.02-1.38.44-.92,1.4Z"/>
    <path class="cls-1" d="m484.58,452.13c3.65-.91,7.21-2.99,10.69-6.25,3.6-2.99,7.37-4.58,11.31-4.78,1.36-.07,2.7.41,3.71,1.32,1.18,1.1,2.47,1.96,3.89,2.57,3.77,1.64,5.05.49,3.82-3.45-2.65-8.52-6.09-16.31-10.32-23.36-8.45-14.14-22-19.87-36.96-26.23-.66.02-1.21.13-1.65.33-1.27.54-1.54,1.4-.81,2.57,7.47,11.88,11.55,25.34,12.23,40.37l4.08,16.9Zm-5.66-51.83c7.86,3.75,14.6,8.27,20.2,13.56,5.62,5.29,8.41,13.45,12.82,20.2.15.23.25.49.29.75.19,1.1-.55,2.14-1.65,2.33-6.76,1.29-13.7.73-19.43,5.47-1.79,1.49-2.78,1.08-2.98-1.25-1.1-13.4-4.86-26.4-11.28-39.01-1.35-2.67-.67-3.36,2.02-2.06Z"/>
    <path class="cls-1" d="m461.37,393.43c-.27-.24-.62-.39-.98-.42-.91-.07-1.7.61-1.77,1.52-.1,1.42.61,2.35,2.13,2.79,1.03.29,2.09-.28,2.39-1.29.15-.51-.44-1.38-1.76-2.61Z"/>
    <path class="cls-1" d="m514.56,513.45c-14.45-.78-26.62-7.58-36.52-20.39-6,9.43-11.8,15.91-17.41,19.43-28.14,17.71-66.64,21.09-93.31-.81-18.07-14.84-29.72-30.09-34.31-52.35.83-8.3.12-15.39-2.13-21.27-3.97-1.57-7.26-1.86-9.88-.88-1.15.42-1.74,1.22-1.76,2.42-.78,25.84-2.71,49.14-5.77,69.91-.64,4.33-1.56,8.76-2.76,13.26-2.03,7.59.16,9.11,6.58,4.56,10.75-7.62,24.29-7.74,40.63-.37,22.16,10.02,41.25,18.38,57.27,25.09,17.23,7.2,37.1,7.2,55.32,3.38,20.87-5.44,33.54-21.53,45.48-39.2.18-.28.28-.6.3-.92.04-.99-.74-1.83-1.73-1.87Zm-4.67,5.22c-10.8,17.49-26.45,33.43-47.87,35.45-14.84,1.42-27.28.5-37.32-2.76-12.47-4.07-30.05-11.62-52.75-22.67-9.62-6.27-20.09-10.37-31.41-12.31-8.11-.66-14.77.62-19.98,3.86-3.31,2.03-4.65,1.13-4.04-2.72l6.72-42.03c.73-10.9,1.14-21.85,1.21-32.84.02-1.3,1.02-1.62,2.98-.95l2.24,23.91c7.27,22.58,22.24,41.18,44.89,55.8,39.77,18.17,74.12,11.52,103.04-19.95,1.1-1.18,2.18-1.15,3.23.07,6.78,8.06,15.96,12.71,27.52,13.96.29.04.58.13.83.29.99.6,1.31,1.88.71,2.87Z"/>
  </g>
  <g>
    <path class="cls-1" d="m263.81,657.22c0,6.83-5.42,10.78-15.8,10.78h-20.43v-39.51h19.3c9.88,0,14.96,4.12,14.96,10.27,0,3.95-2.03,7-5.25,8.69,4.4,1.41,7.22,4.8,7.22,9.77Zm-27.15-21.84v9.31h9.09c4.46,0,6.89-1.58,6.89-4.69s-2.43-4.63-6.89-4.63h-9.09Zm17.95,20.88c0-3.33-2.54-4.91-7.28-4.91h-10.67v9.77h10.67c4.74,0,7.28-1.47,7.28-4.85Z"/>
    <path class="cls-1" d="m296.79,659.53h-18.35l-3.5,8.47h-9.37l17.61-39.51h9.03l17.67,39.51h-9.6l-3.5-8.47Zm-2.88-6.94l-6.26-15.13-6.27,15.13h12.53Z"/>
    <path class="cls-1" d="m339.19,668l-7.62-11.01h-8.41v11.01h-9.14v-39.51h17.1c10.56,0,17.16,5.47,17.16,14.34,0,5.93-2.99,10.27-8.13,12.48l8.86,12.7h-9.82Zm-8.58-32.06h-7.45v13.77h7.45c5.59,0,8.41-2.6,8.41-6.89s-2.82-6.88-8.41-6.88Z"/>
    <path class="cls-1" d="m391.75,657.22c0,6.83-5.42,10.78-15.8,10.78h-20.43v-39.51h19.3c9.88,0,14.96,4.12,14.96,10.27,0,3.95-2.03,7-5.25,8.69,4.41,1.41,7.23,4.8,7.23,9.77Zm-27.15-21.84v9.31h9.09c4.46,0,6.89-1.58,6.89-4.69s-2.43-4.63-6.89-4.63h-9.09Zm17.95,20.88c0-3.33-2.54-4.91-7.28-4.91h-10.67v9.77h10.67c4.74,0,7.28-1.47,7.28-4.85Z"/>
    <path class="cls-1" d="m424.73,659.53h-18.35l-3.5,8.47h-9.37l17.61-39.51h9.03l17.67,39.51h-9.6l-3.5-8.47Zm-2.88-6.94l-6.26-15.13-6.27,15.13h12.53Z"/>
    <path class="cls-1" d="m467.13,668l-7.62-11.01h-8.41v11.01h-9.14v-39.51h17.1c10.56,0,17.16,5.47,17.16,14.34,0,5.93-2.99,10.27-8.13,12.48l8.86,12.7h-9.82Zm-8.58-32.06h-7.45v13.77h7.45c5.59,0,8.41-2.6,8.41-6.89s-2.82-6.88-8.41-6.88Z"/>
    <path class="cls-1" d="m508.62,668l-7.62-11.01h-8.41v11.01h-9.14v-39.51h17.1c10.56,0,17.16,5.47,17.16,14.34,0,5.93-2.99,10.27-8.13,12.48l8.86,12.7h-9.82Zm-8.58-32.06h-7.45v13.77h7.45c5.59,0,8.41-2.6,8.41-6.89s-2.82-6.88-8.41-6.88Z"/>
    <path class="cls-1" d="m524.95,628.49h9.14v39.51h-9.14v-39.51Z"/>
    <path class="cls-1" d="m543.46,628.49h9.14v32.06h19.81v7.45h-28.96v-39.51Z"/>
  </g>
  <g>
    <path class="cls-1" d="m254.56,157.22l7.6,2.41c-1.17,4.24-3.1,7.39-5.81,9.44-2.71,2.06-6.15,3.09-10.32,3.09-5.16,0-9.39-1.76-12.71-5.28-3.32-3.52-4.98-8.34-4.98-14.45,0-6.46,1.67-11.48,5.01-15.06,3.34-3.58,7.72-5.36,13.16-5.36,4.75,0,8.61,1.4,11.57,4.21,1.77,1.66,3.09,4.04,3.97,7.15l-7.76,1.85c-.46-2.01-1.42-3.6-2.87-4.77-1.46-1.17-3.23-1.75-5.31-1.75-2.88,0-5.21,1.03-7.01,3.1s-2.69,5.41-2.69,10.04c0,4.91.88,8.41,2.65,10.49,1.77,2.08,4.06,3.13,6.89,3.13,2.08,0,3.88-.66,5.38-1.99,1.5-1.32,2.58-3.41,3.23-6.25Z"/>
    <path class="cls-1" d="m268.89,171.49v-38.83h28.79v6.57h-20.95v8.61h19.5v6.54h-19.5v10.57h21.69v6.54h-29.53Z"/>
    <path class="cls-1" d="m305.1,171.49v-38.83h16.5c4.15,0,7.16.35,9.05,1.05,1.88.7,3.39,1.94,4.52,3.72,1.13,1.78,1.69,3.82,1.69,6.12,0,2.91-.86,5.32-2.57,7.22-1.71,1.9-4.27,3.09-7.68,3.59,1.69.99,3.09,2.08,4.2,3.26,1.1,1.18,2.59,3.28,4.46,6.3l4.74,7.58h-9.38l-5.67-8.45c-2.01-3.02-3.39-4.92-4.13-5.71s-1.53-1.32-2.36-1.62-2.15-.44-3.95-.44h-1.59v16.21h-7.84Zm7.84-22.41h5.8c3.76,0,6.11-.16,7.05-.48s1.67-.86,2.2-1.64c.53-.78.79-1.75.79-2.91,0-1.31-.35-2.36-1.05-3.17-.7-.8-1.68-1.31-2.95-1.52-.64-.09-2.54-.13-5.72-.13h-6.12v9.85Z"/>
    <path class="cls-1" d="m353.18,171.49l-13.88-38.83h8.5l9.83,28.74,9.51-28.74h8.32l-13.91,38.83h-8.37Z"/>
    <path class="cls-1" d="m379.45,171.49v-38.83h28.79v6.57h-20.95v8.61h19.5v6.54h-19.5v10.57h21.69v6.54h-29.53Z"/>
    <path class="cls-1" d="m429.65,132.66h7.81v24.58c0,3.21-.28,5.69-.85,7.42-.76,2.26-2.14,4.07-4.13,5.44-2,1.37-4.63,2.05-7.89,2.05-3.83,0-6.78-1.07-8.85-3.22-2.07-2.15-3.11-5.29-3.13-9.44l7.39-.85c.09,2.22.41,3.8.98,4.72.85,1.39,2.14,2.09,3.87,2.09s2.98-.5,3.71-1.5c.72-1,1.09-3.07,1.09-6.21v-25.08Z"/>
    <path class="cls-1" d="m480.82,171.49h-8.53l-3.39-8.82h-15.52l-3.2,8.82h-8.32l15.12-38.83h8.29l15.55,38.83Zm-14.44-15.36l-5.35-14.41-5.24,14.41h10.6Z"/>
    <path class="cls-1" d="m485.01,171.49v-38.83h16.5c4.15,0,7.16.35,9.05,1.05,1.88.7,3.39,1.94,4.52,3.72,1.13,1.78,1.69,3.82,1.69,6.12,0,2.91-.86,5.32-2.57,7.22-1.71,1.9-4.27,3.09-7.68,3.59,1.69.99,3.09,2.08,4.2,3.26,1.1,1.18,2.59,3.28,4.46,6.3l4.74,7.58h-9.38l-5.67-8.45c-2.01-3.02-3.39-4.92-4.13-5.71s-1.53-1.32-2.36-1.62-2.15-.44-3.95-.44h-1.59v16.21h-7.84Zm7.84-22.41h5.8c3.76,0,6.11-.16,7.05-.48s1.67-.86,2.2-1.64c.53-.78.79-1.75.79-2.91,0-1.31-.35-2.36-1.05-3.17-.7-.8-1.68-1.31-2.95-1.52-.64-.09-2.54-.13-5.72-.13h-6.12v9.85Z"/>
    <path class="cls-1" d="m523.92,171.49v-38.83h7.84v38.83h-7.84Z"/>
    <path class="cls-1" d="m574.25,171.49h-8.53l-3.39-8.82h-15.52l-3.2,8.82h-8.32l15.12-38.83h8.29l15.55,38.83Zm-14.44-15.36l-5.35-14.41-5.24,14.41h10.6Z"/>
  </g>
</svg>