<?xml version="1.0" encoding="UTF-8"?>
<svg id="Camada_1" data-name="Camada 1" xmlns="http://www.w3.org/2000/svg" viewBox="0 0 800 800">
  <defs>
    <style>
      .cls-1 {
        fill: #fff;
      }
    </style>
  </defs>
  <polygon class="cls-1" points="243.45 465.74 299.71 465.74 299.71 427.33 243.45 427.33 243.45 414.13 305.29 414.13 305.29 375.73 202.37 375.73 202.37 510.1 243.45 510.1 243.45 465.74"/>
  <path class="cls-1" d="m401.33,373.61c-40.51,0-71.06,29.79-71.06,69.31s30.55,69.3,71.06,69.3,71.06-29.79,71.06-69.3-30.55-69.31-71.06-69.31Zm0,99.5c-17.7,0-29.14-11.85-29.14-30.19s11.44-30.19,29.14-30.19,29.31,11.85,29.31,30.19-11.51,30.19-29.31,30.19Z"/>
  <path class="cls-1" d="m632.09,510.1l-31.53-44.74c13-9.04,20.33-23.93,20.33-41.71,0-29.11-19.47-47.92-49.6-47.92h-68.53v134.37h41.07v-35.7h15.47l23.66,35.7h49.13Zm-67.22-73.93h-21.03v-22.04h21.37c12.89,0,13.93,4.63,13.93,10.22s-1.69,11.81-14.27,11.81Z"/>
  <polygon class="cls-1" points="642.31 375.73 642.31 414.13 677.12 414.13 677.12 510.1 718.19 510.1 718.19 414.13 753 414.13 753 375.73 642.31 375.73"/>
  <path class="cls-1" d="m218.67,522.21h-12.75v31.23h3.72v-10.53h8.53c6.29,0,10.68-4.1,10.68-10.49s-4.39-10.22-10.18-10.22Zm-.59,17.27h-8.45v-13.79h8.87c4.01,0,6.42,2.23,6.42,6.74,0,5.13-3.17,7.05-6.84,7.05Z"/>
  <rect class="cls-1" x="240.04" y="522.21" width="3.72" height="31.23"/>
  <polygon class="cls-1" points="279.23 546.61 278.64 545.68 259.63 522.21 256.51 522.21 256.51 553.44 260.23 553.44 260.23 528.14 260.86 529.17 280.66 553.44 282.95 553.44 282.95 522.21 279.23 522.21 279.23 546.61"/>
  <polygon class="cls-1" points="294.56 525.69 304.06 525.69 304.06 553.44 307.78 553.44 307.78 525.69 317.36 525.69 317.36 522.21 294.56 522.21 294.56 525.69"/>
  <path class="cls-1" d="m351.06,540.28c0,6.42-3.84,9.99-9.16,9.99s-9.12-3.57-9.12-9.99v-18.07h-3.8v17.8c0,8.92,5.53,13.92,12.92,13.92s12.97-5,12.97-13.92v-17.8h-3.8v18.07Z"/>
  <path class="cls-1" d="m391.68,531.98c0-6.87-4.82-9.77-10.6-9.77h-13.68v31.23h3.72v-11.51h9.54l7.94,11.51h4.56l-8.53-11.96c4.35-1.16,7.05-4.6,7.05-9.5Zm-20.57,6.43v-12.72h9.71c4.1,0,6.88,1.47,6.88,6.34,0,4.1-2.24,6.38-6.67,6.38h-9.92Z"/>
  <path class="cls-1" d="m414.57,522.03l-14.27,31.41h4.01l3.08-6.96h16.55l3.08,6.96h3.97l-14.19-31.41h-2.24Zm-5.62,20.97l6.17-13.97.59-1.43.55,1.43,6.17,13.97h-13.47Z"/>
  <path class="cls-1" d="m444.17,529.97c0-3.3,2.96-4.69,6.93-4.69,2.96,0,5.07.67,8.03,2.28l1.6-3.26c-2.62-1.47-5.41-2.63-9.54-2.63-5.95,0-10.9,2.81-10.9,8.7.04,11.29,17.82,6.51,17.82,14.9,0,3.53-3.25,5.04-7.05,5.04s-7.01-1.56-10.01-3.62l-1.9,3.08c2.32,2.05,6.8,4.19,11.78,4.19,6.55,0,11.15-3.62,11.15-9.33,0-11.2-17.91-6.6-17.91-14.68Z"/>
  <polygon class="cls-1" points="493.96 538.98 510.6 538.98 510.6 535.5 493.96 535.5 493.96 525.69 512.16 525.69 512.16 522.21 490.24 522.21 490.24 553.44 512.37 553.44 512.37 549.91 493.96 549.91 493.96 538.98"/>
  <polygon class="cls-1" points="539.52 537.69 538.93 538.62 538.34 537.69 526.31 522.21 524.19 522.21 524.19 553.44 527.91 553.44 527.91 529.7 528.42 530.59 538.47 543.89 539.23 543.89 549.28 530.59 549.79 529.7 549.79 553.44 553.5 553.44 553.5 522.21 551.48 522.21 539.52 537.69"/>
  <path class="cls-1" d="m597,539.96h9.8v7.54c-1.6,1.21-4.43,2.81-8.87,2.81-7.77,0-12.16-5.4-12.16-12.58s4.77-12.4,12.12-12.4c3.13,0,5.32.62,9.04,3.21l2.07-2.94c-3.42-2.77-7.05-3.93-11.11-3.93-9.25,0-16.05,6.51-16.05,16.02s6.46,16.29,15.84,16.29c6.17,0,10.35-2.77,12.59-4.55v-12.94h-13.26v3.48Z"/>
  <polygon class="cls-1" points="625.63 538.98 642.27 538.98 642.27 535.5 625.63 535.5 625.63 525.69 643.83 525.69 643.83 522.21 621.91 522.21 621.91 553.44 644.04 553.44 644.04 549.91 625.63 549.91 625.63 538.98"/>
  <path class="cls-1" d="m680.15,531.98c0-6.87-4.82-9.77-10.6-9.77h-13.68v31.23h3.72v-11.51h9.54l7.94,11.51h4.56l-8.53-11.96c4.35-1.16,7.05-4.6,7.05-9.5Zm-20.57,6.43v-12.72h9.71c4.1,0,6.88,1.47,6.88,6.34,0,4.1-2.24,6.38-6.67,6.38h-9.92Z"/>
  <path class="cls-1" d="m703.03,522.03l-14.27,31.41h4.01l3.08-6.96h16.56l3.08,6.96h3.97l-14.19-31.41h-2.24Zm-5.62,20.97l6.17-13.97.59-1.43.55,1.43,6.17,13.97h-13.47Z"/>
  <polygon class="cls-1" points="732.64 522.21 728.92 522.21 728.92 553.44 748.47 553.44 748.47 549.91 732.64 549.91 732.64 522.21"/>
  <path class="cls-1" d="m108.4,440.79h-61.14s-3.87,14.72,18.27,14.72h10.5c4.57,0,9.07,1.65,12.25,4.92,2.79,2.86,5.63,7.34,7.32,14.28.63,2.59.73,5.31.4,7.96l-1.03,8.47c-.17,1.41-.44,2.8-.83,4.17-1.95,6.91-8.11,31.59-1.21,46.29,0,0,3.87,7.38,15.46,7.03,11.6.35,15.46-7.03,15.46-7.03,6.9-14.7.74-39.37-1.21-46.29-.39-1.37-.66-2.76-.83-4.17l-1.03-8.47c-.32-2.65-.23-5.36.4-7.96,1.69-6.95,4.54-11.42,7.32-14.28,3.18-3.27,7.69-4.92,12.25-4.92h10.5c22.14,0,18.27-14.72,18.27-14.72h-61.14Zm0,98.47c-5.18,0-9.37-6-9.37-13.4s4.2-13.4,9.37-13.4,9.37,6,9.37,13.4-4.2,13.4-9.37,13.4Z"/>
  <path class="cls-1" d="m66.53,366.85l-13.26,9.93c-3.16,2.37-5.02,6.08-5.02,10.03v40.23h18.27v-60.2Z"/>
  <path class="cls-1" d="m91.83,347.89l-13.25,9.93c-3.16,2.37-5.02,6.08-5.02,10.03v59.19h18.27v-79.15Z"/>
  <path class="cls-1" d="m117.12,328.94l-13.25,9.93c-3.16,2.37-5.02,6.08-5.02,10.03v78.15h18.27v-98.11Z"/>
  <path class="cls-1" d="m142.42,309.98l-13.25,9.93c-3.16,2.37-5.02,6.08-5.02,10.03v97.11h18.27v-117.07Z"/>
  <path class="cls-1" d="m167.72,291.02l-13.25,9.93c-3.16,2.37-5.02,6.08-5.02,10.03v116.07h18.27v-136.03Z"/>
  <rect class="cls-1" x="283.19" y="250.19" width="46.85" height="13.59"/>
  <polygon class="cls-1" points="332.61 364.92 365.58 364.92 326.72 331.98 326.72 268.31 286.52 268.31 286.52 297.9 225.32 246.03 175.63 287.83 175.63 315.69 225.26 273.93 332.61 364.92"/>
  <rect class="cls-1" x="202.37" y="320.23" width="19.13" height="19.13"/>
  <rect class="cls-1" x="226.62" y="320.23" width="19.13" height="19.13"/>
  <rect class="cls-1" x="202.37" y="344.59" width="19.13" height="19.13"/>
  <rect class="cls-1" x="226.62" y="344.59" width="19.13" height="19.13"/>
</svg>