<?xml version="1.0" encoding="UTF-8"?>
<svg id="Camada_1" data-name="Camada 1" xmlns="http://www.w3.org/2000/svg" viewBox="0 0 800 800">
  <defs>
    <style>
      .cls-1 {
        fill: #fff;
      }
    </style>
  </defs>
  <path class="cls-1" d="m400,160.75c-131.88,0-239.25,107.37-239.25,239.25s107.37,239.25,239.25,239.25,239.25-107.37,239.25-239.25-107.37-239.25-239.25-239.25Zm0,474.96c-130,0-235.71-105.72-235.71-235.71s105.72-235.71,235.71-235.71,235.71,105.72,235.71,235.71-105.72,235.71-235.71,235.71Z"/>
  <path class="cls-1" d="m318.92,312.22c-.21,3.44-2.19,6.48-2.27,9.85-.34,15.23,13.35,23.67,26.07,27.51.37.76.79,1.52,1.3,2.25,3.27,4.6,11.38,4.78,16.32,5.16,9.33.72,21.53,2.13,30.37-1.73,10.9-4.77,7.29-18.44,7.53-28.43,1.04.07,2.24-.18,3.55-.87,5.55-2.85,8.5-12.12,3.24-16,3.47-4.34,1.38-12.52-3.43-15.34.56-.48,1.07-1.07,1.52-1.71,2.81,5.18,4.74,10.85,7.38,16.14.78,1.56,1.56,3.13,2.34,4.7-5.17,2.52-6.38,9.5-4.25,14.58,2.01,4.85,5.94,6.95,10.27,6.28-1.08,3.52-.78,7.53.9,10.77,2.18,4.17,6.22,4.8,9.88,2.82.34.54.68,1.08,1.05,1.59,2.03,2.8,2.05,7.32,5.11,9.41,2.45,1.68,4.88,2.28,7.82,2.4,9.33.39,18.14-2.06,24.91-7.15.04.02.08.05.13.07,4.09,1.9,8.45,2.8,12.95,2.46.04,0,.07.03.12.04,5.85,1.78,10.72,5.7,16.75,7,.33.07.62.05.87-.04.53-.04,1.05-.29,1.4-.84,4.31-6.8,9.65-13.29,12.77-20.78,2.97-7.16,3.4-14.3,4.22-21.92.01-.15,0-.31-.01-.45.11-.53-.02-1.09-.49-1.57-5.47-5.43-12.82-7.69-19.43-11.35,0-.01-.02-.02-.03-.04-10.72-7.91-16.94-20.16-26.99-28.8-.07-.06-.14-.11-.22-.14-.04-.08-.09-.14-.15-.21-5.93-6.39-11.73-12.99-20.09-16.01-.23-.3-.58-.49-1.08-.54-3.92-.33-6.63-2.76-9.28-5.41-.03-.18-.09-.35-.18-.53-2.16-3.98-4.35-8.75-8.35-11.26-3.24-2.05-6.17-2.8-8.7-5.98-2.08-2.6-4.19-5.19-6.17-7.86-4.21-5.7-7.97-11.8-11.44-17.98-2.4-4.26-4.06-8.84-7.1-12.68,1.4-2.98-.07-5.04-3.03-6.34.78-7.11-5.17-7.79-11.11-5.62-4.5-2.5-13.56-4.95-17.27-.58-1.22,1.44-2.48,4.89-1.44,6.73-.08-.15-1.64,4.34-1.37,5.56,1.29,5.67-.8,12.2-1.36,17.97-.5,5.18-1.45,10.33-1.81,15.52-.38,5.47-.91,8.81-5.45,12.33-2.55,1.99-3.43,5.63-3.99,8.63-.05.31-.03.56.04.81-1.24,1.05-2.24,2.5-2.87,3.98-3.21,7.47-10.1,12.1-14.2,19.14-4.43,7.62-9.73,14.88-12.75,23.26-1.31,3.64-2.25,7.34-2.48,11.23Zm75.86,31.41c-.58,5.98-3.39,8.53-9.29,9.57-8.57,1.51-18.11,1.21-26.7.21-3.08-.36-7.39-.42-10.1-2.13-3.78-2.4-4.61-7.07-3.85-11.13.91-4.75,3.1-8.56,3.17-13.53.09-7.05,1.3-14.01,1.37-21.05.06-6.38-.23-12.74.82-19.05.37-.28.77-.59,1.15-.93.76,16.02.5,32.36-.55,48.31-.03.57.43.92.89.96.1.04.21.08.32.08,7.95.32,15.19,2.62,23.22,1.66,6.57-.78,13.05-2.06,19.68-2.18.09,3.08.16,6.15-.13,9.21Zm-41.78-59.5c.96-.91,1.93-1.92,2.87-3.03-.74,14.58.07,29.22-1.01,43.78-.06.74.68,1.11,1.2.93,12.91,1.11,25.98,2.44,38.81.08-.11,2.28-.08,4.56,0,6.83-7.32.12-14.39,1.87-21.67,2.35-7.09.46-13.67-1.42-20.65-1.8,1.04-16.27,1.28-32.87.46-49.15Zm44.21,2.38c.3,1.03.84,1.96,1.35,2.88.35.65,1.04,1.63.89,2.4-.02.09,0,.17,0,.25-1.31,1.11-2.97,1.23-3.79-1.35-.49-1.59-.56-3.25-.3-4.9.35-2.19.94-4.23,2.01-6.09.46,1.27.91,2.54,1.38,3.79-1.2.46-1.99,1.43-1.54,3.02Zm2.12-1.47c.56,1.46,1.17,2.89,1.86,4.29-.03.09-.09.17-.12.27-.05.19-.13.36-.21.53-.28-.7-.7-1.37-1.04-1.98-.36-.67-.89-1.47-1-2.24-.08-.53.16-.76.5-.88Zm-3.91-9.32c-11.85-2.72-23.88-2.96-35.67.06,1.02-1.68,1.89-3.44,2.55-5.2,10.94-.69,22.01-1.72,32.36,2.62.27.65.55,1.3.82,1.95-.02.18-.05.37-.07.57Zm-.61,1.62c-2.83,4.42-4.48,11.16-1.84,15.63.71,1.21,1.52,2.04,2.38,2.56-.95,3.87-4.03,6.93-4.78,10.87-.7,3.57.75,6.1,3.37,8.1-1.62,2.96-1.41,7.12.28,9.79-12.44,2.18-25.1.94-37.61-.14,1.03-15.1.11-30.25,1.09-45.34.22-.3.45-.61.67-.92.03,0,.07,0,.11,0,11.98-3.42,24.27-3.28,36.34-.54Zm.03,27.09c.04.19.1.39.21.61.9,1.79,3.05,3.65,3.15,5.77-.57.46-1.16.9-1.73,1.34-3.14-2.05-2.86-4.81-1.62-7.72Zm1.72-.23c-.02-.08,3.82-1.36,4.38.36.53,1.69-.39,3.25-1.37,4.65-.18-.45-.38-.9-.63-1.33-.7-1.15-2.02-2.37-2.38-3.68Zm4.4,12.29c.9,1.28,0,2.37-1.01,3.3-.2-.41-.46-.82-.81-1.2-.32-.33-1.69-1.21-1.74-1.72.03.08.22-.23.38-.33.34-.23.7-.45,1.1-.55.67-.18,1.63-.16,2.08.49Zm3.13,1.28c-.72,1.84-1.98,4.48-3.99,5.23-3.46,1.31-4.23-1.96-3.77-4.75.81.84,2.32,1.72,2.23,2.97-.26.7.67,1.39,1.33.92.01-.01.02-.02.04-.03.04-.03.08-.03.1-.07.87-.9,2.17-1.64,2.63-2.87.39-1.02.49-2.03.06-3.06-.6-1.39-2-1.95-3.39-1.87.87-.67,1.72-1.36,2.53-2.11,2.33,1.01,3.18,3.17,2.23,5.65Zm-1.05-11.65c-.07-.03-.13-.02-.21-.02.05-.57.03-1.16-.17-1.75-.77-2.4-2.86-2.74-5.06-2.25-.67.15-1.46.39-2.04.77.98-1.97,2.19-3.94,2.86-5.77,3.53.38,5.58,5.48,4.61,9.02Zm10.02,20.2c-.06.85-.21,1.71-.32,2.59-.54-.76-.99-1.67-1.28-2.76-.31-1.13-.47-2.38-.4-3.6.71-.16,1.44-.14,1.73.7.34.97.35,2.05.27,3.08Zm1.23,4.09c.06-2.19.81-4.38.4-6.59-.38-2.11-1.65-3.08-3.39-2.98.42-1.7,1.37-3.19,3.02-4,1.06,2.22,2.08,4.47,2.98,6.76.96,2.45,2.32,4.62,3.68,6.77-2.46,1.28-4.87,1.25-6.7.04Zm3.95-13.3c-2.06-4.36-4.32-8.6-6.34-12.96-3.36-7.27-6.63-14.52-9.73-21.87-.74-4.31-.61-8.56,1.12-12.46,5.06-11.36,16.63-14.33,27.05-8.42-.06.62-.09,1.25-.1,1.87-4.4-2.58-9.73-4.43-14.71-2.86-5.8,1.81-10.64,6.85-11.56,13-2.27,14.85,8.73,27.49,14.35,40.26,1.89,4.33,3.83,8.07,6.96,11.65,1.81,2.06,4.4,5.64,7.36,6.07,6.48.95,14.41,2.21,18.99-3.82,8.82-11.61,1.06-27.12-4.22-39.63.79.47,1.59.9,2.41,1.31,4.53,10.04,10.36,25.4,5.17,35.75-6.1,12.18-21.43,12.74-30.49,4.66-.08-.09-.14-.2-.22-.29-2.82-3.73-4.07-8.07-6.06-12.26Zm12.13-51.76c.08.66.2,1.32.36,1.94,2,7.96,7.48,14.53,14.21,19.09,4.54,10.92,12.67,25.27,7.68,36.22-1.78,3.93-5.34,7.95-10.09,7.98-2.98.02-9.67-.02-11.92-2.24-2.65-2.63-5.63-5.25-7.47-8.55-1.72-3.08-2.94-6.37-4.56-9.51-4.84-9.37-11.86-19.08-13.03-29.83-.68-6.27.86-13.44,6.87-16.83,6.06-3.44,12.45-1.75,17.95,1.73Zm-8.15,77.07c-.85-2.81-.82-6.28.79-8.83.73,1.24,1.42,2.53,1.99,3.9,1,2.45,1.93,5.14,3.08,7.67-2.61,1.43-4.86.58-5.86-2.73Zm32.11,14.35c-3.04.58-6.13,1.36-9.24,1.43-5.55.1-7.4-1.48-9.34-6.52-1.57-4.07-4.34-7.69-6.07-11.79-.92-2.21-1.77-4.34-2.82-6.38,8.13,4.92,19.14,5.03,26.15-2.64,9.84-10.77,4.5-28.19-.85-40.55.27.11.54.23.82.34,7.86,15.55,12.86,32.49,23.44,46.55-3.18,11.08-10.9,17.41-22.11,19.56Zm-16.51-98.15c2.28,2.26,4.68,4.31,7.61,5.38,0,.97-.42,1.87-1.16,2.58-.66.64-1.32,0-1.85-.32-.8-.49-1.64-.94-2.43-1.44-1.05-.65-2.5-1.52-2.92-2.75-.43-1.24-.1-2.54.75-3.44Zm-2.49,3.62c.7,2.07,2.53,3.31,4.35,4.37,1.27.74,3.51,2.83,5.09,1.76,1.34-.9,2.17-2.35,2.32-3.9.23.05.47.08.71.11.07.03.14.07.24.11,8.54,2.79,14.23,9.44,20.14,15.83.07.07.15.13.23.19.04.05.09.11.15.16,8.77,7.53,14.61,17.8,23.08,25.57.71.92,1.47,1.92,2.31,2.94,3.66,4.51,6.62,8.46,7.19,8.08.37-.26-.73-2.92-3.02-6.33,5.58,2.85,11.5,4.99,16.17,9.25-.88,8.4-1.34,16.29-5.52,23.91-3.09,5.62-6.88,10.82-10.36,16.2-5.16-1.27-9.6-4.45-14.57-6.32.06-.03.13-.07.2-.11.85-.54,1.64-1.29,2.27-2.22.46-.74.79-1.57,1.02-2.43,1.07-.26,2.18-.51,3.19-1.01,2.51-.98,4.54-2.53,6.3-3.98.82-.79,1.57-1.57,2.25-2.32.62-.82,1.18-1.58,1.68-2.28.42-.77.79-1.47,1.1-2.09.17-.31.3-.6.35-.88.08-.26.15-.52.21-.74.24-.91.31-1.44.16-1.5-.14-.06-.49.34-.98,1.15-.13.2-.26.42-.41.66-.07.13-.14.25-.22.39-.09.11-.18.24-.28.37-.39.5-.82,1.06-1.26,1.69-.54.59-1.12,1.24-1.76,1.94-.69.63-1.44,1.29-2.23,1.99-1.68,1.23-3.57,2.61-5.8,3.47-1.12.58-2.32.75-3.42,1.11l-.79.25-.12.67c-.17.89-.43,1.72-.83,2.43-.41.7-.94,1.27-1.53,1.71-.84.6-1.77.96-2.67,1.18-3.08.1-6.02-.49-8.87-1.62,3.94-3.81,6.93-8.7,8.56-14.65.07.04.14.08.21.12,1.85.8,3.77,1.15,5.49,1.15,1.74.05,3.25-.33,4.47-.68,1.22-.43,2.16-.87,2.72-1.27.58-.38.87-.65.8-.81-.05-.15-.46-.15-1.14-.02-.69.15-1.63.32-2.76.51-2.3.34-5.49.38-8.65-.99-1.12-.51-2.16-1.13-3.1-1.8-9.68-13.64-14.49-29.8-22.07-44.62,1.54-.31,2.83-1.01,3.65-1.76.81-.86,1.08-1.55.89-1.78-.2-.27-.92.03-1.9.49-.92.32-2.19.76-3.67.9-.91.05-1.77,0-2.54-.1-2.59-1.18-5.01-2.62-7.19-4.3-.12-.19-.29-.32-.46-.37-3.38-2.69-6.24-6.03-8.41-10.11-1.27-2.39-5.25-13.48-.19-13.89-.88,1.22-1.28,2.82-.79,4.24Zm-47.62-72.61c.25-.04,4.4.33,3.58,1.21-.54.57-1.13,1.02-1.66,1.38-.85.57-1.56.99-2.1,1.34-1.08.68-1.45,1.06-1.35,1.28.1.21.63.23,1.88-.19.61-.21,1.41-.53,2.42-1.08.34-.2.7-.42,1.08-.7-.02.38-.07.79-.16,1.24-.21,1.01.52,1.72,1.39,1.98.6.83,1.18,1.66,1.78,2.5-.44.57-.95,1.09-1.47,1.51-.83.67-1.66,1.2-2.45,1.64-1.57.89-2.89,1.41-3.89,1.84-2.02.79-2.82,1.07-2.77,1.32.03.21.93.36,3.14-.16,1.09-.29,2.53-.72,4.25-1.59.87-.42,1.81-.98,2.76-1.73.18-.15.35-.3.53-.45,3.81,4.45,5.75,10.18,8.74,15.19,3.59,6.08,7.19,12.14,11.53,17.71,3.03,3.9,6.01,9.25,10.76,11.23,4.8,2.01,7.37,5.43,9.72,9.53-2.6.38-4.09,2.45-4.77,5.02-9.23-4.96-22.01-4.06-27.37,6.21-2.15,4.12-2.93,8.27-2.82,12.41-1.71-4.13-3.63-7.55-4.46-12.04-.87-4.64.8-8.73.52-13.26-.5-8.04-5.2-14.53-7.29-22.1-1.15-4.12-1.72-8.53-3.54-12.44-2.05-4.49-4.4-8.7-5.16-13.64-.13-.81-.64-1.34-1.41-1.53-.16-.34-.32-.69-.49-1.05.11-.26.15-.51.13-.76,1.34-.58,2.52-1.11,3.51-1.57,1.36-.71,2.4-1.33,3.19-1.82,1.56-.96,2.07-1.47,1.95-1.67-.11-.2-.83-.09-2.5.6-.85.33-1.92.84-3.29,1.45-1.08.42-2.32.94-3.74,1.53-.03,0-.03-.03-.05-.05-2.78-1.45.7-4.92,2-6.06,2.34-2.06,4.8-3.69,7.87-4.22Zm3.95,55.88c-2.39-2.72-3.77-5.9-4.24-9.69,1.36,3.02,3.05,6.33,4.24,9.69Zm-28.06-7.51c.89-8.15,1.64-16.34,2.68-24.48.39-3.07,1.93-7.5,1.77-10.82,1.45.57,2.56.73,3.29.79.95.02,1.33-.13,1.36-.36.03-.24-.28-.52-1.1-.82-.78-.34-2.07-.73-3.85-1.61-.32-1.58-.7-3.6.05-4.72.31-.47.82-1.08.93-1.65.11-.62-.14-1.36-.44-1.89-1.64-2.9,3.54-4.16,5.16-3.97,2.26.27,4.32.51,6.32,1.16-.94.57-1.83,1.17-2.64,1.82-.96-.06-1.78-.11-2.48-.13-.85-.06-1.52-.12-2.04-.1-1.04.01-1.47.16-1.51.4-.04.24.32.51,1.33.8.51.14,1.18.32,2.05.47.29.05.62.08.95.11-2.95,3.07-3.95,6.64-.28,9.26-.3,1.84.46,3.2,2.23,3.97.99,4.8,3.33,8.81,5.14,13.38.59,1.47,1.05,2.98,1.45,4.5.89,4.96-.68,10.79.72,15.72,1.37,4.88,4.16,8.48,8.25,11.44.02,0,.05.03.07.05.01.12.03.23.03.34.33,5.15-1.33,9.68-.42,14.89.29,1.62.72,3.09,1.23,4.5-9.96-3.68-20.48-2.87-30.95-2.2,1.56-5.54.71-11.06-4.97-14.82-1.02-.66-2.03-.95-2.99-.93,1.88-6.01,7.94-8.16,8.69-15.09Zm-13.27,24.71c.26-.62.63-1.35,1.09-2.08,2.74.84.29,5.55-.81,6.83-1.14,1.34-2.8,1.07-2.96-.6,1.08-1.26,2.01-2.6,2.68-4.14Zm-26.84,42.83c1.75-5.87,4.83-12.52,8.34-17.56,2.62-3.79,4.65-8.16,7.35-11.95.46.66,1.04,1.08,1.55,1.28.51.18.9.11,1.05-.1.16-.22,0-.59-.27-1.01-.2-.38-.53-.84-.81-1.34-.09-.18-.16-.33-.23-.49.31-.39.61-.77.94-1.13,1.52-1.68,3.28-3.21,4.88-4.86.3.67.82,1.22,1.64,1.54,1.28.49,2.9-.05,3.77-1.08,1.93-2.27,4.37-8.01.73-9.67,1.74-2.15,4.08-3.46,6,.1,1.57,2.91,1.8,6.33.91,9.49-1.78,6.33-5.95,11.16-11.16,15.01-.41.09-.77.34-1,.74-.14.04-.27.1-.41.14-1.68.53-3.25.86-4.4,1.02-1.1.19-1.9.2-1.96.46-.06.24.61.72,1.95.9,1.15.17,2.71.06,4.35-.37-1.04,6.98-.39,14.02-.78,21.05-.32,2.09-.73,4.42-1.29,6.86-.52,2.16-1.13,4.18-1.81,5.98-.74,1.75-1.44,3.33-2.23,4.53-1.45,2.4-2.88,3.75-2.62,4.01.18.18,1.9-.59,3.95-3.07,1.02-1.16,1.92-2.74,2.8-4.53-.05,1.15-.1,2.3-.1,3.46-.06,4.4-1.41,7.64-2.51,11.78-.79,2.99-1.1,6.03-.62,8.94-4.97-1.56-10.5-3.71-14.07-7.33-4.13-4.18-9.08-12.81-6.67-18.77.13-.31.21-.62.33-.94.69,1.82,1.56,3.35,2.43,4.49.3.47.65.78.94,1.08.3.29.56.54.78.73.47.38.79.55.91.45.13-.1.05-.44-.19-1-.12-.27-.28-.59-.48-.96-.19-.37-.48-.78-.64-1.23-.84-1.77-1.86-4.34-2.45-7.31-.09-.5-.15-1-.2-1.49.32-2.61.52-5.25,1.29-7.85Z"/>
  <path class="cls-1" d="m360.27,253.52c.14.01.29-.4.46-1.15.05-.4.31-.73.45-1.19.07-.22.27-.44.4-.68.07-.11.15-.23.22-.35.11-.12.2-.23.3-.35.78-1,2.05-1.98,3.26-3.53.13-.19.29-.4.43-.59l.08-.1.05-.1.02-.03.09-.16.15-.32c.21-.42.42-.85.65-1.29.41-.9.75-1.97,1.09-3.01,1.11-4.15,1.35-7.95,1.54-10.66.16-2.71.23-4.39-.05-4.46-.25-.04-.81,1.6-1.3,4.28-.53,2.68-.99,6.41-2.05,10.3-.32.94-.56,1.82-.94,2.71-.19.44-.4.88-.6,1.31l-.14.32-.07.14v.03s-.05.04-.05.04c-.11.18-.22.35-.34.53-.92,1.37-2.16,2.51-2.92,3.76-.09.16-.19.31-.28.46-.07.17-.14.32-.21.47-.11.32-.27.58-.33.89-.1.6-.26,1.12-.18,1.5.06.77.16,1.2.29,1.2Z"/>
  <path class="cls-1" d="m385.28,346.82c-4.11.17-9.82.28-16.12.1-6.29-.26-11.97-.79-16.06-1.3-4.09-.55-6.64-.91-6.71-.62-.04.22,2.42,1.07,6.49,1.96,4.09.87,9.84,1.62,16.21,1.89,6.39.18,12.16-.15,16.32-.68,4.14-.54,6.64-1.16,6.61-1.39-.02-.28-2.6-.16-6.75.04Z"/>
  <path class="cls-1" d="m411.95,235.17c2.98,4.48,6.3,8.11,8.89,10.51,2.64,2.29,4.43,3.53,4.58,3.34.2-.21-1.27-1.81-3.66-4.33-2.26-2.59-5.3-6.22-8.22-10.6-2.9-4.4-5.39-8.51-7.33-11.41-1.96-2.89-3.29-4.6-3.51-4.46-.23.14.69,2.1,2.33,5.16,1.64,3.08,3.95,7.3,6.9,11.78Z"/>
  <path class="cls-1" d="m471.99,338.06c-.11-.06-.43.3-.9,1-.44.74-1.15,1.67-2.04,2.78-.49.52-.96,1.15-1.6,1.7-.31.28-.63.57-.96.87-.36.27-.72.55-1.09.84-1.53,1.1-3.35,2.13-5.38,2.98-4.1,1.66-8.1,2.53-10.98,3.28-2.88.73-4.66,1.31-4.6,1.58.06.26,1.9.14,4.86-.24,2.96-.42,7.1-1.08,11.46-2.84,2.16-.89,4.12-2.07,5.73-3.36.38-.33.76-.65,1.13-.97.34-.36.67-.7.98-1.03.64-.64,1.09-1.39,1.55-2,.83-1.31,1.39-2.45,1.61-3.24.27-.8.35-1.27.23-1.34Z"/>
  <path class="cls-1" d="m301.48,251.46l18.34,9.54c.14.07.3.09.45.05.16-.04.28-.13.37-.26.09-.13.12-.28.1-.44-.02-.16-.1-.29-.22-.4-.04-.03-.08-.06-.12-.08l-18.34-9.54c-.16-.09-.32-.1-.49-.05-.17.05-.3.16-.38.32-.08.16-.09.32-.04.49.06.17.17.3.33.38Z"/>
  <path class="cls-1" d="m291.61,284.9l20.51-1.55c.28-.02.47-.17.56-.44.09-.27.02-.5-.2-.68-.14-.12-.29-.17-.47-.15l-20.51,1.55c-.18.01-.33.08-.44.22-.12.13-.17.29-.15.47.02.18.09.33.23.44.14.12.3.16.47.15Z"/>
  <path class="cls-1" d="m332.81,241.24c.1.15.24.24.41.27.17.03.33,0,.48-.1s.23-.24.26-.41c.03-.17,0-.33-.11-.48l-11.78-16.99s-.07-.09-.11-.13c-.12-.1-.27-.16-.43-.15-.16,0-.3.06-.42.16s-.19.24-.2.4.02.31.11.44l11.77,16.99Z"/>
  <polygon class="cls-1" points="321.97 223.41 321.97 223.41 321.97 223.41 321.97 223.41"/>
  <path class="cls-1" d="m244.98,457.5c2.59-.05,5.02-.28,7.3-.7,2.85-.47,5.33-1.27,7.45-2.41,2.95-1.55,5.21-3.66,6.79-6.33,1.58-2.66,2.32-5.73,2.21-9.2-.16-3.67-1.27-6.86-3.34-9.55-.67-.88-1.32-1.58-1.94-2.1,2.12-3.16,3.1-6.91,2.95-11.25-.26-7.45-3.78-12.6-10.56-15.45-2.33-.88-4.99-1.53-7.99-1.94-2.07-.21-4.66-.31-7.76-.31h-2.33c-1.81,0-4.53.01-8.15.04-3.62.03-6.31.04-8.07.04l.39,58.99,15.21.16v-.08c4.04.1,6.65.13,7.84.08Zm-7.1-40.59c.03-1.71.06-3.08.12-4.11h2.17c4.92,0,8.28.39,10.09,1.16.72.31,1.14.6,1.24.85.26.26.39.8.39,1.63.05.98-.05,1.76-.31,2.33-.16.26-.41.54-.78.85-1.35.83-3.62,1.32-6.83,1.47h-6.13c0-1.09.01-2.48.04-4.19Zm-.5,26c.1-3.52.16-5.92.16-7.22,2.53.05,4.66.05,6.36,0,3.78.16,6.57.65,8.38,1.47.67.26,1.21.6,1.63,1.01.16.21.26.6.31,1.17,0,.72-.08,1.22-.23,1.47-.26.26-.57.49-.93.7-1.55.83-4.4,1.32-8.54,1.47-.93.05-3.31.03-7.14-.08Z"/>
  <path class="cls-1" d="m286.2,457.03c.16-.47.34-1.06.54-1.79l.7-2.48h1.71c2.95.05,6.21.08,9.78.08l9.31.08.7,2.02c.21.67.39,1.24.54,1.71.1.31.23.59.39.85l17.08-.08-2.87-7.84c-.62-1.66-1.35-3.67-2.17-6.05-1.92-5.54-4.04-11.67-6.36-18.4-2.38-6.68-4.53-12.81-6.44-18.4-.83-2.33-1.81-5.15-2.95-8.46l-19.17-.08v.08h-.39l-2.48,8.38c-1.66,5.74-3.49,12.06-5.51,18.94l-5.43,18.94c-.73,2.43-1.35,4.5-1.86,6.21-.21.73-.36,1.32-.47,1.79-.1.36-.65,1.94-1.63,4.74l16.84.39.16-.62Zm7.84-26.93l2.79-9.7,3.49,10.09,2.48,6.91c-.26,0-.8-.01-1.63-.04-.83-.03-1.55-.04-2.17-.04-3.31,0-5.67-.03-7.06-.08l2.1-7.14Z"/>
  <path class="cls-1" d="m369.71,437.48c2.02-.93,3.62-1.86,4.81-2.79,5.23-3.93,7.79-9.37,7.68-16.3-.1-7.4-3.47-12.86-10.09-16.38-4.19-2.22-9.7-3.49-16.53-3.8-3.16-.21-7.4-.18-12.73.08-.31.05-.91.1-1.79.16h-.16c-1.55,0-3.93.05-7.14.16l.93,59.14,15.06-.31v-16.69h3.73l10.32,16.3,20.18.31-14.28-19.87Zm-3.96-14.36c-1.6,1.19-4.14,2.07-7.61,2.64-2.12.31-4.94.46-8.46.46v-13.66c2.33,0,4.04.03,5.12.08,4.92.31,8.43,1.06,10.56,2.25,1.55.83,2.33,2.04,2.33,3.65.05,2.07-.6,3.6-1.94,4.58Z"/>
  <path class="cls-1" d="m465.17,433.44c1.5-10.92-.88-19.53-7.14-25.85-2.69-2.59-5.9-4.68-9.62-6.29-2.59-1.03-5.92-1.86-10.01-2.48-2.9-.41-6.6-.62-11.1-.62-1.04,0-2.54.05-4.5.16-1.55,0-3.88-.01-6.99-.04-3.11-.03-5.41-.04-6.91-.04v2.56c-.05,1.86-.08,4.11-.08,6.75l-.08,20.49v20.41c-.05,2.64-.08,4.89-.08,6.75v2.56h7.61c.16.05.39.08.7.08.57,0,1.68.03,3.34.08,2.79.05,5.23.05,7.3,0,2.64,0,5.54-.18,8.69-.54,7.14-.88,13.01-2.82,17.62-5.82,6.42-4.24,10.17-10.3,11.25-18.16Zm-16.07-2.17c-.42,3.36-1.92,5.92-4.5,7.68-2.07,1.4-5.54,2.43-10.4,3.1-1.45.16-4.55.13-9.31-.08,0-.93.01-2.76.04-5.47.03-2.72.04-5.52.04-8.42v-13.66c3.98-.31,7.66-.21,11.02.31,4.81.62,8.33,2.04,10.56,4.27,1.03,1.14,1.81,2.51,2.33,4.11.57,2.28.65,4.99.23,8.15Z"/>
  <path class="cls-1" d="m479.61,407.01c-6.21,5.93-9.31,13.11-9.31,21.54s3.12,15.55,9.35,21.5c6.23,5.95,13.72,8.93,22.47,8.93s16.22-2.97,22.43-8.93c6.21-5.95,9.31-13.12,9.31-21.5s-3.11-15.61-9.31-21.54c-6.21-5.92-13.69-8.89-22.43-8.89s-16.3,2.96-22.51,8.89Zm36.87,21.54c0,3.83-1.41,7.09-4.23,9.78-2.82,2.69-6.2,4.04-10.13,4.04s-7.39-1.34-10.21-4.04c-2.82-2.69-4.23-5.95-4.23-9.78s1.41-7.09,4.23-9.78c2.82-2.69,6.22-4.04,10.21-4.04s7.37,1.35,10.17,4.04c2.79,2.69,4.19,5.95,4.19,9.78Z"/>
  <path class="cls-1" d="m581.67,436.12c-.36-2.3-1.24-4.59-2.64-6.87-.83-1.34-1.92-2.53-3.26-3.57-1.35-1.03-2.92-1.88-4.74-2.52-1.81-.65-3.39-1.15-4.73-1.51-1.35-.36-3.03-.72-5.04-1.09-2.02-.36-3.31-.62-3.88-.78-1.09-.26-1.86-1.01-2.33-2.25-.46-1.24-.23-2.35.7-3.34,1.6-1.55,9.21-1.66,22.82-.31l-.08-15.14c-5.12-.31-11.07-.47-17.85-.47h-2.41c-1.09,0-1.92.01-2.48.04-.57.03-1.27.08-2.1.16-.83.08-1.58.22-2.25.43-3.93,1.24-6.96,3.18-9.08,5.82-3.11,3.88-4.5,8.15-4.19,12.81.31,4.09,1.86,7.84,4.66,11.25,2.17,2.74,5.02,4.55,8.54,5.43,1.04.31,2.33.52,3.88.62.36.05.89.09,1.59.12.7.03,1.2.04,1.51.04,1.29,0,2.15.03,2.56.08,1.09.05,1.84.23,2.25.54,1.24.67,1.99,1.6,2.25,2.79.26,1.09.22,1.95-.12,2.6-.34.65-1.23,1.1-2.68,1.36-1.76.36-9.16.26-22.2-.31l-.23,15.21c.88.05,4.18.09,9.9.12,5.72.03,9.35.01,10.91-.04h3.42c.72,0,1.67-.09,2.83-.27,1.16-.18,2.25-.41,3.26-.7,1.01-.28,2.1-.71,3.26-1.28,1.17-.57,2.2-1.25,3.11-2.06.9-.8,1.73-1.82,2.48-3.07.75-1.24,1.31-2.64,1.67-4.19.83-4.14,1.06-7.36.7-9.66Z"/>
  <path class="cls-1" d="m292.76,530.58c-.62-1.66-1.35-3.67-2.17-6.05-1.92-5.54-4.04-11.67-6.36-18.4-2.38-6.68-4.53-12.81-6.44-18.4-.83-2.33-1.81-5.15-2.95-8.46l-19.17-.08v.08h-.39l-2.48,8.38c-1.66,5.74-3.49,12.06-5.51,18.94l-5.43,18.94c-.73,2.43-1.35,4.5-1.86,6.21-.21.73-.36,1.32-.47,1.79-.1.36-.65,1.94-1.63,4.74l16.84.39.16-.62c.16-.47.34-1.06.54-1.79l.7-2.48h1.71c2.95.05,6.21.08,9.78.08l9.31.08.7,2.02c.21.67.39,1.24.54,1.71.1.31.23.59.39.85l17.08-.08-2.87-7.84Zm-22.9-12.22c-.83-.03-1.55-.04-2.17-.04-3.31,0-5.67-.03-7.06-.08l2.1-7.14,2.79-9.7,3.49,10.09,2.48,6.91c-.26,0-.8-.01-1.63-.04Z"/>
  <path class="cls-1" d="m337.47,525.62l5.43-11.33c.05,3.99.08,8.95.08,14.9.05,2.59.08,4.81.08,6.68v2.56l15.52-.08v-2.56c0-1.86-.03-4.09-.08-6.67,0-6.21-.03-13.01-.08-20.41-.05-7.4-.1-14.2-.16-20.41v-9.24l-15.52.08v.08l-.31.47c-.16.42-.39.93-.7,1.55-.73,1.45-1.58,3.21-2.56,5.28l-7.84,16.14-3.34,6.91-3.42-6.99c-2.9-5.85-5.56-11.2-7.99-16.07l-2.64-5.28c-.31-.62-.57-1.11-.78-1.47-.1-.31-.18-.49-.23-.54l-.16.08v-.08l-15.52.08v2.56c0,1.86.03,4.11.08,6.75l.08,20.34.08,20.41c.05,2.59.08,4.81.08,6.68v2.56l15.52-.08v-2.56c0-1.86-.03-4.09-.08-6.67,0-5.95-.03-11-.08-15.14l5.74,11.41c1.03,2.07,1.91,3.86,2.64,5.36.26.57.49,1.06.7,1.47l.16.31c.05.16.1.26.16.31l11.56-.08.31-.54c.16-.36.39-.85.7-1.47.72-1.45,1.58-3.21,2.56-5.28Z"/>
  <path class="cls-1" d="m364.09,481.76v27.09c0,7.4-.03,14.2-.08,20.41v9.24h15.52v-9.24c.05-6.21.08-13.01.08-20.41v-29.65h-15.52v2.56Z"/>
  <path class="cls-1" d="m406.39,538.97c6.36,1.34,12.86.85,19.48-1.47,1.71-.62,3.38-1.4,5.01-2.33,1.63-.93,3.39-2.19,5.28-3.76,1.89-1.58,3.49-3.61,4.81-6.09,1.32-2.48,2.16-5.23,2.52-8.23l.08-8.07-26.7.23-.15,10.94h1.16c.83,0,1.81-.03,2.95-.08h4.66c-4.19,3.93-9.47,5.1-15.83,3.49-3.11-.83-5.49-2.22-7.14-4.19-1.97-2.54-2.95-5.79-2.95-9.78,0-4.66,1.22-8.28,3.65-10.87,2.12-2.12,4.94-3.39,8.46-3.8,4.29-.41,7.42-.05,9.39,1.09,2.85,1.55,4.48,3.21,4.89,4.97l15.99-.23c-.83-3.47-2.45-6.87-4.85-10.21s-5.11-5.83-8.11-7.49c-5.74-3.21-12.03-4.48-18.86-3.8-7.3.73-13.38,3.57-18.24,8.54-5.43,5.59-8.15,12.86-8.15,21.81,0,7.71,2.2,14.28,6.6,19.71,4.09,5.07,9.44,8.28,16.07,9.62Z"/>
  <path class="cls-1" d="m502.47,488.01c-6.21-5.92-13.69-8.89-22.43-8.89s-16.3,2.96-22.51,8.89c-6.21,5.93-9.31,13.11-9.31,21.54s3.12,15.55,9.35,21.5c6.23,5.95,13.72,8.93,22.47,8.93s16.22-2.97,22.43-8.93c6.21-5.95,9.31-13.12,9.31-21.5s-3.11-15.61-9.31-21.54Zm-12.3,31.32c-2.82,2.69-6.2,4.04-10.13,4.04s-7.39-1.34-10.21-4.04c-2.82-2.69-4.23-5.95-4.23-9.78s1.41-7.09,4.23-9.78c2.82-2.69,6.22-4.04,10.21-4.04s7.37,1.35,10.17,4.04c2.79,2.69,4.19,5.95,4.19,9.78s-1.41,7.09-4.23,9.78Z"/>
  <path class="cls-1" d="m556.96,510.25c-.83-1.34-1.92-2.53-3.26-3.57-1.35-1.03-2.92-1.88-4.74-2.52-1.81-.65-3.39-1.15-4.73-1.51-1.35-.36-3.03-.72-5.04-1.09-2.02-.36-3.31-.62-3.88-.78-1.09-.26-1.86-1.01-2.33-2.25-.46-1.24-.23-2.35.7-3.34,1.6-1.55,9.21-1.66,22.82-.31l-.08-15.14c-5.12-.31-11.07-.47-17.85-.47h-2.41c-1.09,0-1.92.01-2.48.04-.57.03-1.27.08-2.1.16-.83.08-1.58.22-2.25.43-3.93,1.24-6.96,3.18-9.08,5.82-3.11,3.88-4.5,8.15-4.19,12.81.31,4.09,1.86,7.84,4.66,11.25,2.17,2.74,5.02,4.55,8.54,5.43,1.04.31,2.33.52,3.88.62.36.05.89.09,1.59.12.7.03,1.2.04,1.51.04,1.29,0,2.15.03,2.56.08,1.09.05,1.84.23,2.25.54,1.24.67,1.99,1.6,2.25,2.79.26,1.09.22,1.95-.12,2.6-.34.65-1.23,1.1-2.68,1.36-1.76.36-9.16.26-22.2-.31l-.23,15.21c.88.05,4.18.09,9.9.12,5.72.03,9.35.01,10.91-.04h3.42c.72,0,1.67-.09,2.83-.27,1.16-.18,2.25-.41,3.26-.7,1.01-.28,2.1-.71,3.26-1.28,1.17-.57,2.2-1.25,3.11-2.06.9-.8,1.73-1.82,2.48-3.07.75-1.24,1.31-2.64,1.67-4.19.83-4.14,1.06-7.36.7-9.66-.36-2.3-1.24-4.59-2.64-6.87Z"/>
  <path class="cls-1" d="m303.25,585.52l6.87-13.69-4.57-2.3-16.67,8.96-2.11,4.21,8.69,4.36-1.84,3.66,5.61,2.82,1.84-3.66,2.8,1.41,2.19-4.36-2.8-1.41Zm-5.61-2.82l-3.57-1.79,6.14-3.33-2.57,5.12Z"/>
  <path class="cls-1" d="m325.31,578.65c-1.01-.98-2.31-1.79-3.92-2.42-1.5-.59-3.08-.95-4.72-1.09-1.65-.13-3.06-.02-4.26.34l.21,4.96c1.17-.3,2.32-.42,3.47-.38,1.14.05,2.17.25,3.08.6.89.35,1.5.83,1.83,1.45.33.62.34,1.33.02,2.14-.29.74-.76,1.17-1.41,1.3-.65.12-1.56-.05-2.75-.51l-2.92-1.15-1.8,4.57,3.52,1.38c1.21.47,2,.99,2.37,1.56.38.56.4,1.27.07,2.12-.35.89-.86,1.41-1.54,1.58-.68.16-1.65,0-2.92-.5-2.05-.81-3.8-2.27-5.23-4.4l-3.53,3.49c.6,1.09,1.56,2.15,2.88,3.17,1.32,1.02,2.78,1.84,4.36,2.47,1.78.7,3.43,1.05,4.97,1.06,1.54,0,2.85-.33,3.94-1.02,1.09-.68,1.89-1.68,2.4-2.99.54-1.38.64-2.68.31-3.91-.33-1.23-1.08-2.29-2.25-3.19,1.29.02,2.41-.29,3.36-.91.95-.63,1.65-1.54,2.1-2.73.49-1.25.59-2.47.29-3.68-.3-1.2-.95-2.3-1.95-3.28Z"/>
  <path class="cls-1" d="m352.84,586.81c-1.13-.84-2.53-1.46-4.21-1.87-1.57-.38-3.18-.53-4.83-.44s-3.04.39-4.17.91l.88,4.88c1.12-.45,2.25-.73,3.38-.84,1.14-.11,2.18-.05,3.13.19.93.23,1.6.62,2.01,1.19.41.57.51,1.27.31,2.11-.19.77-.6,1.26-1.22,1.47-.62.21-1.56.16-2.79-.14l-3.05-.75-1.17,4.77,3.68.9c1.26.31,2.11.71,2.56,1.22.45.51.57,1.2.35,2.09-.23.93-.66,1.52-1.31,1.77-.65.25-1.63.22-2.96-.11-2.14-.52-4.07-1.74-5.78-3.66l-3.03,3.93c.74,1,1.83,1.92,3.28,2.75,1.45.83,3,1.45,4.66,1.86,1.86.45,3.55.58,5.07.38,1.52-.2,2.78-.71,3.76-1.54.98-.82,1.65-1.92,1.98-3.29.35-1.44.28-2.74-.22-3.92-.5-1.17-1.38-2.13-2.65-2.86,1.28-.16,2.35-.61,3.21-1.36.86-.75,1.43-1.75,1.71-2.99.32-1.3.25-2.53-.21-3.68-.46-1.15-1.25-2.15-2.38-2.99Z"/>
  <path class="cls-1" d="m358.08,602.16l3.47.52c.68-.24,1.4-.42,2.17-.52.76-.1,1.46-.11,2.09-.01,1.15.17,2,.58,2.56,1.23s.76,1.49.6,2.52c-.16,1.06-.58,1.79-1.26,2.21-.68.42-1.65.53-2.91.34-2.23-.33-4.27-1.38-6.12-3.12l-2.63,4.19c.81.9,1.94,1.7,3.4,2.41,1.46.7,2.96,1.17,4.52,1.4,1.96.29,3.72.21,5.3-.24,1.57-.45,2.85-1.25,3.84-2.37.98-1.13,1.6-2.52,1.85-4.19.23-1.53.1-2.93-.37-4.19-.48-1.27-1.25-2.31-2.32-3.14-1.07-.83-2.35-1.35-3.83-1.58-1.28-.19-2.42-.14-3.4.15l.62-4.12,9.72,1.46.72-4.79-15.85-2.37-2.13,14.23Z"/>
  <path class="cls-1" d="m390.83,605.57c1.42-1.35,2.44-2.59,3.07-3.7.62-1.11.97-2.38,1.06-3.78.08-1.38-.21-2.61-.86-3.69s-1.62-1.93-2.89-2.56c-1.27-.63-2.78-1-4.53-1.1-1.61-.09-3.21.05-4.79.42-1.58.38-2.88.93-3.91,1.67l1.75,4.64c1.11-.64,2.2-1.12,3.28-1.43,1.08-.31,2.09-.44,3.05-.39,1.86.11,2.75.94,2.66,2.51-.08,1.34-.9,2.74-2.46,4.2l-8.38,7.79-.27,4.7,17.09.99.29-5.07-9.26-.53,5.12-4.66Z"/>
  <path class="cls-1" d="m412.58,600.48c-1.2-.62-2.56-.91-4.06-.86-1.29.04-2.4.3-3.32.76l-.14-4.16,9.82-.33-.16-4.84-16.02.53.48,14.39,3.51-.12c.62-.36,1.3-.66,2.04-.9.73-.24,1.42-.37,2.05-.39,1.16-.04,2.07.21,2.74.75.67.54,1.02,1.33,1.05,2.37.04,1.07-.24,1.87-.84,2.4-.6.53-1.53.82-2.8.86-2.25.07-4.45-.58-6.58-1.97l-1.83,4.6c.96.74,2.22,1.32,3.78,1.75,1.56.42,3.13.61,4.69.56,1.98-.07,3.7-.46,5.16-1.19,1.47-.73,2.58-1.74,3.35-3.03.76-1.29,1.12-2.77,1.06-4.45-.05-1.54-.43-2.9-1.12-4.06-.7-1.16-1.65-2.05-2.85-2.67Z"/>
  <rect class="cls-1" x="419.67" y="602.64" width="11.05" height="4.78" transform="translate(-65.46 51.76) rotate(-6.47)"/>
  <path class="cls-1" d="m443.41,606.45l3.81-5.78c1.04-1.66,1.73-3.11,2.06-4.34.33-1.23.36-2.54.08-3.93-.26-1.36-.85-2.48-1.75-3.36-.9-.88-2.05-1.47-3.44-1.76-1.39-.29-2.95-.28-4.66.06-1.59.31-3.1.84-4.54,1.6-1.44.76-2.56,1.62-3.37,2.59l2.84,4.07c.92-.9,1.85-1.63,2.82-2.2.97-.57,1.92-.95,2.86-1.13,1.83-.36,2.9.23,3.2,1.77.26,1.32-.19,2.88-1.35,4.68l-6.19,9.62.9,4.62,16.81-3.28-.97-4.99-9.11,1.78Z"/>
  <path class="cls-1" d="m466.43,583.86c-2.13-1.59-4.64-1.97-7.52-1.13s-4.79,2.51-5.74,5c-.94,2.49-.86,5.65.25,9.46,1.13,3.89,2.77,6.63,4.9,8.24,2.14,1.6,4.65,1.99,7.53,1.15,2.88-.84,4.79-2.51,5.73-5.01s.84-5.69-.29-9.58c-1.11-3.82-2.74-6.53-4.87-8.12Zm-.16,15.72c-.12,1.28-.71,2.07-1.76,2.38-1.05.31-1.97-.05-2.76-1.06-.79-1.01-1.57-2.83-2.33-5.45-.74-2.55-1.05-4.46-.92-5.73.13-1.27.71-2.06,1.76-2.36,1.05-.3,1.97.04,2.76,1.04.79,1,1.56,2.78,2.3,5.33.76,2.62,1.08,4.57.96,5.85Z"/>
  <path class="cls-1" d="m492,587.38l-2.92,1.15-5.6-14.25-4.76,1.87-4.46,18.39,1.72,4.38,9.05-3.56,1.5,3.81,5.84-2.3-1.5-3.81,2.92-1.15-1.79-4.54Zm-12.48,4.9l1.62-6.79,2.1,5.33-3.71,1.46Z"/>
  <path class="cls-1" d="m502.14,568.41c-2.52-1.1-5.24-.92-8.14.54-1.46.74-2.61,1.71-3.45,2.94s-1.29,2.56-1.37,4.03.24,2.92.97,4.36c.68,1.36,1.57,2.44,2.67,3.22,1.09.79,2.29,1.24,3.58,1.35,1.29.12,2.56-.14,3.8-.76.96-.48,1.73-1.11,2.34-1.88.6-.77.97-1.61,1.1-2.52,1.56,3.72,1.12,6.19-1.31,7.42-1.65.83-3.7,1.04-6.16.65l.24,4.96c1.26.28,2.63.3,4.12.07,1.48-.24,2.92-.7,4.3-1.4,1.95-.98,3.41-2.28,4.38-3.9.97-1.62,1.4-3.47,1.29-5.55s-.75-4.29-1.92-6.63c-1.75-3.5-3.89-5.79-6.42-6.89Zm-1.23,8.79c-.21.77-.71,1.35-1.48,1.73-.81.41-1.58.47-2.3.18-.72-.29-1.3-.88-1.75-1.78-.43-.85-.54-1.66-.34-2.42s.7-1.34,1.49-1.74c.75-.38,1.51-.42,2.27-.13s1.35.86,1.76,1.69c.44.88.55,1.7.34,2.46Z"/>
  <path class="cls-1" d="m485.02,260.09c.13.1.27.14.43.13.16-.01.29-.07.41-.19.03-.03.06-.07.09-.11l10.31-17.39c.09-.15.12-.31.07-.48-.04-.17-.14-.3-.29-.39s-.31-.12-.48-.07c-.17.04-.3.14-.39.29l-10.31,17.39c-.08.14-.1.28-.07.44s.11.28.24.38Z"/>
  <path class="cls-1" d="m463.55,250.64c.26.1.49.05.69-.15.12-.13.18-.28.17-.45l-.53-20.32c0-.18-.07-.33-.19-.45-.13-.12-.28-.19-.46-.18-.18,0-.33.07-.45.2-.12.13-.18.28-.17.46l.53,20.32c0,.28.14.47.41.58Z"/>
  <polygon class="cls-1" points="521.88 264.07 521.88 264.07 521.88 264.07 521.88 264.07"/>
  <path class="cls-1" d="m503.92,274.63c.17.04.33.02.48-.07l17.35-10.39s.09-.06.13-.1c.11-.11.17-.25.17-.41,0-.16-.04-.3-.14-.42-.1-.12-.23-.2-.38-.23-.16-.03-.3,0-.44.08l-17.35,10.39c-.15.09-.24.22-.29.39s-.02.33.08.48c.09.15.22.25.39.29Z"/>
</svg>