<?xml version="1.0" encoding="UTF-8"?>
<svg id="Camada_1" data-name="Camada 1" xmlns="http://www.w3.org/2000/svg" viewBox="0 0 800 800">
  <defs>
    <style>
      .cls-1 {
        fill: #fff;
      }
    </style>
  </defs>
  <path class="cls-1" d="m224.79,489.49c3.94-.38,7.88-.76,11.82-1.12v-235.34c-16.53-1.5-33.05-3.17-49.55-5.02v203.89c-35.51,2.67-70.94,5.88-106.26,9.63-16.42,17.31-32.81,35.62-49.18,55.11,64.05-11.64,128.5-20.61,193.17-26.91v-.24Z"/>
  <path class="cls-1" d="m615.65,390.02c-40.32.45-80.7.73-121.09.84,0-12.79,0-25.58,0-38.37-16.59.15-33.18.21-49.77.18,0,24.91,0,49.81,0,74.72.1,0,.2,0,.3,0v.22c40.4-.02,80.8.14,121.16.48v54.21c-10.98-.35-21.96-.65-32.94-.9-16.58,12.01-33.17,23.95-49.76,35.99,44.06.57,88.12,2.38,132.1,5.41,0-.08,0-.15,0-.23.1,0,.2.01.3.02v-132.35c-.1,0-.2,0-.3,0,0-.08,0-.15,0-.23Z"/>
  <path class="cls-1" d="m426.98,389v-36.75c-40.4-.08-80.78-.32-121.12-.73v-55.16c47.07,1.92,94.22,2.93,141.37,3.02,21.26.04,42.52-.12,63.77-.45v-36.91c-21.25.5-42.51.73-63.77.66-63.64-.2-127.27-2.92-190.73-8.17v.23c-.1,0-.2-.02-.3-.02v231.91c16.54-1.39,33.09-2.6,49.66-3.64v-72.82c34.07,25.48,68.18,49.73,102.3,74.3,11.73-8.93,23.46-17.71,35.19-26.41-31.23-22.91-62.46-45.42-93.67-68.7,25.75-.2,51.53-.33,77.3-.38Z"/>
  <path class="cls-1" d="m149.68,518.99c-4-2.92-8.75-3.93-14.24-3.02l-13.99,2.3,6.21,37.73,13.99-2.3c5.49-.9,9.67-3.38,12.52-7.43,2.85-4.05,3.81-8.88,2.89-14.49-.92-5.61-3.38-9.88-7.38-12.8Zm-.32,19.96c-.51,1.76-1.3,3.12-2.4,4.09-1.09.98-2.18,1.73-3.26,2.26-1.08.54-2.17.9-3.25,1.07l-6.5,1.07-3.81-23.17,6.5-1.07c1.08-.18,2.23-.19,3.42-.03,1.2.16,2.46.55,3.8,1.16,1.33.61,2.53,1.66,3.59,3.13,1.06,1.48,1.77,3.32,2.13,5.52.36,2.21.29,4.19-.22,5.93Z"/>
  <polygon class="cls-1" points="177.84 541.28 176.75 532.64 193.67 530.49 192.8 523.61 175.87 525.75 174.78 517.12 192.93 514.81 192.05 507.93 166.37 511.19 171.19 549.12 196.87 545.86 196 538.98 177.84 541.28"/>
  <path class="cls-1" d="m236.33,527.64c-.4-.83-.84-1.53-1.33-2.11-.49-.58-1.12-1.14-1.91-1.68-.78-.53-1.48-.96-2.1-1.27-.62-.31-1.4-.62-2.34-.92-.94-.3-1.64-.52-2.1-.65-.47-.13-1.12-.29-1.97-.46-.84-.17-1.31-.28-1.39-.31-.36-.08-1.04-.21-2.05-.39-1-.18-1.82-.35-2.44-.5-.63-.16-1.33-.38-2.11-.68-.78-.3-1.38-.67-1.8-1.13-.42-.45-.65-.97-.71-1.56-.1-1.05.26-1.94,1.1-2.65.84-.71,2.11-1.15,3.83-1.32,2.23-.22,4.31.07,6.26.87,1.95.79,3.27,1.69,3.96,2.69l5.6-4.45c-.99-2.07-2.96-3.8-5.92-5.19-2.95-1.39-6.19-1.91-9.7-1.57-4.25.42-7.7,1.71-10.35,3.88-2.65,2.17-3.78,5.17-3.41,8.99.11,1.13.38,2.17.81,3.11.43.94,1.02,1.74,1.77,2.4.75.65,1.48,1.21,2.17,1.68.69.47,1.56.86,2.6,1.2,1.04.33,1.86.58,2.47.73s1.38.33,2.33.51c.94.18,1.5.29,1.66.31.36.08,1.06.22,2.08.42,1.02.2,1.86.37,2.5.52.65.16,1.38.38,2.2.67.82.3,1.44.68,1.89,1.15.44.47.69,1,.74,1.58.13,1.29-.22,2.33-1.03,3.11-.81.79-2.31,1.29-4.49,1.5-2.46.24-4.83-.2-7.1-1.31-2.28-1.12-3.81-2.31-4.61-3.57l-5.67,4.93c1.3,2.43,3.49,4.42,6.55,5.95,3.07,1.53,6.65,2.1,10.75,1.7,4.69-.46,8.28-1.85,10.79-4.19,2.51-2.33,3.58-5.43,3.2-9.3-.09-.98-.34-1.88-.74-2.71Z"/>
  <rect class="cls-1" x="247.63" y="502.31" width="7.59" height="38.24" transform="translate(-40.15 21.34) rotate(-4.5)"/>
  <path class="cls-1" d="m285.71,516.55l.43,6.93,10.16-.63c-.33,2.38-1.36,4.29-3.1,5.73-1.74,1.44-3.78,2.24-6.13,2.38-3.48.21-6.37-.74-8.66-2.86-2.29-2.12-3.54-4.92-3.76-8.4-.21-3.48.69-6.42,2.7-8.8,2.02-2.38,4.76-3.68,8.25-3.89,3.99-.25,7.18,1.09,9.56,4.01l5.89-4.9c-1.83-2.28-4.11-4.02-6.83-5.21-2.73-1.19-5.75-1.68-9.08-1.47-5.64.35-10.14,2.47-13.52,6.38-3.38,3.9-4.89,8.69-4.54,14.37.35,5.67,2.44,10.24,6.27,13.7,3.83,3.46,8.56,5.01,14.2,4.67,5.44-.34,9.7-2.34,12.77-6,3.07-3.67,4.54-8.27,4.4-13.8l-.27-3.34-18.73,1.16Z"/>
  <polygon class="cls-1" points="339.12 497.11 340.25 522.03 323.08 497.83 315.67 498.17 317.4 536.37 325.04 536.02 323.91 511.17 341.08 535.3 348.43 534.97 346.7 496.77 339.12 497.11"/>
  <polygon class="cls-1" points="368.06 527.28 367.74 518.57 384.79 517.94 384.53 511 367.48 511.63 367.16 502.94 385.44 502.26 385.18 495.32 359.32 496.28 360.73 534.49 386.6 533.54 386.34 526.6 368.06 527.28"/>
  <path class="cls-1" d="m425.87,514.38c1.42-2.09,2.09-4.65,2.02-7.67-.1-3.88-1.34-6.92-3.73-9.12-2.39-2.19-5.13-3.25-8.23-3.18l-18.35.46.95,38.22,7.59-.19-.32-13.05,6.17-.15,8.56,12.85,8.76-.22-8.98-13.49c2.29-.88,4.15-2.37,5.57-4.46Zm-7.07-3.71c-.99.99-2.22,1.5-3.67,1.53l-9.53.24-.26-10.41,9.53-.24c1.45-.03,2.7.42,3.74,1.35,1.04.94,1.58,2.19,1.62,3.76.04,1.53-.44,2.79-1.44,3.77Z"/>
  <path class="cls-1" d="m708.34,402.64v-158.64c-16.43,2.5-32.88,4.84-49.34,7v106.65c-31.8-27.47-63.66-52.27-95.58-75.67-.02.02-.05.04-.07.06-11.72-8.59-23.44-17-35.17-25.28v117.47h49.61v-24.26c27.11,21.55,54.19,44.47,81.21,69.53v88.24c.17.02.33.04.5.07,16.29-12.25,32.56-25.06,48.82-38.6,0,0,.02.02.03.03v-1.33c8.43,8.75,16.86,17.76,25.27,27.04,11.6-9.6,23.19-19.59,34.76-30.03-19.97-22.29-39.99-42.94-60.03-62.26Z"/>
</svg>