<?xml version="1.0" encoding="UTF-8"?>
<svg id="Camada_1" data-name="Camada 1" xmlns="http://www.w3.org/2000/svg" viewBox="0 0 800 800">
  <defs>
    <style>
      .cls-1 {
        fill: #fff;
      }
    </style>
  </defs>
  <circle class="cls-1" cx="484.35" cy="204.67" r="27.77"/>
  <path class="cls-1" d="m536.35,241.15c1.1-5.3,1.63-8.99,1.59-11.04,0-.22-.11-.32-.32-.32h-.32c-.14,0-.21.07-.22.21-.03,1.26-.5,2.15-1.38,2.67-.4.23-.74.52-1.05.87-8.46,9.7-17.96,16.06-28.52,19.1-22.58,6.51-47.06-1.25-68.42-12.32-12.1-6.26-22.38-13.25-34.51-21.85-3.75-2.66-7.22-5.58-11.07-8.05-1.49-.96-1.68-.74-.58.65,15.74,19.75,27.37,41.37,34.87,64.85,2.94,9.2,4.75,17.59,5.42,25.19,1.08,12.18,1.16,24.33.26,36.48-.62,8.38-2.39,16.68-5.31,24.9-3.19,8.95-7.07,17.11-11.66,24.5-8.46,13.61-21.09,26.38-33.75,36.09-2.41,1.85-6.16,4.34-11.24,7.48-4.62,2.84-9.33,5.15-14.07,7.61-2.14,1.1-4.74,2.02-7.8,2.75-.52.12-.7.44-.54.96.03.13.04.26.01.39-.08.4-.32.65-.74.72-3.76.71-7.32,1.83-10.68,3.36-.43.19-.88.25-1.36.17-.46-.07-.85.05-1.18.35-.62.57-.51.89.32.96l3.15.27c.43.03.84-.03,1.24-.18.93-.38,1.94-.56,3.02-.54.7,0,.7-.02.01-.09-.26-.03-.33-.24-.21-.63.07-.24.29-.41.54-.41,10.48-.31,19.8-1.43,27.96-3.36,3.87-.91,7.9-1.89,12.1-2.92,4.08-1.01,8.04-2.17,11.88-3.5,32.14-11.1,59.01-29.05,80.61-53.85,5.62-6.45,10.91-13.45,15.85-20.99,12.31-18.79,22.01-37.99,29.08-57.61,6.16-17.08,11.82-38.02,16.99-62.84Zm-102.25,84.41c-.03,1.45-.11,1.45-.25.01-.27-2.76-.21-5.81.17-9.14.02-.11.03-.22.03-.32v-.15c0-.32.02-.32.03-.01.07,3.55.08,6.76.03,9.62Z"/>
  <path class="cls-1" d="m283.21,289.05c4.95,2.85,9.05,5.7,12.31,8.56,1.98,1.73,4.12,2.96,5.9,4.74,1.37,1.36,2.85,2.73,4.46,4.12,19.66,16.99,33.46,38.79,41.4,65.4,1.05,3.47,1.63,7.23,2.08,10.79.16,1.21.83,3.91,2.01,8.11.99,3.5,1.34,7.28,1.06,11.34,0,.02,0,.03.03.04l.32.03c.23.03.36-.08.39-.31,1.39-10.39,1.71-21.39.96-33.03-.53-8.21-2.54-16.9-6.03-26.08-5.76-15.17-14.56-29.09-26.4-41.76-.1-.1-.18-.22-.24-.35-.32-.68-.03-1.49.65-1.8,8.99-4.2,18.32-8,26.29-14.34,11.78-9.39,21.02-20.96,27.71-34.71.06-.12.16-.22.27-.29.31-.17.71-.05.88.26,5.98,11.06,11.18,22.23,15.59,33.52,1.67,4.29,2.76,8.72,3.63,13.21.37,1.95,1.72,3.15,2.09,5.15,2.14,11.72,2.87,24.15,2.18,37.28-.4,7.61-1.9,15.07-4.49,22.37-10.37,29.19-31.96,50.36-57.58,67.62-1.22.83-1.13,1.02.28.59,3.59-1.1,7.19-2.53,10.79-4.28,9.86-4.78,18.36-10.08,25.5-15.91,16.23-13.24,27.55-29.54,33.96-48.93,1.61-4.87,2.03-9.97,3.72-14.85.68-1.95,1.11-4.01,1.29-6.16.7-8.16.85-16.36.45-24.58-.2-4.06-.73-7.82-1.59-11.29-.63-2.52-1.18-5.05-1.64-7.58-5.1-27.55-18.83-53.19-35.09-75.83-.05-.07-.11-.12-.19-.14-.2-.06-.41.05-.48.26-5.14,17.04-14.38,34.62-27.51,46.07-6.07,5.29-13.03,9.74-20.87,13.37-9.21,4.26-19.05,6.55-29.51,6.86-6.65.2-11.51.29-14.58.27-.42,0-.62.2-.59.62l.04.67c.02.43.22.75.59.97Z"/>
  <path class="cls-1" d="m356.48,304.71c-1.1.21-1.91.76-2.42,1.67-2.54,4.49-2.42,9.07.35,13.72.27.44.65.69,1.15.75.78.1,1.55.3,2.31.59,2.82,1.08,7.1.28,10.17.09.76-.05,1.03.29.83,1.02l-.08.32c-.16.57-.05,1.08.35,1.52.87.98,1.28,2.08,1.24,3.31-.03.49.15.58.54.27.45-.37.9-.39,1.37-.05.49.36.45.65-.12.87-1.29.49-2.51.77-3.67.83-1.6.09-3.35.11-5.23.04-.24,0-.37.11-.39.35l-.3,5.79c0,.17.07.26.25.27,3.68.23,7.39-.16,11.15-1.16.4-.1.73,0,.99.3.34.38.56.83.65,1.36.01.07.03.14.06.2.18.4.64.58,1.04.4.42-.2.84-.19,1.25.03.39.21.85.26,1.28.16,1-.23,1.63-1.23,1.39-2.23-.26-1.08-.52-2.16-.79-3.24-.1-.44-.01-.83.27-1.16.64-.77,1.38-1.05,2.23-.84.4.09.66-.06.8-.43.1-.27.12-.54.05-.81-.11-.44-.03-.84.23-1.21,2.39-3.28,1.16-7.25.14-10.86-.25-.89-.81-1.29-1.67-1.2-.42.03-.8-.08-1.14-.34-2.97-2.29-8-1.46-11.41-.83-.2.03-.4,0-.57-.12-.42-.25-.55-.54-.37-.87.23-.45.19-.87-.13-1.25-.51-.6-.84-1.28-.98-2.04-.05-.26-.31-.44-.58-.39l-.67.13c-.47.09-.93-.19-1.07-.65-.17-.6-.23-1.21-.17-1.82.06-.48.34-.74.83-.79l6.57-.57c.26-.03.38-.17.37-.43l-.08-5.13c0-.23-.12-.36-.35-.39-2.43-.28-4.92-.13-7.47.45-.84.19-1.68.22-2.52.08-.71-.12-1.39-.34-2.07-.66-.32-.15-.67-.22-1.03-.2-1.18.06-2.09,1.06-2.02,2.24l.09,2.01c.03.5-.21.8-.7.89Zm16.61,15.51c1.18.14,2.65.31,4.42.52.21.02.39.16.46.36.72,2.03.61,3.49-.34,4.37-.28.26-.64.42-1.03.45-1.06.08-2.05-.78-2.21-1.92-.2-1.32-.65-2.55-1.34-3.69,0-.01-.01-.03,0-.05,0-.03.03-.04.05-.03Zm-12.15-10.67l.62-.19s0,0,0,0c.2-.07.41.04.48.23l1.61,5.08c.06.2-.05.4-.25.46l-.62.21s0,0,0,0c-1.66.53-3.4-.29-3.89-1.84l-.06-.19s0,0,0-.01c-.49-1.54.46-3.22,2.12-3.75Z"/>
  <path class="cls-1" d="m374.62,312.88c2.28-.02,4.12-.22,4.12-.43,0-.21-1.85-.37-4.12-.34-2.28.02-4.12.22-4.12.43,0,.21,1.85.37,4.12.34Z"/>
  <path class="cls-1" d="m269.05,333.67c3.52.8,7.11,1.55,10.76,2.23,3.35.63,6.73,1.64,10.14,3.02,10.24,4.15,18.82,8.94,25.76,14.36,5.26,4.12,10.47,9.16,15.63,15.1,1.51,1.74,2.38,4.28,4.53,5.18.34.14.55.39.63.75.3,1.32.99,2.56,2.05,3.73.47.51.68.42.63-.26-.24-4.45-1.18-9-2.8-13.65-6.9-19.76-18.94-36-36.11-48.72-3.11-2.3-9.69,3.14-12.58,4.44-2.57,1.16-5.28,2.73-8.14,4.7-1.15.79-3.1,1.64-5.85,2.56-.32.11-.59.29-.81.54-.19.22-.32.47-.4.75-.15.55-.49.92-1.02,1.1l-2.58.89c-3.77,1.29-3.72,2.38.17,3.27Z"/>
  <path class="cls-1" d="m281.06,346.65c-1.02-.34-2.08-.56-3.19-.68-.54-.06-.99.12-1.33.53-2.6,3.14-4.11,6.55-6.32,9.79-2.49,3.64-4.11,7.54-6.87,11-.95,1.19-.67,1.69.84,1.5,12.59-1.63,26.67-2.03,39.28.84,5.37,1.22,9.73,2.53,13.08,3.93,3.76,1.58,7.44,3.27,11.04,5.08.91.47,1.05.3.4-.49-12.13-15.01-28.56-25.42-46.94-31.49Z"/>
  <path class="cls-1" d="m110.94,471.17h-15.14c-.32,0-.58.26-.58.58v34.54c0,.26-.08.51-.24.72-.39.51-1.12.6-1.63.21-1.8-1.35-3.68-2.19-5.63-2.52-.65-.11-.7-.34-.15-.7.5-.33,1.04-.24,1.61.27.11.09.2.07.26-.06l.13-.35c.06-.13.02-.22-.12-.26-5.15-1.48-10.35-1.86-15.59-1.12-1.44.2-2.9.77-4.38,1.72-1.33.86-2.65,1.67-3.97,2.42-.66.39-1.34.66-2.04.83-1,.24-1.43.87-1.3,1.87.05.36-.09.71-.36.96-1.18,1.01-1.86,2.26-2.03,3.76-.03.28-.19.43-.46.46-.18.03-.36.02-.53-.03-.52-.12-1.05.19-1.21.71-3.02,9.81-2.84,18.69.56,26.65.05.13.14.23.26.31.22.14.44.12.67-.04.28-.19.65-.16.89.08.43.4.65.88.66,1.46,0,.48.13.93.36,1.36,1.02,1.89,2.4,2.88,4.16,2.96.47.02.69.26.65.72-.09,1.02.33,1.71,1.27,2.07,8.01,2.98,16.04,2.86,24.09-.35.47-.19.71-.71.53-1.19-.13-.34-.07-.66.18-.94.88-1.02,1.9-1.34,3.06-.98.35.11.52.35.5.71l-.1,2.93s0,.02,0,.03c0,.49.39.89.88.89h14.76c.4-.01.61-.22.61-.62l-.06-79.5c0-.3-.24-.54-.54-.54Zm-16.15,61.72c-.32,0-.66-.06-1.03-.19-.41-.14-.66,0-.74.43-.09.46-.08.98.01,1.55-1.41,2.17-3.38,3.33-5.92,3.49-.28.02-.46.15-.54.41-.04.14-.06.28-.04.41,0,.08-.03.13-.1.15-1.27.35-2.83.53-4.03-.09-1.33-.7-2.69-1.24-4.09-1.63-1.85-.5-2.38-1.78-3.94-2.6-.42-.22-.75-.6-.9-1.06-1.3-3.73-1.33-7.65-.08-11.77.16-.53.51-.68,1.03-.46.06.03.12.04.19.04.38-.04.67-.23.88-.57.85-1.4,1.97-2.1,3.35-2.12.73,0,.82-.24.27-.71-.26-.22-.25-.45.01-.67.31-.24.66-.41,1.05-.49,3.03-.66,6.21-.53,9.53.39.33.09.5.3.53.63.02.12,0,.24-.05.35-.11.26-.05.46.18.62,1.08.76,2,1.69,2.76,2.79.27.39.58.43.93.13.13-.11.26-.09.4.08.09.1.16.22.19.35,1.06,3.55,1.11,7.06.14,10.54Z"/>
  <rect class="cls-1" x="236.23" y="471.18" width="16.22" height="80.63" rx=".44" ry=".44"/>
  <path class="cls-1" d="m481.65,471.2h-15.32c-.16-.01-.3.12-.3.28l-.08,34.58c0,.34-.13.66-.35.91-.51.56-1.37.61-1.93.1-1.49-1.34-3.22-2.12-5.19-2.34-.76-.09-.81-.31-.14-.68.48-.28.97-.25,1.46.09.17.12.31.08.4-.12l.14-.3s0-.07-.05-.09c-5.85-1.7-11.74-1.95-17.68-.78-1.11.22-1.34.68-1.96,1.5-.26.34-.59.57-.99.71-4.69,1.61-7.83,4.67-9.4,9.18-.38,1.11-1,1.94-1.86,2.48-.36.22-.62.57-.74.98-1.58,5.47-1.89,11.09-.93,16.87.66,3.94,3.76,6.79,5.08,10.57.19.53.55.9,1.09,1.08,1.15.4,2.23,1.05,3.22,1.92.34.3.53.68.54,1.14.03.93.5,1.41,1.41,1.45,1.78.05,3.15,1.1,4.86,1.45,6.45,1.33,12.71.75,18.79-1.76.38-.16.58-.45.59-.85.09-1.74,1.1-2.55,3.05-2.44.55.03.82.31.8.87l-.09,2.95s0,.02,0,.03c0,.48.39.87.87.87h14.83c.25,0,.45-.2.45-.45l-.03-79.67c0-.29-.23-.52-.52-.52Zm-16.69,62.94c-.05.11-.14.17-.26.17-.23,0-.33-.11-.28-.34.05-.28.06-.57.01-.87-.1-.72-.22-.73-.36-.01-.48,2.61-2.15,4.25-5.01,4.92-1.21-.02-2.08.32-2.64,1.01l-2.31.25c-.43.05-.83-.04-1.19-.27-2.65-1.72-6.5-1.23-7.36-4.93-.33-1.39-.87-2.75-1.61-4.08-.2-.35-.27-.73-.21-1.14.23-1.56.58-3.19,1.05-4.91.82-2.98,2.29-4.69,4.4-5.14.34-.08.48-.28.43-.61-.07-.53.15-.86.67-.99,3.16-.87,6.53-.81,10.1.17.46.13.63.43.49.89-.03.11-.06.23-.06.35-.02.14.03.25.14.32,1.15.8,2.15,1.8,3,3,.02.03.04.05.07.07.16.14.39.12.53-.04.19-.2.38-.2.58-.01.09.09.16.2.21.34,1.29,4.14,1.17,8.09-.37,11.86Z"/>
  <rect class="cls-1" x="752.4" y="471.17" width="16.07" height="80.65" rx=".56" ry=".56"/>
  <path class="cls-1" d="m751.15,497.75s.01,0,.01-.01v-24.21h0s-.01-.01-.01-.01h0c-.03,8.09,0,16.15,0,24.22h0Z"/>
  <path class="cls-1" d="m319.94,492.07c.22.2.59-.09,1.08-.85.15-.23.27-.48.36-.74l2.91-8.59c.06-.18.18-.29.36-.32.16-.03.29.02.39.13.31.35.6.34.87-.04.24-.35.34-.74.3-1.15-.05-.47-.31-.66-.79-.56-.97.21-1.9-.11-2.78-.96-.1-.1-.14-.22-.1-.36.04-.18.15-.31.31-.4.11-.06.2-.16.23-.28.07-.24-.07-.49-.31-.56-12.72-3.94-24.59-4.54-35.62-1.81-4.33,1.07-8.9,3.85-12.43,6.45-5.52,4.07-11.86,11.26-13.45,18.37-1.03,4.62-3.13,8.62-2.65,13.48.36,3.66,1.11,7.53,2.23,11.6,2.11,7.57,7.36,13.9,13.23,18.72,2.38,1.94,5.18,3.04,7.69,4.74,1.68,1.15,3.58,1.95,5.7,2.42,9.24,2.02,18.67,2.01,28.3-.04,1.77-.37,3.27-1.43,5.12-1.18.31.04.49-.09.54-.39.03-.19,0-.31-.13-.35-.59-.22-.62-.51-.1-.85,1.46-.98,2.93-1.62,4.43-1.92.5-.09.67-.38.52-.87l-.21-.67c-.04-.15-.14-.21-.3-.18-.21.03-.39.12-.54.27-.04.05-.1.08-.16.1-.17.05-.35-.06-.4-.23-1.19-3.82-2.56-7.43-4.12-10.82-.04-.11-.12-.17-.25-.17-.05,0-.09.01-.13.04-.22.18-.38.13-.48-.14-.25-.71-.59-1.36-1.03-1.98-.24-.34-.55-.42-.92-.25-1.52.68-2.93,1.49-4.25,2.43-.96.67-2.07,1.11-3.33,1.3-9.87,1.51-19.52.4-26.35-7.05-6.36-6.94-7.97-16.37-3.67-25.07,1.73-3.5,4.18-6.39,7.35-8.68,2.63-1.91,6.03-3.12,10.19-3.62,6.19-.74,12.39-.16,18.59,1.74.4.12.54.38.43.79-.03.1-.05.21-.06.32-.05.34.06.62.35.84.3.22.64.36,1.01.44.07.01.13.01.2,0,.39-.04.67-.39.63-.77-.08-.69,0-1.37.21-2.05.21-.64.56-.74,1.05-.3Z"/>
  <path class="cls-1" d="m736.3,493.83s-.05-.06-.05-.12-.03-.07-.08-.05c-.16.06-.3.08-.46.13.15.11.33.17.56.12.07,0,.08-.03.03-.08Z"/>
  <path class="cls-1" d="m742.26,478.21l.03-.66c0-.11-.01-.21-.05-.31-.16-.4-.61-.59-1.01-.44-.15.06-.32.09-.49.09-.41,0-.77-.14-1.06-.45-2.3-2.44-6.6-1.99-9.56-1.32-2.3.52-3.53,1.92-3.68,4.21-.04.61-.33.77-.87.48-.59-.32-.99-.16-1.19.48-.93,2.98-.66,5.99.81,9.03.03.04.06.06.12.06.18-.02.36,0,.54.04.23.05.44.19.57.39,1.13,1.71,2.65,2.7,4.56,2.98.48.07.95.25,1.37.53,1.02.69,2.14.82,3.35.46-.08-.05-.16-.1-.22-.19-.31-.51-.16-.77.44-.77,1.61,0,2.93-.61,3.97-1.8.23-.26.58-.39.93-.32.96.18,1.55-.24,1.77-1.27.77-3.66,1.9-6.36-.06-10.02-.2-.37-.29-.77-.27-1.2Z"/>
  <rect class="cls-1" x="31.53" y="474.93" width="18.34" height="76.88" rx=".41" ry=".41"/>
  <path class="cls-1" d="m564.93,543.3c2.27-2.81,3.53-5.87,3.78-9.2.34-4.37.19-7.99-.46-10.88-.4-1.77-1.54-3.77-3.41-6.01-2.05-2.48-4.69-2.97-6.9-5.14-.28-.27-.64-.43-1.03-.45l-1.94-.09c-.75-.03-.98-.4-.7-1.09.19-.45.3-.92.34-1.42.04-.7.41-1.05,1.11-1.07,1.13,0,2.01-.53,2.66-1.56,3.46-5.58,5.4-10.06,3.73-17.08-.5-2.11-2.11-3.38-2.49-5.46-.19-1.03-.64-1.96-1.36-2.78-.78-.9-1.81-1.38-3.09-1.43-1.1-.04-1.44-.55-1.02-1.52.16-.4.04-.68-.37-.81-4.07-1.35-7.54-2.08-10.4-2.18-8.68-.33-18.2-.32-28.55.03-.42.02-.63.24-.62.67.54,25.05.51,50.1-.1,75.14,0,.22.11.33.32.34l.32.03c.05,0,.08-.03.08-.08.29-3.93.48-7.77.57-11.52.02-.85.02-.86.01-.01-.03,2.88.08,5.84.35,8.89.04.46-.03.9-.21,1.32-.19.44-.16.87.09,1.28.23.38.57.57,1.01.58,9.96.17,20.15.13,30.56-.12,7.47-.18,13.37-2.97,17.71-8.36Zm-49.41-62.43c-.04.59-.09.59-.15,0-.15-1.39-.34-2.85-.58-4.38-.02-.13,0-.25.03-.37.08-.25.26-.36.56-.32.27.03.47.27.45.54l-.3,4.53Zm17.08,7.41c0-.51.26-.78.77-.8,1.93-.07,3.72.09,5.37.48.93.22.92.4-.03.53-1.4.19-2.82.27-4.26.23-.87-.03-.87,0-.01.1,2.27.24,4.48.55,6.61.92,1.77.31,3.27,1.64,3.54,3.42.59,4.03.79,10.15-4.95,9.91-.37-.02-.59.16-.67.53-.03.15,0,.26.09.31.84.42.8.73-.13.93-1.75.37-3.59.5-5.53.4-.55-.03-.83-.31-.83-.87v-16.09Zm.34,49.55h0c-.19,0-.34-.15-.34-.34l-.03-16.71c0-.19.15-.34.34-.34h9.17c4.67-.02,8.45,3.76,8.46,8.42v.49c0,4.67-3.77,8.45-8.43,8.46h-9.17Z"/>
  <path class="cls-1" d="m167.64,541.7c.1-.13.16-.29.17-.46.01-.44-.33-.8-.77-.82-1.21-.04-2.14-.58-2.78-1.61-.32-.51-.76-.86-1.32-1.06l-6.23-2.22c-.53-.2-1.03-.13-1.5.19-1.22.85-2.39,1.79-3.51,2.8-2.79,2.53-7.66,2.2-11.02,1.43-.43-.1-.79-.32-1.08-.66-1.3-1.51-2.8-2.89-4.51-4.15-.57-.42-.9-.99-.98-1.7l-.23-1.89c-.09-.7.22-1.05.93-1.05h33.05c.5,0,.9-.39.92-.88.15-4.59-.35-9.15-1.52-13.69-.15-.56-.51-.85-1.1-.88-1.09-.05-1.59-.61-1.5-1.67.08-.87-.3-1.73-1.01-2.25-.9-.66-1.32-1.51-1.27-2.53,0-.01,0-.03,0-.04,0-.38-.31-.68-.69-.68-1.24,0-2.34-.47-3.31-1.45-.62-.62-1.37-.95-2.25-.99-.6-.03-1.19-.12-1.77-.27-.94-.25-1.05-.7-.32-1.34.1-.09.1-.18-.01-.26-.32-.24-.68-.4-1.07-.48-6.6-1.33-13.06-1.27-19.39.18-.11.02-.17.09-.17.21,0,.11,0,.22.05.32.14.37.04.67-.28.89-.95.62-1.98,1.03-3.09,1.24-1.42.26-2.67,1.28-3.73,2.23-.33.29-.55.65-.66,1.08-.1.44-.37.73-.8.88-1.44.51-2.46,1.59-2.64,2.79-.14.96-.74,2.11-1.81,3.46-.32.39-.68.44-1.1.17-.22-.16-.4-.12-.54.12-.11.18-.18.37-.21.58-.14,1.26-.36,2.48-.67,3.66-1.46,5.65-1.14,11.52.97,17.62.08.23.08.46,0,.7-.05.13-.06.27-.03.41.07.28.22.34.46.19.16-.09.26-.2.31-.35.11-.34.27-.36.46-.06l2.61,3.98c.13.19.2.41.21.63.03,1.27.68,1.94,1.94,2.01.35.03.69.16.97.37l3.23,2.48c.07.06.07.12.01.18-.09.1-.17.2-.26.3-.45.49-.34.75.31.78,2.2.08,3.76,1.46,6.01,1.89,6.23,1.2,12.59,1.1,19.06-.28,2.46-.53,4.73-1.65,6.81-3.35,2.55-2.08,4.76-4.31,6.63-6.72Zm-33.44-22.1c.27-.7.53-.69.8.01.05.13.16.21.32.23.33.03.5-.12.52-.45.19-5.58,5.77-5.44,9.84-5.3,1.68.05,3,.65,3.97,1.81.27.32.7.46,1.1.35.17-.04.34-.05.52-.03.73.09,1.06.51.99,1.25-.08.94.07,1.81.45,2.61.34.71.11,1.07-.68,1.07l-17.19-.12c-.56,0-.82-.28-.78-.85.02-.21.06-.4.14-.59Z"/>
  <path class="cls-1" d="m225.64,503.05h-14.2c-.41.01-.64.22-.68.63l-.32,2.87c-.08.65-.38.79-.92.4l-.77-.57c-.28-.2-.61-.33-.96-.36-1.24-.12-2.41-.59-3.51-1.41-.46-.34-.42-.61.13-.79.15-.05.12-.21-.09-.48-.15-.21-.34-.33-.59-.36-5.58-.84-14.21-2.11-19.04,1.61-2.45,1.9-4.95,2.03-6.46,5.23-.63,1.34-1.9,1.43-2.6,2.82-3.93,7.71-4.84,15.67-2.74,23.88,1.28,5,3.68,8.59,7.69,11.62.46.34.66.81.61,1.38-.02.23.09.34.32.34.17,0,.27-.07.28-.19.06-.45.23-.5.52-.14.67.85,1.55,1.45,2.65,1.8,5.88,1.89,12.04,2.02,18.47.37,1.59-.41,2.75-1.83,4.33-1.6.5.07.73-.15.68-.65-.1-1.15.44-1.92,1.64-2.31.46-.15.69.03.67.52l-.17,3.58s0,.03,0,.04c0,.31.25.55.56.55l14.92-.04c.48,0,.72-.24.72-.72l-.04-46.93c0-.73-.37-1.1-1.1-1.1Zm-16.39,32.14c-.35.86-.99,1.24-1.91,1.14-.32-.03-.6.07-.84.28-.9.81-1.94,1.34-3.13,1.6-.51.1-.53.27-.06.5l.37.18c.22.11.22.21-.01.28-2.14.79-4.23.87-6.28.25-.9-.28-.94-.4-.13-.37.17,0,.33-.04.48-.14.4-.29.36-.46-.14-.5-1.78-.15-3.34-.84-4.68-2.04-.19-.17-.41-.25-.67-.22-.83.09-1.41-.28-1.76-1.14-1.74-4.27-1.89-8.64-.45-13.1.38-1.17,1.14-1.74,2.27-1.69.34.02.62-.1.84-.36.33-.4.73-.66,1.2-.79.65-.19.69-.46.1-.81-.09-.05-.18-.12-.25-.21-.1-.14-.09-.26.03-.37,1.86-1.77,9.11-.99,10.72-.56.46.13.62.43.48.89-.14.43-.06.82.23,1.16.51.58,1.12.86,1.83.84.83-.03,1.59.47,1.9,1.24,1.85,4.62,1.8,9.26-.15,13.94Z"/>
  <path class="cls-1" d="m365.4,518.77c.07-.33.25-.56.53-.71,1.36-.7,2.38-3.13,2.65-4.48.4-2,1.59-3.31,1.56-5.4-.02-1.03.48-1.41,1.49-1.14.49.13.83-.03,1.02-.49.06-.15.07-.3.03-.47-.15-.53-.51-.77-1.07-.71l-.57.06c-.54.06-.96-.14-1.25-.61-.13-.21-.13-.4-.01-.58.38-.59.23-.97-.45-1.14-4.05-1.01-7.28-1.27-9.71-.8-1.72.34-3.32.56-4.79.66-.32.03-.5.2-.56.52-.03.15.03.27.18.36.34.2.37.43.08.71-1.04.94-2.2,1.63-3.49,2.07-.99.34-1.64.68-1.95,1.03-.55.62-.84,1.33-.87,2.14,0,.13-.05.23-.14.31-.03.03-.07.05-.12.05-.22,0-.35-.11-.37-.32-.21-1.9-.28-3.92-.21-6.06,0-.51-.24-.76-.75-.75-4.93.07-9.75.08-14.48.03-.18,0-.34.05-.49.14-.15.1-.25.25-.3.44-.03.12.01.21.12.26.12.07.21.17.26.31.03.12.03.24-.01.35-.46,1.07-.7,2.19-.7,3.37.03,14.86.11,29.21.25,43.05,0,.57.3.85.87.85h14.54c.48-.01.72-.25.72-.72,0-7.41-.01-14.97-.04-22.67,0-.99.09-1.97.26-2.93.48-2.73.66-6.34,4.4-6.15.07,0,.14,0,.21-.03.31-.1.48-.43.38-.75-.34-1.02.04-1.58,1.14-1.68,3.14-.28,6.03-.18,8.67.3.65.11.96.5.9,1.18-.02.34.11.67.36.9.29.27.63.35,1.02.25.4-.11.63-.37.7-.76Z"/>
  <path class="cls-1" d="m423.12,521.3c-.1-.08-.18-.18-.23-.31l-3.19-9.14c-.16-.46-.48-.78-.96-.94l-.81-.3c-.39-.13-.67-.38-.84-.76-1.59-3.47-4.46-3.42-7.45-4.9-.15-.07-.25-.18-.3-.32-.04-.15-.05-.28-.03-.41.11-.43-.05-.7-.48-.8-6.06-1.52-12.34-1.67-18.85-.48-.45.09-.74.33-.89.74-.14.39-.39.66-.76.83l-7.69,3.53c-.3.14-.47.37-.52.71l-.08.46c-.07.48-.29.92-.65,1.25-.84.81-1.5,1.72-1.98,2.73-.18.38-.45.66-.81.85-.85.43-1.46,1.08-1.81,1.96-3.27,8.22-3.16,16.46.32,24.72.4.94,1.09,1.53,2.08,1.77.53.14.84.47.96,1.01.4,2.01,1.73,3.36,4,4.06.86.26,1.45.81,1.76,1.64.26.73.85,1.3,1.59,1.54,9.59,3.07,19.07,2.9,28.44-.53.4-.15.67-.41.83-.8,1.18-3.04,5.71-2.26,5.83-5.41,0-.3.1-.6.27-.85l.94-1.4c.4-.59.26-.98-.41-1.19-.77-.23-1.28-.71-1.54-1.42-.15-.42-.44-.71-.85-.87l-6.33-2.42c-.4-.15-.82-.18-1.24-.06-2.77.79-5.02,2.08-6.74,3.87-.3.32-.67.5-1.1.56-2.89.34-5.79.27-8.68-.19-.28-.04-.49-.29-.49-.58,0-.47.09-.7.31-.67.5.04.53-.06.09-.3-.4-.22-.77-.48-1.14-.77-.29-.24-.62-.37-.99-.37-3.14-.09-3.27-3.82-3.33-6.16,0-.4.19-.61.59-.61l32.96-.08c.97,0,1.42-.49,1.33-1.46-.18-2.04-.34-4.18-.46-6.42-.03-.53-.25-.96-.68-1.29Zm-16.48-.22l-16.69.08c-.17,0-.3-.13-.31-.3v-.66h0c-.01-3.34,2.98-6.05,6.68-6.07l3.9-.03c3.7-.02,6.71,2.67,6.73,5.99v.66s0,0,0,.01c0,.17-.14.31-.31.31Z"/>
  <path class="cls-1" d="m614.26,503.48c-4.03-1.46-8.45-1.7-13.25-.71-.99.21-1.56.8-1.72,1.77-.06.37-.28.59-.66.65-2.49.39-4.24,1.72-5.24,4-1,2.25-1.64,2.15-1.92-.28l-.61-5.19c-.04-.42-.28-.63-.7-.63h-14.17c-.63.01-.94.33-.94.96v47.02c0,.53.26.79.79.79h14.65c.47,0,.71-.24.71-.72-.03-7.21-.03-14.54,0-22,.02-4.54,1.71-8.07,5.06-10.6,4.28-3.23,8.65-1.69,12.79.59.32.18.73.08.96-.22.89-1.23,1.58-2.58,2.09-4.06.46-1.35,1.1-2.65,1.9-3.9.9-1.41,1.55-2.86,1.92-4.34.33-1.3-.38-2.65-1.65-3.11Z"/>
  <path class="cls-1" d="m671.31,503.05h-14.63c-.49.01-.71.26-.65.75.09.85,0,1.75-.26,2.69-.07.23-.19.45-.37.61-.54.52-1.4.5-1.92-.04-1.39-1.43-3.16-2.16-5.31-2.18-.54,0-.63-.21-.26-.61.53-.57,1.15-.51,1.85.18.01.01.03.02.05.03.07.03.15-.01.17-.08l.13-.37c.09-.25,0-.41-.26-.49-5.05-1.39-10.08-1.74-15.07-1.06-1.58.22-3.11.78-4.59,1.67-4.7,2.83-7.09,4.49-10.18,9.93-6.21,10.93-5.44,21.43,2.3,31.5,1.01,1.32,2.3,1.77,3.62,2.67.34.23.53.55.57.96.09.99.64,1.51,1.63,1.56,1.8.09,3.28,1.15,5.15,1.51,5.87,1.14,11.9.57,18.1-1.69.73-.27,1.01-.75.84-1.46-.07-.29,0-.6.18-.84.81-1.02,1.8-1.4,2.97-1.16.39.08.67.43.66.83l-.06,3.02c0,.58.27.87.84.87h14.39c.62,0,.93-.31.93-.93l-.06-47.11c0-.51-.25-.76-.75-.75Zm-16.29,30.44c-.15.37-.39.66-.72.87-1.23.8-2.04,1.95-3.32,2.73-5.24,3.19-9.95,2.79-14.13-1.23-2.01-1.94-3.07-4.46-3.16-7.57-.08-2.45.72-4.85,2.4-7.18,3.35-4.67,8.12-5.81,14.31-3.44.32.12.45.34.39.67-.05.24.02.43.21.58,1.03.83,1.91,1.72,2.63,2.67.23.32.55.46.94.43.14,0,.26.03.37.1.11.07.19.17.22.3,1.3,3.78,1.25,7.47-.14,11.07Z"/>
  <path class="cls-1" d="m715.8,529.59c-.13-.02-.2-.09-.22-.22-.3-2.36-2.65-4.4-5.23-4.53-.85-.04-1.29-.48-1.32-1.32-.02-.43-.3-.8-.71-.92-2.75-.78-5.52-1.47-8.32-2.05-2.49-.51-3.34-2.09-2.54-4.74.16-.52.62-.89,1.16-.96,4.53-.51,8.69.03,12.49,1.61.04.02.08.03.12.04.99.34,2.07-.19,2.42-1.19l2.21-6.43c.13-.38.37-.65.72-.81.59-.28.99-.75,1.19-1.41.15-.52-.05-.8-.58-.84-1.33-.11-2.61-.58-3.84-1.41-.4-.28-.37-.34.09-.18.17.05.34,0,.49-.14.25-.24.2-.4-.14-.49-6.26-1.58-12.79-1.89-19.59-.96-.87.12-1.71.33-2.51.63-.46.17-.44.3.04.39.28.04.48.2.59.47.03.07.04.14.04.21,0,.31-.25.57-.57.57-2.05-.03-3.79.64-5.23,2.03-.29.28-.64.4-1.03.34-.7-.09-1.26.15-1.69.72-.28.36-.37.77-.3,1.23.09.57-.06,1.07-.48,1.5-.3.31-.51.68-.62,1.1-1.19,4.3-1.14,8.59.15,12.86.2.65.84,1.4,1.94,2.26.37.28.84.38,1.28.25.19-.05.38-.07.58-.05.58.04.79.34.65.89-.28,1.09.25,1.87,1.56,2.34,2.71.96,5.33,1.8,7.87,2.54.37.1.66.31.88.63.89,1.29,2.17,2.26,3.86,2.91.4.15.59.44.57.87l-.06,2.26s0,.02,0,.03c-.01.08-.06.13-.1.12l-.32-.08s0,0-.01,0c-.2-.06-.32-.28-.26-.47.15-.51.16-1.01.01-1.5-.18-.58-.3-.56-.35.04-.28,2.89-2.02,4.03-5.24,3.4-1.89-.38-3.93-.81-6.1-1.3-.17-.03-.27-.14-.28-.31-.02-.13,0-.24.06-.34.23-.36.18-.67-.17-.93-1.46-1.14-2.93-1.82-4.4-2.04-.38-.06-.71.04-.98.31-.72.71-1.07,1.55-1.03,2.52,0,.34-.07.67-.25.98l-1.4,2.45c-.09.15-.21.21-.36.15-.13-.04-.23-.11-.31-.21-.4-.45-.76-.41-1.07.12-.29.48-.39.99-.28,1.54.09.46,0,.9-.27,1.29l-.49.71c-.29.42-.26.82.1,1.19.78.79,1.73,1.14,2.83,1.03.39-.03.65.13.8.49.09.22.03.42-.18.58-.1.08-.17.19-.21.31-.11.35.08.72.43.83,8.69,2.67,17.09,3.13,25.21,1.38,1.87-.41,3.22-1.38,5.12-1.29.51.02.84-.22.99-.7.07-.22.04-.41-.08-.59-.01-.02-.02-.03-.03-.05-.2-.37-.07-.83.3-1.03,1.14-.62,1.97-1.57,2.51-2.84,0-.01.01-.03.02-.04.05-.06.14-.07.2-.03l.44.34c.46.35.76.25.92-.3,1.25-4.32,1.53-8.65.84-12.99-.26-1.62-1.09-2.53-2.51-2.74Z"/>
  <path class="cls-1" d="m741.93,503.02l-15.15.13s-.02,0-.03,0c-.84.02-1.51.73-1.48,1.58.39,15.22-.63,30.92-.58,46.4,0,.05.03.08.08.08h.34c.17,0,.26-.09.27-.27.15-8.96.13-17.91-.05-26.87,0-.05.03-.08.08-.08h.45c.15-.01.24.06.25.22l.22,26.75c0,.49.4.88.88.88h14.47c.44,0,.66-.22.66-.67l-.04-47.79c0-.19-.16-.35-.35-.35Z"/>
  <ellipse class="cls-1" cx="751.16" cy="532.94" rx=".01" ry="16.84"/>
  <path class="cls-1" d="m213.68,603.54c-.08.1-.11.23-.09.35l.18.71c.09.38.29.45.61.22l2.42-1.76c.4-.3.4-.59-.03-.88-.54-.35-.65-.83-.32-1.43.12-.22.09-.42-.08-.59-.09-.09-.19-.15-.3-.18-.39-.13-.6,0-.63.41-.02.15,0,.28.08.41.15.31.12.59-.12.85l-1.72,1.89Z"/>
  <path class="cls-1" d="m374.17,601.87c-.88.54-1.38,1.34-1.5,2.4-.09.77.18.93.8.46l2.22-1.65c.39-.28.38-.56-.03-.81-.48-.3-.6-.71-.35-1.23.15-.31.12-.61-.08-.9-.08-.11-.19-.18-.34-.21-.37-.06-.56.09-.58.46,0,.12.02.24.09.35.31.46.23.83-.25,1.12Z"/>
  <path class="cls-1" d="m568.9,604.83c.13.71.37.75.72.12.52-.94,1.31-1.34,2.39-1.21.4.05.78-.01,1.14-.19.26-.13.4-.34.43-.62.04-.43-.12-.75-.5-.97l-.68-.37s-.05-.03-.07-.05c-.08-.09-.06-.24.04-.32l.32-.27c.54-.45.47-.75-.21-.92-.43-.1-.85-.12-1.25-.04-.55.1-.64.37-.27.79.1.11.16.25.17.4.03.46-.18.76-.61.92-1.33.49-1.87,1.41-1.61,2.75Z"/>
  <path class="cls-1" d="m172.41,607.44c-3.15-.35-8.28-1.12-10.28,1.71-.25.36-.69.51-1.1.39l-.4-.12c-.38-.11-.62.03-.72.41-.85,3.25-.9,6.14-.15,8.68.13.41.4.65.83.7,1.17.15,2.3.8,3.38,1.96.12.13.12.25.01.37-.08.09-.15.17-.23.25-.44.49-.33.79.32.9,2.64.43,5.39.39,8.23-.12.54-.1.78-.43.71-.97l-.25-2.23s0-.07-.02-.11c-.11-.47-.58-.77-1.05-.66-1.93.42-3.97.46-6.14.1-.69-.11-1.27-.58-1.54-1.23-.87-2.14-.75-4,.36-5.58.14-.19.19-.4.15-.63-.02-.14-.04-.28-.08-.41-.12-.48.06-.76.56-.84,2.37-.34,4.52-.33,6.46.01.54.1,1.07-.22,1.24-.74l.31-.93c.18-.56-.02-.87-.61-.93Z"/>
  <path class="cls-1" d="m214.76,609.56l4.56-.05s.02,0,.03,0c.24-.01.43-.22.41-.46l-.1-1.37c-.02-.23-.21-.4-.44-.4l-8.46-.05c-.24,0-.44.2-.44.44v14.78c-.01.24.18.44.43.44h8.54c.24-.01.44-.21.44-.45v-2.78c0-.24-.2-.44-.44-.44l-4.51-.04s-.02,0-.03,0c-.24-.01-.43-.22-.41-.46l.23-2.92c.02-.22.2-.39.43-.4l4-.04c.23,0,.43-.18.44-.41l.08-1.29s0-.02,0-.03c0-.24-.2-.44-.44-.44l-4.31-.03h0c-.24,0-.44-.2-.44-.44v-2.71c0-.24.2-.44.44-.44Z"/>
  <path class="cls-1" d="m244.17,609.69c-.13.02-.24.08-.34.18-.04.05-.09.09-.14.12-.29.18-.67.08-.85-.21-2-3.29-6.69-2.57-10.04-2.56-.54,0-.81.27-.81.81v13.96c.01.55.29.84.84.85,2.56.1,5.05.03,7.49-.21.27-.03.42-.19.45-.45,0-.14-.03-.25-.12-.32-.53-.45-.48-.81.14-1.1,1.12-.5,1.92-1.29,2.42-2.38.14-.3.31-.33.52-.08l.26.31c.09.11.22.18.36.2.3.03.57-.19.61-.5.29-2.76.19-5.52-.31-8.31-.04-.28-.2-.39-.48-.34Zm-3.53,8.36l-4.12,1.11s-.08.02-.12.02c-.25,0-.45-.2-.45-.45v-8.64s-.01-.05,0-.07c.04-.25.26-.42.51-.38l3.44.46c.21.03.37.2.39.41l.7,7.05c.03.22-.12.43-.34.49Z"/>
  <rect class="cls-1" x="257.13" y="607.23" width="4.03" height="15.63" rx=".59" ry=".59"/>
  <path class="cls-1" d="m283.8,607.47c-.05-.2-.23-.35-.44-.35l-9.69.13c-.23,0-.42.18-.44.41l-.09,1.38s0,.03,0,.04c0,.25.22.45.47.44l3.2-.04s0,0,.01,0c.25,0,.45.2.45.45v12.49c0,.25.2.45.45.45h3.09c.25,0,.45-.2.45-.45l-.03-12.35c0-.23.17-.43.4-.45l2.09-.27s.03,0,.04,0c.24-.06.39-.3.33-.55l-.31-1.33Z"/>
  <path class="cls-1" d="m309.64,608.23c-.45.19-.81.12-1.1-.19-.19-.21-.42-.36-.68-.45-2.94-.98-5.54-.74-7.8.74-.28.18-.62.26-.96.21-.65-.1-1.11.15-1.36.77-.95,2.36-1.26,4.91-.93,7.66.27,2.27,1.4,3.4,3.4,3.38.06,0,.12,0,.18.02.43.1.7.52.6.95l-.12.52c-.12.51.08.82.59.93,2.21.47,4.3.43,6.26-.09,0,0,.02,0,.02,0,.33-.11.51-.45.4-.77l-.1-.35c-.22-.71.05-1.06.79-1.06,1.91,0,3.04-1.07,3.37-3.23.46-2.99.12-5.78-1.01-8.38-.26-.6-.95-.89-1.56-.65Zm-1.63,9.09s0,0,0,.01c0,.86-.71,1.56-1.58,1.55h-3.75c-.86,0-1.55-.7-1.55-1.56v-3.57c0-2.3.93-4.15,2.07-4.14h2.76c1.13,0,2.04,1.87,2.04,4.16v3.55Z"/>
  <path class="cls-1" d="m352,618.99c-.32-.4-.73-.57-1.24-.52-.89.09-1.42-.34-1.6-1.29-.4-2.01.37-2.96,2.31-2.87.39.03.62-.15.68-.54.31-1.69.29-3.31-.05-4.87-.11-.5-.42-.69-.93-.57-.6.15-1.13.01-1.58-.4-.45-.4-.97-.62-1.58-.63l-5.44-.1c-.5,0-.75.24-.75.75v14.27c0,.44.22.66.66.66h1.34c.59,0,.82-.28.7-.85-.4-1.76-.12-3.42.84-5,.03-.05.07-.06.12-.01,1.11,1.05,2.16,2.2,3.15,3.45.26.34.34.71.23,1.11-.05.21-.06.41-.03.62.09.46.36.68.81.68h3.25c.24-.02.47-.1.66-.24.46-.36.53-1.02.17-1.47l-1.74-2.17Zm-3.76-6.22c0,.49-.39.89-.88.9l-2.01.02c-.49,0-.89-.39-.9-.88l-.02-2.56h0c0-.49.39-.89.88-.9l2.01-.02c.49,0,.89.39.9.88l.02,2.56h0Z"/>
  <path class="cls-1" d="m377.68,613.63c-.19-.62-.56-.77-1.11-.44-.18.1-.35.07-.52-.09-.32-.31-.47-.68-.45-1.12.05-1.35-.28-2.69-1.01-4-.22-.4-.56-.65-.99-.77-2.19-.57-3.55.15-4.09,2.17-.81,2.97-1.6,5.95-2.38,8.95,0,.01,0,.02-.01.03-.06.15-.24.22-.39.16-.12-.04-.21-.12-.27-.22-.33-.62-.63-.61-.9.04-.51,1.17-.85,2.31-1.02,3.42-.11.73.2,1.1.94,1.11h2.58c.7.02.97-.31.81-.99-.16-.69-.08-1.35.25-1.99.2-.39.52-.59.96-.59l4.39-.06c.51,0,.86.22,1.06.67.31.69.37,1.4.19,2.13-.01.05-.02.1-.01.14.02.26.24.46.5.45.88-.05,1.72.03,2.52.23.2.05.42.05.62-.01.59-.18.92-.81.74-1.41l-2.4-7.8Zm-3.69,1.19c-.03.12-.08.23-.16.33-.27.33-.76.37-1.09.1-.33-.28-.7-.35-1.11-.23-.75.22-1.09-.06-1.01-.84.02-.23.12-.41.3-.54.23-.19.48-.2.74-.03.12.08.25.12.39.13.29,0,.54-.09.75-.31.09-.08.17-.16.26-.23.01-.01.03-.02.04-.03.19-.13.46-.08.59.11.34.46.44.98.31,1.55Z"/>
  <rect class="cls-1" x="416" y="607.23" width="4.03" height="15.63" rx=".59" ry=".59"/>
  <path class="cls-1" d="m469.74,607.94c-.83-.18-1.65-.38-2.47-.59-3-.79-5.36-.3-7.09,1.47-.13.13-.31.17-.48.1-.81-.34-1.36-.09-1.64.77-1.27,3.88-1.19,7.19.22,9.92.22.43.56.56,1.02.37.66-.28,1.29-.09,1.89.57.15.17.21.4.18.62-.03.17-.07.33-.13.48-.23.55-.06.9.52,1.05,2.11.53,4.22.52,6.33-.03.59-.15.69-.46.31-.93-.13-.15-.15-.33-.06-.52.2-.43.54-.66,1.02-.68,4.61-.22,3.76-7.32,2.92-10.23-.34-1.19-1.31-2.1-2.53-2.38Zm-1.37,9.35c-.17.71-.61,1.18-1.3,1.41-2.14.71-3.6.69-4.37-.04-1.49-1.42-1.72-4.03-.58-6.48.17-.37.22-.76.15-1.18-.09-.62.16-1,.76-1.15,1.46-.36,2.88-.34,4.28.05.48.13.67.44.56.93-.03.13-.05.26-.05.4-.02.22.02.43.12.62.79,1.64.94,3.46.44,5.44Z"/>
  <path class="cls-1" d="m544.8,609.56l4.53-.03h0c.24,0,.44-.2.44-.44v-1.45c-.01-.24-.21-.44-.45-.44l-7.09.1c-.23,0-.42.19-.43.43l-.06,14.6c0,.23.18.43.41.44l1.73.1s.02,0,.03,0c.24,0,.44-.2.44-.44l.08-6.59c0-.23.19-.42.43-.43l4-.05c.2,0,.37-.13.43-.32l.35-1.27s.01-.07.02-.11c0-.24-.19-.44-.43-.45l-4.44-.08c-.24,0-.43-.2-.43-.44v-2.71c.01-.24.21-.44.45-.44Z"/>
  <path class="cls-1" d="m577.62,620.45c-.2-.66-.38-.66-.56.01-.03.13-.08.25-.13.35-.35.71-.64.69-.87-.08l-3.59-12.52s0-.03-.01-.04c-.08-.19-.3-.28-.49-.2-.2.08-.31.24-.35.49-.09.59-.25.62-.49.08-.52-1.15-1.32-1.61-2.4-1.38-.47.1-.86.45-1.01.92l-.46,1.38c-.21.61-.48.65-.83.1-.11-.17-.18-.37-.21-.61-.09-.59-.22-.6-.39-.04-.05.17-.13.33-.23.48-.16.19-.24.44-.22.7.04.72-.03,1.4-.23,2.04-.95,3.06-1.91,6.16-2.89,9.31-.11.36-.03.67.23.93.53.53,1.22.69,2.07.5.59-.13.82-.49.67-1.07-.14-.54-.13-1.09.03-1.63.14-.49.46-.74.97-.76l6.12-.22c.28-.01.56.06.8.21.68.41.9,1.3.49,1.99-.4.64-.32,1.08.23,1.32.44.2.88.22,1.33.06.76-.26,1.52-.37,2.27-.35.53.02.7-.22.53-.72-.14-.42-.27-.84-.39-1.25Zm-8.1-3.95c.2.24.22.46.06.67-.04.06-.1.1-.17.12-.19.07-.39-.03-.45-.21-.47-1.35-.56-2.43-.27-3.23.5-1.39.99-1.38,1.46.03.24.68.05,1.29-.57,1.82-.24.21-.26.57-.06.8Z"/>
  <path class="cls-1" d="m600.5,607.43c-2.8-.56-5.67-.38-8.63.53-1.23.39-2.19,1.36-2.56,2.6-.65,2.19-.8,4.46-.45,6.82.29,2,1.83,3.18,4.61,3.54.22.03.29.15.21.36-.04.09-.11.18-.19.26-.22.2-.46.23-.72.09l-.53-.28c-.2-.1-.38-.08-.56.08-.13.12-.21.27-.23.44-.06.47.15.68.62.61.63-.09,1.31-.04,2.04.17,1.7.48,3.69.56,5.97.23.62-.09.92-.46.9-1.09l-.08-2.42c0-.07-.01-.14-.03-.2-.12-.37-.52-.56-.9-.44-3.1,1.05-7.13.65-6.82-3.58.02-.15-.05-.31-.19-.48-.33-.4-.57-.36-.74.13-.04.12-.12.21-.25.27-.34.17-.53.07-.59-.3-.1-.68.04-1.27.43-1.77.15-.19.31-.22.5-.08.09.06.18.13.25.22.24.32.5.33.77.04.59-.66.81-1.41.66-2.25-.09-.52.12-.84.63-.96,1.78-.42,3.45-.44,5.01-.05.55.14.95-.06,1.2-.58l.31-.65c.33-.7.11-1.12-.65-1.27Z"/>
  <path class="cls-1" d="m618.96,607.96c-.02-.29-.28-.51-.57-.49-.2.02-.34.12-.44.31-.09.17-.13.36-.13.56.02.61-.04.62-.18.01-.14-.65-.58-1.03-1.33-1.15-.9-.15-1.34.24-1.34,1.15l-.04,14.25c0,.06.01.12.04.18.1.23.37.33.6.23,1.17-.51,2.23-.75,3.18-.72.21,0,.31-.1.31-.31l-.09-13.98s0-.03,0-.04Zm-1.17,6.14c0,2.59-.1,4.69-.21,4.69-.11,0-.19-2.1-.18-4.69h0c0-2.59.1-4.69.21-4.69.11,0,.19,2.1.18,4.69h0Z"/>
  <path class="cls-1" d="m640.33,619.2l-4.42-.03c-.28,0-.5-.23-.5-.5v-10.95s0,0,0-.01c0-.28-.24-.5-.52-.49l-3.01.04c-.27,0-.48.22-.49.49v14.63c-.01.28.21.5.49.5h8.43c.28-.01.5-.24.5-.52v-2.66c.01-.28-.21-.5-.49-.5Z"/>
  <path class="cls-1" d="m197.75,620.23c-.17.04-.33.12-.48.23-.24.19-.6.16-.79-.08l-2.66-3.22c-.4-.47-.36-1.19.1-1.61,2.73-2.56,2.98-8.45-1.96-8.32-2.1.06-4.1.06-6.01.01-.53-.02-.79.24-.8.78v14.17s-.01,0-.01.01c0,.39.33.69.71.68l3.1-.06c.14,0,.21-.07.21-.21l-.03-4.57c0-.6.21-.69.65-.27.34.33.61.71.79,1.15.37.91.99,1.2,1.86.87.34-.13.73,0,.92.32.29.51.32,1.01.09,1.51-.07.15-.1.32-.08.48.05.5.49.86.99.81l3.49-.36c.46-.04.71-.3.72-.78.03-.62-.18-1.12-.61-1.5-.05-.05-.12-.07-.19-.05Zm-4.9-7.39c-.37.72-.62.68-.75-.12-.05-.37-.11-.76-.17-1.16-.13-.88-.23-.88-.3,0-.07,1.05-.57,1.77-1.51,2.17-.65.27-.97.05-.97-.65v-3.01c-.01-.59.28-.86.88-.79.59.06,1.07.34,1.43.84.29.4.55.38.76-.05.06-.13.16-.19.3-.17.28.03.46.19.54.47.25.85.18,1.67-.22,2.47Z"/>
  <path class="cls-1" d="m403.14,608.73c-.15.03-.29.1-.4.19-.48.4-.85.31-1.11-.26-.31-.65-.81-1.04-1.49-1.16-1.82-.31-3.87-.37-6.15-.19-.36.03-.67.17-.92.44-.2.2-.41.22-.63.08-.72-.49-1.09-.32-1.09.52v13.55c-.01.18.07.29.25.32l3.55.74c.2.04.3-.03.3-.23l.05-4.66s0-.05,0-.08c.05-.48.48-.83.96-.78,1.01.12,2,.12,2.98.01.75-.09.78-.28.1-.59l-.57-.26c-.65-.29-.62-.5.09-.61,1.27-.19,2.25-.84,2.93-1.94.31-.5.51-.46.61.12.03.15.13.24.32.26.51.03.76-.2.75-.71l-.03-4.3c0-.36-.18-.51-.53-.44Zm-10.33,12.26c0,.09-.04.14-.12.15-.03.02-.07.02-.12,0-.04-.02-.06-.05-.06-.09-.12-3.65-.06-7.35.19-11.1.09-1.24.13-1.24.14,0,.03,3.71.02,7.39-.04,11.03Zm5.6-7.35h-1.86c-.61.01-1.1-.48-1.1-1.08v-2.09c-.01-.61.47-1.1,1.08-1.1h1.86c.61-.01,1.1.48,1.1,1.08v2.09c.01.61-.47,1.1-1.08,1.1Z"/>
  <path class="cls-1" d="m444.23,609.43l-.45.1c-.39.08-.7-.04-.93-.36-2.04-2.76-6.63-1.89-9.58-1.74-.53.03-.79.31-.79.84v13.73c-.01.46.22.7.67.74,2.75.24,5.41.19,8-.14.33-.03.43-.21.32-.52-.05-.14-.13-.24-.25-.31-.53-.35-.51-.66.08-.92.74-.32,1.34-.82,1.81-1.51.31-.46.64-.47.99-.05.13.16.28.19.46.09.33-.19.54-.46.63-.83.68-2.58.64-5.44-.12-8.58-.11-.46-.4-.64-.85-.54Zm-3.32,8.67l-3.22,1.11c-.1.03-.2.05-.3.05-.49,0-.89-.4-.89-.89l-.05-7.85s0-.07,0-.11c.06-.49.5-.84.99-.78l2.45.3c.41.04.74.37.79.78l.81,6.45c.05.42-.19.82-.59.96Z"/>
  <path class="cls-1" d="m507.57,609.55h3.73c.52,0,.77-.25.76-.76v-.52c-.01-.56-.47-1.01-1.03-1.01l-7.57.04c-.59,0-.88.31-.88.9v13.98c-.01.39.3.7.68.7h7.81c.65,0,.97-.33.94-.98l-.08-1.91c-.02-.54-.31-.81-.87-.81l-3.67.04c-.18,0-.35-.05-.5-.14-.44-.27-.57-.84-.3-1.28.24-.39.57-.68.98-.87.22-.1.25-.24.06-.4-.14-.11-.3-.18-.48-.21-.72-.09-.75-.28-.09-.59.95-.46,2.13-.55,3.54-.27.53.09.86-.11,1.01-.62l.19-.67c.19-.67-.06-1-.76-.99h-3.54c-.63.02-.95-.29-.96-.93v-1.68c0-.66.32-1,.99-1.01Z"/>
  <path class="cls-1" d="m540.62,607.58s-.04.02-.04.04c-.14,3.7-.21,7.39-.21,11.07,0,.45.03.83.08,1.15.14.94.21.93.21-.04.03-3.94.03-8,0-12.18,0-.02-.02-.04-.04-.04Z"/>
</svg>