<?xml version="1.0" encoding="UTF-8"?>
<svg id="Camada_2" data-name="Camada 2" xmlns="http://www.w3.org/2000/svg" viewBox="0 0 18.12 18.12">
  <defs>
    <style>
      .cls-1 {
        fill: #fff;
      }
    </style>
  </defs>
  <g id="ELEMENTOS">
    <g>
      <path class="cls-1" d="m18.12,4.18v9.77c-.07.34-.11.69-.22,1.01-.62,1.9-2.33,3.15-4.34,3.16-3,0-6,0-9,0-.96,0-1.85-.27-2.63-.84C.63,16.33,0,15.05,0,13.46,0,10.54,0,7.62,0,4.7c0-.3.01-.6.07-.9C.38,2.13,1.33.96,2.9.32,3.3.16,3.75.1,4.18,0c3.26,0,6.51,0,9.77,0,.13.02.25.04.38.07,1.66.31,2.83,1.26,3.47,2.82.17.41.22.86.33,1.29Zm-1.52,4.88s0,0,0,0c0-1.47,0-2.95,0-4.42,0-.47-.06-.93-.27-1.36-.57-1.15-1.5-1.76-2.79-1.76-2.99-.01-5.98,0-8.97,0-.18,0-.35.02-.53.04-1.37.19-2.51,1.43-2.52,2.82-.02,3.08,0,6.17,0,9.25,0,.42.08.82.27,1.2.58,1.17,1.53,1.77,2.84,1.77,2.95,0,5.91,0,8.86,0,.2,0,.4-.02.6-.04,1.35-.18,2.49-1.44,2.51-2.8.02-1.57,0-3.14,0-4.71Z"/>
      <path class="cls-1" d="m13.59,9.08c-.02,2.51-2.08,4.54-4.56,4.51-2.51-.03-4.52-2.07-4.5-4.55.02-2.51,2.08-4.54,4.56-4.51,2.51.03,4.52,2.07,4.5,4.55Zm-4.53-3.04c-1.67,0-3.01,1.34-3.02,3.01,0,1.66,1.33,3.01,3,3.02,1.67.01,3.03-1.34,3.03-3.02,0-1.67-1.34-3.01-3.01-3.01Z"/>
      <path class="cls-1" d="m13.97,5.28c-.63,0-1.14-.5-1.14-1.13,0-.62.5-1.12,1.12-1.13.61,0,1.14.51,1.14,1.13,0,.62-.5,1.12-1.12,1.13Z"/>
    </g>
  </g>
</svg>