<?xml version="1.0" encoding="UTF-8"?>
<svg id="Camada_2" data-name="Camada 2" xmlns="http://www.w3.org/2000/svg" viewBox="0 0 626.69 95.01">
  <defs>
    <style>
      .cls-1 {
        fill: #ecce2d;
      }
    </style>
  </defs>
  <g id="ELEMENTOS">
    <g>
      <path class="cls-1" d="m.02,36.58c-.17-1.48.66-2.89,2.23-4.04,6.68-4.13,15.35-7.34,25.99-9.82,10.56-2.39,19.89-4.12,27.81-5.03,5.12-.58,10.23-1.16,15.43-1.57.99-.16,1.98-.25,2.97-.33.41,0,.74-.08.99-.25.25-.17.41-.41.66-.66l.33-.5c2.56-3.63,6.44-9.24,11.64-13.45,1.32-.91,2.56-1.15,3.71-.74,1.15.41,1.81,1.16,2.06,2.15.33.99-.17,1.82-1.4,2.56-2.31,1.24-5.61,5.61-7.18,7.67-.66.83-1.16,1.49-1.65,1.98-.08.17-.17.25-.17.41-.08.08-.17.16-.25.33h1.98c5.61-.08,11.72.08,18.24.58s11.88,1.98,16.01,4.37c3.14,2.06,4.37,4.37,3.88,6.85-.49,2.56-1.9,4.95-4.29,7.18-2.47,2.31-4.95,4.21-7.59,5.78-7.67,4.62-16.17,8.75-25.5,12.21-9.32,3.55-18.65,5.86-27.97,7.01-.82,0-1.32.41-1.57.99-4.21,8.66-8.33,17.33-12.54,25.99-.17.41-.25.74-.17,1.07s.25.58.41.83c.25.25.41.58.41.99.08.33-.08.83-.5,1.49l-.25.25c-.74,1.15-1.65,2.23-2.8,3.13-1.07.99-2.39,1.24-3.88.74-1.57-.66-2.23-1.82-1.9-3.38.33-1.57.91-3.13,1.73-4.54l12.79-26.98c-.58,0-1.15,0-1.65-.08-2.47,0-4.87-.33-7.1-.74-2.31-.49-4.13-1.57-5.53-3.22-.91-1.24-.99-2.56-.41-3.88.66-1.4,1.57-2.56,2.8-3.55.99-.74,1.98-1.07,2.97-.91.99.17,1.73.66,2.15,1.4.49.74.41,1.57-.25,2.56-.83,1.32-.66,2.15.5,2.56,1.24.5,2.81.66,4.7.58,1.9,0,3.46-.17,4.7-.25,5.61-11.06,11.96-22.03,18.98-32.93-9.08.66-19.23,1.98-30.45,4.04-11.3,2.06-21.21,4.79-29.71,8.25-.33.08-.66.25-.99.41-.82.25-1.57.58-2.23.99-.58.41-.83.91-.83,1.57.08,1.07-.33,1.9-1.16,2.48s-1.9.83-3.14.58c-1.9-.58-2.97-1.57-3.05-3.14Zm83.84,10.73c8.42-3.3,15.76-6.68,21.95-10.32,7.26-4.29,10.81-7.51,10.73-9.82-.08-2.31-2.31-3.96-6.68-4.87s-9.41-1.49-14.94-1.57c-5.61-.16-10.31-.16-14.03,0-1.24,0-2.06.41-2.64,1.32-1.32,2.06-3.3,5.2-5.94,9.49-2.64,4.37-5.12,8.58-7.59,12.87-2.39,4.21-3.96,7.26-4.7,9.16,7.43-.91,15.43-3.05,23.85-6.27Z"/>
      <path class="cls-1" d="m102.27,75.53c-1.16,0-2.23-.49-2.97-1.32-.83-.91-.99-2.14-.5-3.71,1.4-3.88,3.05-7.84,4.87-11.8,1.82-4.04,4.37-8.91,7.67-14.61.83-1.4,1.65-2.23,2.48-2.48.74-.25,1.4-.08,2.06.33.74.58,1.16,1.24,1.32,2.23.17.91-.33,1.9-1.49,2.97-.58.58-1.32,1.82-2.39,3.63-.99,1.9-1.98,3.71-2.89,5.53s-1.4,2.97-1.49,3.47c.66-.83,1.32-1.73,2.06-2.72,1.57-2.06,3.22-4.12,4.87-6.27,1.73-2.06,3.22-3.71,4.62-4.95,1.24-.99,2.48-1.24,3.71-.82,1.24.41,1.98,1.32,2.23,2.72.08.83.08,1.73,0,2.72-.08.74-.17,1.4-.08,2.06,0,.58.16,1.07.49,1.32.83.58,2.31.5,4.29-.17,2.06-.58,4.04-1.49,5.94-2.64.74-.41,1.32-.33,1.73.25.5.66.66,1.4.5,2.31-.17.91-.83,1.73-1.98,2.39-3.05,1.57-6.11,2.64-8.99,3.14-2.97.58-4.95.5-6.02-.33-.66-.66-.99-1.4-1.07-2.31-.08-.99-.08-1.82.08-2.56v-1.16c-.08-.16-.25-.16-.5,0-2.23,2.15-4.95,5.36-8.09,9.82-3.14,4.37-5.69,8.17-7.51,11.3-.74,1.07-1.73,1.65-2.97,1.65Z"/>
      <path class="cls-1" d="m146.49,59.61c-1.49,3.63-3.47,6.93-5.86,9.98-2.39,3.05-4.54,5.03-6.52,6.11-3.3,1.57-5.78,1.4-7.34-.5-1.57-1.81-1.9-4.62-.83-8.33,1.73-5.53,4.46-10.48,8.25-14.85.83-.99,1.82-1.9,2.89-2.56,1.16-.66,2.56-.66,4.21-.08-.5-1.07-.66-2.06-.5-2.89.17-.82.83-1.4,1.98-1.48,3.71-.58,7.76-1.65,12.21-3.3,2.23-.74,4.21-1.4,5.94-1.9,1.82-.5,3.22-.74,4.13-.66,2.31.41,3.79,1.4,4.54,3.14.74,1.65.83,3.38.33,5.12-1.32,4.29-2.97,8.33-4.95,12.21l-.5.91c1.82-2.39,4.29-5.53,7.34-9.41,3.14-3.79,5.69-6.6,7.76-8.33.82-.58,1.73-.83,2.56-.58.83.25,1.57.66,2.06,1.32.49.66.74,1.24.58,1.9-.5,1.65-1.4,4.21-2.64,7.51-1.16,2.8-2.06,5.28-2.72,7.43-.41,1.24-.66,2.06-.66,2.39s.17.33.5,0,.74-.83,1.24-1.49l.74-.91c.99-1.24,1.98-2.56,3.05-3.96,1.73-2.31,3.47-4.54,5.12-6.52.91-.91,1.82-1.4,2.72-1.4.99,0,1.81.33,2.39.99.66.58.91,1.32.83,2.23-.58,4.62.17,7.51,2.23,8.58,2.15,1.16,4.79,1.24,7.92.5,3.14-.83,5.94-1.82,8.5-2.81.66-.33,1.32-.58,1.82-.74.91-.33,1.65-.17,2.23.33.5.49.74,1.07.83,1.81,0,.74-.41,1.32-1.07,1.73-4.21,2.23-8.33,3.8-12.54,4.62s-7.84.58-10.81-.74c-1.24-.66-2.31-1.65-3.14-2.97-.82-1.32-1.32-2.72-1.57-4.29-.66.74-1.49,1.82-2.56,3.14-1.73,2.47-3.8,4.87-6.02,7.1-2.23,2.31-4.37,3.14-6.44,2.56-1.73-.83-2.48-2.23-2.39-4.29.16-2.06.58-4.04,1.32-6.11.41-1.4.91-2.64,1.32-3.88.41-.91.66-1.57.82-2.15.17-.49.17-.66-.08-.49-1.24,1.32-2.81,3.22-4.79,5.86s-3.96,5.36-5.86,8.09l-4.46,6.35c-.82,1.07-1.81,1.57-3.05,1.49-1.24-.08-2.23-.58-2.97-1.57-.83-.99-.91-2.23-.33-3.8l2.06-4.7c3.22-6.85,5.53-13.04,7.18-18.48.33-1.24.17-1.9-.5-1.9-.58,0-1.82.33-3.71,1.07l-2.56.82c-1.65.58-3.3,1.16-4.87,1.82-1.24.41-2.48.91-3.63,1.32.41,2.8-.17,6.02-1.73,9.65Zm-10.07,4.62c2.15-2.89,3.88-6.02,5.12-9.49-1.07-.08-2.23.83-3.63,2.72-1.32,1.9-2.56,3.96-3.71,6.19-1.81,3.71-2.39,5.45-1.73,5.12.74-.33,2.06-1.82,3.96-4.54Z"/>
      <path class="cls-1" d="m230.83,88.65c-1.07.17-2.06,0-2.89-.5-.91-.41-1.32-1.16-1.07-2.23,3.14-10.65,7.59-21.87,13.37-33.67-2.48,2.31-4.62,3.79-6.52,4.37-1.81.66-3.38.74-4.62.41-1.24-.33-2.14-.91-2.8-1.57-3.22,6.27-6.19,10.32-8.83,12.05-2.72,1.82-4.87,2.23-6.52,1.24-1.57-.99-2.39-2.39-2.39-4.29.25-3.38,1.57-6.68,3.96-9.99,2.39-3.22,4.79-5.86,7.26-7.84.83-.58,1.49-.99,1.9-1.07.49-.08.99-.17,1.4-.08.5.08,1.07,0,1.73-.16.99-.17,1.82-.08,2.64.41.74.5,1.24,1.32,1.49,2.31.66,3.22,2.8,4.21,6.44,2.89,3.55-1.32,8.09-6.44,13.45-15.27,1.07-1.98,2.15-3.96,3.22-5.86-14.19,1.15-25.83,2.56-34.91,4.29-1.32.16-2.23-.08-2.81-.83-.58-.74-.74-1.57-.5-2.56.25-.91.99-1.57,2.15-1.98,11.22-1.98,24.26-3.47,39.2-4.54,4.04-6.85,7.1-11.72,9.16-14.77.5-.66,1.24-.83,2.15-.58.99.25,1.73.74,2.31,1.49.58.74.66,1.48.17,2.39-2.06,3.14-4.37,6.85-6.93,11.06,4.21-.25,8-.41,11.39-.5,1.9,0,2.97.41,3.38,1.32.41.83.33,1.73-.25,2.64s-1.49,1.4-2.64,1.49c-5.03.08-10.15.33-15.18.66-5.28,9.08-10.4,18.81-15.27,29.21-4.87,10.4-8.42,19.97-10.65,28.8-.33.66-.91,1.16-1.98,1.24Zm-15.1-26.9c.58-.83,1.32-1.82,2.06-2.97.74-1.24,1.4-2.23,1.98-3.22.5-.99.74-1.57.66-1.82-.41.25-.99.83-1.65,1.73-.66.83-1.4,1.82-2.06,2.89-.74,1.07-1.24,2.06-1.65,2.97-.41.83-.58,1.4-.41,1.65.08,0,.41-.41,1.07-1.24Z"/>
      <path class="cls-1" d="m245.93,66.62c.25-2.56,1.24-4.87,2.81-7.18,3.63-5.36,8.17-10.07,13.45-13.95,4.7-3.22,8.17-4.29,10.4-3.46,2.23.91,2.81,2.64,1.82,5.2-1.32,2.48-3.3,4.46-6.02,6.02-2.72,1.65-5.36,2.97-8.09,4.04-1.24.5-2.39,1.07-3.47,1.49-.66.41-1.4.99-2.06,1.73-.74.82-1.4,1.65-1.9,2.56-.58.83-.82,1.57-.91,2.23-.08.58.25.83.99.83,4.21-.58,10.23-2.72,18.24-6.44,7.92-3.71,14.36-7.26,19.23-10.73,1.16-.58,2.15-.58,2.97-.08.83.41,1.24,1.24,1.24,2.23-.08,1.07-.91,2.15-2.48,3.3-2.89,1.98-7.18,4.37-12.79,7.34-5.53,2.89-11.14,5.36-16.83,7.51-5.61,2.06-9.99,2.81-13.12,2.31-2.64-.82-3.8-2.47-3.47-4.95Z"/>
      <path class="cls-1" d="m284.71,75.53c-1.15,0-2.23-.49-2.97-1.32-.82-.91-.99-2.14-.49-3.71,1.4-3.88,3.05-7.84,4.87-11.8,1.82-4.04,4.37-8.91,7.67-14.61.82-1.4,1.65-2.23,2.47-2.48.74-.25,1.4-.08,2.06.33.74.58,1.16,1.24,1.32,2.23.17.91-.33,1.9-1.49,2.97-.58.58-1.32,1.82-2.39,3.63-.99,1.9-1.98,3.71-2.89,5.53s-1.4,2.97-1.49,3.47c.66-.83,1.32-1.73,2.06-2.72,1.57-2.06,3.22-4.12,4.87-6.27,1.73-2.06,3.22-3.71,4.62-4.95,1.24-.99,2.48-1.24,3.71-.82,1.24.41,1.98,1.32,2.23,2.72.08.83.08,1.73,0,2.72-.08.74-.17,1.4-.08,2.06,0,.58.17,1.07.5,1.32.82.58,2.31.5,4.29-.17,2.06-.58,4.04-1.49,5.94-2.64.74-.41,1.32-.33,1.73.25.5.66.66,1.4.5,2.31-.17.91-.83,1.73-1.98,2.39-3.05,1.57-6.11,2.64-9,3.14-2.97.58-4.95.5-6.02-.33-.66-.66-.99-1.4-1.07-2.31-.08-.99-.08-1.82.08-2.56v-1.16c-.08-.16-.25-.16-.5,0-2.23,2.15-4.95,5.36-8.09,9.82-3.14,4.37-5.69,8.17-7.51,11.3-.74,1.07-1.73,1.65-2.97,1.65Z"/>
      <path class="cls-1" d="m321.68,61.59c-1.9-1.73-3.22-3.55-4.13-5.45-.91-1.98-.33-4.29,1.65-7.1,3.96-4.79,7.51-7.76,10.73-8.75s4.87-.33,4.87,2.23c-.08.83-.33,1.49-.74,1.82s-.99.66-1.73.91c-.99.25-2.14.83-3.55,1.73-1.4.91-3.05,2.56-5.03,4.95-.66.82-.82,1.48-.66,2.06.25.5.83,1.16,1.82,2.06l1.48,1.4c2.72-1.73,6.44-3.38,11.06-4.95,4.54-1.57,8.99-2.39,13.2-2.48.91.17,1.48.58,1.73,1.32.33.74.25,1.49,0,2.23-.33.66-.91,1.07-1.82,1.24-3.22,0-6.68.66-10.65,1.9-3.88,1.24-7.59,3.05-11.14,5.45.5,1.9-.33,4.54-2.48,8s-4.79,6.27-8,8.5c-2.56,1.48-4.62,1.9-6.27,1.07-1.57-.83-1.98-2.64-1.32-5.36,1.48-3.88,5.12-8.17,10.97-12.79Z"/>
      <path class="cls-1" d="m368.22,54.57c-2.56-6.35-1.4-13.7,3.55-21.95,5.03-8.25,13.37-15.68,25.09-22.36,4.12-2.31,8.66-4.04,13.7-5.2,5.03-1.24,9.66-.99,13.86.66,5.36,2.8,7.67,7.51,6.85,14.11-.74,6.6-2.81,13.45-6.19,20.55-3.3,7.01-6.19,12.54-8.66,16.67l-.25.33h.41c.17,0,.33,0,.41-.08,3.79-.83,8.25-2.15,13.45-3.8,1.49-.41,2.89-.91,4.21-1.49,1.82-.66,2.97-.25,3.3,1.4.41,1.65-.25,2.72-1.98,3.22-1.65.58-3.38,1.16-5.2,1.73-5.94,1.82-11.47,3.3-16.34,4.29-1.16.25-1.9.74-2.31,1.49-4.95,8.5-11.06,16.67-18.4,24.51-2.23,2.15-4.54,3.38-6.93,3.63-2.31.17-3.96-.83-4.79-3.05-.91-2.23-.41-5.94,1.98-10.98l5.86-12.54c-.08-.08-.25-.08-.41-.08-.25-.08-.49-.08-.74-.16-11.06-.91-17.82-4.62-20.46-10.89Zm8.58.74c3.55,3.71,8.83,5.53,15.84,5.53,3.14-5.03,6.68-10.4,10.81-16.09,4.12-5.61,8.42-10.73,12.96-15.35,1.16-1.07,2.23-1.65,3.14-1.65.99-.08,1.73.08,2.31.33.41.08.66.17.91.17.74-1.82,1.24-4.29,1.57-7.18.33-2.97,0-5.69-1.07-8.09-1.07-2.39-3.38-3.71-6.77-3.88-7.01.25-14.36,3.05-22.12,8.42-7.67,5.36-13.62,11.64-17.66,18.81-4.04,7.1-3.96,13.45.08,18.98Zm16.01,26.08c4.37-5.45,8.33-11.06,11.97-16.83l-1.73.25c-1.82.16-3.55.33-5.2.49-.41.08-.66.17-.83.33l-.41.5v.08c-2.81,4.87-5.03,9.74-6.77,14.69-1.07,3.22-1.32,4.7-.91,4.62.41-.08,1.73-1.4,3.88-4.13Zm12.71-21.7c.83-.16,1.65-.25,2.56-.41,5.2-8.5,9.49-17.08,12.87-25.83-.5.33-1.24,1.15-2.15,2.39-.91,1.32-1.81,2.64-2.64,3.96l-1.73,2.97c-.66,1.24-1.24,1.98-1.82,2.31-.5.33-1.07.5-1.49.5-.33.08-.66.17-.99.33-.33.08-.66.41-.91.83l-1.98,2.89c-1.4,1.98-2.8,4.04-4.21,6.19-1.49,2.15-2.48,3.63-2.97,4.62l5.45-.74Z"/>
      <path class="cls-1" d="m469.23,50.53c.83.5,1.32,1.16,1.49,2.06.17.99-.25,1.81-1.24,2.64-4.46,3.22-9.66,5.28-15.43,6.27-5.86.99-10.31.58-13.37-1.24-.17.58-.33,1.16-.41,1.73-.91,4.37-2.31,9.41-4.12,15.1-1.9,5.69-4.46,9.9-7.76,12.62-1.4.91-2.64,1.24-3.79.91-1.16-.33-1.98-1.16-2.39-2.56-.5-2.72,0-6.35,1.57-10.81,1.57-4.54,3.38-9,5.61-13.37,2.23-4.37,4.04-7.84,5.45-10.31.33-.66.58-1.32.66-1.9.16-.41.25-.91.49-1.24.17-.41.5-.74.91-1.07.91-.83,2.64-3.22,5.12-7.26,2.06-3.47,4.46-6.93,6.93-10.48,2.56-3.55,4.95-6.11,7.18-7.76.91-.58,1.82-.83,2.56-.58.74.17,1.32.66,1.73,1.24.33.66.41,1.24.25,1.9-.41,1.32-1.07,2.81-1.98,4.54-.91,1.73-1.9,3.14-2.97,4.29-.99,1.16-1.98,1.49-2.89,1.07-1.73,2.06-2.97,3.71-3.88,4.87-.91,1.24-1.73,2.31-2.39,3.47-.74,1.07-1.57,2.47-2.72,4.29-.41.74-.91,1.48-1.4,2.39-.33.58-.33,1.32.08,2.15.5.74,1.24,1.4,2.39,1.98,2.81,1.07,6.6,1.07,11.22,0,4.54-1.07,8.09-2.56,10.56-4.54.91-.74,1.73-.83,2.56-.41Zm-41.34,32.43c.58-.66,1.4-2.15,2.31-4.37.99-2.23,1.81-4.62,2.64-7.1.74-2.48,1.24-4.37,1.32-5.69-.91,1.48-1.73,3.3-2.64,5.28-.91,2.06-1.65,4.04-2.31,6.02-.74,1.9-1.24,3.38-1.49,4.54-.25,1.15-.25,1.57.17,1.32Z"/>
      <path class="cls-1" d="m470.3,46.07c1.07.25,1.9.83,2.56,1.65.66.91.66,1.82,0,2.89-1.82,2.31-3.47,4.7-5.03,7.18-1.57,2.39-2.56,4.46-2.81,6.11-.33,1.65.5,2.39,2.48,2.23,2.97-.41,6.35-1.65,9.99-3.71s6.93-4.21,9.98-6.44,5.12-3.88,6.27-4.79c.33-.25.5-.41.58-.5.66-.41,1.32-.58,1.9-.33.66.25.99.66,1.16,1.32s-.17,1.32-.91,2.15c-1.32,1.24-3.71,3.3-7.34,6.19-3.63,2.89-7.59,5.53-11.96,8-4.37,2.48-8.25,3.71-11.72,3.8-3.46.08-5.61-2.06-6.52-6.44-.08-3.14.99-6.6,3.22-10.32,2.23-3.71,4.04-6.52,5.53-8.33.66-.74,1.49-.91,2.64-.66Zm4.13-8.99c.83-1.57,1.82-2.81,2.81-3.55.5-.33,1.32-.58,2.39-.58,1.07-.08,2.06.08,2.89.41.91.33,1.24.91.99,1.82-.41.99-1.32,2.31-2.72,3.8-1.49,1.57-2.97,2.89-4.54,3.96-1.57,1.16-2.72,1.57-3.47,1.4-.5-.25-.58-1.16-.25-2.64.41-1.4.99-2.97,1.9-4.62Z"/>
      <path class="cls-1" d="m527.82,50.28c.74.49.99,1.24.91,2.23,0,.99-.74,1.9-1.98,2.72-4.87,3.13-11.22,6.27-18.98,9.49-7.84,3.14-14.52,4.7-20.05,4.46-3.22-.5-4.95-1.98-5.28-4.37-.25-2.48.66-5.12,2.72-7.92,4.46-5.86,10.07-10.07,17-12.63,1.57-.41,2.72-.17,3.47.66.74.91.99,1.9.74,3.22-.16,1.24-.91,2.23-1.98,3.05-.74.41-1.24.58-1.65.58-.41-.08-.74-.16-.99-.41-.25-.17-.49-.25-.82-.33-.25-.08-.58,0-1.07.25-2.97,1.81-5.61,3.88-7.84,6.27-2.23,2.39-3.22,4.21-2.97,5.28.91,1.24,3.63,1.24,8.33-.17,4.62-1.4,9.49-3.22,14.61-5.61,5.12-2.31,8.91-4.29,11.31-5.86.5-.41,1.07-.74,1.65-.99,1.16-.5,2.15-.41,2.89.08Z"/>
      <path class="cls-1" d="m529.05,46.07c1.07.25,1.9.83,2.56,1.65.66.91.66,1.82,0,2.89-1.82,2.31-3.47,4.7-5.03,7.18-1.57,2.39-2.56,4.46-2.81,6.11-.33,1.65.5,2.39,2.48,2.23,2.97-.41,6.35-1.65,9.99-3.71s6.93-4.21,9.98-6.44,5.12-3.88,6.27-4.79c.33-.25.5-.41.58-.5.66-.41,1.32-.58,1.9-.33.66.25.99.66,1.16,1.32s-.17,1.32-.91,2.15c-1.32,1.24-3.71,3.3-7.34,6.19-3.63,2.89-7.59,5.53-11.96,8-4.37,2.48-8.25,3.71-11.72,3.8-3.46.08-5.61-2.06-6.52-6.44-.08-3.14.99-6.6,3.22-10.32,2.23-3.71,4.04-6.52,5.53-8.33.66-.74,1.49-.91,2.64-.66Zm4.13-8.99c.83-1.57,1.82-2.81,2.81-3.55.5-.33,1.32-.58,2.39-.58,1.07-.08,2.06.08,2.89.41.91.33,1.24.91.99,1.82-.41.99-1.32,2.31-2.72,3.8-1.49,1.57-2.97,2.89-4.54,3.96-1.57,1.16-2.72,1.57-3.47,1.4-.5-.25-.58-1.16-.25-2.64.41-1.4.99-2.97,1.9-4.62Z"/>
      <path class="cls-1" d="m556.94,67.45c-.17-2.06.17-4.29,1.07-6.77.83-2.39,1.82-4.54,2.89-6.27-.33.33-.83.83-1.4,1.57-1.49,1.65-3.47,3.8-5.86,6.27-2.48,2.48-5.03,4.7-7.67,6.68-2.31,1.65-4.13,2.39-5.36,2.31-1.24-.08-2.15-.58-2.72-1.48-1.07-1.24-.99-3.14.17-5.69,1.24-2.39,3.46-5.28,6.52-8.58,3.14-3.38,6.44-6.19,9.82-8.42,3.38-2.23,6.19-2.97,8.33-2.06.33.16.66.16.99,0l.99-.66c.41-.41.91-.74,1.57-.99.58-.08,1.32.08,2.15.58.74.5,1.4,1.16,1.9,1.98.5.74.58,1.49.25,2.23-.33.58-.74,1.4-1.4,2.48-1.07,1.81-2.15,3.88-3.3,6.11-1.16,2.31-1.9,4.29-2.31,6.11-.33,1.73.08,2.72,1.4,2.97,1.73.08,4.21-.66,7.26-2.31,3.14-1.65,6.27-3.63,9.49-6.02,3.22-2.31,5.78-4.54,7.76-6.6.83-.83,1.65-1.07,2.48-.91.74.16,1.24.66,1.4,1.57.08.83-.41,1.9-1.57,3.14-4.13,4.29-9.41,8.25-15.68,12.05s-11.39,5.36-15.35,4.87c-2.31-.74-3.55-2.06-3.8-4.12Z"/>
      <path class="cls-1" d="m586.24,56.14c1.57-2.72,2.89-5.03,4.04-6.85l.33-.58c.58-.83,1.4-1.16,2.48-.91,1.07.17,1.98.66,2.64,1.49.74.74.83,1.57.33,2.47-2.06,3.22-3.8,6.11-5.2,8.83-1.4,2.64-1.9,4.21-1.32,4.7,1.24.5,3.3-.16,6.27-1.98,2.97-1.9,5.94-3.96,8.91-6.35l6.44-5.2c.25-.25.41-.41.58-.49.33-1.16.91-2.48,1.82-3.8.91-1.4,1.9-2.56,2.97-3.38,2.97-2.31,5.53-3.3,7.59-2.97s2.89,1.4,2.48,3.22c-.41.99-1.4,2.23-2.81,3.63-1.49,1.4-2.89,2.56-4.13,3.63-.99.74-1.49,1.24-1.65,1.4-.08,3.14-.17,6.27-.5,9.49-.25,3.22-.74,6.02-1.4,8.33-.91,2.23-2.39,3.8-4.62,4.7-2.14.83-4.04.83-5.69.08-1.57-.99-2.89-2.23-4.04-3.8-1.07-1.57-1.98-2.97-2.56-4.21h-.08s-.08,0-.08.08h-.08c-.99.74-2.23,1.32-3.71,1.98-1.57.58-3.05.99-4.54,1.24-2.39.17-4.29-.49-5.61-1.98-1.4-1.57-1.9-3.55-1.65-6.02.33-1.73,1.32-3.96,2.81-6.77Zm12.38-10.23c-1.24.66-2.31.74-3.38.25-.99-.41-1.49-1.4-1.32-2.97.25-1.65,1.07-2.72,2.23-3.3,1.24-.58,2.31-.66,3.38-.16,1.07.41,1.49,1.4,1.32,2.89-.33,1.57-1.07,2.72-2.23,3.3Zm8.5,22.78c.83,1.32,1.57,1.98,2.06,1.9.66-.33,1.16-1.24,1.49-2.64.33-1.48.58-3.13.74-4.95.17-1.81.25-3.38.25-4.7-2.31,1.98-4.54,3.71-6.68,5.45-.08,0-.17.08-.25.17.74,1.9,1.48,3.47,2.39,4.79Z"/>
    </g>
  </g>
</svg>