<?xml version="1.0" encoding="UTF-8"?>
<svg id="Camada_2" data-name="Camada 2" xmlns="http://www.w3.org/2000/svg" viewBox="0 0 19.3 19.39">
  <defs>
    <style>
      .cls-1 {
        fill: #fff;
      }
    </style>
  </defs>
  <g id="ELEMENTOS">
    <g>
      <path class="cls-1" d="m0,19.39c.27-1,.53-1.95.8-2.91.17-.63.35-1.26.51-1.89.03-.1.02-.23-.03-.32C-1.21,9.72.28,4.1,4.71,1.4,6.61.24,8.69-.2,10.91.08c3.96.51,7.19,3.39,8.12,7.24,1.27,5.25-1.99,10.51-7.26,11.68-2.27.5-4.44.2-6.51-.85-.1-.05-.23-.06-.34-.04-1.56.4-3.12.81-4.68,1.22-.06.02-.13.03-.23.06Zm2.31-2.29c.06-.01.09-.01.11-.02.88-.23,1.77-.46,2.65-.7.18-.05.32-.03.49.07,1.77,1.06,3.69,1.41,5.71.99,4.27-.88,7.02-4.92,6.29-9.21-.62-3.65-3.77-6.44-7.46-6.6-2.04-.09-3.87.5-5.45,1.8-1.8,1.48-2.79,3.41-2.93,5.74-.11,1.72.33,3.31,1.25,4.76.11.17.13.31.07.5-.25.88-.49,1.76-.74,2.67Z"/>
      <path class="cls-1" d="m6.57,5.19c.43-.11.62.16.77.54.21.56.45,1.11.69,1.66.08.19.08.35-.04.51-.19.26-.38.52-.58.77-.13.16-.15.3-.04.48.78,1.33,1.88,2.28,3.32,2.85.19.07.34.05.47-.11.24-.3.5-.6.73-.91.14-.18.29-.24.49-.15.68.32,1.36.64,2.03.98.08.04.15.19.15.29-.02,1.02-.32,1.51-1.41,1.97-.62.26-1.26.2-1.9.02-2.31-.64-4.01-2.1-5.37-4.01-.43-.6-.82-1.22-.98-1.95-.23-1.04.03-1.94.79-2.69.24-.24.54-.29.89-.25Z"/>
    </g>
  </g>
</svg>