<?xml version="1.0" encoding="UTF-8"?>
<svg id="Camada_1" data-name="Camada 1" xmlns="http://www.w3.org/2000/svg" viewBox="0 0 800 800">
  <defs>
    <style>
      .cls-1 {
        fill: #fff;
      }
    </style>
  </defs>
  <path class="cls-1" d="m713.69,307h-172.73c14.37,25.08,28.3,49.38,42.98,74.99,4.39-7.64,15.3-28.42,19.02-34.78,1.88-4.02,3.61-2.93,45.63-2.66-21.52,37.25-42.64,73.8-64.16,111.03-1.25-1.65-2.34-2.81-3.11-4.15-26.9-46.69-53.74-93.42-80.71-140.07-1.97-3.41-1.92-6.01.12-9.36,5.37-8.8,10.58-17.71,15.41-26.82,2.22-4.2,4.95-5.51,9.63-5.49,68.56.19,135.61.18,205.14.31,2.35.04,5.56,1.95,6.82,3.96,5.93,9.44,11.16,19.32,16.98,28.83,1.85,3.03,1.65,5.14-.09,8.07-68.44,118.12-69.01,119.06-127.4,219.42-7.27-12.56-14.13-24.39-21.63-37.35,34.64-59.19,74.1-124.08,108.11-185.94"/>
  <path class="cls-1" d="m474.79,375.08c.39-1.92.58-3.53.58-4.79,0-4.06-1.21-7.32-3.64-9.8-2.4-2.45-5.82-3.69-10.27-3.69-3.53,0-6.82.79-9.88,2.37-3.08,1.61-5.69,3.79-7.82,6.59-2.13,2.82-3.58,5.9-4.29,9.32l-10.85,51.02c-.21,1.16-1.03,2.19-2.42,3.13-1.4.92-2.71,1.4-3.92,1.4h-21.15c-2.08,0-3.13-.84-3.13-2.56,0-.5.03-.87.08-1.16l19.86-93.41c.61-2.48,2.13-3.71,4.61-3.71h14.65c1.26,0,2.32.45,3.21,1.32.87.87,1.37,1.95,1.48,3.21l.34,9.06c5.08-5.16,10.33-8.93,15.7-11.25,5.4-2.34,11.06-3.5,17.04-3.5,4.5,0,9.17,1.03,13.96,3.08,4.79,2.05,8.9,5.45,12.3,10.17,3.4,4.72,5.11,10.85,5.11,18.36,0,3.64-.45,7.53-1.32,11.7l-11.7,55.05c-.5,2.42-1.95,3.64-4.37,3.64h-22.13c-2.08,0-3.13-.84-3.13-2.56,0-.45.03-.79.08-1.08l11.04-51.92Zm-113.57-22.31c-4.35,0-8.51,1.34-12.49,4.06-3.98,2.74-7.32,6.22-10.09,10.51h39.93c-.45-4.61-2.27-8.19-5.51-10.75-3.24-2.55-7.19-3.82-11.85-3.82Zm14.88,45.94c.71-.5,1.45-.76,2.24-.76.92,0,1.61.4,2.05,1.16l8.4,14.07c.47.84.74,1.61.74,2.32,0,1.05-.68,2.05-2.08,3.06-7.35,5.43-14.07,9.06-20.2,10.93-6.11,1.87-12.64,2.82-19.62,2.82-8.01,0-15.3-1.87-21.89-5.61-6.59-3.74-11.77-8.85-15.57-15.36-3.79-6.51-5.69-13.75-5.69-21.76,0-3.08.29-6.08.84-8.98,1.82-10.22,5.56-19.23,11.22-27.05,5.69-7.8,12.78-13.88,21.28-18.18,8.51-4.32,17.73-6.48,27.66-6.48,6.03,0,11.93,1.48,17.7,4.43,5.77,2.92,10.51,7.45,14.28,13.57,3.77,6.14,5.64,13.7,5.64,22.68,0,3.4-.26,6.88-.82,10.38-.45,2.84-1.19,4.98-2.21,6.37-1.05,1.4-2.48,2.34-4.24,2.84-1.79.5-4.24.74-7.38.74h-56.13c.21,3.58,1.13,6.69,2.79,9.38,1.63,2.69,3.85,4.79,6.64,6.27,2.77,1.48,5.9,2.21,9.4,2.21,3.9,0,7.22-.32,9.96-.97,2.77-.66,4.98-1.48,6.69-2.42,1.69-.97,3.56-2.21,5.58-3.77,1.21-.87,2.11-1.5,2.71-1.87Zm-110.04,28.48c-.82,1.21-1.66,2.08-2.5,2.63-.87.55-1.84.82-2.92.82h-12.04c-2.29,0-3.66-1.16-4.11-3.45l-17.36-91.3c-.11-.76-.16-1.29-.16-1.55,0-1.42.42-2.56,1.26-3.34.84-.79,2-1.19,3.42-1.19h21.81c2.24,0,3.53,1.24,3.87,3.71l6.74,51.37,28.55-51.63c1.21-2.29,3.03-3.45,5.45-3.45h24.84c1.55,0,2.32.53,2.32,1.55,0,.95-.53,2.21-1.58,3.79l-57.61,92.04Zm-80.49-74.41c-4.35,0-8.51,1.34-12.49,4.06-3.98,2.74-7.32,6.22-10.09,10.51h39.93c-.45-4.61-2.27-8.19-5.51-10.75-3.24-2.55-7.19-3.82-11.85-3.82Zm14.88,45.94c.71-.5,1.45-.76,2.24-.76.92,0,1.61.4,2.05,1.16l8.4,14.07c.47.84.74,1.61.74,2.32,0,1.05-.68,2.05-2.08,3.06-7.35,5.43-14.07,9.06-20.2,10.93-6.11,1.87-12.64,2.82-19.62,2.82-8.01,0-15.3-1.87-21.89-5.61-6.59-3.74-11.77-8.85-15.57-15.36-3.79-6.51-5.69-13.75-5.69-21.76,0-3.08.29-6.08.84-8.98,1.82-10.22,5.56-19.23,11.22-27.05,5.69-7.8,12.78-13.88,21.28-18.18,8.51-4.32,17.73-6.48,27.66-6.48,6.03,0,11.93,1.48,17.7,4.43,5.77,2.92,10.51,7.45,14.28,13.57,3.77,6.14,5.64,13.7,5.64,22.68,0,3.4-.26,6.88-.82,10.38-.45,2.84-1.19,4.98-2.21,6.37-1.05,1.4-2.48,2.34-4.24,2.84-1.79.5-4.24.74-7.38.74h-56.13c.21,3.58,1.13,6.69,2.79,9.38,1.63,2.69,3.85,4.79,6.64,6.27,2.77,1.48,5.9,2.21,9.4,2.21,3.9,0,7.22-.32,9.96-.97,2.77-.66,4.98-1.48,6.69-2.42,1.69-.97,3.56-2.21,5.58-3.77,1.21-.87,2.11-1.5,2.71-1.87Zm-155.3,17.28c-.79-1.05-1.16-2.05-1.16-3.06,0-1.42.79-2.82,2.4-4.19l12.83-11.04c.82-.66,1.58-.97,2.29-.97.84,0,1.74.47,2.74,1.48,5.43,5.98,11.25,8.96,17.44,8.96,3.9,0,6.77-.61,8.64-1.84,1.87-1.24,3.06-2.95,3.56-5.14.11-.76.16-1.29.16-1.58,0-1.19-.4-2.27-1.16-3.16-.76-.9-2.11-1.79-4.03-2.63-1.92-.84-4.66-1.82-8.22-2.92-7.24-2.24-12.85-5.61-16.81-10.12-3.95-4.5-5.93-10.04-5.93-16.62,0-2.77.29-5.45.9-8.09,1.16-5.37,3.53-10.09,7.14-14.12,3.58-4.03,8.17-7.14,13.7-9.32,5.53-2.21,11.75-3.29,18.6-3.29,5.51,0,10.3.76,14.46,2.29,4.14,1.53,7.51,3.37,10.12,5.48,2.61,2.11,5.11,4.5,7.53,7.19.76.9,1.16,1.71,1.16,2.48,0,1.11-.87,2.29-2.56,3.56l-13.33,9.88c-1.05.82-1.98,1.21-2.82,1.21-.71,0-1.5-.42-2.37-1.32-1.5-1.48-2.71-2.61-3.66-3.37-.97-.76-2.21-1.42-3.71-2-1.5-.58-3.35-.87-5.48-.87-2.95,0-5.32.47-7.09,1.4-1.74.92-2.79,2.08-3.11,3.45-.11.66-.18,1.11-.18,1.32,0,1,.37,1.82,1.08,2.48.71.66,1.76,1.29,3.16,1.9,1.42.61,3.61,1.42,6.64,2.48,2.48.82,4.79,1.63,7.01,2.45,7.01,2.69,12.06,6.24,15.15,10.67,3.06,4.43,4.61,9.35,4.61,14.78,0,2.48-.32,5.06-.92,7.74-1.53,7.01-4.5,12.88-8.88,17.57-4.4,4.69-9.67,8.14-15.8,10.33-6.16,2.19-12.75,3.29-19.76,3.29s-13.65-1.37-19.68-4.11c-6.03-2.74-10.93-6.95-14.65-12.59Z"/>
  <path class="cls-1" d="m442.47,493.23l7.04-.4c.39,2.03,1.03,3.76,1.94,5.2.89,1.43,2.26,2.6,4.1,3.5,1.86.92,3.89,1.37,6.1,1.37,3.1,0,5.32-.63,6.62-1.88,1.32-1.24,1.81-2.72,1.48-4.41-.23-1.21-.92-2.37-2.06-3.46-1.17-1.09-3.76-2.44-7.76-4.04-4.01-1.59-6.6-2.71-7.76-3.36-1.97-1.07-3.53-2.32-4.7-3.77-1.17-1.44-1.93-3.09-2.29-4.97-.63-3.26.12-6.08,2.26-8.42,2.15-2.33,5.55-3.5,10.22-3.5,5.18,0,9.37,1.2,12.54,3.61,3.18,2.4,5.19,5.57,6.06,9.5l-6.78.48c-.59-2.51-1.85-4.49-3.79-5.96-1.94-1.47-4.42-2.2-7.45-2.2-2.44,0-4.22.56-5.35,1.68-1.13,1.13-1.56,2.35-1.31,3.65.25,1.29,1.06,2.45,2.41,3.44.9.68,3.1,1.72,6.6,3.12,5.83,2.33,9.57,4.17,11.24,5.53,2.65,2.15,4.28,4.77,4.88,7.86.4,2.05.16,4.06-.73,6.04-.87,1.97-2.49,3.54-4.84,4.73-2.36,1.19-5.28,1.77-8.79,1.77-4.77,0-9.06-1.19-12.87-3.56-3.8-2.36-6.15-6.22-7.02-11.55m-45.01-10.23h23.37c-.11-.72-.2-1.24-.26-1.56-.68-3.52-2.1-6.22-4.23-8.1-2.15-1.88-4.61-2.81-7.41-2.81-3.04,0-5.6,1.04-7.69,3.11-2.1,2.08-3.35,5.2-3.79,9.37Zm22.65,10.39l7,.64c-.34,3.41-2,6.64-4.96,9.71-2.97,3.07-6.92,4.6-11.85,4.6-3.08,0-6.04-.71-8.87-2.12-2.85-1.43-5.2-3.48-7.07-6.18-1.87-2.71-3.13-5.78-3.8-9.23-.87-4.52-.67-8.9.6-13.15,1.28-4.25,3.39-7.41,6.32-9.47,2.95-2.07,6.36-3.09,10.25-3.09,4.96,0,9.21,1.53,12.76,4.6,3.55,3.05,5.84,7.24,6.86,12.53.39,2.03.6,4.09.66,6.22h-30.64c.05.81.14,1.53.26,2.19.75,3.89,2.22,6.85,4.41,8.9,2.18,2.04,4.58,3.06,7.16,3.06,2.43,0,4.67-.79,6.72-2.37,2.04-1.57,3.44-3.85,4.17-6.82Zm-74.82-3.33c.56,2.88,1.29,5.16,2.18,6.81.89,1.67,2.13,3.04,3.73,4.14,1.59,1.11,3.34,1.65,5.28,1.65,3.21,0,5.79-1.67,7.75-4.98,2.64-4.4,3.33-9.85,2.08-16.32-.63-3.27-1.98-5.82-4.06-7.68-2.07-1.84-4.42-2.76-7.02-2.76-1.69,0-3.17.37-4.42,1.13-1.24.75-2.38,2.03-3.41,3.82-1.01,1.8-1.73,4.09-2.13,6.86-.41,2.78-.4,5.22,0,7.32Zm21.52,11.39c-3.15,4.6-6.92,6.89-11.3,6.89-3.93,0-7.48-1.45-10.65-4.34-3.17-2.89-5.29-7.1-6.35-12.61-.97-5.04-.82-9.65.43-13.82,1.26-4.17,3.24-7.29,5.95-9.37,2.7-2.08,5.62-3.12,8.74-3.12,5.14,0,9.51,2.48,13.1,7.44l.37-22.31h7.04l-.85,57.25h-6.56l.09-6.01Zm-79.04,6.01l.67-41.5h6.45l-.09,7.25c2.27-2.83,4.49-4.89,6.69-6.18,2.2-1.29,4.57-1.95,7.13-1.95,3.4,0,6.24.92,8.53,2.74,2.29,1.83,3.73,4.26,4.32,7.33.3,1.53.4,3.94.32,7.25l-.77,25.05h-7.02l.75-26.24c.08-2.56,0-4.44-.23-5.66-.27-1.37-.96-2.49-2.1-3.34-1.14-.87-2.62-1.29-4.46-1.29-3.69,0-6.72,1.29-9.11,3.89-2.38,2.6-3.64,7.05-3.76,13.35l-.3,19.3h-7.02Zm-25.62,0l.67-41.5h7.02l-.67,41.5h-7.02Zm.8-49.25l.13-8h7.02l-.13,8h-7.02Zm-35.04,49.25l.62-41.5h6.3l-.15,8.49c1.54-3.18,3.18-5.54,4.94-7.08,1.74-1.53,3.69-2.29,5.82-2.29,1.4,0,3.23.51,5.48,1.52l-1.61,6.56c-1.4-.91-2.83-1.36-4.29-1.36-2.48,0-4.76,1.39-6.83,4.14-2.08,2.76-3.19,7.72-3.31,14.89l-.25,16.63h-6.72Zm-45.1-16.96l.2,1.32c.68,3.52,2.01,6.18,4.02,8.02,1.99,1.83,4.21,2.74,6.66,2.74s4.44-.87,6.12-2.6c1.67-1.72,2.8-4.42,3.38-8.09.58-3.66.57-7.05-.03-10.14-.67-3.48-2.01-6.18-4-8.1-2-1.93-4.21-2.89-6.61-2.89s-4.55.99-6.24,2.95c-1.68,1.97-2.84,4.98-3.43,9.07-.45,3.07-.47,5.64-.07,7.72Zm-7.14,16.96l.93-57.25h7.02l-.38,20.47c1.78-2.05,3.47-3.49,5.08-4.33,1.61-.84,3.37-1.27,5.3-1.27,3.76,0,7.18,1.44,10.26,4.33,3.07,2.88,5.14,7.08,6.2,12.58.71,3.66.85,7.02.42,10.06-.43,3.04-1.2,5.58-2.29,7.65-1.09,2.07-2.32,3.72-3.68,4.96-1.36,1.23-2.82,2.15-4.38,2.76-1.55.61-3.1.92-4.65.92-2.67,0-5.15-.71-7.46-2.13-2.3-1.43-4.31-3.61-6.01-6.53l-.16,7.78h-6.21Z"/>
</svg>