<?xml version="1.0" encoding="UTF-8"?>
<svg id="Camada_1" data-name="Camada 1" xmlns="http://www.w3.org/2000/svg" viewBox="0 0 800 800">
  <defs>
    <style>
      .cls-1 {
        fill: #fff;
      }
    </style>
  </defs>
  <path class="cls-1" d="m252.99,343.91l35.18.14c.64,0,1.23.37,1.49.96l21.23,46.17c.6,1.3,1.61,1.95,3.04,1.95l175.4-.08c1.24,0,2.36-.72,2.89-1.85l21.37-46.25c.31-.68.83-1.01,1.57-1.01l34.25.06c2.33,0,3.51-1.16,3.52-3.48v-2.03c.01-2.24-1.1-3.36-3.34-3.36l-32.02-.08c-.64,0-1.23-.35-1.55-.92-17.39-30.96-44.2-51.48-80.45-53.25-4.92-.26-10.05.46-14.9.99-6.29.7-12.52-3.82-18.29-5.67-27.5-8.84-50.37-3.46-68.59,16.14-.64.69-1.41,1.13-2.33,1.31-24.5,5.11-43.24,16.89-52.58,40.1-.34.86-.98,1.29-1.91,1.29l-23.56.1c-1.96.01-2.97,1-3.02,2.97l-.08,3.02c-.05,1.86.84,2.79,2.69,2.79Zm250.92,1.53l-18.03,39.26c-.17.37-.53.6-.94.6l-166.6.02c-.4,0-.77-.23-.94-.6l-18.21-39.3c-.06-.13-.09-.27-.09-.41,0-.56.44-1.02,1.01-1.02l202.86.02c.15,0,.29.03.43.09.51.23.74.83.51,1.34Zm-184.57-12.32c9.03-7.26,20.99-9.23,32.54-7.26,9.75,1.67,19.46,4.1,28.72,7.5,3.02,1.11,2.93,1.67-.3,1.67l-60.28.04c-2.08,0-2.31-.65-.68-1.95Zm140.93.96c-12.62-3.42-25.07-11.46-37.03-17.79-1.49-.78-1.41-1.33.24-1.65,20.63-3.94,38.39,2.35,53.29,18.88.72.78.54,1.24-.52,1.37-6.08.7-11.4.43-15.98-.82Zm46.11.56s.03.09.03.13c0,.16-.13.3-.29.3h-16.91c-.37,0-.66-.16-.88-.48-18.11-25.77-44.85-35.18-76.12-26.05-1.03.3-2.14.23-3.14-.2l-19.14-8.22c-.14-.06-.25-.17-.31-.31-.13-.3,0-.65.31-.79,46.19-20.1,90.44-7.88,116.45,35.6Zm-156.81-44.99c14.06-9.68,30.7-11.49,49.91-5.41,1.55.49,1.57,1.05.06,1.67l-22.9,9.43c-.66.28-1.35.33-2.05.16-8.13-1.95-16.14-2.87-24.02-2.75-3.73.05-4.06-.98-.99-3.1Zm-61.55,44.06c16.99-33.87,59.12-38.15,92.02-27.82,20.14,6.31,39.62,17.77,57.57,28.18,1.22.7,1.13,1.04-.28,1.01-6.24-.09-12.46-.06-18.69.1-12.2.3-20.91-3.28-31.36-8.06-10.14-4.62-21.52-7.87-34.17-9.77-19.57-2.93-35.04,2.63-46.43,16.7-.53.64-1.31,1.02-2.13,1.01l-15.74-.04c-.15,0-.29-.03-.42-.1-.44-.23-.6-.77-.37-1.21Z"/>
  <path class="cls-1" d="m468.16,434.51l-7.28.05c-21.46.15-38.74,17.67-38.59,39.13l.1,14.69c.15,21.46,17.67,38.74,39.13,38.59l7.28-.05c21.46-.15,38.74-17.67,38.59-39.13l-.1-14.69c-.15-21.46-17.67-38.74-39.13-38.59Zm1.78,83.82c-30.78,6.89-27.9-41.13-24.68-57.11,2.21-11,8.84-19.34,20.93-18.61,15.12.92,19.12,15.84,19.82,28.72.76,13.49,1.95,42.98-16.08,47Z"/>
  <path class="cls-1" d="m729.95,464.1c-10.63-8.52-2.97-25.67,11-21.31,6.87,2.15,8.84,8.86,10.03,15.88.13.77.58,1.13,1.35,1.07,8.86-.62,17.57-5.71,12.74-15.72-5.17-10.71-26.29-10.53-35.82-8.44-25.41,5.49-28.38,36.89-5.11,48.1,6.21,2.98,12.56,5.96,19.04,8.93,7.64,3.5,12.58,11.38,8.52,19.58-1.71,3.45-4.58,5.67-8.6,6.67-14.88,3.68-22.25-6.47-22.65-19.76,0-.02,0-.04,0-.06-.06-.73-.7-1.28-1.43-1.23-8.13.56-12.48,4.13-13.03,10.73-1.47,17.61,23.28,19.6,35.06,18.47,14.45-1.39,27.72-9.81,28.85-25.21,1.87-25.45-25.41-26.05-39.96-37.69Z"/>
  <path class="cls-1" d="m136.62,442.61l5.83-.42c1.34-.09,2-.82,1.99-2.17l-.02-2.51c-.03-1.31-.69-1.97-1.99-1.97l-33.71-.02c-.41,0-.68.2-.8.6l-19.12,58.11c-.49,1.51-1,1.52-1.53.02l-20.02-58.09c-.13-.38-.49-.63-.9-.64l-33.67.02c-1.47,0-2.29.74-2.45,2.21l-.2,1.71c0,.05,0,.11-.01.16-.07,1.43,1.02,2.64,2.44,2.71l5.81.28c1.64.07,3.01,1.25,3.32,2.85.52,2.68.78,5.18.8,7.5.09,20.09.02,40.69-.22,61.81-.04,2.18-1.73,3.96-3.9,4.1l-5.59.36c-1.32.09-2.37,1.12-2.49,2.43l-.18,1.81c-.15,1.72.64,2.58,2.37,2.57l28.08-.02c1.34,0,1.97-.67,1.89-2.01l-.2-3.12c-.09-1.38-.82-1.99-2.19-1.83-5.48.65-8.19-2.3-8.14-8.86.16-21.45.12-41.01-.12-58.66-.01-.48.22-.67.7-.58.21.04.35.15.42.32,7.95,23.14,16.34,47.65,25.19,73.53.31.85.91,1.27,1.81,1.27l6.21-.06c.88-.01,1.45-.43,1.71-1.25l23.58-72.04c1.01-3.06,1.49-2.98,1.45.24-.2,19.57-.3,39.47-.3,59.72,0,4.8-2.23,6.91-6.69,6.33-1.07-.14-2.07.59-2.23,1.65l-.48,2.93c-.27,1.61.41,2.41,2.03,2.41l37.79.1c.98,0,1.45-.49,1.39-1.47l-.24-4.42c-.04-.8-.46-1.17-1.27-1.11-3.96.26-10.21.84-10.25-4.96-.17-22.35-.18-44.73-.02-67.14.02-2.31,1.81-4.21,4.1-4.38Z"/>
  <path class="cls-1" d="m240.99,519.03c-4.44.29-7.48-1.82-9.09-6.35-9.63-26.9-18.61-52.2-26.94-75.88-.26-.74-.95-1.24-1.73-1.25l-15.02-.06c-.75,0-1.43.47-1.69,1.17-9.01,24.6-18.25,49.64-27.72,75.12-1.84,4.95-4.94,7.42-9.27,7.4-1.22-.01-1.81.59-1.77,1.81l.12,4.06c.01.66.35.99,1.01.99l30.23-.04s.05,0,.08,0c1.05-.04,1.87-.93,1.83-1.99l-.12-2.63c-.07-1.39-.8-2.1-2.19-2.11-3.94-.06-9.75.3-8.68-5.83.9-5.03,2.45-10.4,4.66-16.12.28-.73.81-1.09,1.59-1.09l28.74.02c.43,0,.81.27.96.68,1.73,4.92,5.93,13.93,4.88,19.14-.34,1.65-1.76,2.85-3.44,2.93l-5.11.2c-.82.04-1.26.46-1.31,1.27l-.3,4.04c-.07,1.01.4,1.51,1.41,1.51h39.38c.97,0,1.45-.48,1.43-1.45l-.02-3.78c0-1.27-.63-1.86-1.89-1.77Zm-38.88-30.47l-23.34.04c-.07,0-.15-.01-.22-.04-.34-.12-.52-.5-.4-.84l12.32-36.08c.07-.2.23-.36.44-.42.35-.1.71.1.82.44l11.02,36.04c.02.07.03.14.03.21,0,.36-.3.65-.67.65Z"/>
  <path class="cls-1" d="m331.8,525.97s.05,0,.08,0c.78-.04,1.38-.71,1.33-1.49l-.22-3.86c-.04-.68-.39-1.09-1.05-1.23-4.78-1.11-8.74-4.44-11.9-9.99-5.04-8.92-10-17.48-14.87-25.69-.02-.03-.04-.07-.05-.11-.14-.37.04-.78.41-.93,9.51-3.8,15.84-11.54,16.36-21.95.98-19.56-15.84-25.01-31.7-25.11-13.13-.08-27.23-.09-42.29-.04-.96,0-1.44.47-1.45,1.41l-.06,4.06c-.01.64.29,1.01.92,1.13,4.46.76,10.79-.94,10.83,6.23.16,22.29.18,43.85.06,64.67-.06,7.34-6.07,5.77-10.79,6.11-.64.04-.96.38-.98,1.03l-.04,4.32c-.01.99.48,1.49,1.47,1.49l40.87.02c.99,0,1.48-.49,1.45-1.47l-.1-4.28c-.01-.98-.5-1.41-1.47-1.27-4.34.58-9.95.52-10.21-5.41-.33-8.07-.36-16.46-.08-25.19.03-1.13.6-1.68,1.73-1.67l5.09.08c.9.02,1.72.52,2.15,1.31,4.78,8.84,9.53,17.67,14.25,26.51,6.55,12.2,18.23,11.42,30.25,11.32Zm-31.24-61.03c0,7.98-6.19,14.45-13.83,14.45h-7.48c-.58,0-1.05-.47-1.05-1.05v-34.15c0-.58.47-1.05,1.05-1.05h7.48c7.64,0,13.83,6.47,13.83,14.45v7.36Z"/>
  <path class="cls-1" d="m411.99,435.55h-76.65c-.64,0-1.16.5-1.17,1.13l-.28,22.35c-.01.82.39,1.23,1.21,1.23h6.13c.92,0,1.38-.46,1.39-1.37.16-5.91.36-14.49,8.14-15.18,3.67-.32,7.6-.38,11.76-.18.81.04,1.21.46,1.21,1.27.17,22.67.14,45.4-.1,68.18-.06,7.6-6.03,5.87-10.94,6.23-.54.04-.81.33-.8.86l.06,5.53c0,.29.15.44.44.44h41.89c1.01,0,1.49-.51,1.45-1.53l-.14-3.7c-.05-1.09-.62-1.64-1.71-1.65l-5.43-.02c-1.82,0-3.39-1.27-3.8-3.04-.58-2.56-.88-5.17-.88-7.82.04-21.93.05-43.1.04-63.52,0-.89.44-1.33,1.31-1.31,3.71.01,7.32.07,10.83.16,8.82.24,8.94,9.13,9.21,15.52.04.88.49,1.3,1.35,1.27l6.11-.14c.88-.01,1.31-.46,1.29-1.35l-.5-21.95c-.01-.93-.49-1.39-1.43-1.39Z"/>
  <path class="cls-1" d="m611.31,435.57l-29.67-.04c-1.45-.01-2.2.7-2.27,2.15l-.1,2.43c-.07,1.39.6,2.12,1.99,2.17,4.12.18,9.73-.74,9.83,5.33.29,15.59.32,31.67.08,48.26-.03,1.66-.52,1.81-1.47.46l-42.01-59.44c-.61-.87-1.61-1.39-2.69-1.39l-24.99.08c-1.01,0-1.51.5-1.51,1.51l.02,3.8c0,.78.61,1.43,1.39,1.47l6.09.28c1.77.09,3.25,1.37,3.6,3.1.44,2.1.66,4.15.66,6.17.07,20.05.07,39.89,0,59.54-.01,2.39-.52,4.52-1.53,6.41-.33.61-.85.94-1.55.98l-7.22.44c-.79.04-1.4.69-1.41,1.47l-.04,3.8c-.01,1.01.48,1.51,1.49,1.51l30.59-.06s.08,0,.12,0c.83-.07,1.45-.8,1.39-1.65l-.3-3.78c-.05-.76-.69-1.35-1.45-1.35l-5.17-.08c-2.87-.03-5.17-2.37-5.17-5.23v-54.11c0-2.2.64-2.4,1.91-.6l46.45,65.83c.39.55,1.02.88,1.71.9l9.67.2c.93.03,1.39-.42,1.39-1.35-.01-23.85,0-49.4.04-76.65.02-6.91,6.11-5.59,10.55-5.91.84-.05,1.22-.5,1.15-1.33l-.26-4.1c-.07-.8-.5-1.19-1.29-1.19Z"/>
  <path class="cls-1" d="m659.9,519.24l-5.75-.2c-1.79-.07-3.28-1.39-3.54-3.16-.46-3.05-.69-6.28-.68-9.69.01-19.85.08-39.09.2-57.73.04-7.12,6.37-5.87,11.1-6.43.62-.08.92-.43.9-1.05l-.24-4.44c-.03-.68-.38-1.01-1.05-1.01l-41.31.02c-.99,0-1.5.5-1.51,1.51l-.04,4.34c-.01.7.33,1.06,1.03,1.07,5.15.14,10.69-1.09,10.73,6.51.08,19.87.03,41.27-.16,64.18-.04,5.65-4.44,6.75-8.99,5.89-.07-.01-.14-.02-.21-.03-1.16-.1-2.18.75-2.28,1.9l-.3,3.24c-.12,1.29.46,1.92,1.75,1.91l40.99-.1c1.22,0,1.78-.61,1.67-1.83l-.28-2.98c-.11-1.23-.78-1.87-2.03-1.91Z"/>
  <path class="cls-1" d="m692.92,435.55h-18.43s-.07,0-.11,0c-.35.05-.58.38-.53.73l5.39,33.53c.05.3.31.53.62.54l7.54.06c.31,0,.57-.23.62-.54l5.53-33.59s0-.07,0-.11c0-.35-.29-.63-.64-.63Z"/>
  <path class="cls-1" d="m237.57,614.27c-3.62-2.99-6.85-7.26-9.69-12.82-.42-.82-.23-1.46.58-1.91,2.47-1.41,4.68-3.68,5.01-6.63,1.47-13.19-15.42-9.85-22.79-10.37-.46-.04-.84.14-1.13.54-.08.11-.14.25-.16.39-.1.53.26,1.04.8,1.15,2.13.4,3.42,1.97,3.42,4.14v22.9c0,.78-.39,1.24-1.17,1.37-.92.15-1.78.49-2.59,1.03-1.5.99-1.35,1.5.44,1.51l11.78.06c.52,0,.8-.25.86-.76l.04-.52c.01-.08-.02-.13-.1-.14-1.55-.21-2.8-.78-3.74-1.69-.49-.46-.72-1.03-.7-1.71l.14-4.66c.2-6.62,2.06-7.12,5.57-1.51l5.49,8.76c.8,1.29,1.95,1.98,3.46,2.07l3.9.24c1.7.11,1.89-.38.58-1.45Zm-15.22-15.36h-3c-.48,0-.88-.39-.88-.88v-12.1c0-.48.39-.88.88-.88h3c3.53,0,6.39,2.71,6.39,6.05v1.75c0,3.34-2.86,6.05-6.39,6.05Z"/>
  <path class="cls-1" d="m269.27,607.42l-.64.12c-.86.16-1.29.67-1.27,1.53.1,5.49-6.96,4.08-10.53,4.3-1.78.11-2.65-.72-2.61-2.49l.18-9.49c.01-1.17.61-1.75,1.79-1.75l8.14.04c.64.01.94-.3.92-.94l-.02-.66c-.01-.6-.33-.9-.94-.9l-9.43.04c-.36.01-.53-.16-.52-.52l.02-10.98c.01-.37.21-.56.58-.56l8.7.12c.86.01,1.41.44,1.63,1.29l1.03,4.1c.05.17.14.32.26.44.36.33.74.41,1.13.24.66-.29.98-.8.94-1.51l-.32-5.93c-.04-.88-.5-1.31-1.37-1.31l-21.43.12c-.13,0-.24.05-.32.16-.13.17-.21.36-.24.56-.09.61.17.97.78,1.07,2.43.37,3.65,1.73,3.66,4.08.05,7.8.04,15.48-.04,23.04-.01.86-.44,1.39-1.29,1.57-.86.19-1.66.52-2.41.99-1.38.9-1.25,1.35.4,1.35l22.43.06c1.09,0,1.64-.54,1.65-1.61l.06-5.81c.01-.62-.29-.88-.92-.78Z"/>
  <path class="cls-1" d="m285.01,588.87c.29-2.02,1.83-3.62,3.82-3.96,3.56-.61,5.79.96,6.71,4.7.03.12.08.23.14.33.34.55,1.06.73,1.61.39,2.02-1.26,2.42-2.84,1.21-4.74-2.49-3.9-8.5-3.88-12.36-2.75-7.82,2.35-7.3,12.64-.72,16.3,2.3,1.29,4.66,2.52,7.1,3.7,11.6,5.59-6.75,18.55-8.84,4.99-.11-.64-.47-1.02-1.09-1.15-1.06-.23-1.76.17-2.09,1.19-3.6,11.08,22.41,12.42,19.64-3.4-1.45-8.3-16.5-6.01-15.14-15.6Z"/>
  <path class="cls-1" d="m333.83,582.57l-23.2-.04c-.86,0-1.33.42-1.39,1.27l-.42,6.35c-.04.61.24.96.84,1.03.49.07.95-.11,1.37-.52.21-.21.34-.48.38-.78.49-4.02,2.92-5.53,7.28-4.52.78.17,1.17.66,1.15,1.45l-.16,24.4c0,.73-.31,1.31-.92,1.73-1.02.72-2.31,1.13-3.88,1.23-.08,0-.12.04-.12.12v.54s0,.01,0,.02c.01.45.39.81.84.8,4.23-.12,8.66-.12,13.29,0,.33,0,.56-.15.7-.46.03-.07.03-.13.02-.2-.09-.54-.4-.88-.94-1.01-1.13-.28-2.19-.64-3.18-1.07-.58-.27-.88-.71-.88-1.33l-.04-24.2c-.01-1.57.77-2.31,2.35-2.23l3.06.14c1.23.06,2.23,1.02,2.33,2.25.11,1.3.58,2.41,1.41,3.34.56.62.98.54,1.25-.26.74-2.23.79-4.58.14-7.04-.17-.68-.6-1.01-1.29-1.01Z"/>
  <path class="cls-1" d="m374.12,614.5c-.68-.42-1.35-.84-2.03-1.25-.58-.36-1-.86-1.25-1.51-3.18-8.54-6.47-17.57-9.85-27.08-.37-1.03-1.06-1.76-2.07-2.19-.03-.01-.06-.02-.09-.03-1.12-.42-2.38.16-2.8,1.29l-10.27,27.6c-.25.69-.69,1.24-1.31,1.65l-1.93,1.27c-1.39.93-1.25,1.39.42,1.37l8.93-.02c2.8-.01,2.91-.58.34-1.69l-1.99-.86c-.78-.34-1.11-.94-.99-1.79.27-1.98.87-3.75,1.81-5.31.48-.78,1.18-1.18,2.11-1.19l8.78-.04c1.06,0,1.74.51,2.03,1.53l1.57,5.65c.02.08.03.16.04.24.02.57-.42,1.05-.99,1.08-.82.04-1.57.29-2.25.74-.24.16-.39.44-.39.73,0,.48.37.87.85.87l10.98.14c1.49.03,1.61-.36.36-1.17Zm-12.6-12.34l-8.32.02c-.06,0-.13-.01-.19-.03-.33-.11-.52-.47-.41-.8l4.12-11.58c.06-.17.2-.31.38-.38.33-.12.7.05.82.38l4.2,11.54c.03.07.04.14.04.22,0,.35-.28.64-.64.64Z"/>
  <path class="cls-1" d="m411.28,582.62l-8.66.12c-2.69.04-2.85.69-.46,1.95l1.91,1.01c.83.44,1.35,1.31,1.33,2.25l-.22,18.09c-.07,4.87-2.53,7.25-7.38,7.14l-1.25-.04c-4.29-.09-6.43-2.29-6.45-6.59l-.04-19.2c0-.78.37-1.28,1.11-1.49,1.23-.37,2.28-1.03,3.12-1.97.12-.13.18-.3.18-.48,0-.4-.32-.71-.72-.71l-11.88-.04c-1.23-.01-1.47.47-.72,1.45.48.62,1.11.99,1.89,1.11,1.29.19,2.24,1.32,2.21,2.63-.16,6.69-.14,12.9.06,18.65.19,5.73,3.3,8.9,9.35,9.49,12.78,1.25,14.23-6.59,13.73-16.34-.21-4.32-.15-8.61.18-12.86.08-.99.62-1.48,1.61-1.45.92.04,1.59-.33,2.03-1.09.64-1.1.32-1.65-.96-1.63Z"/>
  <path class="cls-1" d="m448.19,613.99c-3.3-2.69-6.51-6.96-9.61-12.82-.32-.61-.17-1.08.44-1.41,10.35-5.73,5.43-16.93-5.23-17.19-3.87-.09-7.77-.05-11.7.14-2.44.11-2.6.76-.48,1.97l1.63.94c.89.5,1.33,1.27,1.31,2.29l-.04,23.34c0,1-.71,1.86-1.69,2.03-.92.17-1.75.52-2.51,1.05-1.21.85-1.07,1.27.4,1.27l12.2.02c1.27,0,1.41-.39.4-1.17-.78-.61-1.65-1.1-2.59-1.47-.75-.29-1.25-1.02-1.25-1.83l.02-4.76c.03-6.94,1.89-7.48,5.59-1.61l5.63,8.9c.57.9,1.38,1.42,2.43,1.55l4.3.56c2.35.3,2.6-.29.76-1.79Zm-14.61-15.16l-3.24.02c-.46,0-.84-.37-.84-.84l-.08-12.14c0-.46.37-.84.84-.84l3.24-.02s.01,0,.02,0c3.31-.01,6,2.64,6.01,5.91v1.95c.01,3.27-2.65,5.93-5.95,5.95Z"/>
  <path class="cls-1" d="m486.18,614.13c-.46-.29-.95-.56-1.45-.82-.68-.32-1.2-.9-1.47-1.61-3.08-8.32-6.1-16.64-9.05-24.97-.4-1.11-.89-2.19-1.47-3.22-.26-.46-.67-.81-1.16-1.01-1.18-.47-2.52.11-2.98,1.29-3.78,9.54-7.08,18.4-9.91,26.59-.5,1.47-1.48,2.55-2.93,3.22-2.81,1.33-2.66,2.01.46,2.05,2.84.03,5.85.01,9.03-.04.32,0,.44-.16.38-.48l-.14-.7c-.04-.19-.15-.31-.34-.36l-2.79-.98c-.82-.28-1.1-.84-.84-1.67l1.65-5.41c.28-.86.87-1.29,1.77-1.29l9.63.08c.77,0,1.44.5,1.67,1.23l1.53,4.9c.36,1.13-.03,1.87-1.15,2.23-.48.16-.95.36-1.41.6-2.27,1.22-2.12,1.83.46,1.83l10.09.02c1.83,0,1.97-.49.42-1.47Zm-12.34-11.88l-8.2-.12c-.08,0-.15-.02-.23-.05-.33-.13-.48-.5-.35-.83l4.42-11.74c.07-.17.21-.31.38-.37.33-.12.7.06.81.39l3.78,11.9c.02.06.03.12.03.18,0,.35-.29.63-.64.63Z"/>
  <path class="cls-1" d="m525.54,582.64l-9.81-.06s-.07,0-.1,0c-.44.04-.76.44-.71.89l.06.64c.07.73.46,1.07,1.19,1.03.64-.03,1.25.05,1.85.24.74.23,1.11.72,1.11,1.47l.1,18.79c.01,1.66-.43,1.79-1.33.4l-14.25-22.27c-.37-.58-.9-.92-1.59-1.01-2.28-.28-4.17-.34-5.65-.2-2.44.24-2.63,1.01-.56,2.31l2.17,1.35c.65.41.96.99.92,1.75-.4,7.15-.44,14.31-.12,21.49.13,3.01-1.42,4.56-4.66,4.66-.39,0-.7.31-.7.7,0,.39.33.71.72.72l11.86.08c.25,0,.38-.12.38-.36v-.68c.01-.33-.15-.5-.48-.52-2.79-.13-4.19-1.54-4.22-4.22-.05-6.22-.1-12.11-.14-17.65-.01-2.11.55-2.28,1.69-.5l13.15,20.48c3.86,6,5.8,5.43,5.81-1.69.01-6.94,0-14.46-.06-22.57-.01-1.72.8-2.57,2.43-2.55.73.01,1.23-.32,1.51-.99l.2-.54c.32-.78.06-1.18-.78-1.19Z"/>
  <path class="cls-1" d="m559.17,582.55l-23.14.14c-1.03.01-1.55.53-1.55,1.55l-.02,5.93c0,.66.33.99.99.98.21,0,.4-.08.56-.24.36-.37.58-.81.66-1.31.54-3.77,3-5.17,7.38-4.22.69.15,1.03.57,1.03,1.27l-.02,25.05c0,.48-.21.84-.62,1.09-1.01.6-2.16.99-3.46,1.17-.26.05-.45.28-.44.54l.04.56c.01.34.2.52.56.52l13.01.02c.31,0,.47-.16.5-.48l.04-.5c.01-.16-.05-.27-.2-.34l-3.8-1.53c-.46-.18-.76-.62-.76-1.11l-.04-24.89c0-1.02.51-1.53,1.53-1.51l4.4.1c.97.01,1.51.5,1.61,1.47.13,1.3.5,2.52,1.11,3.66.8,1.47,1.41,1.4,1.83-.22.52-2,.59-4.17.22-6.49-.1-.7-.71-1.21-1.43-1.21Z"/>
  <path class="cls-1" d="m593.16,607.56h-.58c-.56.02-1.01.43-1.07.98-.68,6.45-7.36,4.56-11.74,4.58-1.13.01-1.68-.55-1.67-1.69l.16-10.23c.01-1.01.52-1.51,1.51-1.51l8.28-.02c.55,0,1.02-.41,1.09-.96l.12-.9c.04-.36-.12-.54-.48-.56l-9.83-.1c-.46-.01-.7-.25-.7-.72l-.14-10.37c-.01-.58.27-.87.86-.86l8.5.14c.86.01,1.41.43,1.63,1.25.31,1.09.58,2.22.82,3.38.15.66.53,1.07,1.15,1.23.82.2,1.24-.12,1.25-.96l.12-6.39c.01-.65-.51-1.18-1.17-1.19l-21.21-.12s-.01,0-.02,0c-.44.01-.79.38-.78.82,0,.29.09.55.26.78.25.34.59.58,1.01.7,1.9.57,2.83,1.84,2.81,3.8-.09,6.96-.1,14.14-.02,21.53.03,2.36-1.23,3.53-3.76,3.5-.44,0-.66.22-.66.66l-.02.62c0,.38.19.58.58.58l23.1.06c.89,0,1.35-.44,1.39-1.33l.28-5.61c.03-.74-.33-1.11-1.07-1.09Z"/>
  <path class="cls-1" d="m367.18,252.21c-.6.72-.76,1.53-.5,2.43.62,2.1,2,3.34,4.12,3.74.87.17,1.78-.08,2.45-.7,10.73-10.07,12.99-27.1,3-38.13-8.58-9.47-12.22-17.87-1.99-29.47,1.37-1.55,1.44-3.16.22-4.82-.38-.52-.88-.87-1.49-1.05-2.67-.82-4.88-.16-6.63,1.99-9.01,11.02-9.43,24.66-.06,35.1,9.47,10.53,10.41,19.54.88,30.9Z"/>
  <path class="cls-1" d="m401.84,228.03c4.78,6.94,3.46,14.93-3.94,23.98-1.42,1.74-1.24,3.31.54,4.72l1.03.82c1.56,1.23,3.81,1.05,5.13-.42,9.51-10.41,12.32-26.39,2.47-37.33-9.31-10.37-11.92-18.39-2.03-30.05.26-.31.47-.65.62-1.03.71-1.83-.21-3.9-2.05-4.62-4.3-1.67-7.54,2.53-9.35,5.69-6.21,10.84-5.72,20.81,1.45,29.91,2.2,2.8,4.25,5.58,6.13,8.34Z"/>
  <path class="cls-1" d="m432.73,245.54c-1.17,2.23-2.51,4.32-4.02,6.27-1.43,1.87-1.25,3.58.54,5.11l.76.66c1.5,1.29,3.76,1.15,5.07-.32,9.69-10.73,12.48-25.93,2.55-37.39-8.99-10.41-12.26-17.55-2.27-29.61,1.57-1.88,1.52-3.73-.14-5.55-.23-.27-.5-.45-.84-.56-3.02-.99-5.52-.11-7.48,2.67-6.47,9.14-8.02,17.83-4.64,26.07,4.84,11.74,18.53,17.39,10.47,32.66Z"/>
</svg>