<?xml version="1.0" encoding="utf-8"?>
<!-- Generator: Adobe Illustrator 27.2.0, SVG Export Plug-In . SVG Version: 6.00 Build 0)  -->
<svg version="1.1" id="Camada_1" xmlns="http://www.w3.org/2000/svg" xmlns:xlink="http://www.w3.org/1999/xlink" x="0px" y="0px"
	 viewBox="0 0 800 800" style="enable-background:new 0 0 800 800;" xml:space="preserve">
<style type="text/css">
	.st0{fill:#FFFFFF;}
	.st1{clip-path:url(#SVGID_00000014635557676871639310000009153514058323184028_);}
	.st2{enable-background:new    ;}
</style>
<g>
	<g>
		<path class="st0" d="M162.1,346.6c4.7,2.4,8.5,5.7,11.3,10s4.2,9.1,4.2,14.4c0,14-6.3,22.9-18.8,26.5v0.7
			c14.3,3.3,21.4,12.8,21.4,28.5c0,6-1.4,11.2-4.3,15.8c-2.9,4.6-6.8,8.1-11.9,10.7c-5,2.5-10.5,3.8-16.5,3.8H71.6V343h74.8
			C152.1,343,157.3,344.2,162.1,346.6L162.1,346.6z M107.7,387.4h24.8c2.4,0,4.4-0.9,6-2.6c1.6-1.7,2.4-3.8,2.4-6.4v-1.7
			c0-2.4-0.8-4.5-2.4-6.2c-1.6-1.7-3.6-2.6-5.9-2.6h-24.8V387.4L107.7,387.4z M107.7,430.5h27.4c2.4,0,4.4-0.9,6-2.6
			c1.6-1.7,2.4-3.8,2.4-6.4v-1.7c0-2.5-0.8-4.7-2.4-6.4c-1.6-1.7-3.6-2.6-6-2.6h-27.4V430.5L107.7,430.5z"/>
	</g>
	<g>
		<defs>
			<path id="SVGID_1_" d="M162.1,346.6c4.7,2.4,8.5,5.7,11.3,10s4.2,9.1,4.2,14.4c0,14-6.3,22.9-18.8,26.5v0.7
				c14.3,3.3,21.4,12.8,21.4,28.5c0,6-1.4,11.2-4.3,15.8c-2.9,4.6-6.8,8.1-11.9,10.7c-5,2.5-10.5,3.8-16.5,3.8H71.6V343h74.8
				C152.1,343,157.3,344.2,162.1,346.6L162.1,346.6z M107.7,387.4h24.8c2.4,0,4.4-0.9,6-2.6c1.6-1.7,2.4-3.8,2.4-6.4v-1.7
				c0-2.4-0.8-4.5-2.4-6.2c-1.6-1.7-3.6-2.6-5.9-2.6h-24.8V387.4L107.7,387.4z M107.7,430.5h27.4c2.4,0,4.4-0.9,6-2.6
				c1.6-1.7,2.4-3.8,2.4-6.4v-1.7c0-2.5-0.8-4.7-2.4-6.4c-1.6-1.7-3.6-2.6-6-2.6h-27.4V430.5L107.7,430.5z"/>
		</defs>
		<use xlink:href="#SVGID_1_"  style="overflow:visible;fill:#FFFFFF;"/>
		<clipPath id="SVGID_00000022553760945526585620000007467078993635823283_">
			<use xlink:href="#SVGID_1_"  style="overflow:visible;"/>
		</clipPath>
		<g style="clip-path:url(#SVGID_00000022553760945526585620000007467078993635823283_);">
			<g>
				<rect x="17.9" y="295.2" class="st0" width="778.6" height="214.8"/>
			</g>
		</g>
	</g>
</g>
<g>
	<path class="st0" d="M299.9,396.9c-3.7,5.6-9.1,9.8-16.2,12.4l25,47.7h-40.5l-19.9-41.6h-13.4V457h-36.1V343h68.8
		c8.1,0,15,1.6,20.7,4.7s10,7.4,12.9,12.8c2.9,5.4,4.3,11.2,4.3,17.5C305.5,384.9,303.6,391.2,299.9,396.9L299.9,396.9z M265.8,372
		c-2-2-4.4-3-7.2-3h-23.7v21h23.7c2.8,0,5.2-1,7.2-3.1s2.9-4.5,2.9-7.5S267.7,374,265.8,372L265.8,372z"/>
</g>
<g>
	<path class="st0" d="M401.2,457l-4.7-16.1h-39.4l-4.7,16.1h-36.9l41-113.9h42l41,114L401.2,457L401.2,457z M364.6,415.4H389
		l-11.8-40.6h-0.6L364.6,415.4L364.6,415.4z"/>
</g>
<g>
	<path class="st0" d="M535.7,349.9c9.3,5.9,14,14.7,14.2,26.2v2h-33.8v-0.7c0-3.3-1.2-6.1-3.6-8.3c-2.4-2.2-6-3.3-11-3.3
		s-8.5,0.7-11,2.1c-2.6,1.4-3.8,3.2-3.8,5.3c0,3,1.7,5.2,5.2,6.6c3.5,1.4,9.1,2.9,16.8,4.5c9,1.9,16.5,3.8,22.3,5.9
		s10.9,5.4,15.3,10c4.4,4.6,6.6,10.9,6.7,18.9c0,13.5-4.5,23.5-13.5,30c-9,6.5-21,9.8-36,9.8c-17.5,0-31.2-3-40.9-8.9
		S448,433.5,448,418.4h34.2c0,5.7,1.5,9.6,4.4,11.5c2.9,1.9,7.5,2.9,13.7,2.9c4.6,0,8.4-0.5,11.4-1.5c3-1,4.5-3,4.5-6.1
		c0-2.8-1.7-4.8-5-6.2c-3.3-1.4-8.7-2.8-16.3-4.4c-9.1-2-16.7-4.1-22.7-6.2s-11.2-5.7-15.7-10.7s-6.7-11.7-6.7-20.2
		c0-12.5,4.8-21.7,14.3-27.6c9.5-5.9,21.6-8.9,36.2-8.9C514.9,341,526.5,344,535.7,349.9z"/>
</g>
<g>
	<path class="st0" d="M572.7,457V343h36.1v114L572.7,457L572.7,457z"/>
</g>
<g>
	<path class="st0" d="M634.6,343h36.1v84.8h57.7V457h-93.8L634.6,343L634.6,343z"/>
</g>
<g>
	<g class="st2">
		<path class="st0" d="M236.1,315.2l-2.4-8.2h-20.3l-2.4,8.2h-19.1l21.2-58h21.7l21.2,58H236.1z M217.2,294h12.6l-6.1-20.7h-0.3
			L217.2,294z"/>
	</g>
	<g class="st2">
		<path class="st0" d="M273.9,315.2l-20.6-58h19.9l11.6,38.8h0.3l11.7-38.8H316l-20.5,58H273.9z"/>
		<path class="st0" d="M323.8,257.2h50.2v13.9h-31.5v8h27v13.3h-27v8.9h32.1v13.9h-50.8V257.2z"/>
		<path class="st0" d="M426.1,315.2L401.8,287v28.2h-17.1v-58h16.3l24.4,28.6v-28.6h17.1v58H426.1z"/>
		<path class="st0" d="M455.7,315.2v-58h18.6v58H455.7z"/>
	</g>
	<g class="st2">
		<path class="st0" d="M543.3,286.2c0,19.3-10.1,29-30.4,29h-25.1v-58h25.1C533.1,257.2,543.3,266.8,543.3,286.2z M506.3,301.3h6.2
			c7.8,0,11.7-4.2,11.7-12.6v-5.1c0-8.4-3.9-12.6-11.7-12.6h-6.2V301.3z"/>
	</g>
	<g class="st2">
		<path class="st0" d="M588.6,315.2l-2.4-8.2h-20.3l-2.4,8.2h-19.1l21.2-58h21.7l21.2,58H588.6z M569.7,294h12.6l-6.1-20.7h-0.3
			L569.7,294z"/>
	</g>
	<g class="st2">
		<path class="st0" d="M79.1,538.4v-16.3c0-2,0.1-4.1,0.2-6.2c0.2-2.1,0.3-3.9,0.5-5.4c0.2-1.4,0.3-2.4,0.3-2.8h-0.3l-8.4,30.7H60.1
			l-8.4-30.6h-0.3c0,0.4,0.2,1.3,0.4,2.7c0.2,1.4,0.4,3.2,0.6,5.3c0.2,2.1,0.3,4.2,0.3,6.2v16.3H39.3v-45.3h20.5l6.8,26.1h0.3
			l6.8-26.1h19.8v45.3H79.1z"/>
	</g>
	<g class="st2">
		<path class="st0" d="M142.9,498.4c4.3,4,6.4,9.8,6.4,17.4s-2.1,13.4-6.4,17.4c-4.3,4-10.3,6-18.1,6s-13.8-2-18.1-6
			c-4.2-4-6.3-9.8-6.3-17.5c0-7.7,2.1-13.5,6.3-17.5c4.2-4,10.3-6,18.1-6S138.6,494.4,142.9,498.4z M117.7,506.1
			c-1.6,1.9-2.4,4.4-2.4,7.6v4.2c0,3.2,0.8,5.7,2.4,7.6c1.6,1.9,4,2.8,7.1,2.8s5.5-0.9,7.1-2.8s2.5-4.4,2.5-7.6v-4.2
			c0-3.2-0.8-5.7-2.5-7.6c-1.6-1.9-4-2.8-7.1-2.8S119.3,504.2,117.7,506.1z"/>
	</g>
	<g class="st2">
		<path class="st0" d="M181.4,504.8v33.7h-14.5v-33.7H152v-11.6h44.2v11.6H181.4z"/>
	</g>
	<g class="st2">
		<path class="st0" d="M241.2,498.4c4.3,4,6.4,9.8,6.4,17.4s-2.1,13.4-6.4,17.4c-4.3,4-10.3,6-18.1,6s-13.8-2-18.1-6
			c-4.2-4-6.3-9.8-6.3-17.5c0-7.7,2.1-13.5,6.3-17.5c4.2-4,10.3-6,18.1-6S237,494.4,241.2,498.4z M216,506.1
			c-1.6,1.9-2.4,4.4-2.4,7.6v4.2c0,3.2,0.8,5.7,2.4,7.6c1.6,1.9,4,2.8,7.1,2.8s5.5-0.9,7.1-2.8s2.5-4.4,2.5-7.6v-4.2
			c0-3.2-0.8-5.7-2.5-7.6c-1.6-1.9-4-2.8-7.1-2.8S217.7,504.2,216,506.1z"/>
		<path class="st0" d="M288.7,495.9c3.7,2.3,5.6,5.8,5.7,10.4v0.8h-13.6v-0.3c0-1.3-0.5-2.4-1.4-3.3c-1-0.9-2.4-1.3-4.4-1.3
			c-1.9,0-3.4,0.3-4.4,0.9s-1.5,1.3-1.5,2.1c0,1.2,0.7,2.1,2.1,2.6c1.4,0.6,3.7,1.2,6.8,1.8c3.6,0.7,6.6,1.5,9,2.3
			c2.3,0.8,4.4,2.1,6.2,4c1.8,1.8,2.7,4.3,2.7,7.5c0,5.4-1.8,9.3-5.4,11.9s-8.5,3.9-14.5,3.9c-7.1,0-12.6-1.2-16.5-3.6
			c-3.9-2.4-5.9-6.6-5.9-12.6h13.8c0,2.3,0.6,3.8,1.8,4.6c1.2,0.8,3,1.2,5.5,1.2c1.8,0,3.4-0.2,4.6-0.6c1.2-0.4,1.8-1.2,1.8-2.4
			c0-1.1-0.7-1.9-2-2.5c-1.3-0.5-3.5-1.1-6.5-1.7c-3.7-0.8-6.7-1.6-9.1-2.5s-4.5-2.3-6.3-4.2c-1.8-2-2.7-4.6-2.7-8
			c0-5,1.9-8.6,5.8-11c3.8-2.3,8.7-3.5,14.6-3.5C280.2,492.4,285,493.6,288.7,495.9z"/>
		<path class="st0" d="M324.8,493.2H364V504h-24.6v6.2h21.1v10.4h-21.1v6.9h25.1v10.9h-39.6V493.2z"/>
		<path class="st0" d="M406.6,538.4l-16.1-45.3H406l9.1,30.3h0.3l9.1-30.3h14.9l-16,45.3H406.6z"/>
		<path class="st0" d="M445.4,493.2h39.1V504H460v6.2H481v10.4H460v6.9H485v10.9h-39.6V493.2z"/>
		<path class="st0" d="M493.6,493.2h14.5v45.3h-14.5V493.2z M494.6,489l6.1-8.8h12.7l0.1,0.3l-10.5,8.5H494.6z"/>
		<path class="st0" d="M556,497.4c3.9,3.4,5.9,8.1,5.9,14.4H548c0-2.6-0.7-4.7-2.1-6.2c-1.4-1.5-3.3-2.3-5.9-2.3
			c-2.9,0-5.1,0.9-6.5,2.8s-2.1,4.4-2.1,7.7v4.2c0,3.2,0.7,5.8,2.1,7.7c1.4,1.9,3.5,2.8,6.3,2.8c2.8,0,4.9-0.7,6.4-2.2
			s2.2-3.5,2.2-6.1h13.4c0,6.2-1.9,10.9-5.7,14.2c-3.8,3.3-9.2,4.9-16.1,4.9c-7.7,0-13.6-2-17.5-5.9s-6-9.8-6-17.5
			c0-7.7,2-13.6,6-17.5s9.8-5.9,17.5-5.9C546.8,492.4,552.1,494.1,556,497.4z"/>
		<path class="st0" d="M608.9,534.4c-3.9,3.2-9.5,4.9-16.6,4.9c-7.2,0-12.8-1.6-16.7-4.9c-3.9-3.2-5.9-8-5.9-14.1v-27h14.5V520
			c0,2.5,0.7,4.6,2,6.1c1.4,1.5,3.3,2.3,5.9,2.3s4.6-0.8,6-2.3c1.4-1.5,2.1-3.6,2.1-6.1v-26.8h14.5v27
			C614.8,526.4,612.8,531.1,608.9,534.4z"/>
	</g>
	<g class="st2">
		<path class="st0" d="M624.5,493.2H639v33.7h23.2v11.6h-37.8V493.2z"/>
	</g>
	<g class="st2">
		<path class="st0" d="M707.9,498.4c4.3,4,6.4,9.8,6.4,17.4s-2.1,13.4-6.4,17.4c-4.3,4-10.3,6-18.1,6s-13.8-2-18.1-6
			c-4.2-4-6.3-9.8-6.3-17.5c0-7.7,2.1-13.5,6.3-17.5c4.2-4,10.3-6,18.1-6S703.6,494.4,707.9,498.4z M682.7,506.1
			c-1.6,1.9-2.4,4.4-2.4,7.6v4.2c0,3.2,0.8,5.7,2.4,7.6c1.6,1.9,4,2.8,7.1,2.8s5.5-0.9,7.1-2.8s2.5-4.4,2.5-7.6v-4.2
			c0-3.2-0.8-5.7-2.5-7.6c-1.6-1.9-4-2.8-7.1-2.8S684.3,504.2,682.7,506.1z"/>
		<path class="st0" d="M755.4,495.9c3.7,2.3,5.6,5.8,5.7,10.4v0.8h-13.6v-0.3c0-1.3-0.5-2.4-1.4-3.3c-1-0.9-2.4-1.3-4.4-1.3
			c-1.9,0-3.4,0.3-4.4,0.9s-1.5,1.3-1.5,2.1c0,1.2,0.7,2.1,2.1,2.6c1.4,0.6,3.7,1.2,6.8,1.8c3.6,0.7,6.6,1.5,9,2.3
			c2.3,0.8,4.4,2.1,6.2,4c1.8,1.8,2.7,4.3,2.7,7.5c0,5.4-1.8,9.3-5.4,11.9s-8.5,3.9-14.5,3.9c-7.1,0-12.6-1.2-16.5-3.6
			c-3.9-2.4-5.9-6.6-5.9-12.6h13.8c0,2.3,0.6,3.8,1.8,4.6c1.2,0.8,3,1.2,5.5,1.2c1.8,0,3.4-0.2,4.6-0.6c1.2-0.4,1.8-1.2,1.8-2.4
			c0-1.1-0.7-1.9-2-2.5c-1.3-0.5-3.5-1.1-6.5-1.7c-3.7-0.8-6.7-1.6-9.1-2.5s-4.5-2.3-6.3-4.2c-1.8-2-2.7-4.6-2.7-8
			c0-5,1.9-8.6,5.8-11c3.8-2.3,8.7-3.5,14.6-3.5C746.9,492.4,751.6,493.6,755.4,495.9z"/>
	</g>
</g>
</svg>
