<?xml version="1.0" encoding="UTF-8"?>
<svg id="Camada_1" data-name="Camada 1" xmlns="http://www.w3.org/2000/svg" viewBox="0 0 800 800">
  <defs>
    <style>
      .cls-1 {
        fill: #fff;
      }
    </style>
  </defs>
  <g>
    <g>
      <path class="cls-1" d="m384.37,201.24c0-.14-.12-.26-.26-.26h-11.56c-.14,0-.26.12-.26.26h0v397.52c0,.14.12.26.26.26h11.56c.14,0,.26-.12.26-.26h0V201.24" vector-effect="non-scaling-stroke"/>
      <path class="cls-1" d="m506.34,256.92l.07-8.13c0-.16-.13-.28-.28-.29-.04,0-.07,0-.11.02-3.51,1.43-7.05,2.5-10.62,3.22-.2.04-.36.21-.4.41-.09.48-.07.99.04,1.52.05.25.2.38.45.4,1.28.07,2.51.35,3.69.85.23.09.4.25.51.47.44.81.66,1.67.67,2.58.08,6.79.08,14.2-.01,22.24-.04,3.84-2.71,3.62-5.56,4.11-.4.07-.6.3-.6.7l-.02.92c0,.51.25.77.76.77h18.14c.15,0,.27-.11.3-.26.11-.52.12-1.08.03-1.69-.04-.26-.18-.41-.45-.43-2.24-.22-5.94-.22-6.36-3.05-.18-1.23-.27-2.48-.26-3.75.03-4.3.02-8.59-.03-12.89-.02-1.42.27-2.72.86-3.91,1.78-3.58,5.59-8.55,9.85-4.53,1.78,1.68,4.03-.46,4.71-2.07,1.07-2.58-.99-4.88-3.47-5.37-5.26-1.04-9.02,4.64-11.47,8.3-.31.46-.46.41-.45-.14" vector-effect="non-scaling-stroke"/>
      <path class="cls-1" d="m528.17,287.82c2.63,0,4.77-2.16,4.78-4.85h0c0-2.69-2.11-4.88-4.74-4.88h0c-2.63,0-4.77,2.16-4.78,4.85h0c0,2.69,2.11,4.88,4.74,4.88h0" vector-effect="non-scaling-stroke"/>
      <path class="cls-1" d="m520.99,382.29c-2.68.07-5.67-.7-5.69-4.02-.08-18.95-.09-36.7-.04-53.23,0-.21-.17-.39-.38-.39-.05,0-.09,0-.14.02-3.53,1.29-7.2,2.23-11.01,2.83-.22.04-.38.15-.48.35-.27.53-.27,1.08,0,1.64.13.26.34.39.63.39,2.28,0,5.08.32,5.25,3.27.12,2.01.17,4.02.16,6.02-.03,13.42-.02,25.72.02,36.89.01,4.64-1.14,6.08-5.8,6.24-.36,0-.54.19-.55.55l-.03,1.3c-.01.45.21.68.66.68h17.48c.34,0,.51-.18.51-.52v-1.49c-.01-.37-.2-.55-.57-.54" vector-effect="non-scaling-stroke"/>
      <path class="cls-1" d="m438.18,358.84c4.7-.05,8.98.02,12.84.2,2.66.13,4.2,2.14,4.6,6.05.04.37.35.65.73.66h1.67c.37.02.55-.16.55-.53l.05-15.29c0-.39-.2-.58-.59-.57l-1.7.03c-.39,0-.61.21-.67.59-.47,2.97-1.42,5.22-4.51,5.35-3.94.18-8.28.25-13.01.21-.29,0-.43-.15-.43-.44v-20.58c0-.88.71-1.6,1.59-1.62,3.43-.08,6.84-.09,10.23-.03,1.92.04,3.57.28,4.94.74,3.04,1.03,4.02,5.43,4.66,8.35.11.48.41.71.9.68l1.12-.06c.49-.03.72-.29.69-.78l-.77-11.76c-.01-.14-.13-.25-.26-.25l-36.32.04c-.26,0-.47.21-.47.47h0v1.44c0,.4.19.62.59.68,3.11.42,6.56.3,6.65,4.6.24,11.86.24,25.35,0,40.47-.07,4.31-3.7,4.51-6.9,4.58-.32,0-.58.27-.59.59l-.03,1.49c0,.46.22.69.68.69l21.61-.03c.41,0,.61-.21.6-.62l-.03-1.67c0-.22-.17-.39-.39-.41-3.75-.26-8.32-.07-8.4-5.26-.1-6.23-.12-12.09-.06-17.56,0-.3.16-.46.46-.46" vector-effect="non-scaling-stroke"/>
      <path class="cls-1" d="m535.03,339.09c2.28.07,4.19-1.78,4.26-4.13h0c.07-2.35-1.71-4.32-3.99-4.39-2.28-.07-4.19,1.78-4.26,4.13h0c-.07,2.35,1.71,4.32,3.99,4.39" vector-effect="non-scaling-stroke"/>
      <path class="cls-1" d="m539.19,380.29c-.75-1.62-.55-4.84-.55-6.96-.02-8.86-.02-17.7.02-26.52,0-.15-.12-.28-.28-.28-.04,0-.08,0-.11.02-3.35,1.43-6.93,2.5-10.72,3.2-.23.04-.4.21-.45.44-.11.47-.09.95.05,1.44.09.29.29.45.59.47,2.16.16,4.82.74,4.86,3.45.12,7.25.12,14.75,0,22.51-.05,3.59-2.66,4.14-5.49,4.26-.36.01-.65.31-.66.68l-.02,1.18c0,.37.29.67.65.67,0,0,0,0,0,0l17.11-.02c.44,0,.66-.22.66-.66v-1.14c0-.32-.24-.58-.55-.62-1.78-.21-4.29-.33-5.11-2.12" vector-effect="non-scaling-stroke"/>
      <path class="cls-1" d="m496.31,450.95l.02-5.79c0-.15-.12-.27-.26-.27-.04,0-.08,0-.11.02-3.25,1.49-6.72,2.56-10.39,3.23-.19.04-.32.15-.39.34-.17.51-.16,1.04.05,1.58.09.23.25.37.5.4,2.24.32,4.48.9,4.54,3.7.13,6.99.15,13.98.07,20.96-.05,3.93-.91,5.44-5.56,5.49-.39,0-.6.2-.62.59l-.08,1.3c-.02.32.22.59.53.61.01,0,.03,0,.04,0l17.04-.02c.32,0,.47-.16.47-.48v-1.47c0-.31-.16-.47-.47-.49-3-.18-5.33-.49-5.34-4.21-.03-7.27-.04-14.4-.01-21.39,0-.34.15-.67.41-.9,3.56-3.08,8.13-5.55,12.82-3.78,3.66,1.39,4.65,5.16,4.69,8.76.06,5.67.05,11.37-.04,17.11-.05,3.54-2.31,4.09-5.29,4.41-.31.03-.48.21-.49.52l-.07,1.29c-.02.43.18.65.62.65l16.27-.04c.38,0,.68-.31.68-.69v-1.01c0-.42-.21-.64-.64-.66-4.04-.2-5.04-1.51-5.05-5.44-.02-5.48-.03-11.29-.03-17.46,0-5.56-2.14-11.11-8.09-12.51-2.67-.63-5.1-.38-7.3.73-2.65,1.34-5.33,3.04-8.05,5.12-.3.23-.45.16-.45-.22" vector-effect="non-scaling-stroke"/>
      <path class="cls-1" d="m589.22,453.32l.07-7.95c0-.46-.21-.6-.63-.41-3.37,1.46-6.82,2.54-10.35,3.22-.25.05-.4.2-.45.44-.1.42-.1.83,0,1.23.07.28.25.45.53.5,2.93.58,4.85.6,4.89,4.31.07,6.4.08,13.34.02,20.82-.03,4.04-1.64,5.04-5.49,5.23-.42.02-.65.24-.68.66l-.09.97c-.05.52.19.78.71.78l17.94-.02c.46,0,.68-.23.67-.68v-1.05c-.02-.39-.22-.6-.6-.63-4.72-.38-6.6-.57-6.52-5.86.07-5.19.07-9.95-.01-14.29-.09-4.43,5.87-12.87,10.65-7.9.74.77,1.74.76,2.6.2,4.16-2.74,2.1-7.91-2.48-7.89-4.47.03-8.13,4.79-10.33,8.45-.31.51-.46.47-.45-.12" vector-effect="non-scaling-stroke"/>
      <path class="cls-1" d="m567.18,510.66c-.78-.29-1.56-.62-2.37-.99-1.83-.84-3.33.55-3.58,2.29-.11.79.13.92.72.39.27-.24.52-.52.75-.82.29-.39.82-.52,1.26-.29.87.46,1.76.84,2.68,1.16,1.55.55,2.89-1.38,3.4-2.6.07-.16,0-.34-.16-.41l-.31-.15c-.22-.1-.48-.03-.61.18-.28.46-.65.84-1.1,1.16-.22.15-.45.18-.7.09" vector-effect="non-scaling-stroke"/>
      <path class="cls-1" d="m686.15,515.77c0,5.91-.01,11.43-.02,16.55,0,1.71-1.42,2.22-3.28,2.33-.16.01-.28.14-.28.3v.2c.01.28.25.51.53.51l8.96-.03c.16,0,.3-.13.3-.3,0,0,0,0,0,0v-.17c0-.25-.2-.46-.45-.47-.93-.07-1.8-.27-2.59-.62-.21-.09-.35-.25-.43-.47-.23-.66-.34-1.37-.34-2.12.02-5.05,0-10.26-.03-15.62,0-.28.14-.44.43-.46,1.65-.13,3.23-.06,4.74.21.29.05.54.22.7.47.56.91.95,1.91,1.16,2.99.05.23.27.39.5.34.02,0,.04,0,.06-.02l.26-.09c.13-.04.22-.17.22-.32l-.32-5.48c-.01-.15-.14-.27-.29-.26-.05,0-.09.02-.13.04-.7.45-1.31.88-2.2.87-4.18-.05-8.45-.05-12.82,0-.8,0-1.37-.44-1.97-.9-.12-.09-.29-.07-.38.04-.03.04-.05.1-.05.15-.08,1.65-.21,3.42-.39,5.31-.04.37.15.55.56.57.2,0,.39-.12.46-.31.68-1.77.65-3.45,3.06-3.59,1.2-.07,2.39-.1,3.58-.07.28,0,.43.15.43.44" vector-effect="non-scaling-stroke"/>
      <path class="cls-1" d="m734.07,515.9c-.04,4.94-.05,10.08-.02,15.41,0,.74-.09,1.45-.27,2.14-.06.24-.22.43-.44.54-.77.37-1.65.61-2.62.7-.14.01-.24.13-.22.27,0,0,0,0,0,0l.03.18c.04.29.29.5.58.5l9.01-.05c.13,0,.23-.1.23-.23,0,0,0-.02,0-.03l-.03-.19c-.03-.22-.15-.36-.36-.41l-2.56-.62c-.2-.05-.37-.19-.45-.38-.23-.54-.35-1.1-.35-1.68,0-5-.02-10.41-.05-16.23,0-.26.13-.4.39-.43,1.41-.15,2.81-.14,4.21.04,1.62.21,2.06,1.91,2.35,3.26.06.28.31.49.61.49h.22c.12.01.22-.09.22-.21,0,0,0-.01,0-.02l-.32-5.33c-.02-.39-.19-.47-.51-.24-.64.47-1.33.68-2.14.68-4.22,0-8.45,0-12.67.01-.87,0-1.4-.42-2.1-.84-.11-.07-.26-.03-.33.09-.02.03-.03.07-.03.11l-.39,5.55c-.01.14.08.26.22.29l.2.04c.37.08.59-.06.68-.43.31-1.28.65-3.16,2.24-3.4,1.35-.21,2.76-.26,4.22-.14.32.02.48.19.47.51" vector-effect="non-scaling-stroke"/>
      <path class="cls-1" d="m432.65,515.04c3.16-.49,6.28.68,7.21,4.08.07.28.33.58.57.72.22.12.49.04.6-.18.04-.08.06-.17.05-.26l-.51-4.21c-.05-.37-.25-.6-.62-.7-4.02-1.06-7.53-1.02-10.53.11-6.61,2.49-9.43,9.69-6.13,15.87,3.09,5.79,9.97,6.49,15.93,4.77.46-.13.78-.41.96-.85.62-1.48,1.08-2.86,1.37-4.16.05-.19-.07-.39-.26-.45l-.19-.05c-.34-.1-.58.01-.73.34-1.19,2.61-2.85,4.13-4.96,4.57-3.91.82-7.92-1.43-9.43-5.22-.72-1.82-.99-3.8-.8-5.96.43-4.91,2.91-7.72,7.45-8.42" vector-effect="non-scaling-stroke"/>
      <path class="cls-1" d="m540.75,527l1.16-.32c.27-.08.42-.25.44-.53.01-.2-.09-.36-.31-.48-.02-.01-.05-.02-.08-.02l-7.62-.03c-.15,0-.28.09-.33.23l-.09.24c-.07.2.04.43.24.5.02,0,.03.01.05.01l2.24.43c.62.12,1.07.65,1.1,1.28.06,1.37.07,2.77.02,4.2-.07,1.83-2.67,2.31-4.08,2.28-6.62-.13-10.24-5.67-9.38-11.73.77-5.39,3.89-8.07,9.38-8.05,3.2,0,5.17,1.66,5.91,4.95.02.09.11.15.2.14l.24-.03c.27-.03.47-.27.44-.54,0,0,0,0,0,0l-.51-4.47c-.03-.25-.21-.46-.45-.52-4.98-1.31-10.26-1.28-14.51,1.91-4.26,3.2-4.91,9.63-2.42,14.26,1.06,1.97,2.87,3.46,5.43,4.46,4.08,1.6,7.97.82,12.09-.14.19-.05.29-.17.28-.37l-.1-6.76c0-.41.27-.78.67-.89" vector-effect="non-scaling-stroke"/>
      <path class="cls-1" d="m718.68,526.92c4.75,2.64,2.33,9.43-2.93,7.63-1.83-.63-3.07-2.15-3.71-4.55-.08-.31-.28-.44-.59-.39l-.31.05c-.2.03-.35.22-.32.42,0,0,0,0,0,0l.7,4.29c.04.27.19.47.44.59,4.31,2.07,10.42,1.39,11.7-3.86,1.2-4.96-4.01-6.9-7.31-8.69-1.27-.69-2.06-1.67-2.37-2.95-.58-2.39,1.1-4.58,3.6-4.58,2.54.01,3.47,1.62,3.99,3.79.06.23.19.39.4.49.12.05.25.08.39.07.25-.02.44-.24.42-.5,0,0,0-.01,0-.02l-.43-3.56c-.06-.49-.41-.9-.88-1.03-3.58-.99-7.93-.49-9.56,3.25-2.26,5.17,3.35,7.63,6.78,9.54" vector-effect="non-scaling-stroke"/>
      <path class="cls-1" d="m446.68,515.87c.24.15.39.41.39.7l-.02,16.56c0,.28-.11.51-.33.69-.59.47-1.43.75-2.51.83-.14.01-.25.1-.29.23l-.07.21c-.12.37.02.55.41.55l8.34-.03c.14,0,.25-.11.25-.25,0-.02,0-.04,0-.06l-.05-.2c-.07-.28-.32-.48-.62-.49-1.78,0-2.67-.82-2.67-2.44,0-5.18.02-10.29.04-15.33,0-.69.5-1.29,1.18-1.42l1.74-.33c.14-.03.22-.11.23-.26v-.2c.04-.36-.13-.53-.49-.53l-7.85.03c-.24,0-.43.19-.43.42,0,.01,0,.02,0,.03v.26c.02.11.11.2.22.22.96.09,1.8.35,2.52.8" vector-effect="non-scaling-stroke"/>
      <path class="cls-1" d="m492.45,515.86c.31.16.51.47.53.81.28,3.53.32,6.99.1,10.4-.25,3.85-1.91,7.23-6.38,7.19-4.18-.04-5.99-3.34-6.11-7.03-.12-3.55-.13-7.06-.03-10.51,0-.29.11-.54.31-.74.5-.53,1.23-.78,2.18-.76.2,0,.37-.16.37-.36,0,0,0,0,0-.01v-.22c0-.34-.17-.51-.51-.51h-7.42c-.27,0-.51.18-.6.43l-.06.18c-.05.13.02.28.16.33.02,0,.04.01.06.01,1.12.1,2.84.46,2.85,1.9,0,3.35.02,6.88.05,10.59.05,5.66,3.69,9.26,9.39,8.5,6.35-.85,7.34-6.17,7.25-11.78-.04-2.47.04-4.98.23-7.53.04-.59.46-1.09,1.03-1.23l1.74-.43c.21-.05.29-.18.24-.39l-.03-.18c-.05-.26-.21-.39-.47-.39l-7.35.03c-.29,0-.43.14-.42.43v.26c.02.12.11.23.23.24,1.02.13,1.9.38,2.64.77" vector-effect="non-scaling-stroke"/>
      <path class="cls-1" d="m670.95,530.59l-13.33-16.2c-.16-.19-.36-.28-.6-.28l-3.88.03c-.22,0-.39.09-.52.26-.09.12-.12.25-.07.37.06.18.18.28.36.32,1.75.39,3.37.89,3.42,3.05.12,5.31.08,9.96-.12,13.96-.08,1.57-.95,2.4-2.61,2.49-.23,0-.38.12-.45.34l-.09.27c-.06.18.05.37.23.43.03.01.07.02.1.02l7.77-.05c.15,0,.26-.13.25-.27,0-.03,0-.06-.02-.09l-.09-.2c-.13-.32-.36-.48-.7-.49-1.76-.05-2.66-.92-2.7-2.62-.11-4.39-.12-8.55-.04-12.49,0-.52.18-.57.51-.17l12.95,15.99c1.07,1.32,1.59,1.13,1.57-.56-.07-5.57-.07-11.18.02-16.81.03-2.27.86-2.21,2.62-2.73.14-.05.26-.13.35-.25.12-.15.15-.33.09-.53-.05-.16-.2-.27-.37-.27l-7.26.05c-.26,0-.43.12-.53.36l-.07.18c-.05.12,0,.27.13.32.02,0,.04.02.07.02,1.49.22,3.18.44,3.27,2.37.2,4.55.24,8.91.11,13.07,0,.38-.14.42-.38.13" vector-effect="non-scaling-stroke"/>
      <path class="cls-1" d="m701.57,534.03c-.65.41-1.45.63-2.4.67-.12,0-.21.09-.23.2l-.03.2c-.07.37.09.56.47.56l8.23-.03c.16,0,.28-.13.28-.29,0-.01,0-.03,0-.04l-.03-.17c-.05-.32-.33-.55-.66-.56-.97-.01-1.75-.32-2.33-.91-.18-.18-.26-.4-.26-.65v-16.17c-.01-.68.48-1.26,1.16-1.38l1.71-.29c.21-.04.32-.16.31-.37v-.24c-.01-.24-.21-.43-.45-.43h-7.91c-.25-.01-.46.19-.46.45h0v.26c0,.13.1.25.24.26,1.1.1,2.93.33,2.95,1.76.09,5.25.09,10.64-.01,16.18,0,.41-.22.78-.57,1" vector-effect="non-scaling-stroke"/>
      <path class="cls-1" d="m551.25,515.5l2.03-.45c.1-.02.15-.08.15-.18v-.22c-.02-.28-.25-.5-.53-.51h-8c-.16-.02-.29.11-.29.27,0,0,0,.01,0,.02v.22c.02.37.22.55.59.55,2.85,0,2.47,1.75,2.5,3.81.06,4.72.05,9.29-.02,13.7-.03,1.74-1.67,1.79-2.93,2.05-.13.03-.19.1-.2.23v.22c-.03.29.11.44.4.44l8.04-.02c.27,0,.41-.14.41-.41v-.23c0-.12-.08-.22-.2-.25l-2.08-.49c-.5-.12-.85-.56-.85-1.07v-16.46c0-.58.41-1.09.99-1.22" vector-effect="non-scaling-stroke"/>
      <path class="cls-1" d="m639.5,523.31v-7.13c0-.51.26-.78.77-.8,1.62-.07,3.29-.05,5,.05,2.18.14,2.12,1.82,2.76,3.42.14.33.37.46.7.37.25-.07.37-.24.37-.5l-.18-4.02c-.01-.32-.28-.56-.59-.57h-13.92c-.35,0-.49.16-.42.5l.06.29c.03.14.16.25.31.25,1.76,0,2.64.73,2.64,2.2-.02,5.49-.02,10.65-.02,15.48,0,.69-.48,1.29-1.16,1.43l-1.87.41c-.2.04-.3.16-.28.37l.02.25c.01.2.18.37.39.37l15.22-.02c.24,0,.4-.12.46-.35.39-1.44.71-2.94.95-4.51.05-.27-.06-.45-.31-.53-.34-.12-.71.06-.83.4-.57,1.59-1.29,3.24-3.18,3.56-1.77.3-3.52.3-5.25,0-1.01-.17-1.52-.77-1.55-1.8-.08-2.26-.1-4.49-.06-6.7,0-.27.14-.42.41-.45,1.75-.17,3.51-.14,5.27.1.27.04.5.23.59.49.17.46.33.94.48,1.42.06.19.18.33.35.43.15.09.31.1.46.03.2-.08.33-.27.32-.49-.03-1.37-.02-2.83.05-4.39.02-.41-.04-.8-.18-1.14-.1-.25-.38-.37-.63-.27-.12.05-.22.15-.27.27l-.53,1.36c-.16.42-.57.7-1.01.7l-4.78.05c-.35,0-.53-.17-.53-.52" vector-effect="non-scaling-stroke"/>
      <path class="cls-1" d="m498.2,550.83c.08-.25-.06-.51-.31-.58-.06-.02-.11-.02-.17-.02l-1.07.08c-.19.01-.36.15-.41.33l-6.92,22.7c-.08.25.06.51.31.58.06.02.13.03.2.02l1.03-.13c.18-.02.33-.15.39-.33l6.96-22.65" vector-effect="non-scaling-stroke"/>
      <path class="cls-1" d="m430.28,570.77c-4.12-1.99-5.44-6.34-5.09-10.7.17-2.1.8-3.84,1.89-5.23,3.29-4.16,11.15-4.85,12.89,1.33.1.35.34.52.71.51.23,0,.41-.2.41-.43,0-.02,0-.03,0-.05l-.52-4.41c-.03-.27-.23-.5-.49-.57-7.63-2.03-16.23.05-17.87,8.53-1.28,6.6,3.07,12.35,9.74,13.03,2.28.23,4.76,0,7.46-.71.22-.06.38-.18.49-.38.58-1.09,1.04-2.2,1.37-3.33.64-2.23.21-2.47-1.3-.72-.67.78-.99,1.88-1.9,2.54-2.38,1.74-4.97,1.94-7.76.59" vector-effect="non-scaling-stroke"/>
      <path class="cls-1" d="m551.82,569.85c2.68-2.78,7.51-5.78,8.28-9.79.41-2.1-.2-3.71-1.81-4.84-2.91-2.06-6.9-1.22-8.85,1.85-.4.64-1.03,1.07-.8,1.93.05.19.25.31.43.26.06-.02.12-.05.17-.1,1.85-2.01,2.77-3.3,5.87-2.69,2.31.46,2.88,3.18,2.17,5.1-.48,1.28-1.18,2.41-2.12,3.37-1.98,2.05-4.17,4.11-6.56,6.17-1.05.91-.88,1.36.51,1.36h10.77c.32,0,.52-.16.59-.47l.86-3.54c.06-.25-.09-.5-.34-.56,0,0-.01,0-.02,0-.3-.06-.51.04-.64.3-.49.99-1.18,1.95-2.41,1.95-2.12,0-4.08.05-5.9.16-.46.03-.53-.12-.21-.45" vector-effect="non-scaling-stroke"/>
      <path class="cls-1" d="m591.54,556.53c.03.08.09.13.18.14l2.79.18c.1,0,.18.09.18.2l-.03,13.64c0,.09-.06.17-.15.19l-2.86.66c-.1.02-.16.11-.16.21l.05.55c.01.1.1.18.2.18h8.47c.11,0,.2-.09.2-.2v-.59c0-.09-.07-.17-.16-.19l-2.96-.63c-.09-.02-.15-.1-.16-.19l-.02-16.14c0-.11-.09-.2-.2-.2-.02,0-.04,0-.05,0l-5.31,1.6c-.1.03-.16.14-.13.24l.11.37" vector-effect="non-scaling-stroke"/>
      <path class="cls-1" d="m632.87,556.67c.43,0,.55.19.37.57-2.73,5.89-5.83,11.71-9.3,17.47-.38.63-.21.89.52.78l.78-.11c.64-.09,1.09-.43,1.36-1.01l9.06-19.42c.07-.15,0-.33-.14-.39-.04-.02-.08-.03-.12-.03h-12.45c-.14,0-.26.11-.26.25-.06,1.42-.21,2.8-.45,4.15-.05.28.1.43.46.47.21.02.42-.08.53-.27l1.21-2.08c.13-.23.33-.34.59-.34l7.85-.05" vector-effect="non-scaling-stroke"/>
      <path class="cls-1" d="m585.36,570.96c0-1.03-.84-1.87-1.87-1.87h0c-1.03,0-1.87.84-1.87,1.87h0c0,1.03.84,1.87,1.87,1.87h0c1.03,0,1.87-.84,1.87-1.87h0" vector-effect="non-scaling-stroke"/>
    </g>
    <rect class="cls-1" x="372.3" y="200.98" width="12.07" height="398.03" rx=".26" ry=".26"/>
    <path class="cls-1" d="m429.58,283.12c2.91-.54,3.39-3.75,3.39-6.2,0-13.54,0-27.83,0-42.86,0-5.68-2.81-6.31-7.68-6.54-.34-.01-.6-.3-.59-.64,0,0,0,0,0,0l.07-2.03c0-.23.13-.35.37-.35,9.16-.07,18.67-.06,28.54.03,7.74.07,16.48,1.66,22.66,6.43,8.44,6.52,11.23,17.83,9.55,28.17-1.77,10.88-7.55,18.65-17.36,23.32-7.21,3.43-15.19,4.37-23.61,4.29-6.55-.07-13.42-.07-20.61,0-.29,0-.54-.23-.54-.53,0,0,0,0,0,0v-1.85c0-.35.17-.54.52-.56,1.78-.12,3.54-.35,5.29-.68Zm46.99-37.91c-4.3-14.54-17.69-18.36-31.96-17.03-1.3.12-2.31.51-3.05,1.18-.78.7-1.17,1.66-1.18,2.88-.04,14.37-.03,28.74.03,43.09,0,2.06.71,3.88,2.12,5.48,1.76,1.99,5.85,2.31,8.48,2.26,12.25-.23,20.49-5.65,24.7-16.25,2.47-6.21,2.77-15.12.85-21.61Z"/>
    <path class="cls-1" d="m506.79,257.06c2.45-3.66,6.21-9.34,11.47-8.3,2.47.49,4.54,2.79,3.47,5.37-.68,1.61-2.92,3.75-4.71,2.07-4.26-4.02-8.07.95-9.85,4.53-.59,1.19-.88,2.49-.86,3.91.05,4.3.06,8.6.03,12.89-.01,1.26.07,2.51.26,3.75.43,2.83,4.12,2.83,6.36,3.05.26.03.41.17.45.43.09.61.08,1.17-.03,1.69-.03.15-.16.26-.3.26h-18.14c-.51,0-.77-.26-.76-.77l.02-.92c0-.4.21-.64.6-.7,2.85-.49,5.52-.27,5.56-4.11.09-8.04.09-15.45.01-22.24,0-.91-.23-1.76-.67-2.58-.12-.22-.29-.37-.51-.47-1.19-.49-2.42-.77-3.69-.85-.25-.02-.4-.15-.45-.4-.11-.53-.13-1.04-.04-1.52.04-.21.2-.37.4-.41,3.57-.72,7.11-1.79,10.62-3.22.14-.06.31,0,.37.15.01.03.02.07.02.11l-.07,8.13c0,.55.15.59.45.14Z"/>
    <ellipse class="cls-1" cx="528.18" cy="282.95" rx="4.87" ry="4.76" transform="translate(243.39 810.14) rotate(-89.8)"/>
    <path class="cls-1" d="m515.3,378.27c.02,3.32,3,4.09,5.69,4.02.37-.01.56.17.57.54v1.49c.01.34-.16.51-.5.51h-17.48c-.45,0-.67-.22-.66-.67l.03-1.3c0-.36.19-.55.55-.55,4.66-.16,5.81-1.6,5.8-6.24-.05-11.17-.05-23.46-.02-36.89,0-2-.05-4.01-.16-6.02-.17-2.95-2.97-3.28-5.25-3.27-.29,0-.5-.13-.63-.39-.27-.56-.26-1.1,0-1.64.1-.2.26-.32.48-.35,3.81-.6,7.48-1.54,11.01-2.83.2-.07.42.03.5.23.02.04.03.09.02.14-.05,16.54-.04,34.28.04,53.23Z"/>
    <path class="cls-1" d="m437.72,359.3c-.06,5.47-.04,11.32.06,17.56.08,5.19,4.65,5,8.4,5.26.22.01.39.19.39.41l.03,1.67c0,.41-.19.62-.6.62l-21.61.03c-.46,0-.69-.23-.68-.69l.03-1.49c0-.32.27-.58.59-.59,3.19-.07,6.83-.28,6.9-4.58.25-15.12.25-28.61,0-40.47-.09-4.29-3.54-4.18-6.65-4.6-.4-.05-.6-.28-.59-.68v-1.44c0-.26.21-.47.47-.47h0l36.32-.04c.14,0,.25.11.26.25l.77,11.76c.03.49-.2.75-.69.78l-1.12.06c-.49.03-.79-.2-.9-.68-.64-2.92-1.62-7.31-4.66-8.35-1.37-.46-3.02-.71-4.94-.74-3.38-.06-6.79-.05-10.23.03-.88.02-1.58.74-1.58,1.62v20.58c0,.29.14.43.43.44,4.73.04,9.06-.03,13.01-.21,3.09-.14,4.04-2.39,4.51-5.35.06-.38.28-.58.67-.59l1.7-.03c.39,0,.59.18.59.57l-.05,15.29c0,.37-.18.55-.55.55h-1.67c-.38-.01-.69-.3-.73-.67-.4-3.91-1.93-5.92-4.6-6.05-3.86-.18-8.14-.25-12.84-.2-.3,0-.46.16-.46.46Z"/>
    <ellipse class="cls-1" cx="535.16" cy="334.84" rx="4.26" ry="4.13" transform="translate(183.68 859.21) rotate(-88.2)"/>
    <path class="cls-1" d="m560.46,352.38c2.53-1.55,5.11-3.09,7.73-4.62,1.84-1.08,3.94-1.42,6.28-1.01,9.89,1.7,14.2,11.09,12.32,20.39-1.59,7.88-7,13.54-14.21,16.71-4.25,1.86-7.87,2.77-12.3.49-.1-.05-.23-.01-.28.09-.01.03-.02.06-.02.09-.1,4.71-.08,9.22.07,13.54.14,3.91,3.46,4.23,6.47,4.37.45.02.69.25.72.7l.09,1.29c.02.26-.17.48-.43.5,0,0-.02,0-.03,0l-18.79.03c-.32,0-.59-.27-.59-.59,0-.02,0-.05,0-.07l.2-1.58c.02-.17.12-.26.3-.28,3.76-.27,5.94-.89,5.94-5.23,0-13.16,0-26.21,0-39.15,0-1.19-.07-2.38-.21-3.56-.28-2.36-3-2.67-4.82-2.74-.53-.02-.95-.44-.97-.96-.05-1.08.27-1.61.95-1.6.12,0,.24,0,.37-.03,3.33-.77,6.69-1.83,10.08-3.18.24-.09.5.02.6.25.02.05.03.11.03.17v5.71c0,.4.16.49.5.28Zm-.51,24.95c0,2.99,6.86,4.26,8.93,4.12,5.55-.36,9.53-4.12,11-9.54,1.78-6.59,1.05-15.09-5.32-18.9-5.05-3.02-9.86-.87-14.16,2.35-.17.13-.29.32-.34.53-.09.36-.13.72-.13,1.09,0,6.78.02,13.57.03,20.35Z"/>
    <path class="cls-1" d="m539.19,380.29c.82,1.78,3.33,1.91,5.11,2.12.31.03.55.3.55.62v1.14c0,.44-.21.66-.65.66l-17.11.02c-.36,0-.66-.3-.66-.66,0,0,0,0,0,0l.02-1.18c0-.37.29-.66.66-.68,2.83-.11,5.44-.67,5.49-4.26.12-7.75.12-15.25,0-22.51-.04-2.71-2.7-3.29-4.86-3.45-.3-.02-.5-.18-.59-.47-.15-.49-.17-.97-.05-1.44.05-.22.23-.4.45-.44,3.79-.71,7.36-1.78,10.72-3.2.14-.06.31,0,.37.15.01.03.02.07.02.11-.04,8.82-.04,17.67-.02,26.52,0,2.12-.2,5.33.55,6.96Z"/>
    <path class="cls-1" d="m473.92,364.33c.01,7.05,3.61,15.09,11.59,15.75,3.92.32,7.38-.96,10.4-3.83.32-.3.6-.27.85.09l.82,1.23c.19.28.17.55-.05.8-5.01,5.53-11.72,9.35-19.21,6.35-12.82-5.12-13.14-23.18-4.79-32.2,4.64-5.01,11.9-8.02,18.15-4.25,4.21,2.53,6.45,6.38,6.75,11.55.15,2.64-2.1,2.92-4.06,3.04-6.5.39-13.17.72-20,.99-.3,0-.45.16-.45.46Zm.4-4.51c-.08.28.03.43.33.43,4.52.09,9.1.04,13.74-.14.81-.04,1.6-.18,2.37-.44.48-.16.81-.61.81-1.12,0-2.92-.99-5.21-2.97-6.88-3.44-2.89-8.63-1.96-11.25,1.64-1.34,1.85-2.35,4.02-3.02,6.51Z"/>
    <path class="cls-1" d="m601.74,364.34c-.4,10.07,6.85,18.72,17.56,14.79,1.36-.5,2.76-1.43,4.21-2.78.35-.33.66-.3.93.09l.68.97c.26.36.22.85-.07,1.18-1.34,1.46-2.89,2.81-4.64,4.06-10.86,7.79-23.22.08-24.6-11.99-.86-7.52,1.12-13.74,5.93-18.65,2.93-2.98,6.16-4.73,9.71-5.25,8.02-1.17,15.22,5.81,14.47,14.13-.06.71-.55,1.31-1.22,1.51-.86.27-1.73.43-2.62.48-6.65.42-13.28.75-19.87.99-.31,0-.46.17-.47.47Zm9.58-14.37c-5.38.02-7.93,5.24-9.36,9.68-.07.22.05.46.28.53.04.01.08.02.11.02,5.36.16,10.52.08,15.47-.24.73-.05,1.31-.63,1.36-1.36.3-4.77-3.01-8.65-7.86-8.63Z"/>
    <path class="cls-1" d="m559.84,445.48c.07-3.19.11-6.72.13-10.59,0-1.65-.18-3.19-.55-4.63-.51-1.99-3.98-1.82-5.68-2-.23-.03-.43-.16-.54-.37-.27-.5-.3-1.06-.11-1.66.07-.23.23-.36.47-.39,4-.59,7.96-1.52,11.89-2.81.2-.06.41.05.48.25.01.04.02.07.02.11-.02,16.88-.01,34.04.01,51.48,0,3.88,3.42,3.36,6.1,3.59.32.03.53.2.61.51.14.58.12,1.14-.08,1.68-.09.24-.26.39-.51.43-3.98.67-7.94,1.62-11.87,2.87-.12.04-.25-.03-.29-.15,0-.02-.01-.05-.01-.07v-4.6c0-.19-.15-.35-.34-.35-.07,0-.13.02-.19.06-2.92,1.84-5.96,3.67-9.28,4.8-1.89.64-3.95.59-6.17-.14-11.7-3.85-14.54-18.46-8.7-27.95,4.54-7.39,13.45-11.83,22.11-10.25.69.13,1.36.3,1.99.53.35.13.53,0,.53-.37Zm-1.24,5.68c-3.6-2.77-8.43-4-12.62-1.53-4.03,2.37-6.25,6.27-6.66,11.7-.21,2.68-.08,5.06.39,7.16,1.13,5.11,4.77,9.5,10.09,10.26,3.24.46,6.81-1.05,9.57-2.6.31-.17.5-.5.5-.85,0-7.41,0-14.72,0-21.93,0-.96-.57-1.64-1.29-2.2Z"/>
    <path class="cls-1" d="m675.79,479.18c0-.21-.16-.38-.36-.38-.07,0-.14.02-.2.06-4.12,2.49-9.3,6.14-14.29,4.99-6.37-1.47-10.76-6.54-12.31-12.9-3.85-15.73,11.65-29.38,26.7-25.1.17.04.35-.06.4-.23,0-.03.01-.05.01-.08.07-4.62.05-9.25-.05-13.88-.07-3.34-3.42-3.27-5.83-3.37-.4-.01-.67-.21-.82-.57-.19-.48-.2-.96-.03-1.44.1-.28.29-.44.58-.48,3.98-.55,7.86-1.48,11.65-2.77.19-.06.4.04.46.22.01.04.02.08.02.12-.01,16.24,0,33.47.01,51.69,0,3.56,3.63,3.25,6.1,3.37.26,0,.42.14.49.39.2.68.18,1.31-.04,1.9-.08.22-.23.34-.46.39-4.02.69-7.89,1.63-11.63,2.82-.19.06-.39-.04-.45-.23-.01-.04-.02-.08-.02-.12l.07-4.39Zm-.38-3.1c.19-.1.29-.27.3-.49.07-7.46.09-14.83.06-22.11,0-.78-.26-1.4-.79-1.85-3.77-3.25-8.84-4.5-13.19-1.99-6.69,3.85-7.93,13.08-5.94,19.82,1.98,6.71,7.92,11.11,14.95,8.66,1.5-.52,3.04-1.2,4.62-2.03Z"/>
    <path class="cls-1" d="m459.51,463.66c-.11-.32-.33-.49-.68-.49h-17.73c-.23.01-.45.16-.53.38-1.54,4.1-2.92,8.25-4.14,12.45-1.2,4.13,2.83,4.24,5.54,4.44.4.03.59.25.58.64l-.02,1.59c0,.28-.16.43-.44.43l-17.74.05c-.38,0-.57-.19-.56-.57v-1.51c.01-.47.25-.72.72-.74,3.63-.15,6.12-1.91,7.46-5.28,6.07-15.18,12.11-30.55,18.13-46.11.48-1.24,1.62-1.54,2.79-1.74.36-.06.59.08.72.42,5.7,15.85,11.31,31.37,16.83,46.57,1.59,4.37,3.4,5.95,8.14,6.29.25.02.44.23.43.49l-.07,1.79c0,.2-.17.35-.37.35l-19.29.04c-.42,0-.64-.21-.64-.64v-1.46c0-.41.21-.64.62-.68,1.27-.12,4.02-.34,4.83-1.51.62-.89.05-2.45-.31-3.4-1.49-3.89-2.91-7.83-4.27-11.8Zm-9.05-26.18c-.04-.12-.17-.18-.28-.14-.06.02-.11.07-.14.13l-7.78,21.59c-.04.12.02.24.14.28.02,0,.05.01.07.01l15.26.11c.12,0,.22-.1.22-.22,0-.03,0-.05-.01-.07"/>
    <path class="cls-1" d="m496.31,450.95c0,.38.15.45.45.22,2.72-2.07,5.4-3.78,8.05-5.12,2.2-1.11,4.63-1.36,7.3-.73,5.96,1.39,8.09,6.94,8.09,12.51,0,6.16,0,11.98.03,17.46.01,3.93,1.01,5.25,5.05,5.44.42.02.64.24.64.66v1.01c0,.38-.31.69-.68.69l-16.27.04c-.43,0-.64-.22-.62-.65l.07-1.29c.02-.32.18-.49.49-.52,2.97-.32,5.23-.87,5.29-4.41.09-5.74.1-11.44.04-17.11-.03-3.6-1.02-7.38-4.69-8.76-4.69-1.77-9.26.7-12.82,3.78-.26.23-.41.56-.41.9-.02,6.99-.02,14.12.01,21.39.01,3.72,2.34,4.03,5.34,4.21.31.02.46.18.46.49v1.47c0,.32-.15.48-.47.48l-17.04.02c-.32,0-.58-.26-.58-.57,0-.01,0-.03,0-.04l.08-1.3c.02-.39.23-.59.62-.59,4.64-.05,5.51-1.56,5.56-5.49.08-6.99.06-13.97-.07-20.96-.05-2.8-2.29-3.37-4.54-3.7-.25-.03-.41-.16-.5-.4-.2-.54-.22-1.06-.05-1.58.06-.19.19-.3.39-.34,3.67-.67,7.14-1.74,10.39-3.23.14-.06.3,0,.36.13.02.03.02.07.02.11l-.02,5.79Z"/>
    <path class="cls-1" d="m589.22,453.32c0,.59.14.63.45.12,2.2-3.66,5.86-8.42,10.33-8.45,4.58-.02,6.65,5.15,2.48,7.89-.87.57-1.86.57-2.6-.2-4.78-4.97-10.74,3.46-10.65,7.9.08,4.34.09,9.1.01,14.29-.08,5.29,1.8,5.48,6.52,5.86.38.03.58.24.59.63v1.05c.02.46-.2.68-.66.68l-17.94.02c-.52,0-.76-.26-.71-.78l.09-.97c.04-.41.26-.63.68-.66,3.85-.2,5.46-1.19,5.49-5.23.06-7.48.05-14.42-.02-20.82-.04-3.71-1.96-3.73-4.89-4.31-.28-.05-.46-.22-.53-.5-.1-.4-.1-.81,0-1.23.05-.24.21-.39.45-.44,3.53-.68,6.98-1.75,10.35-3.22.42-.18.63-.05.63.41l-.07,7.95Z"/>
    <path class="cls-1" d="m630.57,479.24c-.05-.2-.25-.33-.46-.28-.05.01-.1.03-.14.07-2.97,2.21-7.46,5.56-11.2,5-3.26-.48-5.68-2.13-7.25-4.95-3.5-6.23-.82-11.84,5.71-13.93,3.92-1.25,7.87-2.83,11.86-4.73.36-.17.69-.37.99-.6.19-.14.29-.34.29-.57.06-4.41-1.27-8.99-5.83-10.23-5.39-1.45-7.17,3.25-8.5,7.32-1.29,3.96-8.31-.86-4.67-4.1,2.9-2.58,6.76-4.77,11.57-6.56,1.6-.6,3.17-.77,4.7-.52,5.6.93,8.34,5.62,8.4,11.24.06,6.22.08,12.33.05,18.35,0,1.45.53,2.56,1.6,3.35,1.19.87,2.83.3,4.06-.24.32-.14.55-.04.66.29l.49,1.39c.11.31-.02.66-.3.82-1.97,1.18-3.92,2.32-5.86,3.41-.61.34-1.26.39-1.95.16-2.26-.79-3.67-2.34-4.23-4.66Zm-.72-16.27c-3.21,1.39-6.31,2.77-9.31,4.14-4.7,2.14-5.58,8.07-1.1,10.99,3.43,2.24,7.48.15,10.45-1.9.3-.21.48-.55.48-.91v-11.98c0-.38-.17-.49-.52-.34Z"/>
    <path class="cls-1" d="m699.55,462.7c.12,1.06.25,2.11.37,3.15.61,4.91,3.4,9.97,8.24,11.85,4.51,1.76,10.19.53,13.62-3.22.18-.2.36-.19.53.03l1.1,1.47c.16.22.15.42-.02.62-3.46,3.98-8.57,7.54-13.74,7.48-14.06-.18-18.82-15.62-14.39-26.74,3.52-8.83,14.13-16.41,23.34-9.96,3.45,2.42,5.36,6.4,5.54,10.72.08,1.76-.75,2.72-2.48,2.88-7.18.64-14.42,1.06-21.74,1.28-.28,0-.41.16-.38.44Zm7.5-14.02c-3.62,1.19-5.96,5.71-6.92,9.28-.13.49.05.73.55.72,4.73-.03,9.44-.1,14.15-.21.82-.02,1.53-.26,2.14-.72.18-.14.28-.35.29-.57.18-5.87-4.35-10.44-10.22-8.51Z"/>
    <path class="cls-1" d="m567.87,510.57c.45-.32.81-.71,1.1-1.16.13-.2.39-.28.61-.18l.31.15c.15.07.22.25.16.41-.51,1.22-1.85,3.14-3.4,2.6-.91-.32-1.81-.71-2.68-1.16-.43-.23-.97-.1-1.26.29-.23.31-.48.58-.75.82-.59.54-.84.41-.72-.39.25-1.74,1.75-3.12,3.58-2.29.8.37,1.59.71,2.37.99.25.09.48.06.7-.09Z"/>
    <path class="cls-1" d="m685.72,515.33c-1.19-.02-2.38,0-3.58.07-2.41.14-2.38,1.82-3.06,3.59-.07.19-.26.32-.46.31-.41-.01-.6-.2-.56-.57.18-1.89.31-3.66.39-5.31,0-.15.13-.26.28-.25.06,0,.11.02.16.06.6.46,1.16.91,1.97.9,4.37-.05,8.64-.05,12.82,0,.89.01,1.49-.41,2.2-.87.13-.08.29-.04.38.08.03.04.04.08.04.13l.32,5.48c0,.14-.08.27-.22.32l-.26.09c-.22.08-.47-.04-.55-.27,0-.02-.01-.04-.02-.06-.21-1.08-.6-2.08-1.16-2.99-.16-.25-.41-.41-.7-.47-1.51-.27-3.09-.34-4.74-.21-.28.02-.43.18-.43.46.04,5.37.04,10.58.03,15.62,0,.75.11,1.46.34,2.12.07.22.21.37.43.47.79.35,1.66.55,2.59.62.25.01.45.22.45.47v.17c0,.16-.13.3-.29.3,0,0,0,0,0,0l-8.96.03c-.29,0-.52-.22-.53-.51v-.2c-.01-.16.11-.29.27-.3,1.86-.11,3.28-.62,3.28-2.33,0-5.12.02-10.64.02-16.55,0-.29-.14-.43-.43-.44Z"/>
    <path class="cls-1" d="m733.6,515.39c-1.46-.12-2.87-.08-4.22.14-1.59.24-1.93,2.12-2.24,3.4-.09.37-.31.51-.68.43l-.2-.04c-.13-.03-.23-.15-.22-.29l.39-5.55c0-.13.12-.24.25-.23.04,0,.07.01.1.03.7.42,1.23.84,2.1.84,4.22,0,8.45,0,12.67-.01.8,0,1.49-.22,2.14-.68.32-.23.49-.15.51.24l.32,5.33c0,.12-.08.23-.2.24,0,0-.01,0-.02,0h-.22c-.29-.01-.55-.22-.61-.5-.3-1.35-.73-3.05-2.35-3.26-1.4-.18-2.81-.19-4.21-.04-.26.03-.39.17-.39.43.03,5.82.05,11.23.05,16.23,0,.59.12,1.15.35,1.68.08.19.25.33.45.38l2.56.62c.21.05.33.18.36.41l.03.19c.01.13-.08.24-.2.26,0,0-.02,0-.03,0l-9.01.05c-.29,0-.54-.21-.58-.5l-.03-.18c-.02-.13.08-.26.21-.28,0,0,0,0,0,0,.98-.09,1.85-.32,2.62-.7.22-.11.38-.3.44-.54.18-.69.27-1.4.27-2.14-.03-5.33-.02-10.47.02-15.41,0-.32-.15-.49-.47-.51Z"/>
    <path class="cls-1" d="m439.86,519.12c-.93-3.4-4.05-4.56-7.21-4.08-4.54.7-7.02,3.51-7.45,8.42-.18,2.15.08,4.14.8,5.96,1.51,3.79,5.52,6.04,9.43,5.22,2.11-.44,3.76-1.96,4.96-4.57.15-.32.39-.44.73-.34l.19.05c.19.06.31.25.26.45-.29,1.29-.75,2.68-1.37,4.16-.18.44-.5.72-.96.85-5.97,1.72-12.85,1.01-15.93-4.77-3.31-6.19-.48-13.39,6.13-15.87,3-1.13,6.51-1.17,10.53-.11.37.09.57.33.62.7l.51,4.21c.03.25-.15.46-.4.49-.09,0-.18,0-.26-.05-.24-.14-.5-.44-.57-.72Z"/>
    <path class="cls-1" d="m540.75,527c-.4.11-.67.48-.67.89l.1,6.76c0,.2-.09.32-.28.37-4.12.97-8.01,1.74-12.09.14-2.56-1.01-4.37-2.49-5.43-4.46-2.49-4.63-1.84-11.06,2.42-14.26,4.25-3.19,9.53-3.22,14.51-1.91.24.06.42.27.45.52l.51,4.47c.03.27-.16.52-.43.55,0,0,0,0,0,0l-.24.03c-.09,0-.17-.05-.2-.14-.73-3.29-2.7-4.94-5.91-4.95-5.49-.02-8.61,2.67-9.38,8.05-.86,6.06,2.76,11.6,9.38,11.73,1.41.03,4.01-.45,4.08-2.28.05-1.43.04-2.83-.02-4.2-.03-.63-.48-1.16-1.1-1.28l-2.24-.43c-.21-.04-.35-.25-.3-.46,0-.02,0-.03.01-.05l.09-.24c.05-.14.18-.23.33-.23l7.62.03s.06,0,.08.02c.22.12.32.28.31.48-.02.27-.17.45-.44.53l-1.16.32Z"/>
    <path class="cls-1" d="m570,533.94c.2-.14.28-.41.2-.65l-1.81-5.02c-.09-.26-.33-.43-.6-.43h-6.6c-.15,0-.27.08-.32.22l-1.71,5.14c-.12.36.06.74.41.88.64.26,1.29.47,1.95.64.25.06.37.22.35.47-.01.25-.22.45-.47.45h-6.88c-.13,0-.25-.1-.28-.23l-.05-.21c-.09-.34.04-.54.39-.58,1.46-.19,2.47-.98,3.04-2.39,2.61-6.44,4.93-12.32,6.94-17.64.13-.33.34-.6.66-.79.3-.18.69-.09.87.2.03.04.05.08.06.13,2.08,6.04,4.34,12.23,6.76,18.55.35.91.96,1.46,1.84,1.67.39.09.72.25.99.47.66.53.57.8-.28.8l-7.28.05c-.26,0-.39-.13-.41-.39v-.24c-.03-.22.14-.41.35-.43.71-.06,1.34-.29,1.89-.68Zm-8.4-7.86c-.04.11.02.22.12.26.02,0,.04.01.07.01l5.77.02c.11,0,.2-.09.2-.2,0-.02,0-.04-.01-.07l-2.85-7.96c-.04-.11-.15-.16-.26-.12-.05.02-.1.06-.12.11l-2.91,7.95Z"/>
    <path class="cls-1" d="m715.74,534.55c5.27,1.81,7.68-4.98,2.93-7.63-3.43-1.91-9.05-4.37-6.78-9.54,1.63-3.73,5.98-4.23,9.56-3.25.47.13.82.54.88,1.03l.43,3.56c.03.26-.15.49-.4.52,0,0-.01,0-.02,0-.14,0-.26-.01-.39-.07-.21-.1-.34-.26-.4-.49-.52-2.18-1.45-3.78-3.99-3.79-2.5,0-4.18,2.19-3.6,4.58.32,1.28,1.11,2.26,2.37,2.95,3.3,1.79,8.51,3.73,7.31,8.69-1.27,5.25-7.39,5.93-11.7,3.86-.25-.12-.4-.31-.44-.59l-.7-4.29c-.03-.21.11-.4.31-.43,0,0,0,0,0,0l.31-.05c.32-.05.51.09.59.39.64,2.4,1.88,3.92,3.71,4.55Z"/>
    <path class="cls-1" d="m760,533.91c.16-.11.23-.32.16-.51l-1.91-5.15c-.09-.25-.34-.42-.61-.42h-6.3c-.37,0-.69.24-.8.59l-1.47,4.92c-.1.33.08.67.41.78l2.1.7c.07.02.1.07.1.14v.18c0,.26-.2.48-.47.48,0,0,0,0-.01,0h-6.98c-.22-.02-.31-.13-.28-.34l.03-.28c.03-.27.18-.41.45-.44,1.55-.15,2.61-.94,3.16-2.37,2.23-5.8,4.53-11.65,6.9-17.56.03-.06.06-.13.09-.19.59-.97,1.03-1.07,1.33-.28,2.18,5.83,4.34,11.73,6.48,17.69.67,1.85,1.65,2.54,3.49,2.94.1.02.15.09.14.19v.22c-.03.27-.18.41-.45.41h-7.36c-.22.02-.36-.09-.41-.3-.04-.14-.02-.28.05-.41.1-.19.26-.3.46-.33.63-.1,1.2-.32,1.71-.66Zm-8.55-7.86c-.04.12.02.24.14.28.02,0,.05.01.07.01l5.64.08c.12,0,.23-.09.23-.22,0-.03,0-.05-.01-.08l-2.71-7.92c-.04-.12-.17-.18-.28-.14-.06.02-.11.07-.14.13l-2.93,7.84Z"/>
    <path class="cls-1" d="m586.68,536.03c-5.94-.93-9.97-6.67-9.01-12.81h0c.96-6.15,6.56-10.37,12.5-9.44h0c5.94.93,9.97,6.67,9.01,12.81-.96,6.15-6.56,10.37-12.5,9.44h0Zm2.99-1.25c4.29-.54,7.21-5.42,6.51-10.89h0c-.69-5.48-4.73-9.47-9.02-8.93h0c-4.29.54-7.21,5.42-6.51,10.89h0c.69,5.48,4.73,9.47,9.02,8.93Z"/>
    <path class="cls-1" d="m446.68,515.87c-.73-.45-1.57-.71-2.52-.8-.11-.01-.19-.1-.2-.22v-.26c-.03-.23.14-.43.38-.45.01,0,.02,0,.04,0l7.85-.03c.36,0,.52.18.5.53v.2c-.03.14-.1.23-.24.26l-1.74.33c-.69.13-1.18.73-1.18,1.42-.02,5.03-.04,10.14-.04,15.33,0,1.62.89,2.43,2.67,2.44.29,0,.55.2.62.49l.05.2c.03.14-.05.28-.18.31-.02,0-.04,0-.06,0l-8.34.03c-.39,0-.52-.18-.41-.55l.07-.21c.04-.13.16-.22.29-.23,1.08-.08,1.91-.36,2.51-.83.22-.18.33-.41.33-.69l.02-16.56c0-.28-.15-.55-.39-.7Z"/>
    <path class="cls-1" d="m492.45,515.86c-.74-.39-1.62-.64-2.64-.77-.12-.02-.21-.12-.22-.24v-.26c-.02-.29.12-.43.41-.43l7.35-.03c.26,0,.42.13.47.39l.03.18c.05.21-.04.34-.24.39l-1.74.43c-.58.14-1,.64-1.03,1.23-.19,2.55-.27,5.06-.23,7.53.08,5.6-.9,10.93-7.25,11.78-5.7.76-9.34-2.84-9.39-8.5-.04-3.71-.05-7.24-.05-10.59,0-1.44-1.72-1.8-2.85-1.9-.14-.02-.25-.14-.24-.28,0-.02,0-.04.01-.06l.06-.18c.09-.26.33-.43.6-.43h7.42c.34,0,.51.16.51.51v.22c0,.2-.16.37-.36.37,0,0,0,0-.01,0-.95-.03-1.68.23-2.18.76-.2.21-.3.46-.31.74-.09,3.46-.08,6.96.03,10.51.12,3.69,1.93,6.99,6.11,7.03,4.47.04,6.13-3.34,6.38-7.19.22-3.4.18-6.87-.1-10.4-.02-.34-.23-.65-.53-.81Z"/>
    <path class="cls-1" d="m671.33,530.46c.13-4.16.09-8.52-.11-13.07-.09-1.93-1.77-2.15-3.27-2.37-.13-.02-.23-.14-.21-.27,0-.02,0-.05.02-.07l.07-.18c.09-.23.27-.35.53-.36l7.26-.05c.17,0,.32.11.37.27.05.2.02.37-.09.53-.09.12-.21.21-.35.25-1.76.52-2.59.46-2.62,2.73-.09,5.64-.09,11.24-.02,16.81.02,1.69-.5,1.88-1.57.56l-12.95-15.99c-.33-.41-.5-.35-.51.17-.08,3.94-.07,8.11.04,12.49.04,1.7.94,2.57,2.7,2.62.34,0,.58.17.7.49l.09.2c.05.14-.02.29-.15.34-.03.01-.06.02-.09.02l-7.77.05c-.19,0-.35-.15-.35-.34,0-.03,0-.07.02-.1l.09-.27c.07-.22.22-.34.45-.34,1.66-.09,2.53-.93,2.61-2.49.2-4,.24-8.65.12-13.96-.05-2.16-1.67-2.66-3.42-3.05-.18-.04-.3-.14-.36-.32-.05-.13-.02-.25.07-.37.13-.17.3-.25.52-.26l3.88-.03c.24,0,.44.09.6.28l13.33,16.2c.24.29.37.25.38-.13Z"/>
    <path class="cls-1" d="m701.57,534.03c.35-.22.56-.59.57-1,.1-5.54.1-10.93.01-16.18-.03-1.43-1.85-1.66-2.95-1.76-.13-.01-.24-.12-.24-.26v-.26c0-.25.21-.46.46-.46h7.91c.24.01.44.21.45.45v.24c.01.21-.09.34-.3.37l-1.71.29c-.68.12-1.17.7-1.17,1.38v16.17c.01.25.1.47.28.65.59.59,1.36.89,2.33.91.33,0,.6.24.66.56l.03.17c.03.15-.08.3-.23.33-.01,0-.03,0-.04,0l-8.23.03c-.38,0-.53-.19-.47-.56l.03-.2c.02-.11.11-.2.23-.2.95-.04,1.75-.26,2.4-.67Z"/>
    <path class="cls-1" d="m461.01,526.93c0,1.8.02,3.75.02,5.85,0,1.43,1.58,1.74,2.7,1.85.31.03.47.2.47.51v.19c0,.16-.12.29-.28.29,0,0,0,0,0,0l-8.12.03c-.23,0-.38-.11-.46-.32l-.09-.26c-.05-.13.02-.27.15-.32.02,0,.04-.01.06-.01,1.35-.15,3.13-.28,3.15-2.1.06-5.04.05-10.24-.01-15.6-.01-1.2-.86-1.82-2.53-1.87-.26,0-.41-.14-.46-.39l-.03-.18c-.05-.25.05-.38.31-.39,4.72-.21,8.28-.15,10.7.17,4.39.59,5.96,5.41,3.42,8.72-.68.89-1.68,1.52-2.63,2.13-.25.16-.29.37-.14.62,1.45,2.33,2.9,4.48,4.35,6.45.82,1.12,1.89,1.98,3.22,2.6.21.09.35.25.43.46.02.07.02.13,0,.2-.07.23-.23.36-.47.37-5.37.24-7.37-4.92-9.82-8.77-.11-.16-.26-.29-.43-.37-.91-.41-1.93-.53-3.06-.35-.29.04-.43.21-.43.5Zm.02-10.9v8.4c0,.38.31.7.7.7h1.95c2.59,0,4.69-2.05,4.69-4.58v-.64c0-2.53-2.1-4.58-4.69-4.58h-1.95c-.38,0-.7.31-.7.7Z"/>
    <path class="cls-1" d="m511.76,525.83c1.89,3.14,4.48,7.61,7.83,9.23.18.08.25.3.16.47-.01.03-.03.06-.05.08-.13.15-.29.23-.49.24-4.69.37-7.11-4.06-9.01-7.68-.84-1.6-2.28-2.16-4.31-1.68-.28.07-.42.25-.42.54l.11,6.19c0,.27.12.47.34.61.69.44,1.5.71,2.43.81.26.03.45.25.45.51v.22c0,.14-.11.25-.25.25l-8.24.03c-.29,0-.44-.15-.45-.44v-.27c0-.13.06-.21.18-.23,1.24-.2,3.04-.24,3.05-1.93.04-5.45.05-10.6.02-15.43,0-2.08-1.1-2.01-2.73-2.29-.22-.04-.36-.24-.34-.46l.03-.25c.02-.14.1-.22.24-.22,2.8.03,5.46.02,7.99-.04,3.98-.1,8.28,1.7,7.38,6.57-.41,2.16-1.91,3.46-3.77,4.54-.27.15-.32.36-.16.63Zm-6.25-9.54l-.03,7.92c0,.53.42.96.95.97h1.69c2.62.01,4.75-2.07,4.77-4.65h0v-.5c.01-2.58-2.1-4.68-4.73-4.69h-1.69c-.53,0-.96.42-.97.95h0Z"/>
    <path class="cls-1" d="m551.25,515.5c-.57.13-.98.63-.98,1.22v16.46c0,.51.34.95.84,1.07l2.08.49c.12.03.2.13.2.25v.23c0,.27-.14.41-.41.41l-8.04.02c-.29,0-.43-.15-.41-.44v-.22c.02-.13.09-.2.22-.23,1.26-.26,2.9-.3,2.93-2.05.07-4.41.08-8.97.02-13.7-.03-2.06.34-3.81-2.5-3.81-.37,0-.56-.18-.58-.55v-.22c-.01-.16.11-.3.26-.3,0,0,.01,0,.02,0h8c.28.02.51.24.52.52v.22c.02.1-.03.16-.14.18l-2.03.45Z"/>
    <path class="cls-1" d="m612.32,533.81c.24-.19.38-.48.38-.79v-16.27c.01-.33-.12-.6-.38-.81-.59-.47-1.39-.75-2.41-.82-.15,0-.27-.13-.28-.28l-.02-.27c-.02-.31.13-.46.44-.46,2.8.04,5.63.03,8.49-.02,5.16-.09,11.08,1.44,12.22,7.36,1.63,8.5-3.93,13.92-12.17,14.12-2.97.07-5.9.1-8.78.09-.31,0-.47-.16-.49-.47v-.22c-.03-.15.08-.28.23-.29,0,0,0,0,0,0,1.18-.06,2.1-.35,2.76-.88Zm2.84-16.4v14.74c0,1.15.94,2.09,2.09,2.09h2.15c4.83,0,8.74-3.91,8.74-8.73v-1.46c0-4.82-3.91-8.73-8.74-8.73h-2.15c-1.15,0-2.09.94-2.09,2.09Z"/>
    <path class="cls-1" d="m640.02,523.83l4.78-.05c.45,0,.85-.28,1.01-.7l.53-1.36c.09-.25.37-.37.62-.27.13.05.22.15.28.27.14.35.2.73.18,1.14-.06,1.56-.08,3.02-.05,4.39,0,.21-.12.41-.32.49-.15.06-.31.05-.46-.03-.17-.1-.29-.24-.35-.43-.15-.48-.31-.96-.48-1.42-.09-.26-.32-.45-.59-.49-1.76-.24-3.52-.27-5.27-.1-.27.03-.4.18-.41.45-.04,2.21-.02,4.44.06,6.7.03,1.03.55,1.63,1.55,1.8,1.73.29,3.47.29,5.25,0,1.89-.32,2.61-1.97,3.18-3.56.12-.34.49-.52.83-.4.25.08.36.26.31.53-.24,1.57-.56,3.07-.95,4.51-.06.23-.22.35-.46.35l-15.22.02c-.21,0-.37-.16-.39-.37l-.02-.25c-.01-.2.08-.32.28-.37l1.87-.41c.67-.14,1.16-.74,1.16-1.43,0-4.84,0-10,.02-15.48,0-1.47-.87-2.2-2.64-2.2-.15,0-.28-.11-.31-.25l-.06-.29c-.07-.34.07-.51.42-.51h13.92c.32,0,.58.26.59.57l.18,4.02c0,.26-.11.43-.37.5-.33.09-.57-.03-.7-.37-.64-1.6-.57-3.28-2.76-3.42-1.71-.11-3.37-.13-5-.05-.51.03-.76.3-.76.8v7.13c0,.35.17.53.52.52Z"/>
    <path class="cls-1" d="m498.2,550.83l-6.96,22.65c-.05.18-.2.31-.39.33l-1.03.13c-.26.03-.49-.15-.52-.4,0-.07,0-.14.02-.2l6.92-22.7c.06-.19.22-.32.41-.33l1.07-.08c.26-.02.48.17.5.43,0,.06,0,.12-.02.17Z"/>
    <path class="cls-1" d="m430.28,570.77c2.79,1.35,5.38,1.15,7.76-.59.91-.66,1.23-1.76,1.9-2.54,1.51-1.75,1.94-1.51,1.3.72-.33,1.13-.78,2.24-1.37,3.33-.11.19-.27.32-.49.38-2.7.7-5.18.94-7.46.71-6.67-.68-11.01-6.44-9.74-13.03,1.64-8.48,10.24-10.57,17.87-8.53.27.07.46.3.49.57l.52,4.41c.03.23-.13.45-.36.48-.01,0-.03,0-.04,0-.37.01-.61-.16-.71-.51-1.74-6.17-9.61-5.49-12.89-1.33-1.1,1.39-1.73,3.13-1.89,5.23-.34,4.36.97,8.71,5.09,10.7Z"/>
    <path class="cls-1" d="m474,572.84c-5.95-.91-10.01-6.65-9.06-12.82.94-6.17,6.53-10.44,12.48-9.53h0c5.95.91,10.01,6.65,9.06,12.82-.94,6.17-6.53,10.44-12.48,9.53Zm2.85-1.24c4.26-.5,7.2-5.37,6.55-10.88,0,0,0,0,0,0-.65-5.51-4.63-9.57-8.89-9.07h0c-4.26.5-7.2,5.37-6.55,10.88h0c.65,5.51,4.63,9.57,8.89,9.07h0Z"/>
    <path class="cls-1" d="m455.84,562.85c1.7,2.76,3.99,6.63,6.84,8.57,1.45.99,1.3,1.42-.45,1.3-4.24-.28-6.48-4.91-8.44-8.27-.83-1.43-2.37-1.45-3.85-1.29-.31.03-.46.2-.45.51l.11,6.4c0,.52.39.97.91,1.05l1.7.27c.25.04.37.18.38.43v.26c.02.25-.1.38-.35.38h-7.8c-.3,0-.48-.15-.53-.45l-.03-.22c-.03-.18.05-.3.23-.33l1.97-.37c.51-.09.88-.53.9-1.05.17-5.34.17-10.98-.01-16.92,0-.28-.14-.49-.39-.62-.6-.32-1.27-.54-2-.65-.3-.05-.46-.22-.46-.52v-.2c0-.18.09-.28.27-.28,3.7-.09,6.99-.08,9.88.05,3.31.14,6.02,2.86,5.43,6.29-.34,1.97-1.54,3.53-3.6,4.66-.43.24-.51.57-.26.99Zm-6.29-9.8l-.05,7.86c0,.56.44,1.01,1,1.01h1.62c2.57.03,4.67-1.99,4.69-4.49h0v-.79c.02-2.51-2.05-4.56-4.62-4.58h-1.62c-.56-.02-1.01.43-1.01.99h0Z"/>
    <path class="cls-1" d="m506.49,563.66l.13,6.28c.02.6.46,1.09,1.05,1.18l1.97.27c.23.03.4.23.4.47v.28c-.02.22-.13.33-.35.33h-8.31c-.37,0-.52-.18-.43-.54l.05-.24c.03-.13.14-.23.26-.25l1.68-.3c.67-.12,1.16-.7,1.16-1.39l-.02-16.31c0-.63-.43-1.17-1.04-1.32l-1.47-.34c-.23-.05-.37-.2-.43-.43-.03-.15,0-.27.12-.38.07-.07.18-.1.33-.11,4.37-.13,7.6-.12,9.68.04,4.59.34,6.57,3.91,5.5,8.15-1.05,4.12-6.17,5.45-9.74,4.21-.22-.07-.45.04-.52.25-.02.05-.02.1-.02.14Zm.03-10.28v7.61c0,.74.6,1.33,1.33,1.33h1.68c2.52,0,4.56-2.07,4.56-4.62h0v-1.04c0-2.55-2.04-4.62-4.56-4.62h-1.68c-.74,0-1.33.6-1.33,1.33h0Z"/>
    <path class="cls-1" d="m525.49,563.65l.07,6.39c0,.25.12.48.31.63.58.46,1.35.68,2.31.68.2,0,.36.15.39.35l.03.26c.04.35-.12.52-.47.52h-7.93c-.17-.01-.3-.15-.3-.31v-.24c0-.29.21-.53.49-.57l1.4-.17c.64-.08,1.13-.62,1.14-1.26.15-5.97.15-11.33,0-16.07-.04-1.28-.78-1.92-2.21-1.95-.35,0-.57-.18-.66-.51l-.05-.2c-.03-.13.04-.26.17-.3.02,0,.04,0,.06,0,3.9-.13,7.25-.13,10.04.01,4.56.22,6.96,5.12,4.29,8.78-.68.94-1.58,1.72-2.7,2.35-.27.15-.32.35-.16.6,2.14,3.41,4.15,7.02,7.52,9.21.73.48.67.76-.2.85-4.76.5-7.12-4.69-9.11-8-.82-1.36-2.16-1.87-4.02-1.53-.27.05-.4.21-.4.49Zm.09-10.76l-.13,8.16c0,.46.36.84.82.85h0l1.84.03c2.56.04,4.67-2,4.71-4.54h0s.01-.62.01-.62c.04-2.55-2-4.64-4.56-4.68,0,0,0,0,0,0l-1.84-.03c-.46,0-.84.36-.85.82Z"/>
    <path class="cls-1" d="m568.08,560.7c.55-.22,1.09-.45,1.62-.7,4.69-2.29,9.12,1.8,8.34,6.67-.37,2.33-1.5,4.1-3.37,5.29-2.51,1.6-6.1,1.06-8.01-1.34-1.24-1.56-1.89-3.4-1.95-5.51-.22-7.69,5.05-12.82,12.41-13.92.17-.02.33.07.39.22l.07.2c.13.33.02.54-.32.64-4.4,1.24-7.88,3.56-9.49,8.15-.12.33-.01.44.32.31Zm2.89,10.82c6.02,2.31,6.88-14.18-3.11-9.49-.2.09-.34.28-.37.49-.51,3.25,0,7.67,3.48,8.99Z"/>
    <path class="cls-1" d="m608.98,560.62c.64-.19,1.26-.44,1.87-.75,2.81-1.38,6.07.04,7.37,2.62,2.03,4.06-.33,9.59-5.12,10.3-3.25.49-5.87-1.51-6.96-4.56-.93-2.61-.8-5.69.16-8.27,1.79-4.82,5.71-7.77,11.78-8.84.16-.03.31.08.34.24,0,.03,0,.05,0,.08l-.03.26c-.03.32-.2.52-.5.62-4.33,1.29-7.65,3.47-9.24,7.96-.12.34-.01.45.33.34Zm6.99,8.33c1.6-5.08-1.97-9.67-7.38-6.81-.22.12-.35.31-.39.55-.4,2.76.16,6.35,2.41,8.19,2.1,1.7,4.59.51,5.35-1.93Z"/>
    <path class="cls-1" d="m552.03,570.3c1.81-.11,3.78-.16,5.9-.16,1.23,0,1.92-.95,2.41-1.95.13-.26.34-.36.64-.3.25.05.41.3.36.55,0,0,0,.01,0,.02l-.86,3.54c-.07.31-.27.47-.59.47h-10.77c-1.39,0-1.56-.45-.51-1.36,2.4-2.06,4.59-4.12,6.56-6.17.93-.96,1.64-2.09,2.12-3.37.71-1.92.14-4.64-2.17-5.1-3.1-.61-4.02.68-5.87,2.69-.13.14-.35.15-.5.01-.05-.05-.08-.11-.1-.17-.22-.85.41-1.29.8-1.93,1.95-3.08,5.94-3.91,8.85-1.85,1.61,1.13,2.21,2.74,1.81,4.84-.77,4.01-5.6,7.01-8.28,9.79-.32.33-.25.48.21.45Z"/>
    <path class="cls-1" d="m591.54,556.53l-.11-.37c-.03-.1.03-.21.13-.24l5.31-1.6c.1-.03.21.03.24.13,0,.02,0,.04,0,.05l.02,16.14c0,.09.07.17.16.19l2.96.63c.09.02.15.1.16.19v.59c0,.11-.09.2-.2.2h-8.47c-.1,0-.19-.07-.2-.17l-.05-.55c0-.1.06-.19.16-.21l2.86-.66c.09-.02.15-.1.15-.19l.03-13.64c0-.1-.08-.19-.18-.2l-2.79-.18c-.08,0-.15-.06-.18-.14Z"/>
    <path class="cls-1" d="m632.87,556.67l-7.85.05c-.27,0-.46.11-.59.34l-1.21,2.08c-.11.19-.31.29-.53.27-.36-.03-.51-.19-.46-.47.24-1.35.39-2.74.45-4.15,0-.14.12-.26.26-.26h12.45c.16,0,.29.14.29.3,0,.04,0,.09-.03.12l-9.06,19.42c-.27.58-.72.92-1.36,1.01l-.78.11c-.73.1-.9-.16-.52-.78,3.47-5.76,6.57-11.58,9.3-17.47.18-.38.06-.57-.37-.57Z"/>
    <circle class="cls-1" cx="583.5" cy="570.96" r="1.87"/>
  </g>
  <path class="cls-1" d="m257.09,547.16c-4.18,10.44-8.9,20.6-14.16,30.46-.94,1.75-2.16,3.16-4.09,1.67-.18-.14-.32-.34-.38-.57-1.28-4.8-.81-10.95-.28-15.87,1.08-10.03,3.02-20.11,4.91-30.16.63-3.34,1.32-6.67,2.07-10.01,2.66-11.83,4.43-19.52,5.29-23.06,9.53-39.39,20.32-78.72,32.38-117.97.7-2.27,2.06-7.19,4.1-14.76,1.01-3.79,2.11-8.16,3.28-13.11,1.24-5.27,2.59-10.74,4.05-16.41,1.17-4.56,2.55-10.67,4.16-18.33,3.27-15.58,3.02-33.55-4.15-47.63-14.61-28.74-52.61-9.74-71.5,1.66-7.43,4.48-15.19,9.21-23.29,14.18-4.06,2.49-8.56,4.98-12.95,6.72-1.87.74-3.91,1.19-6.14,1.35-.77.05-1.47-.18-1.78-.93-3.04-7.25,4.89-17.96,9.34-23.2,7.78-9.18,16.7-17.88,26.76-26.11,12.09-9.89,26.11-17.62,41.15-22.08,12.49-3.7,26.79-3.89,39.25.43,19.08,6.64,32.33,22.19,38.89,41,6.91,19.78,7.38,41.37,2.25,61.42-4.09,15.97-9.15,32.18-15.19,48.64-2.84,7.76-6.07,16.28-9.67,25.55-1.57,4.03-3.14,8.26-4.73,12.67-1.81,5.04-3.63,10.13-5.46,15.26-7.39,20.65-14.49,40.42-21.3,59.32-7.08,19.65-14.68,39.6-22.8,59.86Z"/>
  <path class="cls-1" d="m229.37,280.28c4.29-1.87,8.98-2.59,14.06-2.16.43.03.82.28,1.03.66,1.19,2.14,2.54,4.3,4.04,6.5,4.04,5.93,10.61,10.71,16.82,14.12,5.94,3.26,11.43,6.51,16.48,9.76,4.31,2.77,9.3,6.98,8.47,12.64-1.09,7.44-13.21,4.75-17.71,3.48-10.42-2.91-20.92-7.99-30.14-14.12-4.94-3.29-9.57-7.42-13.89-12.39-5.21-6-9.34-14.05.85-18.49Z"/>
  <path class="cls-1" d="m153.91,524.29c.23.33.69.42,1.03.19.11-.07.19-.17.25-.29,2.06-4.3,3.8-9.05,5.22-14.26,1.52-5.57,2.61-10.38,3.29-14.41,4.76-28.79,9.35-54.48,13.76-77.08.95-4.91,2.16-9.87,3.14-14.86.42-2.14.84-4.12,1.27-5.94,2.04-8.69,4.17-17.28,6.41-25.76.98-3.72,2.64-8.46,4.98-14.2,2.06-5.05,4.74-9.53,8.06-13.45,1.86-2.2,4.39-4.07,7-5.26,8.82-4.03,17.34-.79,22.65,6.88,2.87,4.15,5.05,9.27,6.42,14.06,2.33,8.17,4.11,16.34,5.34,24.51,2.75,18.24,5.35,36.26,4.99,55.1-.07,3.77-.52,7.32-1.33,10.65-.51,2.08-1.07,4.39-3.91,3.79-2.93-.62-4.76-3.5-6.04-6.06-3-5.97-4.63-12.63-6.44-19.21-.98-3.58-1.9-7.31-2.74-11.19-2.1-9.69-4.25-19.62-6.46-29.78-1.04-4.77-2.4-9.22-4.08-13.35-.13-.31-.33-.37-.61-.18-.23.16-.39.39-.48.68-2.1,7.04-4.02,15.05-5.75,24.01-2.4,12.34-5.06,27.27-7.98,44.8-1.51,9.06-2.96,18.13-4.34,27.22-1.39,9.14-2.84,18.64-4.35,28.49-1.72,11.17-4.22,21.45-8.11,31.84-3.85,10.26-10.9,22.63-21.95,26.49-9.31,3.25-19.21.73-26.2-5.79-4.51-4.21-8.38-9.29-11.63-15.25-3.98-7.31-7.79-15.26-11.43-23.86-4.59-10.83-8.99-21.53-13.22-32.09-2.84-7.09-4.45-11.31-4.82-12.66-1.43-5.15-2-9.83-1.69-14.04.52-7.17,5.5-12.75,12.85-12.13,6.91.58,12.7,6.93,15.91,12.82,4.28,7.83,8.03,15.95,11.26,24.35,6.13,15.96,10.72,27.43,13.78,34.39,1.68,3.83,3.68,7.44,5.99,10.84Z"/>
  <path class="cls-1" d="m85.27,374.12c-.28.06-.4.23-.34.51,1.47,6.82,3.21,13.33,5.21,19.52,2.99,9.28,6.29,18.26,8.31,27.79.86,4.04,2.01,10.99-.79,14.31-3.5,4.16-9.07,2.07-12.46-1.08-9.27-8.6-16.25-20.9-21.97-32.32-7.02-13.97-12.66-28.47-18.33-43.03-1.85-4.74-3.48-9.48-4.89-14.22-4.35-14.64-5.89-30.03-6-45.34-.25-34.92,33.02-53.35,61.96-61.97,22.07-6.58,44.93-9.42,67.96-9.72,7.27-.09,15.57.51,21.57,4.35,3.86,2.47,6.18,7.32,5.73,11.97-.93,9.4-10.13,18.21-19.48,18.42-7.64.18-15.41-.57-23.12-.05-21.32,1.41-76.16,8.17-76.16,38.76,0,11.72.41,23.81,2.37,35.51.37,2.23.96,4.3,1.75,6.22.1.24.37.37.62.29,7.81-2.47,15.52-4.58,23.13-6.35,7.38-1.72,24.9-5.2,29.97,2.58,2.45,3.75,1.76,8.51-1.1,11.99-1.78,2.18-4.07,4.22-6.86,6.12-8.59,5.87-18.55,10.13-28.58,13.47-2.82.93-5.65,1.69-8.5,2.28Z"/>
</svg>