<?xml version="1.0" encoding="UTF-8"?>
<svg id="Camada_1" data-name="Camada 1" xmlns="http://www.w3.org/2000/svg" viewBox="0 0 800 800">
  <defs>
    <style>
      .cls-1 {
        fill: #fff;
      }
    </style>
  </defs>
  <path class="cls-1" d="m197.52,323.52c-.18-.02-.27-.13-.27-.31.04-10.31.02-20.51-.03-30.6,0-1.77.09-3.47.29-5.1,1.92-15.5-12.58-22.34-25.91-23.91-.24-.03-.44-.13-.6-.31-12.41-14.12-34.64-13.15-51.31-8.78-.22.06-.43.03-.63-.06-8.22-4.13-16.94-6.54-26.14-7.23-2.01-.15-3.95-.13-5.83.05-2.02.2-3.98.46-5.89.8-10.71,1.88-19.74,7.07-27.1,15.56-.15.17-.33.26-.55.27-7.17.55-16.54,3.47-19.07,11.13-1.6,4.82-.01,10.42,2.63,14.7.11.18.15.38.12.6-.15.93-.27,1.83-.26,2.77.02,36.94.02,73.85,0,110.72,0,.22-.06.42-.19.6-2.28,3.28-3.67,6.88-4.17,10.78-1.22,9.63-.88,18.84,3.86,27.49.31.57.47,1.17.47,1.79.06,15.87.06,32.76,0,50.67-.01,4.24,2.41,7.63,6.54,8.78,1.03.29,2.44.42,4.22.41,6.34-.05,12.55-.05,18.63,0,.17,0,.33-.05.47-.14.04-.02.08-.05.14-.08-3.52-4.89-5.45-10.32-5.77-16.3,0-.16-.14-.28-.3-.28h-5.17c-.12.01-.22-.09-.22-.21v-27.27s0-.07,0-.1c.06-.18.25-.29.43-.23,4.26,1.27,8.49,1.66,12.7,1.17,3.86-.45,7.6-1.39,11.18-2.91,9.34-3.98,18.69-9.32,25.21-17.1,2.46-2.93,4.9-5.84,7.32-8.74.41-.48.88-.88,1.43-1.2.51-.3,1.17-.19,1.56.26,2.55,2.93,5.14,5.96,7.76,9.1,4.08,4.89,9,8.97,14.77,12.24,4.59,2.6,9.13,4.77,13.64,6.5,2.17.83,4.83,1.43,7.97,1.81,11.84,1.4,22.27-3.29,29.25-12.71,5.6-7.56,8.19-16.08,7.77-25.56-.1-2.2-.28-4.48-.53-6.83-.62-5.74-3.75-13.68-9.78-15.4-.4-.11-.4-.23,0-.35.76-.22,1.56-.32,2.38-.31,4.17.07,7.49,2.1,9.98,6.09l.03-48.62c0-.23.11-.34.34-.34,9.55.17,18.57,4.42,24.86,11.45,20.03,22.35,8.86,60.41-22.23,64.31-.02.55-.2,1.41-.55,2.59-3.22,10.93-10.87,20.84-21.93,24.53-.13.04-.2.13-.2.27v27.26c.01.19-.14.35-.34.35h-9.14c-.19-.01-.28.08-.28.28.11,4.23-.5,8.35-1.82,12.36-.29.89-1.05,2.27-2.27,4.15,7.54-.03,14.99,0,22.36.11,3.51.05,6.29-1.29,8.33-4.03,1.04-1.39,1.56-2.59,1.56-3.62.02-10.73.03-21.62.02-32.67,0-.24.12-.38.36-.41,5.08-.63,10.08-1.85,15.01-3.67,42.14-15.56,59.25-65.54,35.64-103.84-11.06-17.93-29.95-29.89-50.75-32.66Zm-18.68-22.45l.03,33.48c0,.55-.12.57-.36.08-4.58-9.4-12.08-14.66-22.51-15.79-1.9-.21-3.98.04-5.89.34-2.4.38-4.79,1.08-7.17,2.09-.24.1-.41.03-.52-.19-.39-.8-1.46-1.16-2.15-.47-1.75,1.75-3.84,3.06-6.3,3.94-.76.27-1.54.23-2.34-.11-3.28-1.38-6.44-3.27-9.96-3.92-3.91-.72-7.77-.56-11.59.48-1.77.48-4.61,1.53-8.53,3.14-2.86,1.19-6.47-1.48-8.15-3.44-.71-.83-2.26-.87-2.75.17-.11.24-.29.31-.54.22-5-1.8-9.72-2.83-15.03-1.91-8.45,1.47-14.84,5.95-19.18,13.45-.29.51-.44.47-.44-.12v-31.44c0-.21.1-.31.31-.31h122.74c.18,0,.32.14.32.32Zm-113.25,46.24s-.06-.03-.09,0c-2.55,2.35-5.09,4.65-7.65,6.89-.07.06-.12.05-.15-.04l-.87-2.21c-.03-.07-.02-.14.03-.2,4.33-5.16,8.7-10.28,13.13-15.36.03-.04.02-.06-.03-.07-.05,0-.1,0-.15,0-.02,0-.04,0-.05.02-4.35,4.26-8.71,8.5-13.1,12.74-.05.05-.11.08-.18.08-.16.01-.31-.1-.32-.27-.94-9.36,2.18-16.77,9.35-22.22,4.47-3.4,9.73-4.86,15.79-4.38,6.19.5,11.44,3.25,15.75,8.24.16.18.16.36,0,.54-2.12,2.33-4.31,4.76-6.56,7.27-.03.04-.03.07,0,.1h0s.08.05.12.01c2.38-1.88,4.87-3.84,7.49-5.91.2-.16.37-.13.51.08,4.93,7.49,5.17,17.47.32,25-9.79,15.23-31.17,14.47-40.17-1.17-.11-.19-.1-.38.04-.55,2.45-3.07,4.71-5.92,6.79-8.54.02-.03.02-.06,0-.08Zm36.08-16.88c-.35,0-.67-.17-.87-.45-.45-.63-.86-1.19-1.22-1.71-.22-.31-.14-.49.24-.51,1.71-.13,3.46-.6,5.26-1.43,6.52-3,13.71-4.19,20.11-1.16,2.44,1.16,5.59,3,8.28,2.9.37-.01.45.13.22.42l-1.16,1.53c-.2.27-.47.4-.8.4h-30.06Zm43.84-6.59c6.96-2.91,15.09-1.96,21.63,2.27.01,0,.02.02.03.03.08.08.08.21,0,.29-4.94,5.09-9.81,10.1-14.59,15.05-.03.04-.04.07,0,.11h0s.09.05.14.01c5.36-4.65,10.74-9.26,16.15-13.83.21-.18.41-.17.6.04l.89.96c.23.25.23.64,0,.88-2.24,2.47-4.48,4.95-6.73,7.43-.03.04-.03.07,0,.11h0c.05.06.1.06.16.02,2.68-2.19,5.41-4.36,8.18-6.51,0,0,0,0,.01,0,.09-.06.21-.03.27.06l1.94,2.91c.06.09.05.18-.03.27-3.54,3.51-6.93,6.98-10.16,10.4-.24.25-.22.27.05.06,3.62-2.8,7.21-5.66,10.78-8.59.02-.02.05-.04.08-.05.18-.08.39,0,.47.18,2.38,5.29,2.65,11.71.74,17.09-6.44,18.16-30.83,21.32-41.42,5.07-8.05-12.35-2.71-28.58,10.79-34.24Zm-92.43-46.02c.04-.18.15-.29.33-.33.7-.17,1.39-.3,2.07-.42,2.67-.46,5.47.24,8.06-.6,2.16-.7,3.98-1.79,5.27-3.79,3.59-5.56,9.48-9.86,15.61-11.5,4.28-1.14,8.45-.93,12.77.12,4.66,1.13,9.04,2.83,13.13,5.1,2.26,1.25,4.14,1.99,5.64,2.22,2.15.33,4.07.22,5.75-.33,3.78-1.24,7.41-2.14,10.91-2.7,4.06-.66,8.07-.79,12.04-.41,5.11.49,8.88,2.78,11.33,6.86,1.29,2.14,3.67,3.68,6.01,4.09,1.88.33,4.34.56,7.38.68.61.02,1.83.3,3.66.84,2.09.61,3.75,1.81,4.97,3.58.04.06.06.13.06.2,0,.2-.16.36-.36.36H53.57c-.2,0-.33-.1-.38-.29-.38-1.27-.41-2.5-.11-3.67Zm55.03,126.45l-.24-.12c-.14-.07-.28-.12-.43-.15-2.67-.52-6.05,1.82-8.03,3.68-1.11,1.05-2.36,2.94-3.75,5.67-1.57,3.08-3.09,5.93-4.57,8.54-5.18,9.14-12.72,14.85-22.62,17.13-5.58,1.29-10.25.97-15.43-1.23-5.94-2.53-9.39-8.04-11.49-14.16-.22-.65-.11-.71.33-.18,4.11,4.9,10.77,7.79,16.97,8.66,2.36.33,4.61.11,6.84-.84,3.68-1.57,7-3.69,9.97-6.37,5.49-4.94,10.16-10.91,14.42-17.09,3.47-5.03,8.54-7.51,14.7-6.15,1.25.27,3.3.94,3.65,2.36.08.31-.03.4-.31.25Zm6.71-.91c-.32.26-.78.26-1.1,0-3.15-2.56-6.38-4.36-9.69-5.39-2.92-.91-7.05-.78-9.87.61-3.28,1.62-6.31,3.95-9.1,6.98-4.37,4.74-8.69,9.79-13.72,13.88-4.68,3.81-9.78,5.99-15.31,6.54-1.76.17-3.31,0-4.66-.53-6.79-2.65-12.1-7.84-9.99-15.58.93-3.41,3.54-6.69,7.85-9.85.7-.51,1.47-.68,2.31-.51l2.53.5c.78.16.84.45.16.87-2.42,1.51-4.27,3.4-5.55,5.67-2.8,4.92-2.57,9.48.69,13.68,1.33,1.72,3.57,3.04,5.5,4.15.41.24.62.12.62-.35v-65.86c0-.46.13-.51.39-.12.49.71.83,1.52,1.32,2.21,4.19,5.98,9.75,9.7,16.68,11.14,13.1,2.74,26.17-4.77,30.46-17.42,2.25-6.66,1.9-13.29-1.07-19.91-.01-.03-.02-.05-.02-.08,0-.11.09-.2.2-.2h26.51c.2,0,.25.09.17.27-3.81,8.45-3.23,18.07,1.86,25.92,8.12,12.54,25.39,15.73,37.48,7.13,4.04-2.88,6.98-6.4,8.81-10.57.41-.92.61-.88.61.13l-.04,67.67c0,.24-.11.41-.32.52-1.33.66-2.73,1.23-4.25,1.17-4.27-.16-8.05-1.12-11.34-2.88-7.66-4.11-13.39-11.14-19.36-17.56-1.97-2.12-4.1-3.96-6.39-5.51-2.52-1.71-5.15-2.61-7.9-2.7-2.58-.09-5.15.48-7.69,1.71-2.53,1.22-4.78,2.64-6.76,4.25Zm72.69,20.05c.37-.44.46-.39.29.15-1.92,6.1-5.61,11.82-11.72,14.32-3.96,1.62-7.79,2.2-11.49,1.74-9.53-1.19-17.17-5.44-22.93-12.76-3.32-4.21-5.95-9.54-8.43-14.47-.94-1.86-1.95-3.34-3-4.44-2.15-2.22-5.91-4.85-9.15-3.73-.03.01-.07,0-.1,0-.08-.03-.11-.12-.08-.19.68-1.62,2.8-2.27,4.42-2.54,3.62-.59,6.91.08,9.88,2.02,1.28.84,2.55,2.15,3.81,3.91,6.91,9.73,14.92,20.62,26.09,24.3,2.06.68,4.6.67,7.63-.02,5.62-1.29,11.16-3.89,14.8-8.31Z"/>
  <path class="cls-1" d="m163.46,501.71c1.18-2.34,1.92-4.82,2.24-7.43.72-5.94.52-11.83-.59-17.7-.79-4.13-2.38-7.97-4.77-11.53-.12-.18-.28-.26-.49-.24-.44.03-.87.08-1.29.17-16.7,3.23-33.17-2.44-42.08-17.19-1.45-2.4-4.24-2.18-5.64.17-.72,1.2-1.52,2.38-2.42,3.52-8.89,11.3-20.7,15.02-34.58,13.73-1.94-.18-3.92-.46-5.96-.84-.22-.04-.37.04-.45.25-3.85,9.57-4.97,18.77-3.35,27.61.52,2.86,1.63,5.82,3.32,8.86.1.18.12.37.04.57-.3.76-.38,1.6-.24,2.53.32.18.76.21,1.32.07.09-.05.16-.13.22-.22.05-.08.07-.18.06-.29-.14-1.78.25-3.43,1.17-4.94.34-.56.53-.51.56.14.22,4.08.66,8.07,1.32,11.96.91,5.38,3.14,10.17,6.7,14.35.92,1.08,2.25,2.52,3.99,4.31l1.23,1c-.5-1.66-.66-2.88-.45-3.66.08-.3.29-.47.63-.5.18-.02.35.1.39.28.89,3.47,4.35,7.16,6.97,9.39,8.74,7.45,18.92,12.02,30.56,13.71,1.68.25,3.27.48,4.75.68l1.68.08c.21,0,.22-.04.04-.14l-2.05-1.13c-1.22-3.12-.19-5.96,3.1-8.53,3.8-2.97,6.79-5.48,8.96-7.54,1.63-1.55,3.03-3.72,4.18-6.52.15-.38.41-.46.76-.26.05.03.09.07.12.12.3.42.38.88.23,1.36-.26.89-.66,1.74-1.2,2.56-.03.04-.05.09-.05.15-.06.53.07.65.41.37l2.25-1.85c.95-.98,2.02-2.07,3.22-3.28,6.75-6.83,11.12-16.14,11.09-25.72,0-.9.23-.97.69-.19.72,1.18,1.34,2.68,1.86,4.5.66-.15,1.18-.18,1.56-.09.53-1.05-.57-1.49,0-2.61Zm-49.85,39.36l-.15.18c-.1.13-.27.19-.43.17-3.52-.56-6.71-1.6-9.55-3.14-5.55-2.99-10.75-7.11-15.61-12.35-2.97-3.2-5.11-6.92-5.81-11.17-.07-.46-.07-.92,0-1.39.08-.51,0-.53-.21-.07-1.37,2.88-.86,5.53-.25,8.58.12.62,0,.67-.35.15-.8-1.16-1.61-2.32-2.43-3.49-2.33-3.33-3.9-6.82-4.69-10.47-.97-4.46-1.58-9.65-1.83-15.57-.07-1.6.21-3.12.25-4.71,0-.33-.08-.36-.28-.09-1.69,2.32-2.73,4.61-3.14,6.86-.18.98-.42,1-.72.05-.57-1.79-.73-3.82-.48-6.08.42-3.89,1.41-7.83,2.99-11.82.4-1.01.9-1.9,1.5-2.64.14-.18.36-.29.58-.29,1.12-.03,2.14.21,3.06.71.19.11.29.27.3.48.2,6.93.83,13.73,1.9,20.4.34,2.11.91,4.31,1.72,6.34,2.9,7.39,5.7,14.02,10.44,20.28,2.93,3.88,6.11,7.43,9.53,10.65,3.63,3.42,8.67,7.06,13.56,8.22.13.03.16.1.07.21Zm32.66-19.04c-.36.33-.43.27-.21-.16.59-1.11.72-2.28.4-3.51,0-.03,0-.07.03-.08,3.34-2.12,5.63-4.6,6.89-7.46.78-1.79,1.59-3.64,2.43-5.56.02-.03.04-.04.07-.04l.16.05c.08.03.11.08.09.16-1.58,6.55-4.87,12.08-9.87,16.6Zm16.09-26.07c-.12-1.11-.48-2.03-1.07-2.78-.12-.16-.12-.31,0-.46,1.73-2.05,2.66-4.53,2.78-7.45,0-.04.02-.06.05-.07l.15-.03c.06-.01.08,0,.09.07.44,3.57.04,7.17-1.2,10.81-.4,1.18-.67,1.15-.8-.09Z"/>
  <path class="cls-1" d="m308.95,400.54c6.7,0,12.15-5.45,12.15-12.15v-39.67l12.47,18.49c3.28,5.13,6.83,6.2,9.23,6.2s5.95-1.08,9.21-6.17l12.35-18.48v39.62c0,6.59,5.63,12.15,12.29,12.15s12.15-5.56,12.15-12.15v-67.7c0-8.17-6.64-14.81-14.81-14.81-4.97,0-9.77,2.67-12.51,6.96l-18.74,28.62-18.6-28.6c-2.75-4.3-7.55-6.97-12.52-6.97-8.17,0-14.81,6.64-14.81,14.81v67.7c0,6.59,5.56,12.15,12.15,12.15Z"/>
  <path class="cls-1" d="m455.28,329.34c5.98,0,11.03-4.98,11.03-10.89s-5.05-10.89-11.03-10.89h-45.13c-8.05,0-12.85,4.8-12.85,12.85v65.32c0,8.05,4.8,12.85,12.85,12.85h45.13c5.98,0,11.03-4.98,11.03-10.89s-5.05-10.89-11.03-10.89h-32.84v-13.97h29.76c5.98,0,11.03-4.99,11.03-10.89s-5.05-10.89-11.03-10.89h-29.76v-11.73h32.84Z"/>
  <path class="cls-1" d="m538.63,371.71c0-14.34-8.03-23.48-25.28-28.74l-12.83-3.9c-5.55-1.9-7.16-3.23-7.16-5.9,0-3.61,5.51-5.23,10.98-5.23s10.24,1,15.19,3.07l.15.06c3.57,1.17,7.04.71,9.77-1.27,2.68-1.94,4.27-5.19,4.27-8.6.17-4.92-2.85-9.38-7.48-11.1-7.32-2.83-14.8-4.2-22.89-4.2-21.34,0-35.13,11.32-35.13,28.83,0,14.36,7.55,22.96,24.47,27.9l13.41,3.91c5.56,1.76,7.25,3.23,7.25,6.31,0,4.38-7.05,5.93-13.08,5.93-5.11,0-10.51-1.28-17.07-4.07-2.92-1.11-6.31-.73-9.08,1.02-2.77,1.76-4.51,4.61-4.77,7.83-.68,4.99,2.07,9.67,6.81,11.63,5.76,2.58,14.72,5.65,24.67,5.65,24.02,0,37.8-10.61,37.8-29.11Z"/>
  <path class="cls-1" d="m547.5,329.34h15.04v58.63c0,6.93,5.64,12.57,12.57,12.57s12.71-5.64,12.71-12.57v-58.63h14.9c6.08,0,11.03-4.88,11.03-10.89s-4.95-10.89-11.03-10.89h-55.22c-6,0-10.89,4.88-10.89,10.89s4.88,10.89,10.89,10.89Z"/>
  <path class="cls-1" d="m669.01,395.3l.03.04c2.39,3.3,5.85,5.2,9.52,5.2,6.16,0,11.17-5.07,11.17-11.31,0-2.4-.63-4.48-1.77-5.94l-12.75-18.3c10.11-5.1,15.64-14.52,15.64-26.77,0-18.91-13.46-30.65-35.13-30.65h-25.51c-8.05,0-12.85,4.8-12.85,12.85v67.56c0,6.93,5.64,12.57,12.57,12.57s12.57-5.64,12.57-12.57v-18.41h8.91l17.61,25.74Zm-26.52-65.54h11.26c10,0,11.96,3.2,11.96,8.74s-1.98,8.88-11.82,8.88h-11.4v-17.61Z"/>
  <path class="cls-1" d="m710.93,398.58h45.13c5.98,0,11.03-4.98,11.03-10.89s-5.05-10.89-11.03-10.89h-32.84v-13.97h29.76c5.98,0,11.03-4.99,11.03-10.89s-5.05-10.89-11.03-10.89h-29.76v-11.73h32.84c5.98,0,11.03-4.98,11.03-10.89s-5.05-10.89-11.03-10.89h-45.13c-8.05,0-12.85,4.8-12.85,12.85v65.32c0,8.05,4.8,12.85,12.85,12.85Z"/>
  <path class="cls-1" d="m326.03,413.99h-18.45c-6.86,0-10.96,4.1-10.96,10.96v56.93c0,6.86,4.1,10.96,10.96,10.96h18.45c22.71,0,38.57-16.16,38.57-39.3s-15.86-39.55-38.57-39.55Zm0,59.99h-7.98v-41.13h7.98c10.66,0,17.02,7.73,17.02,20.69s-6.36,20.44-17.02,20.44Z"/>
  <path class="cls-1" d="m409.47,412.4c-23.68,0-42.24,18.02-42.24,41.01s18.44,41.26,41.99,41.26,42.23-18.12,42.23-41.26-18.44-41.01-41.99-41.01Zm0,63.66c-11.99,0-20.69-9.52-20.69-22.64,0-10.92,7.16-22.52,20.44-22.52s20.81,11.33,20.81,22.52c0,13.33-8.46,22.64-20.56,22.64Z"/>
  <path class="cls-1" d="m541.41,446.24h-16.86c-4.95,0-9.12,4.23-9.12,9.25s4.18,9,9.12,9h7.37v7.81c-3.24,2.31-6.96,3.38-11.65,3.38-12,0-21.05-9.52-21.05-22.15s9.68-22.4,22.52-22.4c3.29,0,8.31.51,13.56,2.93,2.6,1.12,5.59.84,8.01-.75,2.53-1.67,4.05-4.52,4.05-7.64,0-3.83-2.25-7.02-6.12-8.72-5.8-2.84-13.84-4.68-20.47-4.68-24.9,0-42.97,17.3-42.97,41.13s18.05,41.14,41.99,41.14c9.68,0,18.86-2.84,26.52-8.2,4.14-2.76,6.07-6.78,6.07-12.65v-16.49c0-6.86-4.1-10.96-10.96-10.96Z"/>
  <path class="cls-1" d="m598.71,412.4c-23.68,0-42.23,18.02-42.23,41.01s18.44,41.26,41.99,41.26,42.23-18.12,42.23-41.26-18.44-41.01-41.99-41.01Zm0,63.66c-11.99,0-20.69-9.52-20.69-22.64,0-10.92,7.16-22.52,20.44-22.52s20.81,11.33,20.81,22.52c0,13.33-8.46,22.64-20.56,22.64Z"/>
  <path class="cls-1" d="m694.37,474.34h-27.16v-51.35c0-5.91-4.81-10.71-10.71-10.71s-10.71,4.81-10.71,10.71v58.89c0,6.86,4.1,10.96,10.96,10.96h37.63c5.17,0,9.37-4.15,9.37-9.25s-4.2-9.25-9.37-9.25Z"/>
  <path class="cls-1" d="m758.63,474.34h-28.87v-12.66h26.19c5.08,0,9.37-4.23,9.37-9.25s-4.29-9.25-9.37-9.25h-26.19v-10.71h28.87c5.08,0,9.37-4.23,9.37-9.25s-4.29-9.25-9.37-9.25h-39.34c-6.86,0-10.96,4.1-10.96,10.96v56.93c0,6.86,4.1,10.96,10.96,10.96h39.34c5.08,0,9.37-4.23,9.37-9.25s-4.29-9.25-9.37-9.25Z"/>
</svg>