<?xml version="1.0" encoding="UTF-8"?>
<svg id="Camada_1" data-name="Camada 1" xmlns="http://www.w3.org/2000/svg" viewBox="0 0 800 800">
  <defs>
    <style>
      .cls-1 {
        fill: #fff;
      }
    </style>
  </defs>
  <path class="cls-1" d="m201.81,397.54c8.21-.2,16.48.47,24.61-.34,14.64-1.45,26.81-14.95,27.31-29.26.56-16.18-9.64-30.17-25.08-32.64-6.09-.97-7.68-3.17-8.64-8.87-2.62-15.65-17.68-26.09-34.32-24.71-14.96,1.24-27.55,14.71-27.93,30.02-.17,6.94-.04,13.88-.08,20.82-.03,4.04-.43,4.32-5.24,3.47,0-1.71.04-3.29,0-4.87-.2-7.61.02-15.25-.72-22.81-1.64-16.81-19.91-29.82-36.48-26.37-15.2,3.16-24.76,13.71-26.43,29.44-.23,2.18-.89,2.97-3.04,3.03-16.75.47-32.19,16.61-29.35,35.87,2.28,15.4,15.15,26.98,30.73,27.1,6.84.05,13.68.02,20.52.02,1.89,0,3.66-.14,3.59,2.72-.06,2.66-1.75,2.5-3.48,2.5-7.3.02-14.6-.12-21.89.08-15.26.41-30.3,13.29-29.89,32.34.33,15.49,11.66,27.79,26.91,30.46q5.55.97,6.4,6.38c2.94,18.74,21.8,30.69,39.99,25.35,13.87-4.08,22.97-16.29,23.13-31.13.07-6.6-.01-13.2.03-19.8.02-2.45,1.62-3.68,3.66-2.55.87.48,1.47,2.16,1.5,3.31.15,6.82-.02,13.65.12,20.48.43,20.94,20.17,35.42,40.36,29.66,12.86-3.67,21.92-14.92,22.77-28.48.13-2.13.8-3.2,3.01-3.08.79.04,1.6.02,2.39-.08,16.29-2.06,28.26-16.74,27.47-33.69-.74-15.77-14.76-29.04-30.97-29.22-7.07-.08-14.14-.08-21.21,0-2.4.02-3.64-1.04-2.91-3.24.31-.92,2.05-1.89,3.17-1.92Zm-11.87,24.97c.11-2.36.18-3.84.25-5.28-3.17.7-6.16,1.21-9.04,2.07-.88.26-1.56,1.42-2.18,2.28-2.71,3.71-5.37,7.46-8.04,11.19-.5.07-.99.14-1.48.2,1.6.86,3.19,1.73,4.51,2.44-3.27,5.96-22.22,7.56-31.59,4.47-20.53-6.76-30.28-25.8-29.15-40.05,1.71-21.53,14.98-37.65,31.53-39.9v2.84c.47.2.76.38,1.07.44,4.43.83,8.86,1.66,13.3,2.42.69.12,1.48-.02,2.16-.23,2.04-.64,4.08-1.31,6.06-2.12.76-.31,1.36-1.02,2.7-2.07,6.91,2.51,13.16,6.96,17.28,14.05.84,1.44,1.96,3.29,1.69,4.72-1.23,6.73,4.19,10.94,6.15,16.41.82,2.28,1.7,4.35,1.49,6.67-.61,6.71-2.34,13.08-6.7,19.46Z"/>
  <path class="cls-1" d="m675.37,393.52c21.88.28,43.77.09,65.66.16,2.27,0,3.02-.9,2.89-3.05-.13-2.04-.22-4.12.02-6.14.39-3.24-1-4.01-4.05-3.99-16.3.12-32.6.06-48.9.05-4.33,0-8.67.12-12.99-.11-3.81-.2-4.24-1.43-4.16-7.28.05-3.48,2.41-2.7,4.26-2.7,18.92-.05,37.85-.03,56.77-.03q8.36,0,8.34-8.48,0-4.61-4.68-4.62c-20.06,0-40.13,0-60.19-.03-1.34,0-3.76-.15-3.83-.55-.41-2.4-.59-4.94-.17-7.31.14-.8,2.29-1.74,3.54-1.76,9.57-.15,19.15-.08,28.73-.08h37.19c0-3.68-.16-6.96.05-10.22.17-2.59-.79-3.35-3.3-3.32-8.78.11-17.56.02-26.33.05-13.34.04-26.68-.07-40.01.25-8.62.21-14.38,4.92-14.41,13.08-.04,10.57-.65,21.16-.06,31.7.58,10.28,5.01,14.22,15.63,14.36Z"/>
  <path class="cls-1" d="m298.05,370.19c16.99.21,33.98.17,50.97.26,1.59,0,3.2.07,4.75.37.79.15,1.79.72,2.15,1.39,2.24,4.17-.21,8.19-4.97,8.34-1.03.03-2.05.02-3.08.02-17.45,0-34.9,0-52.35,0-9.39,0-9.27,0-9.35,9.29-.03,3.03.93,3.91,3.9,3.87,10.95-.15,21.9-.06,32.85-.06,0-.07,0-.13,0-.2,11.29,0,22.58.25,33.86-.08,8.9-.26,13.38-5.3,13.51-14.19.03-2.39-.09-4.78.03-7.17.51-10.67-6.72-14.38-13.9-14.46-16.65-.2-33.3-.16-49.95-.24-1.7,0-3.41-.16-5.11-.31-4.18-.38-2.88-3.61-3.04-6-.17-2.49,1.25-3.47,3.61-3.4,1.37.03,2.74,0,4.11,0,19.73,0,39.46-.05,59.19.06,2.73.02,3.7-.78,3.48-3.47-.19-2.37-.14-4.78-.01-7.16.12-2.27-.89-2.98-3.05-2.94-4.9.09-9.81.01-14.71.03-17.33.06-34.67.05-52,.22-6.98.07-12.89,3.36-13.68,8.62-.92,6.09-1.05,12.46-.35,18.58.61,5.34,6.05,8.56,13.13,8.65Z"/>
  <path class="cls-1" d="m479.12,393.69c2.49-.19,5.02-.15,7.52-.01,2.35.13,3.25-.75,3.2-3.14-.12-5.8.11-11.61-.09-17.4-.1-2.93.99-3.66,3.74-3.62,9.12.14,18.24.14,27.36,0,2.52-.04,4.27.8,5.95,2.58,5.39,5.71,11.12,11.12,16.31,17,3.05,3.46,6.26,5.09,10.91,4.63,3.97-.4,8-.08,12.01-.08.18-.41.35-.82.53-1.24-7.8-7.57-15.59-15.14-23.39-22.71.12-.31.24-.62.37-.92,2.38,0,4.75.09,7.13-.02,7.87-.34,12.92-4.18,14.23-11.18.52-2.75.31-5.66.31-8.49,0-9.46-4.85-14.66-14.43-14.74-23.94-.2-47.87-.14-71.81-.26-2.6-.01-3.3,1-3.29,3.43.07,17.52.07,35.03,0,52.55-.01,2.55.65,3.83,3.46,3.62Zm10.79-45.9c1.29-.06,2.49-.17,3.69-.17,17.77-.01,35.55-.04,53.32.06,1.52,0,4.15.68,4.35,1.51.55,2.3.25,4.86-.08,7.26-.07.5-1.67,1.12-2.57,1.12-19.25.04-38.51,0-57.76-.05-.2,0-.4-.17-.95-.41v-9.32Z"/>
  <path class="cls-1" d="m394.75,393.42c9.11.23,18.23.05,27.35.05v.18c4.67,0,9.35.03,14.02,0,4.67-.03,9.35,0,14.01-.21,11.32-.5,17.79-7.24,17.87-18.57.06-7.28.05-14.56,0-21.83-.08-11.25-6.59-18.39-17.87-18.57-18.68-.3-37.38-.31-56.06.01-10.83.18-17.06,6.62-17.45,17.36-.29,7.95-.3,15.92-.03,23.87.39,11.33,6.66,17.43,18.15,17.73Zm2.64-45.76c8.32-.1,16.65-.03,24.98-.03v-.02c7.98,0,15.97-.04,23.95.01,5.64.04,7.61,2.03,7.65,7.62.04,5.92.05,11.84,0,17.75-.05,5.02-1.57,6.98-6.63,7.1-13.78.33-27.58.35-41.37.43-3.3.02-6.61-.12-9.89-.44-3.78-.36-5.41-2.22-5.46-6.06-.07-6.49-.06-12.97-.02-19.46.03-4.86,1.91-6.86,6.8-6.92Z"/>
  <path class="cls-1" d="m605.32,347.64v3.62c0,13.09.05,26.17-.05,39.26-.02,2.37.69,3.3,3.09,3.16,2.39-.14,4.8-.21,7.18.02,3.21.3,4.08-1.02,4.04-4.09-.14-12.86,0-25.72-.09-38.57-.02-2.62.79-3.53,3.53-3.48,9.12.17,18.25.07,27.37.05,1.2,0,2.41-.1,3.85-.17,0-3.33-.22-6.3.06-9.22.32-3.4-1.04-4.17-4.26-4.15-24.86.12-49.73.06-74.59.06-1.14,0-2.33-.16-3.4.13-.68.18-1.66,1.03-1.68,1.61-.15,3.81-.08,7.64-.08,11.78h35.02Z"/>
  <path class="cls-1" d="m734.5,405.64h-440.54c-5.22,0-9.5,4.27-9.5,9.5v45.37c0,5.22,4.27,9.5,9.5,9.5h440.54c5.22,0,9.5-4.27,9.5-9.5v-45.37c0-5.22-4.27-9.5-9.5-9.5Zm-393.57,49.33c-5.23-.19-10.48-.05-15.72-.05v-.02c-5.36,0-10.71.12-16.07-.03-7.11-.19-9.34-2.56-9.36-9.55-.01-4.89-.06-9.78.04-14.67.09-4.31,2.01-6.78,6.32-6.99,8.52-.42,17.07-.37,25.61-.49,3.08-.04,6.16.13,9.23-.04,2.99-.17,3.26,1.49,3.28,3.84.02,2.33-.48,3.52-3.2,3.49-10.03-.13-20.05-.08-30.08,0-1.13,0-2.68.28-3.31,1.04-1.47,1.77-.08,3.82,2.57,3.83,9.8.05,19.6.16,29.4-.04,3.36-.07,4.37,1.06,4.2,4.29-.13,2.43-1.05,3.1-3.32,3.08-9.8-.08-19.6-.05-29.4,0-1.7,0-3.89-.58-3.86,2.4.02,2.79,1.98,2.59,3.83,2.59,9.91.01,19.83.11,29.74-.05,2.98-.05,3.62,1.12,3.6,3.81-.02,2.58-.7,3.67-3.48,3.57Zm57.22-5.97c-.36,3.15-2.62,5.24-5.79,5.35-6.48.23-12.96.07-19.45.07,0,.17,0,.33,0,.49-5.36,0-10.72-.11-16.07.04-2.93.09-2.96-1.6-2.99-3.71-.03-2.21.24-3.67,3.08-3.63,10.03.12,20.06.06,30.09,0,1.09,0,2.43-.11,3.18-.73.57-.47.83-2.09.44-2.74-.45-.76-1.74-1.42-2.68-1.44-7.41-.12-14.82-.03-22.22-.11-2.61-.03-5.24-.18-7.81-.63-3.34-.58-5.09-2.8-5.27-6.19-.06-1.13-.04-2.27-.03-3.41.06-6.13,2.05-8.74,8.24-8.95,11.27-.37,22.56-.17,33.84-.24,2.88-.02,2.44,2.03,2.52,3.82.09,2.06-.24,3.47-2.9,3.45-10.03-.1-20.06-.05-30.09,0-1.11,0-2.44-.02-3.25.56-.59.42-.97,2.13-.59,2.68.57.83,1.88,1.58,2.89,1.6,7.29.14,14.59.08,21.88.09.8,0,1.6,0,2.39,0,10.88,0,11.61,4.75,10.6,13.63Zm41.05-5.61c-7.07.02-14.14.09-21.21-.03-2.52-.04-3.58.84-3.37,3.35.11,1.24.02,2.5.01,3.75-.02,4.53-.36,4.76-4.9,4.49-1.98-.12-2.54-1.03-2.53-2.79.04-4.44.01-8.87,0-13.31,0-4.21.06-8.42-.03-12.63-.05-2.16.74-3.08,2.97-3.07,10.26.07,20.53-.12,30.78.13,7.02.17,8.96,2.5,8.99,9.5.04,8.45-2.11,10.58-10.73,10.6Zm67.36,2.02c-.11,5.23-2.65,8.34-7.97,8.93-5.41.6-10.9.56-16.35.81,0-.23,0-.45-.01-.68-5.23,0-10.49.35-15.67-.1-5.25-.46-7.82-3.21-8.15-8.41-.31-4.86-.26-9.78.15-14.62.38-4.53,2.91-7.38,7.43-7.53,11.02-.36,22.06-.38,33.07,0,4.69.16,7.37,3.85,7.48,8.65.1,4.32.1,8.64,0,12.95Zm56.45,9.26c-4.88.52-9.76,1.24-13.19-3.85-5.06-7.51-12.06-10.02-21.06-8.92-6.32.77-5.72-.43-5.77,6.1-.01,1.48-.07,2.96,0,4.43.12,2.96-2.02,2.47-3.77,2.48-1.77,0-3.78.44-3.75-2.5.07-8.87.06-17.74,0-26.6-.01-1.92.8-2.63,2.65-2.62,12.08.05,24.16-.17,36.23.16,7.7.21,11.68,8.31,7.37,14.8-1.04,1.56-3.39,2.4-5.3,3.18-1.27.52-2.83.33-4.26.46-.16.29-.32.58-.48.87,4.12,3.62,8.23,7.24,12.35,10.87-.33.39-.67.78-1,1.17Zm49.04-24.2c-3.52-.21-7.08.16-10.59-.1-3.41-.25-4.31,1.13-4.18,4.32.22,5.33-.03,10.69.1,16.03.07,2.78-.3,4.35-3.82,4.34-3.67,0-3.72-1.89-3.67-4.52.09-5,.03-10,.02-15.01q0-5.1-5.28-5.11c-3.3,0-6.62-.15-9.91.04-2.74.16-3.85-.65-3.81-3.58.03-2.76.78-3.84,3.68-3.76,6.15.18,12.3.05,18.46.06,6.38,0,12.76.11,19.14-.05,2.9-.07,3.35,1.31,3.36,3.75.02,2.56-.68,3.75-3.49,3.59Zm19.78,21.77c.04,3.14-2.05,2.65-3.94,2.68-1.87.04-3.7.22-3.62-2.64.13-4.54.03-9.08.03-13.62,0-4.2.13-8.41-.04-12.6-.13-3.01,1.72-2.91,3.76-2.89,2,.02,3.86-.18,3.82,2.85-.12,8.74-.11,17.48-.01,26.22Zm34.76,2.73c-6.59.8-11.06-1.02-14.12-7.55-3.79-8.09-8.75-15.62-13.22-23.43,5.12-2.05,7.95-1.12,10.43,3.26,3.31,5.83,6.59,11.67,9.92,17.49,2.36,4.12,5.87,4.12,8.29-.03,3.32-5.69,6.56-11.43,9.84-17.15,2.77-4.83,4.44-5.46,10.47-3.74-.44.92-.81,1.84-1.3,2.69-4.67,8.19-9.41,16.35-14,24.58-1.44,2.57-3.47,3.53-6.31,3.88Zm55.92-4.49c-.33-.89-2.13-1.72-3.27-1.75-7.18-.16-14.37-.16-21.55,0-1.13.03-2.92.89-3.24,1.78-1.97,5.48-6.19,4.61-10.74,4.17.43-1.02.7-1.85,1.12-2.59,4.8-8.4,9.68-16.75,14.39-25.2,1.45-2.61,3.48-3.43,6.33-3.78,7.05-.85,11.75,1.25,14.92,8.14,3.64,7.91,8.51,15.25,13.13,23.33-4.98.65-9.1,1.27-11.1-4.1Z"/>
  <path class="cls-1" d="m439.77,430.42c-3.75.06-7.51.02-11.26.02-3.75,0-7.51.05-11.26-.02-1.93-.03-2.61.83-2.61,2.67,0,1.87.45,3.06,2.63,3.04,7.51-.04,15.01-.03,22.52,0,1.99,0,2.91-.83,2.88-2.85-.03-1.98-.87-2.89-2.9-2.86Z"/>
  <path class="cls-1" d="m555.85,432.95c-.04-2.26-1.41-2.54-3.18-2.53-4.44.02-8.89,0-13.33,0s-9.11.04-13.67-.02c-1.81-.02-2.72.56-2.73,2.53,0,1.94.54,2.96,2.69,2.95,9-.05,18-.03,27-.01,2.02,0,3.26-.61,3.22-2.93Z"/>
  <path class="cls-1" d="m495.53,430.47c-8.65-.04-17.3-.03-25.95-.02-2.68,0-3.95,1.42-3.95,4.04,0,2.95.03,5.91-.02,8.86-.05,3.02,1.44,4.33,4.4,4.29,4.1-.05,8.19-.01,12.29-.01h0c4.32-.01,8.65,0,12.97-.02,2.44,0,3.86-1.02,3.8-3.68-.07-3.29-.06-6.59,0-9.88.04-2.45-1.24-3.57-3.54-3.58Z"/>
  <path class="cls-1" d="m705.19,431.4c-2.14,3.11-3.87,6.5-6.1,10.34h18.74c-2.23-3.84-3.92-7.04-5.91-10.04-1.17-1.77-5.56-2.02-6.74-.3Z"/>
  <path class="cls-1" d="m167.42,381.77c-2.86-1.54-5.34-2-8.01.29-2.49,2.14-5.15,4.08-7.75,6.09-1.44,1.11-1.8,2.31-1.06,4.11,1.42,3.45,2.7,6.97,3.78,10.53.75,2.47,2.23,3.52,4.69,3.48,1.14-.02,2.27,0,3.41,0,0,.05,0,.1,0,.15,1.7-.11,3.42-.47,5.09-.29,4.75.52,6.31-2.24,7.5-6.2,3.08-10.27,2-12.98-7.66-18.17Z"/>
  <path class="cls-1" d="m143.93,420.41c-4.97-.91-9.96-1.68-14.98-2.5-3.69,7.75-2.61,11.35,4.63,15.97,6.61,4.22,11.5,4.01,17.47-1.2-1.91-3.79-3.66-7.32-5.5-10.81-.33-.62-1-1.35-1.62-1.46Z"/>
  <path class="cls-1" d="m132.51,385.46c-.69-3.53-1.57-7.01-2.4-10.55-6.27-.02-11.46,4.32-13.34,12.09-2.21,9.13-1.48,9.24,5.94,12.81.07.03.19-.02.28-.04-.21-.17-.41-.34-.62-.5,3.11-3.83,6.26-7.64,9.31-11.51.49-.62.96-1.6.82-2.3Z"/>
</svg>