<?xml version="1.0" encoding="UTF-8"?>
<svg id="Camada_1" data-name="Camada 1" xmlns="http://www.w3.org/2000/svg" viewBox="0 0 800 800">
  <defs>
    <style>
      .cls-1 {
        fill: #fff;
      }
    </style>
  </defs>
  <path class="cls-1" d="m594.41,239.01c-1.65,2.11-2.14,5.03-.94,7.43,1.53,3.08,5.64,6.61,15.9,8.43,0,0-2.71-5.05,2.41-17.72,2.47-6.1.73-13.21-4.61-17.05-4.09-2.94-9.62-5.09-16.43-3.62,0,0,15.61,7.3,3.68,22.53Z"/>
  <path class="cls-1" d="m167.99,351.48c-12.53-42.89-15.3-39.53-15.3-39.53-4.49-3.88-12.22,8.72-12.22,8.72l-9.39,16.52c-5.29,10.73-21.02,49.66-25.32,60.81-4.86,12.6-10.82,26.07-15,38.92-2.07,6.39-10,23.81-13.37,36.08-3.3,12-14.36,13.02-14.36,13.02l2.28,8.36,4.19-.02c22.61,2.13,35.66-46.08,38.05-55.75.24-.98,1.12-1.68,2.13-1.68,3.04-.02,6.05.06,9.09-.15,11.07-.76,21.91-3.31,32.87-4.93,3.06-.45,5.98-.88,8.99-1.56,2.13-.48,5.59-1.31,7.08.9.72,1.07,1.05,2.4,1.59,3.56,5.06,10.71,8.64,22.2,12.3,33.44,2.12,6.53,4.24,13.31,6.14,19.58.4,1.31.72,2.62.93,3.98,3.92,26.46-14.34,35.2-19.97,37.25-.86.31-1.28,1.27-.91,2.11l2.17,4.98c.3.7,1.09,1.08,1.83.9,29.82-7.32,36.56-14.41,36.56-14.41,18.9-12.11,6.14-48.03,6.14-48.03l-46.48-123.05Zm-9.76,65.05l-40.94,7.22c-1.93.34-3.49-1.56-2.79-3.39l23.46-60.74c.3-.77,1.03-1.27,1.85-1.28.85,0,1.62.53,1.9,1.34l18.62,53.26c.56,1.59-.44,3.3-2.1,3.59Z"/>
  <path class="cls-1" d="m230.31,499.47c19.63,4,30.36-14.08,33.45-20.36.63-1.28.96-2.68.98-4.11l.15-8.3c.17-9.41.33-18.81.5-28.22.15-8.6-3.16-22.24,6.91-26.47,2.94-1.24,6.24-1.49,9.39-1.31.53.03,4.41.05,4.67.63,6.22,13.36,15.65,4.37,15.65,4.37,5.52-6.15,7.7-10.91,8.51-14.09.61-2.39.28-4.94-.88-7.11-6.88-12.8-17.09-9.98-19.9-8.9-.46.18-.88.43-1.26.74l-23.3,18.81c-.34.28-.85.02-.82-.42l.87-15.45c.06-1.1-.19-2.23-.85-3.12-2.25-3.07-6.06-.65-7.97.88-.82.66-1.82,1.07-2.87,1.15l-18.64,1.39c-2.55.25-9.11.52-10.12,3.77-.99,3.17,3.77,4.82,5.7,5.81,2.52,1.29,4.46,3.1,5.85,5.24,3.01,4.66,2.71,10.44,2.64,15.76-.08,5.81-.39,11.76-.51,17.48-.18,8.48-.36,16.95-.53,25.43-.08,3.92-.34,7.89-.22,11.8.11,3.6-.23,6.89-2.06,10.09-1.25,2.18-3.01,4.06-5.09,5.47-.3.2-3.14,1.32-4.54,1.87-.39.15-.53.61-.31.96.8,1.25,2.42,3.91,3.22,5.23.31.5.81.86,1.38.98Z"/>
  <path class="cls-1" d="m408.42,482.6s-13.98-5.5-45.78-3.92c0,0-34.89-2.59,6.59-18.45,12.74-4.87,24.03-10.57,29.92-23.91,2.69-6.09,3.69-12.77,3.5-19.39-.24-8.5-1.35-17.93-7.32-24.66-6.28-7.08-16.09-10.07-24.77-13.01-6.11-2.07-8-7.19-9.56-13.29-3.55,14.66-19.23,18.32-29.14,27.06-9.4,8.29-20.93,25.24-17.21,39.34,0,0,4.33,25.5,29.55,31.35.07.02.1.09.06.15-1.05,1.67-2.91,2.38-4.66,3.06-3.57,1.4-6.98,3.14-10.49,4.68-2.67,1.17-5.37,2.42-7.33,4.66-1.45,1.65-1.86,5.53-1.6,7.78.26,2.29,1.51,4.32,2.78,6.22,3.16,4.71,10,6.96,15.18,8.39,7.4,2.05,15.14,1.84,22.76,2.19,1.43.06,2.85.13,4.28.18,4.99.18,9.99.2,14.99.4,4.15.17,8.51-.22,12.5,1.2,1.94.69,3.66,1.86,4.67,3.69,1.44,2.61.53,6.13-.67,8.69-3.4,7.23-9.39,13.14-16.15,17.24-7.05,4.28-15.03,6.86-23.09,8.4-3.47.82-6.97,1.49-10.47,2.13-9.2,1.67-18.45,2.99-27.76,3.82-10.88.96-21.9,1.33-32.78.23-6.11-.62-12.38-1.56-18.23-3.65-2.61-.93-5.29-2.14-7.68-3.65-2.2-1.39-5.15-3.28-6.04-5.87-1.27-3.69,1.95-7.83,4.21-10.35,6.23-6.95,14.69-12.02,22.79-16.55.41-.23.38-.83-.05-1.01-3.85-1.63-17.46-6.82-25.76-2.73-5.98,2.95-12.06,7.59-15.86,10.72-3.95,3.26-7.19,7.33-9.15,12.06-2.17,5.21-3.38,12.12.42,18.93,1.7,3.05,5.09,5.48,7.9,7.38,9.49,6.41,21.08,9.77,32.26,11.7,6.04,1.04,12.22,1.14,18.34,1.38,5.37.21,10.75.32,16.13.31,16.57-.02,33.16-3.47,49.18-7.44,6.59-1.63,13.13-3.47,19.6-5.5,2.86-.9,5.59-2.21,8.41-3.29,2.96-1.14,5.88-2.39,8.54-4.12,9.05-5.88,17.07-13.3,23.66-21.85,0,0,19.96-22.44-6.65-40.7Zm-64.84-46.99c-2.94-5.16-4.11-11.28-4.7-17.16-.44-4.32-.4-8.52,1.61-12.47,1.98-3.92,4.88-7.68,8.5-10.21,2.01-1.41,4.21-2.32,6.44-2.69,3.7-.62,7.51.21,10.8,2.66,5.5,4.1,9.45,10.78,11.78,17.12,2.6,7.09,3.34,14.77,2.54,22.27-.49,4.63-1.64,10.3-5.67,13.21-4.43,3.2-9.89,3.4-15.05,2.21-4.98-1.15-8.48-4.88-11.7-8.6-1.71-1.97-3.26-4.08-4.55-6.35Z"/>
  <path class="cls-1" d="m460,484.05c17.85-2.21,34.85-10.6,46.46-24.5,5.44-6.51,8.19-14.86,8.14-23.34l-.24-41.01c2.19-7.09-36.66-.27-41.38.58-.26.05-.44.29-.41.56l.82,6.63c.03.28,6.79,1.2,7.66,1.43,2.57.67,5.36,1.97,6.82,4.3.95,1.52,1.23,3.37,1.29,5.17.24,6.7.3,13.37.07,20.08-.2,5.82-.52,11.64-.91,17.45-.25,3.75-.6,6.38-3.32,9.13-2.39,2.42-5.23,4.42-8.28,5.92-6.05,2.97-13.55,4.03-19.5.25-3.67-2.33-7.98-7.27-8.2-11.75-.04-.85.04-1.72.06-2.56l.22-8.9c.29-11.6.58-23.2.88-34.8.17-6.74.34-13.48.51-20.22-.47-9.2-3.9-7.51-3.9-7.51l-33.09,5.27c-1.39.22-2.26,1.61-1.88,2.96.76,2.7,2.38,5.06,4.51,6.86,1.37,1.16,3.21,1.57,4.65,2.62,1.72,1.26,1.71,3.16,2.03,5.15.81,4.92,1.23,9.91,1.41,14.89.35,9.76-.22,19.66-.59,29.33-.39,10.12,1.04,17.59,3.31,23.19,5.2,12.8,20.88,14.29,32.84,12.81Z"/>
  <path class="cls-1" d="m533.22,392.88c3.28,1.12,6.96,2.42,9.61,4.76,1.99,1.77,1.76,3.1,1.77,5.71.04,10.93.57,21.86.86,32.79.42,15.8,3.58,34-6.58,47.67-.53.72-.12,1.75.75,1.94,6.36,1.41,10.28,4.42,11.9,5.9.56.51,1.36.68,2.05.4,20.27-8.15,18.32-36.91,18.32-36.91l.54-75.03c-6.51,4.06-26.86,4.5-33.93,4.52-1.55,0-2.97.79-3.82,2.08l-2.36,3.59c-.62.94-.17,2.22.9,2.58Z"/>
  <path class="cls-1" d="m545.59,375.65c3.81,1.32,8.16,1.75,12.18,1.73,2.1-.01,9.8-13.55,9.72-15.62-.21-5.03-7.13-9.79-10.83-12.41-.79-.56-8.39-4.46-8.28-4.14,1.59,4.69-5.59,13.9-7.48,18.14-.87,1.95-1.34,3.75-1.34,5.35.01,3.1,1.82,5.49,6.03,6.95Z"/>
  <path class="cls-1" d="m596.23,297.22l.59,29.71s-4.93,1.14-8.84,5.69c-7.31,8.51-2.19,17.4,9.13,20.12l.14,48.27s-5.95,2.19-9.34,6.99c-2.29,3.24-2.52,7.45-.94,11.09,1.51,3.48,4.5,7.94,10.02,8.52-.1,4.7-.21,9.4-.31,14.1-.06,2.64-.17,5.29-.19,7.94-.05,5.83-.81,11.63-2.38,17.24-.78,2.77-1.69,5.52-2.82,8.16-.47,1.11-.99,2.2-1.5,3.29-.28.6-1.32,3.74-1.89,3.91-6.75,2.07-13.75,4.74-19.38,9.18-6.44,5.07-8.61,11.66-7.74,19.68.08.76.19,1.52.31,2.27,0,0,17.67-7.85,27.96,10.16.55.96.95,2.02,1.54,2.96.66-2.81.77-5.81,1.19-8.66.43-2.91,2.47-5.38,4.82-7.02.89-.62,1.84-1.15,2.88-1.45,4.25-1.23,9.28.24,12.82,2.68,2.3,1.58,5.13,3.26,7.18,5.05.71-4.24,1.22-6.63,3.83-9.34,3.42-3.56,8.14-4.09,12.65-2.34,0,0,1.66-12.81,9.4-17.73.16-.1.59-.45.4-.46-3.44-.2-20.77-2.16-24.27-23.15-3.9-23.4-2.73-36.56-2.72-36.58.02-.28,3.14-1.74,3.57-2.02,1.42-.92,2.77-1.96,3.99-3.14,2.24-2.16,4.28-5.03,4.54-8.23.53-6.32-6.09-12.17-11.84-13.22l-2.37-47.28s13.8-2.17,13.31-13.47c0,0-.27-11.09-13.47-13.31l-.58-28.45s16.47-10.35,21.19-26.49c0,0-20.9,4.73-26.01-10.73l-11.72.07s-.75,15.49-25.46,11.03c0,0,10.18,22.96,22.33,24.98Z"/>
  <path class="cls-1" d="m674.99,476.39c11.69,1.01,23.28-3.29,30.82-12.25,1.3-1.55,1.22-4.29-.67-5.38-.68-.39-1.52-.43-2.3-.38-4.72.32-9.51,3.2-13.42,5.69-5.12,3.26-12.7,1.02-16.62-3.11-4.6-4.85-7.22-11.47-7.78-18.37-.13-1.59-1.47-12.13.63-12.28.8-.06,1.99,1.15,2.65,1.5,2.6,1.4,5.59,2.01,8.5,2.37,6.48.79,13.12.33,19.58-.37,3.72-.41,7.42-.94,11.1-1.55,3.53-.59,6.6-1.49,8.96-4.41,2.66-3.3,2.93-7.68,2.57-11.74-.38-4.31-1.59-8.52-3.07-12.57-1.31-3.58-2.76-6.99-5.15-9.98-2.79-3.5-6.29-6.35-10.11-8.65-3.85-2.31-8.63-3.59-12.73-5.48-4.35-2-8.91-4.31-12.35-7.73-1.4-1.39-2.68-3.04-2.96-5.05-.12,2.43-.72,5.06-1.84,7.23-2.81,5.44-7.66,9.71-12.57,13.2-16.57,11.77-23.59,39.6-18.61,58.74,4.15,15.97,18.79,29.14,35.38,30.57Zm7.45-80.74c1.59.39,3.05,1.23,4.17,2.43,2.39,2.57,6.65,9.43,5.66,17.34-.2,1.59-1.21,2.96-2.63,3.69-8.46,4.32-26.13,3.83-26.2-8.87,0,0,1.43-18.92,19.01-14.59Z"/>
  <path class="cls-1" d="m540.96,531.76l7.63-30.46s-7.03-9.44-16.91-5.76c0,0-1.76,28-3.11,33.98-.09.4-.39.7-.78.81l-17.05,4.9c-.07.02-.14-.05-.12-.12l6.11-23c.83-3.13.83-6.46-.31-9.49-2.92-7.78-12.03-10.01-19.51-10.24-2.29-.07-4.59.17-6.84.58-5.66,1.03-11.05,3.29-15.98,6.23-4.34,2.59-8.35,5.7-12.04,9.14-1.85,1.72-3.62,3.52-5.33,5.39-2.05,2.24-4,4.59-5.56,7.21-1.64,2.75-2.63,5.73-3.47,8.8-.7,2.58-1.19,5.24-1.23,7.92-.09,5.67,2.27,10.8,7.63,13.2,2.26,1.02,4.74,1.51,7.2,1.73-.84-.08-2.12-1.84-2.56-2.41-1.77-2.29-2.62-5.14-2.65-8.01-.05-4.85,1.87-9.42,4.32-13.52,2.52-4.21,5.51-8.24,8.61-12.05,1.44-1.77,2.95-3.5,4.51-5.17,4.39-4.7,9.41-9.3,15.35-11.92,2.88-1.27,6.06-2.02,9.21-1.54,1.86.28,3.08,1.09,3.88,2.92,1.01,2.33.98,5.07.79,7.55-.41,5.17-1.86,10.25-2.67,15.36-.59,3.76-1.19,7.52-1.79,11.27-.18,1.12-.35,2.23-.53,3.35,0,0-8.51,6.67-23.17,3.26-.11-.02-.2.07-.17.18.5,1.49,1.13,2.95,1.84,4.36.56,1.12,1.13,2.31,1.93,3.28.61.76,1.41,1.39,2.35,1.65,1.81.49,4.17-.22,6-.44,2.17-.26,4.33-.52,6.5-.78.16-.02.28.13.24.28l-6.74,23.99s-2.16,12.01,10.94,9.42l1.62-.41c.72-.18,1.27-.75,1.43-1.48l8.15-36.29s.08-.08.13-.13l15.25-3.36c.11-.02.21.08.19.19l-6.19,28.64s-.23,9.7,13.08,7.94c.56-.07,1.1-.61,1.2-1.16l5.66-32.94s9.75-2.57,2.99-12.85Z"/>
  <path class="cls-1" d="m736.61,520.52l-1.83-2.31c-.15-.19-.45-.13-.5.12-1,5.36-20.88,28.62-30.55,33.13-10.29,4.8-5.37-11.41-5.37-11.41,0-.01,3.01.64,3.18.66,1.54.21,3.12.2,4.63-.2,2.76-.74,5.29-2.44,7.36-4.3,1.56-1.4,2.88-3.05,4.04-4.78.93-1.39,1.75-2.85,2.48-4.35,1.8-3.72,2.7-8.98.54-12.74-1.18-2.05-3.13-3.57-4.99-4.96-1.97-1.47-4.25-2.61-6.71-2.88-4.27-.48-8.12,1.97-11.05,4.84-3.08,3.02-5.52,6.68-7.61,10.43-1.61,2.89-2.36,5.44-4.96,7.69-2.84,2.46-5.63,4.95-8.44,7.45-.12.11-.3.07-.36-.08-1.79-4.14-13.66-18.06-13.66-18.06,7.46-12.32,5.73-22.91,5.73-22.91,0,0-.66-17.29-15.92-2.42-15.26,14.88,1.87,34.24,1.87,34.24-.53,4.4-16.99,29.46-16.99,29.46-5.13,6.73-5.14,2.54-5.14,2.54l8.72-36.32c-.92-13.94-12.32-8.3-12.32-8.3-1.02,17.03-5.45,22.38-5.45,22.38-1.34,9.52-14.93,22.66-14.93,22.66-7.76,8.97-5.22.03-5.22.03l10.05-33.54c-1.73-10.31-12.32-7.74-12.32-7.74,1.18,11.43-6.84,23.2-6.84,23.2-14.96,18.78-15.27,13.2-15.27,13.2,10.2-21.54-.17-29.01-.17-29.01-.65-.62-1.34-1.2-2.06-1.73-6.03-4.38-12.71-2.51-17.88,2.19-2.2,2-4.1,4.33-5.78,6.78-.61.89-1.18,1.82-1.75,2.74-.33.53-.58,1.1-.78,1.69-.54,1.59-.73,3.36-1.15,4.93-.51,1.88-1.46,3.56-2.19,5.36-.85,2.06-1.63,4.15-2.22,6.29-.84,3.09-1.43,6.28-1.47,9.5-.02,1.7.04,3.42.83,4.96.75,1.47,1.88,2.72,3.17,3.74,1.75,1.4,3.91,2.68,6.04,3.41,6.22,2.13,12.61-.83,17.07-5.18,2.03-1.98,3.7-4.21,5.26-6.57.2-.3.67-.34.99-.44.47-.15.93-.3,1.4-.46.92-.33,1.84-.69,2.7-1.15,1.54-.81,2.97-1.83,4.31-2.93,1.13-.93,2.22-1.91,3.26-2.95,1.03-1.02,1.87-2.05,2.69-3.24.37-.53.7-1.2,1.47-1.96.04-.04-.13,1.63-.15,1.76-.11.64-.22,1.27-.28,1.92-.09,1.06-.14,2.13-.13,3.2.02,2.13.28,4.29,1.04,6.29.92,2.42,2.94,4.13,5.11,5.43,3.78,2.28,8.1,1.41,11.57-1.03.09-.06.17-.12.26-.19,4.06-2.97,6.96-7.29,9.18-11.73.04-.08.15-.05.16.03.21,2.34.69,5.05,1.78,7.15.81,1.56,2.17,2.71,3.82,3.3,1.25.45,2.45.89,3.77,1.14,2.41.45,4.72-.56,6.61-1.99,2.28-1.73,4.17-3.96,5.89-6.22,2.05-2.69,3.88-5.56,5.6-8.47,1.71-2.9,3.3-5.87,4.82-8.87,1.23-2.45,2.42-4.92,3.55-7.42.62-1.36,1.23-2.73,1.81-4.11.07-.16.28-.22.42-.12,5.04,3.52,6.83,8.89,8.05,13.26.04.14.06.3-.02.43-.29.48-1.28.89-1.73,1.18-1.64,1.04-3.25,2.12-4.75,3.35-2.85,2.32-5.76,5.47-5.78,9.38-.01,1.87,1.2,3.79,2.44,5.11,6.64,7.05,15.7-1.14,19.45-7.17,1.98-3.19,3.1-6.88,3.38-10.62.13-1.73.32-3.97-.31-5.65-.02-.06,0-.12.05-.16l5.73-4.14c.36-.26.88-.39.83.05-.1.89-.23,2.22-.28,3.11-.26,5.26.51,11.19,4.92,14.57,4.84,3.7,12.05,5.78,17.78,2.94,3.72-1.84,6.84-4.92,9.66-7.91,2.67-2.83,5.19-5.8,7.56-8.89,4.38-5.71,8.59-11.62,12.42-17.74.36-.57.31-1.32-.11-1.85Zm-35.58,9.46c2.38-7.37,7.41-13.91,9.63-15.68.84-.67,2.18-.06,2.1,1.02-.75,9.31-7.57,13.9-10.68,15.54-.58.3-1.25-.25-1.05-.87Zm-136.63,34.68l-4.38,4.09c-1.15.89-3.57,2.75-4.9,1.2-.43-.5-.6-1.19-.65-1.85-.08-1.24.21-2.46.62-3.62.21-.59.48-1.16.69-1.74.15-.4.29-.92.69-1.15.47-.25,1.05-.08,1.49.06,2.2.73,4.3,1.85,6.4,2.81.07.03.09.13.03.19Zm5.42-12.56c-.12.4-2.25,7.2-2.48,7.13l-7.21-2.41c-.1-.03-.15-.14-.11-.23.6-1.34,4.51-10.16,5.27-13.25.62-2.53-4.8-5.18-7.5-6.33-.78-.33-1.11-1.26-.71-2.01l.97-1.8c1.42-2.63,3.56-4.84,6.25-6.13,2.16-1.03,4.94-1.56,6.42.78.54.85.74,1.79.87,2.77.26,2.03.47,4.06.51,6.11.08,5.22-.85,10.38-2.29,15.38Zm91.99-60.25c6.46,7.91-1.82,22.75-1.82,22.75-7.29-6.65,1.82-22.75,1.82-22.75Zm-.76,67.94c-3.41-3.05,3.52-9.79,3.52-9.79,4.13,5.56-3.52,9.79-3.52,9.79Z"/>
</svg>