<?xml version="1.0" encoding="UTF-8"?>
<svg id="Camada_1" data-name="Camada 1" xmlns="http://www.w3.org/2000/svg" viewBox="0 0 800 800">
  <defs>
    <style>
      .cls-1 {
        fill: #fff;
      }
    </style>
  </defs>
  <g>
    <path class="cls-1" d="m146.79,495.33c.63-.74,1.03-1.28,1.49-1.75,27.39-28.21,54.87-56.34,82.15-84.67,9.19-9.54,17.72-19.71,26.8-29.37,11.97-12.73,24.13-25.29,36.28-37.84,11.41-11.78,22.89-23.5,34.44-35.14,1.07-1.07,2.87-1.98,4.35-2,14.1-.13,28.2-.04,42.31-.01.22,0,.45.08,1.08.2-.87,1.05-1.56,1.99-2.36,2.82-12.69,13-25.43,25.95-38.1,38.97-16.46,16.92-32.87,33.89-49.31,50.84-.11.11-.22.22-.32.33-2.55,2.64-2.59,2.69-.07,5.27,10.78,11.01,21.59,21.98,32.37,32.99,18.66,19.06,37.31,38.13,55.97,57.21.58.59,1.11,1.24,1.98,2.21-1.01.11-1.63.24-2.25.24-14.41,0-28.82,0-43.23-.08-.95,0-2.18-.37-2.82-1.02-20.08-20.57-40.09-41.21-60.14-61.8-2.07-2.12-4.35-4.04-7.3-6.76-.78,1.08-1.58,2.53-2.68,3.68-20.65,21.51-41.32,43-62.04,64.44-.73.75-1.93,1.47-2.92,1.47-14.87.08-29.74.03-44.61,0-.22,0-.44-.1-1.07-.25Z"/>
    <path class="cls-1" d="m46.66,495.19c0-6.52-.01-12.86,0-19.21.1-50.52.21-101.04.29-151.56.01-5.83,0-11.65-.17-17.48-.06-1.96.59-2.46,2.47-2.43,9.27.11,18.55.18,27.82.08,2.28-.02,2.98.51,2.97,2.91-.07,23.61-.02,47.22.03,70.84.01,5.32-.63,4.52,4.47,4.52,45.3.02,90.59.02,135.89.02.89,0,1.78,0,3.12,0-.6.8-.86,1.22-1.19,1.57-9.41,9.88-18.8,19.77-28.3,29.57-.83.86-2.34,1.49-3.54,1.49-35.72.2-71.43.32-107.15.44-3.26.01-3.3,0-3.31,3.2-.09,24.45-.19,48.91-.17,73.36,0,2.29-.56,3.04-2.91,3.01-8.96-.13-17.93-.05-26.9-.07-.97,0-1.94-.14-3.42-.25Z"/>
    <path class="cls-1" d="m149.75,304.68c1.43-.09,2.31-.18,3.19-.18,13.1-.05,26.2-.08,39.3-.13,2.12,0,3.77.72,5.28,2.27,16.09,16.53,32.23,33,48.35,49.5.58.59,1.03,1.3,1.59,2.03-4.31,4.52-8.53,8.94-12.75,13.36-2.76,2.88-5.58,5.69-8.29,8.61-1.96,2.11-1.91,2.16-3.97.01-8.86-9.23-17.69-18.49-26.58-27.7-14.64-15.16-29.32-30.27-43.97-45.41-.61-.63-1.19-1.3-2.15-2.35Z"/>
  </g>
  <g>
    <path class="cls-1" d="m374.58,418.91v-37.3h29.33v4.29h-24.7v10.95h14.93v4.29h-14.93v13.48h26.22v4.29h-30.85Z"/>
    <path class="cls-1" d="m412.35,418.91v-37.3h2.43l24.19,27.88v-27.88h4.66v37.3h-2.37l-24.29-27.88v27.88h-4.63Z"/>
    <path class="cls-1" d="m483.34,408.81v-5.47h-10.17v-4.29h14.8v11.22c-1.8,3.11-4.15,5.49-7.04,7.15-2.9,1.66-6.18,2.48-9.85,2.48-5.59,0-10.2-1.84-13.84-5.52-3.64-3.68-5.46-8.35-5.46-14.01s1.82-10.36,5.47-14.04c3.65-3.68,8.26-5.52,13.82-5.52,3.45,0,6.59.76,9.43,2.26,2.84,1.51,5.15,3.66,6.93,6.45l-3.89,2.77c-1.17-2.23-2.86-3.98-5.07-5.24-2.21-1.26-4.67-1.89-7.4-1.89-4.19,0-7.66,1.44-10.41,4.31s-4.12,6.5-4.12,10.9,1.37,8.02,4.12,10.88c2.75,2.86,6.22,4.29,10.41,4.29,2.61,0,4.94-.56,6.98-1.69,2.04-1.13,3.8-2.8,5.29-5.03Z"/>
    <path class="cls-1" d="m497.53,418.91v-37.3h29.33v4.29h-24.7v10.95h14.93v4.29h-14.93v13.48h26.22v4.29h-30.85Z"/>
    <path class="cls-1" d="m535.31,418.91v-37.3h2.43l24.19,27.88v-27.88h4.66v37.3h-2.37l-24.29-27.88v27.88h-4.63Z"/>
    <path class="cls-1" d="m577.71,418.91v-37.3h4.7v14.73h22v-14.73h4.66v37.3h-4.66v-18.28h-22v18.28h-4.7Z"/>
    <path class="cls-1" d="m614.75,418.91l18.28-37.3h3.85l18.48,37.3h-5.03l-5.07-10.04h-20.61l-4.93,10.04h-4.97Zm12.03-14.39h16.42l-8.24-16.52-8.18,16.52Z"/>
    <path class="cls-1" d="m660.83,418.91v-37.3h21.39c3.65,0,6.51.92,8.58,2.75,2.07,1.84,3.11,4.38,3.11,7.62,0,2.7-.81,5.02-2.43,6.94-1.62,1.93-3.76,3.13-6.42,3.6l9.33,16.39h-5.14l-9.33-16.32h-14.46v16.32h-4.63Zm4.63-20.68h16.45c2.34,0,4.12-.52,5.32-1.55,1.2-1.04,1.81-2.56,1.81-4.56s-.6-3.49-1.81-4.58c-1.21-1.09-2.9-1.64-5.09-1.64h-16.69v12.33Z"/>
    <path class="cls-1" d="m702.43,418.91v-37.51h4.7v37.51h-4.7Z"/>
    <path class="cls-1" d="m712.73,418.91l18.28-37.3h3.85l18.48,37.3h-5.03l-5.07-10.04h-20.61l-4.93,10.04h-4.97Zm12.03-14.39h16.42l-8.24-16.52-8.18,16.52Z"/>
  </g>
</svg>